G75*
%MOIN*%
%OFA0B0*%
%FSLAX24Y24*%
%IPPOS*%
%LPD*%
%AMOC8*
5,1,8,0,0,1.08239X$1,22.5*
%
%ADD10C,0.0030*%
%ADD11C,0.0050*%
%ADD12C,0.0000*%
%ADD13C,0.0001*%
%ADD14C,0.0059*%
D10*
X003040Y000788D02*
X003163Y000665D01*
X003287Y000665D01*
X003410Y000788D01*
X003349Y000911D02*
X003102Y000911D01*
X003040Y000972D01*
X003040Y001096D01*
X003102Y001157D01*
X003040Y001279D02*
X003163Y001402D01*
X003287Y001402D01*
X003410Y001279D01*
X003349Y001157D02*
X003410Y001096D01*
X003410Y000972D01*
X003349Y000911D01*
X003349Y001893D02*
X003410Y001954D01*
X003410Y002078D01*
X003349Y002140D01*
X003287Y002140D01*
X003040Y001893D01*
X003040Y002140D01*
X003102Y002261D02*
X003349Y002508D01*
X003102Y002508D01*
X003040Y002446D01*
X003040Y002323D01*
X003102Y002261D01*
X003349Y002261D01*
X003410Y002323D01*
X003410Y002446D01*
X003349Y002508D01*
X003287Y002629D02*
X003410Y002753D01*
X003040Y002753D01*
X003040Y002876D02*
X003040Y002629D01*
X003102Y002998D02*
X003040Y003059D01*
X003040Y003183D01*
X003102Y003245D01*
X003225Y003245D01*
X003287Y003183D01*
X003287Y003121D01*
X003225Y002998D01*
X003410Y002998D01*
X003410Y003245D01*
X003410Y003734D02*
X003040Y003734D01*
X003040Y003919D01*
X003102Y003981D01*
X003349Y003981D01*
X003410Y003919D01*
X003410Y003734D01*
X003102Y004103D02*
X003102Y004164D01*
X003040Y004164D01*
X003040Y004103D01*
X003102Y004103D01*
X003040Y004655D02*
X003163Y004779D01*
X003040Y004902D01*
X003410Y004902D01*
X003287Y005085D02*
X003287Y005209D01*
X003225Y005270D01*
X003040Y005270D01*
X003040Y005085D01*
X003102Y005023D01*
X003163Y005085D01*
X003163Y005270D01*
X003225Y005392D02*
X003287Y005453D01*
X003287Y005639D01*
X003225Y005760D02*
X003287Y005822D01*
X003287Y006007D01*
X003225Y006128D02*
X003102Y006128D01*
X003040Y006190D01*
X003040Y006313D01*
X003163Y006375D02*
X003163Y006128D01*
X003225Y006128D02*
X003287Y006190D01*
X003287Y006313D01*
X003225Y006375D01*
X003163Y006375D01*
X003040Y006497D02*
X003287Y006497D01*
X003287Y006682D01*
X003225Y006744D01*
X003040Y006744D01*
X003040Y006865D02*
X003040Y007050D01*
X003102Y007112D01*
X003225Y007112D01*
X003287Y007050D01*
X003287Y006865D01*
X003410Y006865D02*
X003040Y006865D01*
X003102Y007233D02*
X003225Y007233D01*
X003287Y007295D01*
X003287Y007418D01*
X003225Y007480D01*
X003163Y007480D01*
X003163Y007233D01*
X003102Y007233D02*
X003040Y007295D01*
X003040Y007418D01*
X003040Y007602D02*
X003287Y007602D01*
X003287Y007725D02*
X003163Y007602D01*
X003287Y007725D02*
X003287Y007787D01*
X003225Y007909D02*
X003102Y007909D01*
X003040Y007970D01*
X003040Y008155D01*
X002978Y008155D02*
X003287Y008155D01*
X003287Y007970D01*
X003225Y007909D01*
X002917Y008032D02*
X002917Y008094D01*
X002978Y008155D01*
X003102Y009540D02*
X003040Y009602D01*
X003040Y009725D01*
X003102Y009787D01*
X003102Y009908D02*
X003040Y009970D01*
X003040Y010093D01*
X003102Y010155D01*
X003349Y010155D02*
X003410Y010093D01*
X003410Y009970D01*
X003349Y009908D01*
X003102Y009908D01*
X003349Y009787D02*
X003410Y009725D01*
X003410Y009602D01*
X003349Y009540D01*
X003102Y009540D01*
X003040Y010645D02*
X003040Y010830D01*
X003102Y010892D01*
X003163Y010892D01*
X003225Y010830D01*
X003225Y010645D01*
X003040Y010645D02*
X003410Y010645D01*
X003410Y010830D01*
X003349Y010892D01*
X003287Y010892D01*
X003225Y010830D01*
X003349Y011013D02*
X003225Y011137D01*
X003040Y011137D01*
X003225Y011137D02*
X003349Y011260D01*
X003410Y011260D01*
X003225Y011382D02*
X003225Y011628D01*
X003287Y011750D02*
X003225Y011812D01*
X003225Y011935D01*
X003163Y011997D01*
X003102Y011997D01*
X003040Y011935D01*
X003040Y011812D01*
X003102Y011750D01*
X003287Y011750D02*
X003349Y011750D01*
X003410Y011812D01*
X003410Y011935D01*
X003349Y011997D01*
X003287Y012118D02*
X003410Y012242D01*
X003287Y012365D01*
X003040Y012365D01*
X003225Y012365D02*
X003225Y012118D01*
X003287Y012118D02*
X003040Y012118D01*
X003225Y012855D02*
X003225Y013102D01*
X003102Y013223D02*
X003102Y013285D01*
X003040Y013285D01*
X003040Y013223D01*
X003102Y013223D01*
X003040Y013040D02*
X003410Y013040D01*
X003225Y012855D01*
X003102Y013407D02*
X003349Y013654D01*
X003102Y013654D01*
X003040Y013592D01*
X003040Y013469D01*
X003102Y013407D01*
X003349Y013407D01*
X003410Y013469D01*
X003410Y013592D01*
X003349Y013654D01*
X003410Y011013D02*
X003349Y011013D01*
X003102Y006007D02*
X003163Y005945D01*
X003163Y005822D01*
X003225Y005760D01*
X003102Y005639D02*
X003163Y005577D01*
X003163Y005453D01*
X003225Y005392D01*
X003040Y005392D02*
X003040Y005577D01*
X003102Y005639D01*
X003040Y005760D02*
X003040Y005945D01*
X003102Y006007D01*
X003040Y004655D02*
X003410Y004655D01*
X008667Y006751D02*
X008667Y006812D01*
X008728Y006874D01*
X009037Y006874D01*
X009160Y006995D02*
X009160Y007057D01*
X008790Y007057D01*
X008790Y006995D02*
X008790Y007119D01*
X008852Y007241D02*
X008790Y007303D01*
X008790Y007426D01*
X008852Y007488D01*
X008975Y007488D01*
X009037Y007426D01*
X009037Y007303D01*
X008975Y007241D01*
X008852Y007241D01*
X008852Y007609D02*
X008790Y007671D01*
X008790Y007856D01*
X008728Y007856D02*
X009037Y007856D01*
X009037Y007671D01*
X008975Y007609D01*
X008852Y007609D01*
X008667Y007733D02*
X008667Y007794D01*
X008728Y007856D01*
X008790Y007978D02*
X008790Y008101D01*
X008790Y008039D02*
X009037Y008039D01*
X009037Y007978D01*
X009160Y008039D02*
X009222Y008039D01*
X009037Y008285D02*
X008975Y008223D01*
X008852Y008223D01*
X008790Y008285D01*
X008790Y008470D01*
X008790Y008591D02*
X008790Y008653D01*
X008852Y008653D01*
X008852Y008591D01*
X008790Y008591D01*
X008852Y008776D02*
X008790Y008837D01*
X008790Y009022D01*
X008852Y009144D02*
X008790Y009206D01*
X008790Y009329D01*
X008852Y009391D01*
X008975Y009391D01*
X009037Y009329D01*
X009037Y009206D01*
X008975Y009144D01*
X008852Y009144D01*
X009037Y009022D02*
X009037Y008837D01*
X008975Y008776D01*
X008852Y008776D01*
X009037Y008470D02*
X009037Y008285D01*
X009037Y009512D02*
X008790Y009512D01*
X008790Y009636D02*
X008975Y009636D01*
X009037Y009697D01*
X008975Y009759D01*
X008790Y009759D01*
X008975Y009636D02*
X009037Y009574D01*
X009037Y009512D01*
X010915Y009452D02*
X010915Y009637D01*
X010977Y009699D01*
X011038Y009699D01*
X011100Y009637D01*
X011100Y009452D01*
X010915Y009452D02*
X011285Y009452D01*
X011285Y009637D01*
X011224Y009699D01*
X011162Y009699D01*
X011100Y009637D01*
X011038Y009820D02*
X011162Y009944D01*
X011162Y010006D01*
X011100Y010127D02*
X011162Y010189D01*
X011162Y010312D01*
X011100Y010374D01*
X011038Y010374D01*
X011038Y010127D01*
X010977Y010127D02*
X011100Y010127D01*
X010977Y010127D02*
X010915Y010189D01*
X010915Y010312D01*
X010977Y010496D02*
X011038Y010557D01*
X011038Y010743D01*
X011100Y010743D02*
X010915Y010743D01*
X010915Y010557D01*
X010977Y010496D01*
X011162Y010681D02*
X011100Y010743D01*
X011162Y010681D02*
X011162Y010557D01*
X011285Y010864D02*
X010915Y010864D01*
X011038Y010864D02*
X010915Y011049D01*
X010977Y011171D02*
X010915Y011233D01*
X010915Y011356D01*
X010977Y011418D01*
X011100Y011418D01*
X011162Y011356D01*
X011162Y011233D01*
X011100Y011171D01*
X010977Y011171D01*
X011162Y011049D02*
X011038Y010864D01*
X010977Y011539D02*
X010915Y011601D01*
X010915Y011786D01*
X011162Y011786D01*
X011162Y011908D02*
X011162Y012031D01*
X011224Y011969D02*
X010977Y011969D01*
X010915Y012031D01*
X010977Y011539D02*
X011162Y011539D01*
X011162Y012521D02*
X010915Y012645D01*
X011162Y012768D01*
X011162Y012890D02*
X011285Y013013D01*
X010915Y013013D01*
X010915Y012890D02*
X010915Y013137D01*
X010915Y009820D02*
X011162Y009820D01*
X011162Y008962D02*
X011162Y008900D01*
X011038Y008777D01*
X010915Y008777D02*
X011162Y008777D01*
X011100Y008655D02*
X011162Y008594D01*
X011162Y008470D01*
X011100Y008409D01*
X010977Y008409D01*
X010915Y008470D01*
X010915Y008594D01*
X010977Y008655D01*
X011100Y008655D01*
X011162Y008287D02*
X011162Y008102D01*
X011100Y008040D01*
X011038Y008102D01*
X011038Y008225D01*
X010977Y008287D01*
X010915Y008225D01*
X010915Y008040D01*
X010915Y007919D02*
X011100Y007919D01*
X011162Y007857D01*
X011162Y007672D01*
X010915Y007672D01*
X011038Y007550D02*
X011038Y007304D01*
X010977Y007304D02*
X011100Y007304D01*
X011162Y007365D01*
X011162Y007489D01*
X011100Y007550D01*
X011038Y007550D01*
X010915Y007489D02*
X010915Y007365D01*
X010977Y007304D01*
X010977Y007182D02*
X010915Y007120D01*
X010915Y006997D01*
X010977Y006935D01*
X011100Y006997D02*
X011100Y007120D01*
X011038Y007182D01*
X010977Y007182D01*
X011100Y006997D02*
X011162Y006935D01*
X011224Y006935D01*
X011285Y006997D01*
X011285Y007120D01*
X011224Y007182D01*
X010915Y006445D02*
X010915Y006321D01*
X010915Y006383D02*
X011162Y006383D01*
X011162Y006321D01*
X011100Y006200D02*
X010915Y006200D01*
X011100Y006200D02*
X011162Y006138D01*
X011162Y005953D01*
X010915Y005953D01*
X010915Y005831D02*
X010915Y005708D01*
X010915Y005769D02*
X011162Y005769D01*
X011162Y005708D01*
X011285Y005769D02*
X011347Y005769D01*
X011285Y005586D02*
X010915Y005586D01*
X010915Y005339D02*
X011285Y005339D01*
X011162Y005463D01*
X011285Y005586D01*
X011100Y004849D02*
X010977Y004849D01*
X010915Y004788D01*
X010915Y004664D01*
X010977Y004603D01*
X011100Y004603D01*
X011162Y004664D01*
X011162Y004788D01*
X011100Y004849D01*
X011162Y004481D02*
X011162Y004419D01*
X011038Y004296D01*
X010915Y004296D02*
X011162Y004296D01*
X011224Y004174D02*
X011100Y004174D01*
X011038Y004113D01*
X011038Y003927D01*
X010915Y003927D02*
X011285Y003927D01*
X011285Y004113D01*
X011224Y004174D01*
X011100Y003438D02*
X010977Y003438D01*
X010915Y003376D01*
X010915Y003252D01*
X010977Y003191D01*
X011100Y003191D01*
X011162Y003252D01*
X011162Y003376D01*
X011100Y003438D01*
X011100Y003069D02*
X010915Y003069D01*
X011100Y003069D02*
X011162Y003008D01*
X011162Y002822D01*
X010915Y002822D01*
X010915Y002700D02*
X010915Y002577D01*
X010915Y002639D02*
X011162Y002639D01*
X011162Y002577D01*
X011162Y002455D02*
X010915Y002455D01*
X010915Y002270D01*
X010977Y002209D01*
X011162Y002209D01*
X011162Y002087D02*
X011162Y001902D01*
X011100Y001840D01*
X010977Y001840D01*
X010915Y001902D01*
X010915Y002087D01*
X011285Y002087D01*
X011162Y001718D02*
X011162Y001657D01*
X011038Y001533D01*
X010915Y001533D02*
X011162Y001533D01*
X011162Y001412D02*
X010915Y001412D01*
X011100Y001412D02*
X011100Y001165D01*
X011162Y001165D02*
X010915Y001165D01*
X011162Y001165D02*
X011285Y001288D01*
X011162Y001412D01*
X011285Y002639D02*
X011347Y002639D01*
X009160Y004787D02*
X008790Y004787D01*
X008790Y004602D01*
X008852Y004540D01*
X008975Y004540D01*
X009037Y004602D01*
X009037Y004787D01*
X008975Y004908D02*
X009037Y004970D01*
X009037Y005093D01*
X008975Y005155D01*
X008913Y005155D01*
X008913Y004908D01*
X008852Y004908D02*
X008975Y004908D01*
X008852Y004908D02*
X008790Y004970D01*
X008790Y005093D01*
X008852Y005277D02*
X008913Y005338D01*
X008913Y005524D01*
X008975Y005524D02*
X008790Y005524D01*
X008790Y005338D01*
X008852Y005277D01*
X009037Y005462D02*
X008975Y005524D01*
X009037Y005462D02*
X009037Y005338D01*
X009037Y005645D02*
X009037Y005768D01*
X009099Y005707D02*
X008852Y005707D01*
X008790Y005768D01*
X008790Y005890D02*
X009160Y005890D01*
X009037Y005952D02*
X009037Y006076D01*
X008975Y006137D01*
X008790Y006137D01*
X008790Y006259D02*
X008790Y006444D01*
X008852Y006506D01*
X008975Y006506D01*
X009037Y006444D01*
X009037Y006259D01*
X009160Y006259D02*
X008790Y006259D01*
X008852Y006627D02*
X008790Y006689D01*
X008790Y006874D01*
X008852Y006627D02*
X009037Y006627D01*
X009037Y005952D02*
X008975Y005890D01*
X011285Y006383D02*
X011347Y006383D01*
D11*
X010650Y000650D02*
X003650Y000650D01*
X003650Y013650D01*
X010650Y013650D01*
X010650Y000650D01*
D12*
X009527Y013849D02*
X009443Y013846D01*
X009358Y013850D01*
X009274Y013862D01*
X009193Y013884D01*
X009116Y013919D01*
X009106Y013928D01*
X009119Y013939D01*
X009183Y013986D01*
X009248Y014030D01*
X009315Y014071D01*
X009384Y014109D01*
X009454Y014145D01*
X009526Y014178D01*
X009598Y014208D01*
X009672Y014236D01*
X009595Y014232D01*
X009517Y014229D01*
X009440Y014226D01*
X009362Y014225D01*
X009285Y014224D01*
X009207Y014224D01*
X009145Y014274D01*
X009108Y014345D01*
X009082Y014422D01*
X009065Y014502D01*
X009053Y014582D01*
X009044Y014663D01*
X009012Y014600D01*
X008986Y014534D01*
X008965Y014467D01*
X008917Y014493D01*
X008868Y014520D01*
X008912Y014566D01*
X008957Y014613D01*
X008899Y014558D01*
X008841Y014503D01*
X008809Y014536D01*
X008777Y014569D01*
X008837Y014618D01*
X008897Y014667D01*
X008858Y014642D01*
X008819Y014618D01*
X008802Y014662D01*
X008784Y014705D01*
X008842Y014749D01*
X008904Y014788D01*
X008969Y014823D01*
X009035Y014853D01*
X009035Y014874D01*
X009035Y014910D01*
X009035Y014971D01*
X009037Y015031D01*
X008955Y015059D01*
X008876Y015095D01*
X008804Y015142D01*
X008820Y015191D01*
X008835Y015239D01*
X008912Y015220D01*
X008853Y015256D01*
X008793Y015292D01*
X008825Y015338D01*
X008856Y015383D01*
X008914Y015329D01*
X008972Y015274D01*
X008928Y015320D01*
X008883Y015367D01*
X008932Y015393D01*
X008980Y015420D01*
X008999Y015356D01*
X009023Y015295D01*
X009053Y015235D01*
X009065Y015314D01*
X009083Y015391D01*
X009108Y015467D01*
X009146Y015536D01*
X009209Y015581D01*
X009293Y015581D01*
X009376Y015580D01*
X009460Y015579D01*
X009544Y015576D01*
X009627Y015573D01*
X009547Y015604D01*
X009468Y015639D01*
X009390Y015677D01*
X009315Y015718D01*
X009240Y015762D01*
X009168Y015809D01*
X009099Y015861D01*
X009086Y015872D01*
X009095Y015881D01*
X009172Y015916D01*
X009254Y015938D01*
X009337Y015950D01*
X009422Y015954D01*
X009507Y015951D01*
X009591Y015942D01*
X009674Y015927D01*
X009756Y015907D01*
X009838Y015884D01*
X009918Y015856D01*
X009997Y015825D01*
X010069Y015794D01*
X010142Y015762D01*
X010213Y015728D01*
X010283Y015692D01*
X010353Y015654D01*
X010420Y015612D01*
X010484Y015566D01*
X010541Y015511D01*
X010577Y015442D01*
X010660Y015418D01*
X010742Y015390D01*
X010822Y015359D01*
X010901Y015323D01*
X010977Y015282D01*
X011050Y015235D01*
X011117Y015181D01*
X011177Y015119D01*
X011226Y015048D01*
X011260Y014969D01*
X011273Y014884D01*
X011273Y014874D01*
X011273Y014874D01*
X011019Y014874D01*
X011055Y014828D01*
X011080Y014764D01*
X011077Y014694D01*
X011047Y014632D01*
X010980Y014581D01*
X010903Y014544D01*
X010823Y014515D01*
X010742Y014490D01*
X010660Y014467D01*
X010578Y014447D01*
X010495Y014428D01*
X010412Y014411D01*
X010328Y014395D01*
X010244Y014381D01*
X010160Y014369D01*
X010076Y014357D01*
X009992Y014347D01*
X009907Y014339D01*
X009822Y014332D01*
X009737Y014327D01*
X009652Y014324D01*
X009567Y014324D01*
X009482Y014328D01*
X009398Y014335D01*
X009314Y014350D01*
X009234Y014379D01*
X009175Y014437D01*
X009148Y014516D01*
X009128Y014596D01*
X009113Y014678D01*
X009103Y014761D01*
X009097Y014844D01*
X009097Y014874D01*
X009035Y014874D01*
X009097Y014874D01*
X009097Y014927D01*
X009098Y015006D01*
X009101Y015086D01*
X009108Y015165D01*
X009118Y015244D01*
X009133Y015322D01*
X009159Y015397D01*
X009208Y015457D01*
X009292Y015459D01*
X009376Y015460D01*
X009460Y015461D01*
X009544Y015460D01*
X009628Y015459D01*
X009712Y015457D01*
X009796Y015455D01*
X009880Y015451D01*
X009964Y015446D01*
X010048Y015440D01*
X010131Y015432D01*
X010215Y015423D01*
X010298Y015413D01*
X010381Y015400D01*
X010464Y015386D01*
X010546Y015369D01*
X010628Y015349D01*
X010709Y015326D01*
X010788Y015299D01*
X010866Y015267D01*
X010940Y015228D01*
X011009Y015180D01*
X011068Y015120D01*
X011103Y015045D01*
X011103Y015035D01*
X011091Y014978D01*
X011056Y014932D01*
X011007Y014901D01*
X011012Y014883D01*
X011019Y014874D01*
X011273Y014874D01*
X011271Y014858D01*
X011259Y014778D01*
X011226Y014704D01*
X011177Y014639D01*
X011117Y014583D01*
X011051Y014536D01*
X010980Y014496D01*
X010906Y014462D01*
X010831Y014431D01*
X010754Y014405D01*
X010676Y014381D01*
X010597Y014360D01*
X010563Y014290D01*
X010506Y014236D01*
X010442Y014189D01*
X010375Y014147D01*
X010305Y014108D01*
X010235Y014072D01*
X010163Y014038D01*
X010090Y014006D01*
X010017Y013975D01*
X009939Y013944D01*
X009858Y013916D01*
X009777Y013893D01*
X009695Y013873D01*
X009612Y013858D01*
X009527Y013849D01*
X010474Y014849D02*
X010420Y014899D01*
X010374Y014956D01*
X010338Y015020D01*
X010405Y015045D01*
X010475Y015059D01*
X010546Y015060D01*
X010617Y015047D01*
X010631Y014980D01*
X010632Y014912D01*
X010623Y014845D01*
X010603Y014780D01*
X010536Y014809D01*
X010474Y014849D01*
X010709Y014792D02*
X010722Y014749D01*
X010761Y014726D01*
X010761Y014726D01*
X010807Y014724D01*
X010841Y014752D01*
X010828Y014794D01*
X010789Y014818D01*
X010743Y014820D01*
X010709Y014792D01*
X010774Y014947D02*
X010817Y014956D01*
X010843Y014990D01*
X010843Y014990D01*
X010820Y015026D01*
X010778Y015038D01*
X010734Y015030D01*
X010709Y014996D01*
X010731Y014960D01*
X010774Y014947D01*
D13*
X010773Y014947D02*
X010775Y014947D01*
X010770Y014948D02*
X010780Y014948D01*
X010785Y014949D02*
X010767Y014949D01*
X010763Y014950D02*
X010790Y014950D01*
X010795Y014951D02*
X010760Y014951D01*
X010756Y014952D02*
X010800Y014952D01*
X010805Y014953D02*
X010753Y014953D01*
X010749Y014954D02*
X010809Y014954D01*
X010814Y014955D02*
X010746Y014955D01*
X010742Y014956D02*
X010818Y014956D01*
X010818Y014957D02*
X010739Y014957D01*
X010736Y014958D02*
X010819Y014958D01*
X010820Y014959D02*
X010732Y014959D01*
X010731Y014960D02*
X010821Y014960D01*
X010821Y014961D02*
X010730Y014961D01*
X010730Y014962D02*
X010822Y014962D01*
X010823Y014963D02*
X010729Y014963D01*
X010728Y014964D02*
X010824Y014964D01*
X010824Y014965D02*
X010728Y014965D01*
X010727Y014966D02*
X010825Y014966D01*
X010826Y014967D02*
X010727Y014967D01*
X010726Y014968D02*
X010827Y014968D01*
X010827Y014969D02*
X010725Y014969D01*
X010725Y014970D02*
X010828Y014970D01*
X010829Y014971D02*
X010724Y014971D01*
X010723Y014972D02*
X010830Y014972D01*
X010830Y014973D02*
X010723Y014973D01*
X010722Y014974D02*
X010831Y014974D01*
X010832Y014975D02*
X010721Y014975D01*
X010721Y014976D02*
X010833Y014976D01*
X010833Y014977D02*
X010720Y014977D01*
X010720Y014978D02*
X010834Y014978D01*
X010835Y014979D02*
X010719Y014979D01*
X010718Y014980D02*
X010836Y014980D01*
X010837Y014981D02*
X010718Y014981D01*
X010717Y014982D02*
X010837Y014982D01*
X010838Y014983D02*
X010716Y014983D01*
X010716Y014984D02*
X010839Y014984D01*
X010840Y014985D02*
X010715Y014985D01*
X010714Y014986D02*
X010840Y014986D01*
X010841Y014987D02*
X010714Y014987D01*
X010713Y014988D02*
X010842Y014988D01*
X010843Y014989D02*
X010713Y014989D01*
X010712Y014990D02*
X010843Y014990D01*
X010842Y014991D02*
X010711Y014991D01*
X010711Y014992D02*
X010841Y014992D01*
X010841Y014993D02*
X010710Y014993D01*
X010709Y014994D02*
X010840Y014994D01*
X010840Y014995D02*
X010709Y014995D01*
X010709Y014996D02*
X010839Y014996D01*
X010838Y014997D02*
X010710Y014997D01*
X010711Y014998D02*
X010838Y014998D01*
X010837Y014999D02*
X010712Y014999D01*
X010712Y015000D02*
X010836Y015000D01*
X010836Y015001D02*
X010713Y015001D01*
X010714Y015002D02*
X010835Y015002D01*
X010835Y015003D02*
X010715Y015003D01*
X010715Y015004D02*
X010834Y015004D01*
X010833Y015005D02*
X010716Y015005D01*
X010717Y015006D02*
X010833Y015006D01*
X010832Y015007D02*
X010718Y015007D01*
X010718Y015008D02*
X010831Y015008D01*
X010831Y015009D02*
X010719Y015009D01*
X010720Y015010D02*
X010830Y015010D01*
X010829Y015011D02*
X010721Y015011D01*
X010721Y015012D02*
X010829Y015012D01*
X010828Y015013D02*
X010722Y015013D01*
X010723Y015014D02*
X010828Y015014D01*
X010827Y015015D02*
X010724Y015015D01*
X010724Y015016D02*
X010826Y015016D01*
X010826Y015017D02*
X010725Y015017D01*
X010726Y015018D02*
X010825Y015018D01*
X010824Y015019D02*
X010727Y015019D01*
X010727Y015020D02*
X010824Y015020D01*
X010823Y015021D02*
X010728Y015021D01*
X010729Y015022D02*
X010823Y015022D01*
X010822Y015023D02*
X010730Y015023D01*
X010730Y015024D02*
X010821Y015024D01*
X010821Y015025D02*
X010731Y015025D01*
X010732Y015026D02*
X010819Y015026D01*
X010815Y015027D02*
X010733Y015027D01*
X010733Y015028D02*
X010812Y015028D01*
X010809Y015029D02*
X010734Y015029D01*
X010738Y015030D02*
X010805Y015030D01*
X010802Y015031D02*
X010743Y015031D01*
X010748Y015032D02*
X010798Y015032D01*
X010795Y015033D02*
X010753Y015033D01*
X010758Y015034D02*
X010791Y015034D01*
X010788Y015035D02*
X010763Y015035D01*
X010768Y015036D02*
X010784Y015036D01*
X010781Y015037D02*
X010773Y015037D01*
X010626Y015004D02*
X010347Y015004D01*
X010347Y015003D02*
X010626Y015003D01*
X010626Y015002D02*
X010348Y015002D01*
X010348Y015001D02*
X010626Y015001D01*
X010627Y015000D02*
X010349Y015000D01*
X010349Y014999D02*
X010627Y014999D01*
X010627Y014998D02*
X010350Y014998D01*
X010350Y014997D02*
X010627Y014997D01*
X010628Y014996D02*
X010351Y014996D01*
X010352Y014995D02*
X010628Y014995D01*
X010628Y014994D02*
X010352Y014994D01*
X010353Y014993D02*
X010628Y014993D01*
X010628Y014992D02*
X010353Y014992D01*
X010354Y014991D02*
X010629Y014991D01*
X010629Y014990D02*
X010354Y014990D01*
X010355Y014989D02*
X010629Y014989D01*
X010629Y014988D02*
X010355Y014988D01*
X010356Y014987D02*
X010630Y014987D01*
X010630Y014986D02*
X010357Y014986D01*
X010357Y014985D02*
X010630Y014985D01*
X010630Y014984D02*
X010358Y014984D01*
X010358Y014983D02*
X010630Y014983D01*
X010631Y014982D02*
X010359Y014982D01*
X010359Y014981D02*
X010631Y014981D01*
X010631Y014980D02*
X010360Y014980D01*
X010361Y014979D02*
X010631Y014979D01*
X010631Y014978D02*
X010361Y014978D01*
X010362Y014977D02*
X010631Y014977D01*
X010631Y014976D02*
X010362Y014976D01*
X010363Y014975D02*
X010631Y014975D01*
X010631Y014974D02*
X010363Y014974D01*
X010364Y014973D02*
X010631Y014973D01*
X010631Y014972D02*
X010364Y014972D01*
X010365Y014971D02*
X010631Y014971D01*
X010631Y014970D02*
X010366Y014970D01*
X010366Y014969D02*
X010631Y014969D01*
X010631Y014968D02*
X010367Y014968D01*
X010367Y014967D02*
X010631Y014967D01*
X010631Y014966D02*
X010368Y014966D01*
X010368Y014965D02*
X010631Y014965D01*
X010631Y014964D02*
X010369Y014964D01*
X010370Y014963D02*
X010631Y014963D01*
X010631Y014962D02*
X010370Y014962D01*
X010371Y014961D02*
X010631Y014961D01*
X010631Y014960D02*
X010371Y014960D01*
X010372Y014959D02*
X010631Y014959D01*
X010632Y014958D02*
X010372Y014958D01*
X010373Y014957D02*
X010632Y014957D01*
X010632Y014956D02*
X010373Y014956D01*
X010374Y014955D02*
X010632Y014955D01*
X010632Y014954D02*
X010375Y014954D01*
X010376Y014953D02*
X010632Y014953D01*
X010632Y014952D02*
X010377Y014952D01*
X010377Y014951D02*
X010632Y014951D01*
X010632Y014950D02*
X010378Y014950D01*
X010379Y014949D02*
X010632Y014949D01*
X010632Y014948D02*
X010380Y014948D01*
X010381Y014947D02*
X010632Y014947D01*
X010632Y014946D02*
X010381Y014946D01*
X010382Y014945D02*
X010632Y014945D01*
X010632Y014944D02*
X010383Y014944D01*
X010384Y014943D02*
X010632Y014943D01*
X010632Y014942D02*
X010385Y014942D01*
X010385Y014941D02*
X010632Y014941D01*
X010632Y014940D02*
X010386Y014940D01*
X010387Y014939D02*
X010632Y014939D01*
X010632Y014938D02*
X010388Y014938D01*
X010389Y014937D02*
X010632Y014937D01*
X010632Y014936D02*
X010389Y014936D01*
X010390Y014935D02*
X010632Y014935D01*
X010632Y014934D02*
X010391Y014934D01*
X010392Y014933D02*
X010632Y014933D01*
X010632Y014932D02*
X010393Y014932D01*
X010393Y014931D02*
X010632Y014931D01*
X010632Y014930D02*
X010394Y014930D01*
X010395Y014929D02*
X010632Y014929D01*
X010632Y014928D02*
X010396Y014928D01*
X010397Y014927D02*
X010632Y014927D01*
X010632Y014926D02*
X010398Y014926D01*
X010398Y014925D02*
X010632Y014925D01*
X010632Y014924D02*
X010399Y014924D01*
X010400Y014923D02*
X010632Y014923D01*
X010632Y014922D02*
X010401Y014922D01*
X010402Y014921D02*
X010632Y014921D01*
X010632Y014920D02*
X010402Y014920D01*
X010403Y014919D02*
X010632Y014919D01*
X010632Y014918D02*
X010404Y014918D01*
X010405Y014917D02*
X010632Y014917D01*
X010632Y014916D02*
X010406Y014916D01*
X010406Y014915D02*
X010632Y014915D01*
X010632Y014914D02*
X010407Y014914D01*
X010408Y014913D02*
X010632Y014913D01*
X010632Y014912D02*
X010409Y014912D01*
X010410Y014911D02*
X010632Y014911D01*
X010632Y014910D02*
X010410Y014910D01*
X010411Y014909D02*
X010632Y014909D01*
X010632Y014908D02*
X010412Y014908D01*
X010413Y014907D02*
X010632Y014907D01*
X010631Y014906D02*
X010414Y014906D01*
X010414Y014905D02*
X010631Y014905D01*
X010631Y014904D02*
X010415Y014904D01*
X010416Y014903D02*
X010631Y014903D01*
X010631Y014902D02*
X010417Y014902D01*
X010418Y014901D02*
X010631Y014901D01*
X010631Y014900D02*
X010418Y014900D01*
X010419Y014899D02*
X010630Y014899D01*
X010630Y014898D02*
X010420Y014898D01*
X010421Y014897D02*
X010630Y014897D01*
X010630Y014896D02*
X010422Y014896D01*
X010423Y014895D02*
X010630Y014895D01*
X010630Y014894D02*
X010425Y014894D01*
X010426Y014893D02*
X010630Y014893D01*
X010629Y014892D02*
X010427Y014892D01*
X010428Y014891D02*
X010629Y014891D01*
X010629Y014890D02*
X010429Y014890D01*
X010430Y014889D02*
X010629Y014889D01*
X010629Y014888D02*
X010431Y014888D01*
X010432Y014887D02*
X010629Y014887D01*
X010628Y014886D02*
X010433Y014886D01*
X010434Y014885D02*
X010628Y014885D01*
X010628Y014884D02*
X010436Y014884D01*
X010437Y014883D02*
X010628Y014883D01*
X010628Y014882D02*
X010438Y014882D01*
X010439Y014881D02*
X010628Y014881D01*
X010628Y014880D02*
X010440Y014880D01*
X010441Y014879D02*
X010627Y014879D01*
X010627Y014878D02*
X010442Y014878D01*
X010443Y014877D02*
X010627Y014877D01*
X010627Y014876D02*
X010444Y014876D01*
X010446Y014875D02*
X010627Y014875D01*
X010627Y014874D02*
X010447Y014874D01*
X010448Y014873D02*
X010627Y014873D01*
X010626Y014872D02*
X010449Y014872D01*
X010450Y014871D02*
X010626Y014871D01*
X010626Y014870D02*
X010451Y014870D01*
X010452Y014869D02*
X010626Y014869D01*
X010626Y014868D02*
X010453Y014868D01*
X010454Y014868D02*
X010626Y014868D01*
X010626Y014867D02*
X010455Y014867D01*
X010457Y014866D02*
X010625Y014866D01*
X010625Y014865D02*
X010458Y014865D01*
X010459Y014864D02*
X010625Y014864D01*
X010625Y014863D02*
X010460Y014863D01*
X010461Y014862D02*
X010625Y014862D01*
X010625Y014861D02*
X010462Y014861D01*
X010463Y014860D02*
X010625Y014860D01*
X010624Y014859D02*
X010464Y014859D01*
X010465Y014858D02*
X010624Y014858D01*
X010624Y014857D02*
X010466Y014857D01*
X010468Y014856D02*
X010624Y014856D01*
X010624Y014855D02*
X010469Y014855D01*
X010470Y014854D02*
X010624Y014854D01*
X010624Y014853D02*
X010471Y014853D01*
X010472Y014852D02*
X010623Y014852D01*
X010623Y014851D02*
X010473Y014851D01*
X010474Y014850D02*
X010623Y014850D01*
X010623Y014849D02*
X010476Y014849D01*
X010477Y014848D02*
X010623Y014848D01*
X010623Y014847D02*
X010479Y014847D01*
X010480Y014846D02*
X010623Y014846D01*
X010622Y014845D02*
X010482Y014845D01*
X010483Y014844D02*
X010622Y014844D01*
X010622Y014843D02*
X010485Y014843D01*
X010486Y014842D02*
X010621Y014842D01*
X010621Y014841D02*
X010488Y014841D01*
X010490Y014840D02*
X010621Y014840D01*
X010621Y014839D02*
X010491Y014839D01*
X010493Y014838D02*
X010620Y014838D01*
X010620Y014837D02*
X010494Y014837D01*
X010496Y014836D02*
X010620Y014836D01*
X010619Y014835D02*
X010497Y014835D01*
X010499Y014834D02*
X010619Y014834D01*
X010619Y014833D02*
X010500Y014833D01*
X010502Y014832D02*
X010619Y014832D01*
X010618Y014831D02*
X010503Y014831D01*
X010505Y014830D02*
X010618Y014830D01*
X010618Y014829D02*
X010507Y014829D01*
X010508Y014828D02*
X010617Y014828D01*
X010617Y014827D02*
X010510Y014827D01*
X010511Y014826D02*
X010617Y014826D01*
X010616Y014825D02*
X010513Y014825D01*
X010514Y014824D02*
X010616Y014824D01*
X010616Y014823D02*
X010516Y014823D01*
X010517Y014822D02*
X010616Y014822D01*
X010615Y014821D02*
X010519Y014821D01*
X010520Y014820D02*
X010615Y014820D01*
X010615Y014819D02*
X010522Y014819D01*
X010523Y014818D02*
X010614Y014818D01*
X010614Y014817D02*
X010525Y014817D01*
X010527Y014816D02*
X010614Y014816D01*
X010614Y014815D02*
X010528Y014815D01*
X010530Y014814D02*
X010613Y014814D01*
X010613Y014813D02*
X010531Y014813D01*
X010533Y014812D02*
X010613Y014812D01*
X010612Y014811D02*
X010534Y014811D01*
X010536Y014810D02*
X010612Y014810D01*
X010612Y014809D02*
X010538Y014809D01*
X010540Y014808D02*
X010611Y014808D01*
X010611Y014807D02*
X010543Y014807D01*
X010545Y014806D02*
X010611Y014806D01*
X010611Y014805D02*
X010547Y014805D01*
X010549Y014804D02*
X010610Y014804D01*
X010610Y014803D02*
X010552Y014803D01*
X010554Y014802D02*
X010610Y014802D01*
X010609Y014801D02*
X010556Y014801D01*
X010559Y014800D02*
X010609Y014800D01*
X010609Y014799D02*
X010561Y014799D01*
X010563Y014798D02*
X010609Y014798D01*
X010608Y014797D02*
X010565Y014797D01*
X010568Y014796D02*
X010608Y014796D01*
X010608Y014795D02*
X010570Y014795D01*
X010572Y014794D02*
X010607Y014794D01*
X010607Y014793D02*
X010574Y014793D01*
X010577Y014792D02*
X010607Y014792D01*
X010607Y014791D02*
X010579Y014791D01*
X010581Y014790D02*
X010606Y014790D01*
X010606Y014789D02*
X010584Y014789D01*
X010586Y014788D02*
X010606Y014788D01*
X010605Y014787D02*
X010588Y014787D01*
X010590Y014786D02*
X010605Y014786D01*
X010605Y014785D02*
X010593Y014785D01*
X010595Y014784D02*
X010604Y014784D01*
X010604Y014783D02*
X010597Y014783D01*
X010600Y014782D02*
X010604Y014782D01*
X010604Y014781D02*
X010602Y014781D01*
X010709Y014792D02*
X010829Y014792D01*
X010828Y014793D02*
X010710Y014793D01*
X010711Y014794D02*
X010828Y014794D01*
X010827Y014795D02*
X010712Y014795D01*
X010714Y014796D02*
X010825Y014796D01*
X010824Y014797D02*
X010715Y014797D01*
X010716Y014798D02*
X010822Y014798D01*
X010820Y014799D02*
X010717Y014799D01*
X010719Y014800D02*
X010819Y014800D01*
X010817Y014801D02*
X010720Y014801D01*
X010721Y014802D02*
X010815Y014802D01*
X010814Y014803D02*
X010722Y014803D01*
X010723Y014804D02*
X010812Y014804D01*
X010810Y014805D02*
X010725Y014805D01*
X010726Y014806D02*
X010809Y014806D01*
X010807Y014807D02*
X010727Y014807D01*
X010728Y014808D02*
X010805Y014808D01*
X010804Y014809D02*
X010730Y014809D01*
X010731Y014810D02*
X010802Y014810D01*
X010800Y014811D02*
X010732Y014811D01*
X010733Y014812D02*
X010799Y014812D01*
X010797Y014813D02*
X010734Y014813D01*
X010736Y014814D02*
X010795Y014814D01*
X010794Y014815D02*
X010737Y014815D01*
X010738Y014816D02*
X010792Y014816D01*
X010790Y014817D02*
X010739Y014817D01*
X010741Y014818D02*
X010788Y014818D01*
X010765Y014819D02*
X010742Y014819D01*
X010743Y014820D02*
X010743Y014820D01*
X010709Y014791D02*
X010829Y014791D01*
X010829Y014790D02*
X010709Y014790D01*
X010710Y014789D02*
X010830Y014789D01*
X010830Y014788D02*
X010710Y014788D01*
X010710Y014787D02*
X010830Y014787D01*
X010830Y014786D02*
X010711Y014786D01*
X010711Y014785D02*
X010831Y014785D01*
X010831Y014784D02*
X010711Y014784D01*
X010712Y014783D02*
X010831Y014783D01*
X010832Y014782D02*
X010712Y014782D01*
X010712Y014781D02*
X010832Y014781D01*
X010832Y014780D02*
X010713Y014780D01*
X010713Y014779D02*
X010833Y014779D01*
X010833Y014778D02*
X010713Y014778D01*
X010714Y014777D02*
X010833Y014777D01*
X010834Y014776D02*
X010714Y014776D01*
X010714Y014775D02*
X010834Y014775D01*
X010834Y014774D02*
X010714Y014774D01*
X010715Y014773D02*
X010834Y014773D01*
X010835Y014772D02*
X010715Y014772D01*
X010715Y014771D02*
X010835Y014771D01*
X010835Y014770D02*
X010716Y014770D01*
X010716Y014769D02*
X010836Y014769D01*
X010836Y014768D02*
X010716Y014768D01*
X010717Y014767D02*
X010836Y014767D01*
X010837Y014766D02*
X010717Y014766D01*
X010717Y014765D02*
X010837Y014765D01*
X010837Y014764D02*
X010718Y014764D01*
X010718Y014763D02*
X010838Y014763D01*
X010838Y014762D02*
X010718Y014762D01*
X010718Y014761D02*
X010838Y014761D01*
X010839Y014760D02*
X010719Y014760D01*
X010719Y014759D02*
X010839Y014759D01*
X010839Y014758D02*
X010719Y014758D01*
X010720Y014757D02*
X010839Y014757D01*
X010840Y014756D02*
X010720Y014756D01*
X010720Y014755D02*
X010840Y014755D01*
X010840Y014754D02*
X010721Y014754D01*
X010721Y014753D02*
X010841Y014753D01*
X010841Y014752D02*
X010721Y014752D01*
X010722Y014751D02*
X010839Y014751D01*
X010838Y014750D02*
X010722Y014750D01*
X010723Y014749D02*
X010837Y014749D01*
X010836Y014748D02*
X010725Y014748D01*
X010727Y014747D02*
X010834Y014747D01*
X010833Y014746D02*
X010728Y014746D01*
X010730Y014745D02*
X010832Y014745D01*
X010831Y014744D02*
X010732Y014744D01*
X010733Y014743D02*
X010830Y014743D01*
X010828Y014742D02*
X010735Y014742D01*
X010737Y014741D02*
X010827Y014741D01*
X010826Y014740D02*
X010738Y014740D01*
X010740Y014739D02*
X010825Y014739D01*
X010824Y014738D02*
X010742Y014738D01*
X010743Y014737D02*
X010822Y014737D01*
X010821Y014736D02*
X010745Y014736D01*
X010747Y014735D02*
X010820Y014735D01*
X010819Y014734D02*
X010748Y014734D01*
X010750Y014733D02*
X010817Y014733D01*
X010816Y014732D02*
X010752Y014732D01*
X010753Y014731D02*
X010815Y014731D01*
X010814Y014730D02*
X010755Y014730D01*
X010757Y014729D02*
X010813Y014729D01*
X010811Y014728D02*
X010758Y014728D01*
X010760Y014727D02*
X010810Y014727D01*
X010809Y014726D02*
X010768Y014726D01*
X010791Y014725D02*
X010808Y014725D01*
X010877Y014535D02*
X011048Y014535D01*
X011050Y014536D02*
X010880Y014536D01*
X010882Y014537D02*
X011051Y014537D01*
X011053Y014538D02*
X010885Y014538D01*
X010888Y014539D02*
X011054Y014539D01*
X011056Y014540D02*
X010890Y014540D01*
X010893Y014541D02*
X011057Y014541D01*
X011058Y014542D02*
X010896Y014542D01*
X010899Y014543D02*
X011060Y014543D01*
X011061Y014544D02*
X010901Y014544D01*
X010904Y014545D02*
X011063Y014545D01*
X011064Y014546D02*
X010906Y014546D01*
X010908Y014547D02*
X011065Y014547D01*
X011067Y014548D02*
X010910Y014548D01*
X010912Y014549D02*
X011068Y014549D01*
X011070Y014550D02*
X010914Y014550D01*
X010917Y014551D02*
X011071Y014551D01*
X011073Y014552D02*
X010919Y014552D01*
X010921Y014553D02*
X011074Y014553D01*
X011075Y014554D02*
X010923Y014554D01*
X010925Y014555D02*
X011077Y014555D01*
X011078Y014556D02*
X010927Y014556D01*
X010929Y014557D02*
X011080Y014557D01*
X011081Y014558D02*
X010932Y014558D01*
X010934Y014559D02*
X011082Y014559D01*
X011084Y014560D02*
X010936Y014560D01*
X010938Y014561D02*
X011085Y014561D01*
X011087Y014562D02*
X010940Y014562D01*
X010942Y014563D02*
X011088Y014563D01*
X011090Y014564D02*
X010944Y014564D01*
X010946Y014565D02*
X011091Y014565D01*
X011092Y014566D02*
X010949Y014566D01*
X010951Y014567D02*
X011094Y014567D01*
X011095Y014568D02*
X010953Y014568D01*
X010955Y014569D02*
X011097Y014569D01*
X011098Y014570D02*
X010957Y014570D01*
X010959Y014571D02*
X011099Y014571D01*
X011101Y014572D02*
X010961Y014572D01*
X010964Y014573D02*
X011102Y014573D01*
X011104Y014574D02*
X010966Y014574D01*
X010968Y014575D02*
X011105Y014575D01*
X011106Y014576D02*
X010970Y014576D01*
X010972Y014577D02*
X011108Y014577D01*
X011109Y014578D02*
X010974Y014578D01*
X010976Y014579D02*
X011111Y014579D01*
X011112Y014580D02*
X010978Y014580D01*
X010980Y014581D02*
X011114Y014581D01*
X011115Y014582D02*
X010982Y014582D01*
X010983Y014583D02*
X011116Y014583D01*
X011118Y014584D02*
X010984Y014584D01*
X010986Y014585D02*
X011119Y014585D01*
X011120Y014586D02*
X010987Y014586D01*
X010988Y014587D02*
X011121Y014587D01*
X011122Y014588D02*
X010989Y014588D01*
X010991Y014589D02*
X011123Y014589D01*
X011124Y014590D02*
X010992Y014590D01*
X010993Y014591D02*
X011125Y014591D01*
X011126Y014592D02*
X010995Y014592D01*
X010996Y014593D02*
X011127Y014593D01*
X011128Y014594D02*
X010997Y014594D01*
X010998Y014595D02*
X011130Y014595D01*
X011131Y014596D02*
X011000Y014596D01*
X011001Y014597D02*
X011132Y014597D01*
X011133Y014598D02*
X011002Y014598D01*
X011004Y014599D02*
X011134Y014599D01*
X011135Y014600D02*
X011005Y014600D01*
X011006Y014601D02*
X011136Y014601D01*
X011137Y014602D02*
X011007Y014602D01*
X011009Y014603D02*
X011138Y014603D01*
X011139Y014604D02*
X011010Y014604D01*
X011011Y014605D02*
X011140Y014605D01*
X011141Y014606D02*
X011013Y014606D01*
X011014Y014607D02*
X011142Y014607D01*
X011144Y014608D02*
X011015Y014608D01*
X011016Y014609D02*
X011145Y014609D01*
X011146Y014610D02*
X011018Y014610D01*
X011019Y014611D02*
X011147Y014611D01*
X011148Y014612D02*
X011020Y014612D01*
X011022Y014613D02*
X011149Y014613D01*
X011150Y014614D02*
X011023Y014614D01*
X011024Y014615D02*
X011151Y014615D01*
X011152Y014616D02*
X011025Y014616D01*
X011027Y014617D02*
X011153Y014617D01*
X011154Y014618D02*
X011028Y014618D01*
X011029Y014619D02*
X011155Y014619D01*
X011156Y014620D02*
X011031Y014620D01*
X011032Y014621D02*
X011158Y014621D01*
X011159Y014622D02*
X011033Y014622D01*
X011034Y014623D02*
X011160Y014623D01*
X011161Y014624D02*
X011036Y014624D01*
X011037Y014625D02*
X011162Y014625D01*
X011163Y014626D02*
X011038Y014626D01*
X011040Y014627D02*
X011164Y014627D01*
X011165Y014628D02*
X011041Y014628D01*
X011042Y014629D02*
X011166Y014629D01*
X011167Y014630D02*
X011043Y014630D01*
X011045Y014631D02*
X011168Y014631D01*
X011169Y014632D02*
X011046Y014632D01*
X011047Y014633D02*
X011170Y014633D01*
X011171Y014634D02*
X011047Y014634D01*
X011048Y014635D02*
X011173Y014635D01*
X011174Y014636D02*
X011048Y014636D01*
X011049Y014637D02*
X011175Y014637D01*
X011176Y014638D02*
X011049Y014638D01*
X011050Y014639D02*
X011177Y014639D01*
X011178Y014640D02*
X011050Y014640D01*
X011051Y014641D02*
X011178Y014641D01*
X011179Y014642D02*
X011051Y014642D01*
X011052Y014643D02*
X011180Y014643D01*
X011181Y014644D02*
X011052Y014644D01*
X011053Y014645D02*
X011181Y014645D01*
X011182Y014646D02*
X011053Y014646D01*
X011054Y014647D02*
X011183Y014647D01*
X011184Y014648D02*
X011054Y014648D01*
X011055Y014649D02*
X011184Y014649D01*
X011185Y014650D02*
X011055Y014650D01*
X011056Y014651D02*
X011186Y014651D01*
X011187Y014652D02*
X011056Y014652D01*
X011057Y014653D02*
X011187Y014653D01*
X011188Y014654D02*
X011057Y014654D01*
X011058Y014655D02*
X011189Y014655D01*
X011190Y014656D02*
X011058Y014656D01*
X011059Y014657D02*
X011190Y014657D01*
X011191Y014658D02*
X011059Y014658D01*
X011060Y014659D02*
X011192Y014659D01*
X011193Y014660D02*
X011060Y014660D01*
X011061Y014661D02*
X011193Y014661D01*
X011194Y014662D02*
X011061Y014662D01*
X011062Y014663D02*
X011195Y014663D01*
X011196Y014664D02*
X011062Y014664D01*
X011063Y014665D02*
X011196Y014665D01*
X011197Y014666D02*
X011063Y014666D01*
X011064Y014667D02*
X011198Y014667D01*
X011199Y014668D02*
X011064Y014668D01*
X011065Y014669D02*
X011199Y014669D01*
X011200Y014670D02*
X011065Y014670D01*
X011066Y014671D02*
X011201Y014671D01*
X011202Y014672D02*
X011066Y014672D01*
X011067Y014673D02*
X011202Y014673D01*
X011203Y014674D02*
X011067Y014674D01*
X011067Y014675D02*
X011204Y014675D01*
X011205Y014676D02*
X011068Y014676D01*
X011068Y014677D02*
X011205Y014677D01*
X011206Y014678D02*
X011069Y014678D01*
X011069Y014679D02*
X011207Y014679D01*
X011208Y014680D02*
X011070Y014680D01*
X011070Y014681D02*
X011208Y014681D01*
X011209Y014682D02*
X011071Y014682D01*
X011071Y014683D02*
X011210Y014683D01*
X011211Y014684D02*
X011072Y014684D01*
X011072Y014685D02*
X011211Y014685D01*
X011212Y014686D02*
X011073Y014686D01*
X011073Y014687D02*
X011213Y014687D01*
X011214Y014688D02*
X011074Y014688D01*
X011074Y014689D02*
X011214Y014689D01*
X011215Y014690D02*
X011075Y014690D01*
X011075Y014691D02*
X011216Y014691D01*
X011217Y014692D02*
X011076Y014692D01*
X011076Y014693D02*
X011217Y014693D01*
X011218Y014694D02*
X011077Y014694D01*
X011077Y014695D02*
X011219Y014695D01*
X011220Y014696D02*
X011077Y014696D01*
X011077Y014697D02*
X011220Y014697D01*
X011221Y014698D02*
X011077Y014698D01*
X011077Y014699D02*
X011222Y014699D01*
X011223Y014700D02*
X011077Y014700D01*
X011077Y014701D02*
X011223Y014701D01*
X011224Y014702D02*
X011077Y014702D01*
X011078Y014703D02*
X011225Y014703D01*
X011226Y014704D02*
X011078Y014704D01*
X011078Y014705D02*
X011226Y014705D01*
X011227Y014706D02*
X011078Y014706D01*
X011078Y014707D02*
X011227Y014707D01*
X011228Y014708D02*
X011078Y014708D01*
X011078Y014709D02*
X011228Y014709D01*
X011228Y014710D02*
X011078Y014710D01*
X011078Y014711D02*
X011229Y014711D01*
X011229Y014712D02*
X011078Y014712D01*
X011078Y014713D02*
X011230Y014713D01*
X011230Y014714D02*
X011078Y014714D01*
X011078Y014715D02*
X011231Y014715D01*
X011231Y014716D02*
X011078Y014716D01*
X011078Y014717D02*
X011231Y014717D01*
X011232Y014718D02*
X011078Y014718D01*
X011078Y014719D02*
X011232Y014719D01*
X011233Y014720D02*
X011078Y014720D01*
X011078Y014721D02*
X011233Y014721D01*
X011234Y014722D02*
X011078Y014722D01*
X011078Y014723D02*
X011234Y014723D01*
X011235Y014724D02*
X011078Y014724D01*
X011078Y014725D02*
X011235Y014725D01*
X011235Y014726D02*
X011078Y014726D01*
X011078Y014727D02*
X011236Y014727D01*
X011236Y014728D02*
X011079Y014728D01*
X011079Y014729D02*
X011237Y014729D01*
X011237Y014730D02*
X011079Y014730D01*
X011079Y014731D02*
X011238Y014731D01*
X011238Y014732D02*
X011079Y014732D01*
X011079Y014733D02*
X011239Y014733D01*
X011239Y014734D02*
X011079Y014734D01*
X011079Y014735D02*
X011239Y014735D01*
X011240Y014736D02*
X011079Y014736D01*
X011079Y014737D02*
X011240Y014737D01*
X011241Y014738D02*
X011079Y014738D01*
X011079Y014739D02*
X011241Y014739D01*
X011242Y014740D02*
X011079Y014740D01*
X011079Y014741D02*
X011242Y014741D01*
X011243Y014742D02*
X011079Y014742D01*
X011079Y014743D02*
X011243Y014743D01*
X011243Y014744D02*
X011079Y014744D01*
X011079Y014745D02*
X011244Y014745D01*
X011244Y014746D02*
X011079Y014746D01*
X011079Y014747D02*
X011245Y014747D01*
X011245Y014748D02*
X011079Y014748D01*
X011079Y014749D02*
X011246Y014749D01*
X011246Y014750D02*
X011079Y014750D01*
X011079Y014751D02*
X011246Y014751D01*
X011247Y014752D02*
X011079Y014752D01*
X011079Y014753D02*
X011247Y014753D01*
X011248Y014754D02*
X011080Y014754D01*
X011080Y014755D02*
X011248Y014755D01*
X011249Y014756D02*
X011080Y014756D01*
X011080Y014757D02*
X011249Y014757D01*
X011250Y014758D02*
X011080Y014758D01*
X011080Y014759D02*
X011250Y014759D01*
X011250Y014760D02*
X011080Y014760D01*
X011080Y014761D02*
X011251Y014761D01*
X011251Y014762D02*
X011080Y014762D01*
X011080Y014763D02*
X011252Y014763D01*
X011252Y014764D02*
X011080Y014764D01*
X011080Y014765D02*
X011253Y014765D01*
X011253Y014766D02*
X011079Y014766D01*
X011079Y014767D02*
X011254Y014767D01*
X011254Y014768D02*
X011078Y014768D01*
X011078Y014769D02*
X011254Y014769D01*
X011255Y014770D02*
X011078Y014770D01*
X011077Y014771D02*
X011255Y014771D01*
X011256Y014772D02*
X011077Y014772D01*
X011076Y014773D02*
X011256Y014773D01*
X011257Y014774D02*
X011076Y014774D01*
X011076Y014775D02*
X011257Y014775D01*
X011258Y014776D02*
X011075Y014776D01*
X011075Y014777D02*
X011258Y014777D01*
X011258Y014778D02*
X011075Y014778D01*
X011074Y014779D02*
X011259Y014779D01*
X011259Y014780D02*
X011074Y014780D01*
X011073Y014781D02*
X011259Y014781D01*
X011259Y014782D02*
X011073Y014782D01*
X011073Y014783D02*
X011259Y014783D01*
X011259Y014784D02*
X011072Y014784D01*
X011072Y014785D02*
X011260Y014785D01*
X011260Y014786D02*
X011072Y014786D01*
X011071Y014787D02*
X011260Y014787D01*
X011260Y014788D02*
X011071Y014788D01*
X011070Y014789D02*
X011260Y014789D01*
X011260Y014790D02*
X011070Y014790D01*
X011070Y014791D02*
X011261Y014791D01*
X011261Y014792D02*
X011069Y014792D01*
X011069Y014793D02*
X011261Y014793D01*
X011261Y014794D02*
X011068Y014794D01*
X011068Y014795D02*
X011261Y014795D01*
X011261Y014796D02*
X011068Y014796D01*
X011067Y014797D02*
X011262Y014797D01*
X011262Y014798D02*
X011067Y014798D01*
X011067Y014799D02*
X011262Y014799D01*
X011262Y014800D02*
X011066Y014800D01*
X011066Y014801D02*
X011262Y014801D01*
X011262Y014802D02*
X011065Y014802D01*
X011065Y014803D02*
X011262Y014803D01*
X011263Y014804D02*
X011065Y014804D01*
X011064Y014805D02*
X011263Y014805D01*
X011263Y014806D02*
X011064Y014806D01*
X011064Y014807D02*
X011263Y014807D01*
X011263Y014808D02*
X011063Y014808D01*
X011063Y014809D02*
X011263Y014809D01*
X011264Y014810D02*
X011062Y014810D01*
X011062Y014811D02*
X011264Y014811D01*
X011264Y014812D02*
X011062Y014812D01*
X011061Y014813D02*
X011264Y014813D01*
X011264Y014814D02*
X011061Y014814D01*
X011061Y014815D02*
X011264Y014815D01*
X011265Y014816D02*
X011060Y014816D01*
X011060Y014817D02*
X011265Y014817D01*
X011265Y014818D02*
X011059Y014818D01*
X011059Y014819D02*
X011265Y014819D01*
X011265Y014820D02*
X011059Y014820D01*
X011058Y014821D02*
X011265Y014821D01*
X011265Y014822D02*
X011058Y014822D01*
X011057Y014823D02*
X011266Y014823D01*
X011266Y014824D02*
X011057Y014824D01*
X011057Y014825D02*
X011266Y014825D01*
X011266Y014826D02*
X011056Y014826D01*
X011056Y014827D02*
X011266Y014827D01*
X011266Y014828D02*
X011056Y014828D01*
X011055Y014829D02*
X011267Y014829D01*
X011267Y014830D02*
X011054Y014830D01*
X011053Y014831D02*
X011267Y014831D01*
X011267Y014832D02*
X011053Y014832D01*
X011052Y014833D02*
X011267Y014833D01*
X011267Y014834D02*
X011051Y014834D01*
X011050Y014835D02*
X011268Y014835D01*
X011268Y014836D02*
X011050Y014836D01*
X011049Y014837D02*
X011268Y014837D01*
X011268Y014838D02*
X011048Y014838D01*
X011047Y014839D02*
X011268Y014839D01*
X011268Y014840D02*
X011046Y014840D01*
X011046Y014841D02*
X011269Y014841D01*
X011269Y014842D02*
X011045Y014842D01*
X011044Y014843D02*
X011269Y014843D01*
X011269Y014844D02*
X011043Y014844D01*
X011042Y014845D02*
X011269Y014845D01*
X011269Y014846D02*
X011042Y014846D01*
X011041Y014847D02*
X011269Y014847D01*
X011270Y014848D02*
X011040Y014848D01*
X011039Y014849D02*
X011270Y014849D01*
X011270Y014850D02*
X011038Y014850D01*
X011038Y014851D02*
X011270Y014851D01*
X011270Y014852D02*
X011037Y014852D01*
X011036Y014853D02*
X011270Y014853D01*
X011271Y014854D02*
X011035Y014854D01*
X011034Y014855D02*
X011271Y014855D01*
X011271Y014856D02*
X011034Y014856D01*
X011033Y014857D02*
X011271Y014857D01*
X011271Y014858D02*
X011032Y014858D01*
X011031Y014859D02*
X011271Y014859D01*
X011271Y014860D02*
X011031Y014860D01*
X011030Y014861D02*
X011271Y014861D01*
X011272Y014862D02*
X011029Y014862D01*
X011028Y014863D02*
X011272Y014863D01*
X011272Y014864D02*
X011027Y014864D01*
X011027Y014865D02*
X011272Y014865D01*
X011272Y014866D02*
X011026Y014866D01*
X011025Y014867D02*
X011272Y014867D01*
X011272Y014868D02*
X011024Y014868D01*
X011023Y014868D02*
X011272Y014868D01*
X011272Y014869D02*
X011023Y014869D01*
X011022Y014870D02*
X011272Y014870D01*
X011272Y014871D02*
X011021Y014871D01*
X011020Y014872D02*
X011272Y014872D01*
X011272Y014873D02*
X011019Y014873D01*
X011019Y014874D02*
X011273Y014874D01*
X011273Y014875D02*
X011018Y014875D01*
X011017Y014876D02*
X011273Y014876D01*
X011273Y014877D02*
X011016Y014877D01*
X011015Y014878D02*
X011273Y014878D01*
X011273Y014879D02*
X011015Y014879D01*
X011014Y014880D02*
X011273Y014880D01*
X011273Y014881D02*
X011013Y014881D01*
X011012Y014882D02*
X011273Y014882D01*
X011273Y014883D02*
X011012Y014883D01*
X011012Y014884D02*
X011273Y014884D01*
X011273Y014885D02*
X011011Y014885D01*
X011011Y014886D02*
X011273Y014886D01*
X011273Y014887D02*
X011011Y014887D01*
X011010Y014888D02*
X011272Y014888D01*
X011272Y014889D02*
X011010Y014889D01*
X011010Y014890D02*
X011272Y014890D01*
X011272Y014891D02*
X011009Y014891D01*
X011009Y014892D02*
X011272Y014892D01*
X011272Y014893D02*
X011009Y014893D01*
X011009Y014894D02*
X011272Y014894D01*
X011271Y014895D02*
X011008Y014895D01*
X011008Y014896D02*
X011271Y014896D01*
X011271Y014897D02*
X011008Y014897D01*
X011007Y014898D02*
X011271Y014898D01*
X011271Y014899D02*
X011007Y014899D01*
X011007Y014900D02*
X011271Y014900D01*
X011271Y014901D02*
X011008Y014901D01*
X011009Y014902D02*
X011270Y014902D01*
X011270Y014903D02*
X011011Y014903D01*
X011013Y014904D02*
X011270Y014904D01*
X011270Y014905D02*
X011014Y014905D01*
X011016Y014906D02*
X011270Y014906D01*
X011270Y014907D02*
X011017Y014907D01*
X011019Y014908D02*
X011269Y014908D01*
X011269Y014909D02*
X011020Y014909D01*
X011022Y014910D02*
X011269Y014910D01*
X011269Y014911D02*
X011024Y014911D01*
X011025Y014912D02*
X011269Y014912D01*
X011269Y014913D02*
X011027Y014913D01*
X011028Y014914D02*
X011269Y014914D01*
X011268Y014915D02*
X011030Y014915D01*
X011031Y014916D02*
X011268Y014916D01*
X011268Y014917D02*
X011033Y014917D01*
X011034Y014918D02*
X011268Y014918D01*
X011268Y014919D02*
X011036Y014919D01*
X011038Y014920D02*
X011268Y014920D01*
X011267Y014921D02*
X011039Y014921D01*
X011041Y014922D02*
X011267Y014922D01*
X011267Y014923D02*
X011042Y014923D01*
X011044Y014924D02*
X011267Y014924D01*
X011267Y014925D02*
X011045Y014925D01*
X011047Y014926D02*
X011267Y014926D01*
X011267Y014927D02*
X011048Y014927D01*
X011050Y014928D02*
X011266Y014928D01*
X011266Y014929D02*
X011052Y014929D01*
X011053Y014930D02*
X011266Y014930D01*
X011266Y014931D02*
X011055Y014931D01*
X011056Y014932D02*
X011266Y014932D01*
X011266Y014933D02*
X011057Y014933D01*
X011058Y014934D02*
X011266Y014934D01*
X011265Y014935D02*
X011058Y014935D01*
X011059Y014936D02*
X011265Y014936D01*
X011265Y014937D02*
X011060Y014937D01*
X011061Y014938D02*
X011265Y014938D01*
X011265Y014939D02*
X011061Y014939D01*
X011062Y014940D02*
X011265Y014940D01*
X011264Y014941D02*
X011063Y014941D01*
X011064Y014942D02*
X011264Y014942D01*
X011264Y014943D02*
X011064Y014943D01*
X011065Y014944D02*
X011264Y014944D01*
X011264Y014945D02*
X011066Y014945D01*
X011067Y014946D02*
X011264Y014946D01*
X011264Y014947D02*
X011068Y014947D01*
X011068Y014948D02*
X011263Y014948D01*
X011263Y014949D02*
X011069Y014949D01*
X011070Y014950D02*
X011263Y014950D01*
X011263Y014951D02*
X011071Y014951D01*
X011071Y014952D02*
X011263Y014952D01*
X011263Y014953D02*
X011072Y014953D01*
X011073Y014954D02*
X011262Y014954D01*
X011262Y014955D02*
X011074Y014955D01*
X011074Y014956D02*
X011262Y014956D01*
X011262Y014957D02*
X011075Y014957D01*
X011076Y014958D02*
X011262Y014958D01*
X011262Y014959D02*
X011077Y014959D01*
X011078Y014960D02*
X011262Y014960D01*
X011261Y014961D02*
X011078Y014961D01*
X011079Y014962D02*
X011261Y014962D01*
X011261Y014963D02*
X011080Y014963D01*
X011081Y014964D02*
X011261Y014964D01*
X011261Y014965D02*
X011081Y014965D01*
X011082Y014966D02*
X011261Y014966D01*
X011261Y014967D02*
X011083Y014967D01*
X011084Y014968D02*
X011260Y014968D01*
X011260Y014969D02*
X011084Y014969D01*
X011085Y014970D02*
X011260Y014970D01*
X011259Y014971D02*
X011086Y014971D01*
X011087Y014972D02*
X011259Y014972D01*
X011258Y014973D02*
X011087Y014973D01*
X011088Y014974D02*
X011258Y014974D01*
X011257Y014975D02*
X011089Y014975D01*
X011090Y014976D02*
X011257Y014976D01*
X011257Y014977D02*
X011091Y014977D01*
X011091Y014978D02*
X011256Y014978D01*
X011256Y014979D02*
X011091Y014979D01*
X011092Y014980D02*
X011255Y014980D01*
X011255Y014981D02*
X011092Y014981D01*
X011092Y014982D02*
X011254Y014982D01*
X011254Y014983D02*
X011092Y014983D01*
X011092Y014984D02*
X011254Y014984D01*
X011253Y014985D02*
X011093Y014985D01*
X011093Y014986D02*
X011253Y014986D01*
X011252Y014987D02*
X011093Y014987D01*
X011093Y014988D02*
X011252Y014988D01*
X011251Y014989D02*
X011093Y014989D01*
X011094Y014990D02*
X011251Y014990D01*
X011251Y014991D02*
X011094Y014991D01*
X011094Y014992D02*
X011250Y014992D01*
X011250Y014993D02*
X011094Y014993D01*
X011095Y014994D02*
X011249Y014994D01*
X011249Y014995D02*
X011095Y014995D01*
X011095Y014996D02*
X011248Y014996D01*
X011248Y014997D02*
X011095Y014997D01*
X011095Y014998D02*
X011248Y014998D01*
X011247Y014999D02*
X011096Y014999D01*
X011096Y015000D02*
X011247Y015000D01*
X011246Y015001D02*
X011096Y015001D01*
X011096Y015002D02*
X011246Y015002D01*
X011245Y015003D02*
X011096Y015003D01*
X011097Y015004D02*
X011245Y015004D01*
X011245Y015005D02*
X011097Y015005D01*
X011097Y015006D02*
X011244Y015006D01*
X011244Y015007D02*
X011097Y015007D01*
X011097Y015008D02*
X011243Y015008D01*
X011243Y015009D02*
X011098Y015009D01*
X011098Y015010D02*
X011243Y015010D01*
X011242Y015011D02*
X011098Y015011D01*
X011098Y015012D02*
X011242Y015012D01*
X011241Y015013D02*
X011098Y015013D01*
X011099Y015014D02*
X011241Y015014D01*
X011240Y015015D02*
X011099Y015015D01*
X011099Y015016D02*
X011240Y015016D01*
X011240Y015017D02*
X011099Y015017D01*
X011099Y015018D02*
X011239Y015018D01*
X011239Y015019D02*
X011100Y015019D01*
X011100Y015020D02*
X011238Y015020D01*
X011238Y015021D02*
X011100Y015021D01*
X011100Y015022D02*
X011237Y015022D01*
X011237Y015023D02*
X011101Y015023D01*
X011101Y015024D02*
X011237Y015024D01*
X011236Y015025D02*
X011101Y015025D01*
X011101Y015026D02*
X011236Y015026D01*
X011235Y015027D02*
X011101Y015027D01*
X011102Y015028D02*
X011235Y015028D01*
X011234Y015029D02*
X011102Y015029D01*
X011102Y015030D02*
X011234Y015030D01*
X011234Y015031D02*
X011102Y015031D01*
X011102Y015032D02*
X011233Y015032D01*
X011233Y015033D02*
X011103Y015033D01*
X011103Y015034D02*
X011232Y015034D01*
X011232Y015035D02*
X011103Y015035D01*
X011103Y015036D02*
X011231Y015036D01*
X011231Y015037D02*
X011103Y015037D01*
X011103Y015038D02*
X011231Y015038D01*
X011230Y015039D02*
X011103Y015039D01*
X011103Y015040D02*
X011230Y015040D01*
X011229Y015041D02*
X011103Y015041D01*
X011103Y015042D02*
X011229Y015042D01*
X011228Y015043D02*
X011103Y015043D01*
X011103Y015044D02*
X011228Y015044D01*
X011228Y015045D02*
X011102Y015045D01*
X011102Y015046D02*
X011227Y015046D01*
X011227Y015047D02*
X011101Y015047D01*
X011101Y015048D02*
X011226Y015048D01*
X011225Y015049D02*
X011101Y015049D01*
X011100Y015050D02*
X011225Y015050D01*
X011224Y015051D02*
X011100Y015051D01*
X011099Y015052D02*
X011223Y015052D01*
X011223Y015053D02*
X011099Y015053D01*
X011098Y015054D02*
X011222Y015054D01*
X011221Y015055D02*
X011098Y015055D01*
X011097Y015056D02*
X011221Y015056D01*
X011220Y015057D02*
X011097Y015057D01*
X011096Y015058D02*
X011219Y015058D01*
X011219Y015059D02*
X011096Y015059D01*
X011096Y015060D02*
X011218Y015060D01*
X011217Y015061D02*
X011095Y015061D01*
X011095Y015062D02*
X011216Y015062D01*
X011216Y015063D02*
X011094Y015063D01*
X011094Y015064D02*
X011215Y015064D01*
X011214Y015065D02*
X011093Y015065D01*
X011093Y015066D02*
X011214Y015066D01*
X011213Y015067D02*
X011092Y015067D01*
X011092Y015068D02*
X011212Y015068D01*
X011212Y015069D02*
X011091Y015069D01*
X011091Y015070D02*
X011211Y015070D01*
X011210Y015071D02*
X011091Y015071D01*
X011090Y015072D02*
X011210Y015072D01*
X011209Y015073D02*
X011090Y015073D01*
X011089Y015074D02*
X011208Y015074D01*
X011207Y015075D02*
X011089Y015075D01*
X011088Y015076D02*
X011207Y015076D01*
X011206Y015077D02*
X011088Y015077D01*
X011087Y015078D02*
X011205Y015078D01*
X011205Y015079D02*
X011087Y015079D01*
X011086Y015080D02*
X011204Y015080D01*
X011203Y015081D02*
X011086Y015081D01*
X011086Y015082D02*
X011203Y015082D01*
X011202Y015083D02*
X011085Y015083D01*
X011085Y015084D02*
X011201Y015084D01*
X011201Y015085D02*
X011084Y015085D01*
X011084Y015086D02*
X011200Y015086D01*
X011199Y015087D02*
X011083Y015087D01*
X011083Y015088D02*
X011198Y015088D01*
X011198Y015089D02*
X011082Y015089D01*
X011082Y015090D02*
X011197Y015090D01*
X011196Y015091D02*
X011081Y015091D01*
X011081Y015092D02*
X011196Y015092D01*
X011195Y015093D02*
X011081Y015093D01*
X011080Y015094D02*
X011194Y015094D01*
X011194Y015095D02*
X011080Y015095D01*
X011079Y015096D02*
X011193Y015096D01*
X011192Y015097D02*
X011079Y015097D01*
X011078Y015098D02*
X011191Y015098D01*
X011191Y015099D02*
X011078Y015099D01*
X011077Y015100D02*
X011190Y015100D01*
X011189Y015101D02*
X011077Y015101D01*
X011076Y015102D02*
X011189Y015102D01*
X011188Y015103D02*
X011076Y015103D01*
X011076Y015104D02*
X011187Y015104D01*
X011187Y015105D02*
X011075Y015105D01*
X011075Y015106D02*
X011186Y015106D01*
X011185Y015107D02*
X011074Y015107D01*
X011074Y015108D02*
X011185Y015108D01*
X011184Y015109D02*
X011073Y015109D01*
X011073Y015110D02*
X011183Y015110D01*
X011182Y015111D02*
X011072Y015111D01*
X011072Y015112D02*
X011182Y015112D01*
X011181Y015113D02*
X011071Y015113D01*
X011071Y015114D02*
X011180Y015114D01*
X011180Y015115D02*
X011071Y015115D01*
X011070Y015116D02*
X011179Y015116D01*
X011178Y015117D02*
X011070Y015117D01*
X011069Y015118D02*
X011178Y015118D01*
X011177Y015119D02*
X011069Y015119D01*
X011068Y015120D02*
X011176Y015120D01*
X011175Y015121D02*
X011067Y015121D01*
X011066Y015122D02*
X011174Y015122D01*
X011173Y015123D02*
X011065Y015123D01*
X011064Y015124D02*
X011172Y015124D01*
X011171Y015125D02*
X011063Y015125D01*
X011062Y015126D02*
X011170Y015126D01*
X011169Y015127D02*
X011061Y015127D01*
X011060Y015128D02*
X011168Y015128D01*
X011167Y015129D02*
X011059Y015129D01*
X011059Y015130D02*
X011166Y015130D01*
X011165Y015131D02*
X011058Y015131D01*
X011057Y015132D02*
X011164Y015132D01*
X011163Y015133D02*
X011056Y015133D01*
X011055Y015134D02*
X011162Y015134D01*
X011161Y015135D02*
X011054Y015135D01*
X011053Y015136D02*
X011160Y015136D01*
X011159Y015137D02*
X011052Y015137D01*
X011051Y015138D02*
X011159Y015138D01*
X011158Y015139D02*
X011050Y015139D01*
X011049Y015140D02*
X011157Y015140D01*
X011156Y015141D02*
X011048Y015141D01*
X011047Y015142D02*
X011155Y015142D01*
X011154Y015143D02*
X011046Y015143D01*
X011045Y015144D02*
X011153Y015144D01*
X011152Y015145D02*
X011044Y015145D01*
X011043Y015146D02*
X011151Y015146D01*
X011150Y015147D02*
X011042Y015147D01*
X011041Y015148D02*
X011149Y015148D01*
X011148Y015149D02*
X011040Y015149D01*
X011039Y015150D02*
X011147Y015150D01*
X011146Y015151D02*
X011038Y015151D01*
X011037Y015152D02*
X011145Y015152D01*
X011144Y015153D02*
X011036Y015153D01*
X011035Y015154D02*
X011143Y015154D01*
X011142Y015155D02*
X011034Y015155D01*
X011033Y015156D02*
X011141Y015156D01*
X011140Y015157D02*
X011032Y015157D01*
X011031Y015158D02*
X011139Y015158D01*
X011138Y015159D02*
X011030Y015159D01*
X011029Y015160D02*
X011137Y015160D01*
X011136Y015161D02*
X011028Y015161D01*
X011027Y015162D02*
X011135Y015162D01*
X011134Y015163D02*
X011026Y015163D01*
X011025Y015164D02*
X011133Y015164D01*
X011132Y015165D02*
X011024Y015165D01*
X011023Y015166D02*
X011132Y015166D01*
X011131Y015167D02*
X011022Y015167D01*
X011021Y015168D02*
X011130Y015168D01*
X011129Y015169D02*
X011020Y015169D01*
X011019Y015170D02*
X011128Y015170D01*
X011127Y015171D02*
X011018Y015171D01*
X011017Y015172D02*
X011126Y015172D01*
X011125Y015173D02*
X011016Y015173D01*
X011015Y015174D02*
X011124Y015174D01*
X011123Y015175D02*
X011014Y015175D01*
X011013Y015176D02*
X011122Y015176D01*
X011121Y015177D02*
X011012Y015177D01*
X011011Y015178D02*
X011120Y015178D01*
X011119Y015179D02*
X011010Y015179D01*
X011009Y015180D02*
X011118Y015180D01*
X011117Y015181D02*
X011008Y015181D01*
X011006Y015182D02*
X011116Y015182D01*
X011115Y015183D02*
X011005Y015183D01*
X011004Y015184D02*
X011113Y015184D01*
X011112Y015185D02*
X011002Y015185D01*
X011001Y015186D02*
X011111Y015186D01*
X011110Y015187D02*
X010999Y015187D01*
X010998Y015188D02*
X011108Y015188D01*
X011107Y015189D02*
X010996Y015189D01*
X010995Y015190D02*
X011106Y015190D01*
X011105Y015191D02*
X010993Y015191D01*
X010992Y015192D02*
X011103Y015192D01*
X011102Y015193D02*
X010991Y015193D01*
X010989Y015194D02*
X011101Y015194D01*
X011100Y015195D02*
X010988Y015195D01*
X010986Y015196D02*
X011098Y015196D01*
X011097Y015197D02*
X010985Y015197D01*
X010983Y015198D02*
X011096Y015198D01*
X011095Y015199D02*
X010982Y015199D01*
X010980Y015200D02*
X011093Y015200D01*
X011092Y015201D02*
X010979Y015201D01*
X010978Y015202D02*
X011091Y015202D01*
X011090Y015203D02*
X010976Y015203D01*
X010975Y015204D02*
X011088Y015204D01*
X011087Y015205D02*
X010973Y015205D01*
X010972Y015206D02*
X011086Y015206D01*
X011085Y015207D02*
X010970Y015207D01*
X010969Y015208D02*
X011083Y015208D01*
X011082Y015209D02*
X010967Y015209D01*
X010966Y015210D02*
X011081Y015210D01*
X011080Y015211D02*
X010965Y015211D01*
X010963Y015212D02*
X011078Y015212D01*
X011077Y015213D02*
X010962Y015213D01*
X010960Y015214D02*
X011076Y015214D01*
X011075Y015215D02*
X010959Y015215D01*
X010957Y015216D02*
X011073Y015216D01*
X011072Y015217D02*
X010956Y015217D01*
X010954Y015218D02*
X011071Y015218D01*
X011070Y015219D02*
X010953Y015219D01*
X010952Y015220D02*
X011068Y015220D01*
X011067Y015221D02*
X010950Y015221D01*
X010949Y015222D02*
X011066Y015222D01*
X011065Y015223D02*
X010947Y015223D01*
X010946Y015224D02*
X011063Y015224D01*
X011062Y015225D02*
X010944Y015225D01*
X010943Y015226D02*
X011061Y015226D01*
X011060Y015227D02*
X010941Y015227D01*
X010940Y015228D02*
X011058Y015228D01*
X011057Y015229D02*
X010938Y015229D01*
X010936Y015230D02*
X011056Y015230D01*
X011055Y015231D02*
X010934Y015231D01*
X010932Y015232D02*
X011053Y015232D01*
X011052Y015233D02*
X010930Y015233D01*
X010928Y015234D02*
X011051Y015234D01*
X011050Y015235D02*
X010927Y015235D01*
X010925Y015236D02*
X011048Y015236D01*
X011047Y015237D02*
X010923Y015237D01*
X010921Y015238D02*
X011045Y015238D01*
X011043Y015239D02*
X010919Y015239D01*
X010917Y015240D02*
X011042Y015240D01*
X011040Y015241D02*
X010915Y015241D01*
X010913Y015242D02*
X011039Y015242D01*
X011037Y015243D02*
X010911Y015243D01*
X010909Y015244D02*
X011036Y015244D01*
X011034Y015245D02*
X010907Y015245D01*
X010906Y015246D02*
X011033Y015246D01*
X011031Y015247D02*
X010904Y015247D01*
X010902Y015248D02*
X011030Y015248D01*
X011028Y015249D02*
X010900Y015249D01*
X010898Y015250D02*
X011027Y015250D01*
X011025Y015251D02*
X010896Y015251D01*
X010894Y015252D02*
X011023Y015252D01*
X011022Y015253D02*
X010892Y015253D01*
X010890Y015254D02*
X011020Y015254D01*
X011019Y015255D02*
X010888Y015255D01*
X010886Y015256D02*
X011017Y015256D01*
X011016Y015257D02*
X010885Y015257D01*
X010883Y015258D02*
X011014Y015258D01*
X011013Y015259D02*
X010881Y015259D01*
X010879Y015260D02*
X011011Y015260D01*
X011010Y015261D02*
X010877Y015261D01*
X010875Y015262D02*
X011008Y015262D01*
X011006Y015263D02*
X010873Y015263D01*
X010871Y015264D02*
X011005Y015264D01*
X011003Y015265D02*
X010869Y015265D01*
X010867Y015266D02*
X011002Y015266D01*
X011000Y015267D02*
X010865Y015267D01*
X010863Y015268D02*
X010999Y015268D01*
X010997Y015269D02*
X010860Y015269D01*
X010858Y015270D02*
X010996Y015270D01*
X010994Y015271D02*
X010856Y015271D01*
X010853Y015272D02*
X010993Y015272D01*
X010991Y015273D02*
X010851Y015273D01*
X010848Y015274D02*
X010989Y015274D01*
X010988Y015275D02*
X010846Y015275D01*
X010844Y015276D02*
X010986Y015276D01*
X010985Y015277D02*
X010841Y015277D01*
X010839Y015278D02*
X010983Y015278D01*
X010982Y015279D02*
X010836Y015279D01*
X010834Y015280D02*
X010980Y015280D01*
X010979Y015281D02*
X010832Y015281D01*
X010829Y015282D02*
X010977Y015282D01*
X010975Y015283D02*
X010827Y015283D01*
X010825Y015284D02*
X010973Y015284D01*
X010972Y015285D02*
X010822Y015285D01*
X010820Y015286D02*
X010970Y015286D01*
X010968Y015287D02*
X010817Y015287D01*
X010815Y015288D02*
X010966Y015288D01*
X010964Y015289D02*
X010813Y015289D01*
X010810Y015290D02*
X010962Y015290D01*
X010960Y015291D02*
X010808Y015291D01*
X010805Y015292D02*
X010959Y015292D01*
X010957Y015293D02*
X010803Y015293D01*
X010801Y015294D02*
X010955Y015294D01*
X010953Y015295D02*
X010798Y015295D01*
X010796Y015296D02*
X010951Y015296D01*
X010949Y015297D02*
X010793Y015297D01*
X010791Y015298D02*
X010947Y015298D01*
X010946Y015299D02*
X010789Y015299D01*
X010786Y015300D02*
X010944Y015300D01*
X010942Y015301D02*
X010783Y015301D01*
X010780Y015302D02*
X010940Y015302D01*
X010938Y015303D02*
X010777Y015303D01*
X010774Y015304D02*
X010936Y015304D01*
X010934Y015305D02*
X010771Y015305D01*
X010768Y015306D02*
X010933Y015306D01*
X010931Y015307D02*
X010765Y015307D01*
X010762Y015308D02*
X010929Y015308D01*
X010927Y015309D02*
X010759Y015309D01*
X010756Y015310D02*
X010925Y015310D01*
X010923Y015311D02*
X010754Y015311D01*
X010751Y015312D02*
X010921Y015312D01*
X010920Y015313D02*
X010748Y015313D01*
X010745Y015314D02*
X010918Y015314D01*
X010916Y015315D02*
X010742Y015315D01*
X010739Y015316D02*
X010914Y015316D01*
X010912Y015317D02*
X010736Y015317D01*
X010733Y015318D02*
X010910Y015318D01*
X010908Y015319D02*
X010730Y015319D01*
X010727Y015320D02*
X010907Y015320D01*
X010905Y015321D02*
X010724Y015321D01*
X010721Y015322D02*
X010903Y015322D01*
X010901Y015323D02*
X010718Y015323D01*
X010716Y015324D02*
X010899Y015324D01*
X010897Y015325D02*
X010713Y015325D01*
X010710Y015326D02*
X010894Y015326D01*
X010892Y015327D02*
X010706Y015327D01*
X010703Y015328D02*
X010890Y015328D01*
X010888Y015329D02*
X010699Y015329D01*
X010696Y015330D02*
X010886Y015330D01*
X010883Y015331D02*
X010692Y015331D01*
X010689Y015332D02*
X010881Y015332D01*
X010879Y015333D02*
X010685Y015333D01*
X010682Y015334D02*
X010877Y015334D01*
X010875Y015335D02*
X010678Y015335D01*
X010675Y015336D02*
X010872Y015336D01*
X010870Y015337D02*
X010671Y015337D01*
X010668Y015338D02*
X010868Y015338D01*
X010866Y015339D02*
X010664Y015339D01*
X010661Y015340D02*
X010864Y015340D01*
X010861Y015341D02*
X010657Y015341D01*
X010654Y015342D02*
X010859Y015342D01*
X010857Y015343D02*
X010650Y015343D01*
X010647Y015344D02*
X010855Y015344D01*
X010853Y015345D02*
X010644Y015345D01*
X010640Y015346D02*
X010851Y015346D01*
X010848Y015347D02*
X010637Y015347D01*
X010633Y015348D02*
X010846Y015348D01*
X010844Y015349D02*
X010630Y015349D01*
X010626Y015350D02*
X010842Y015350D01*
X010840Y015351D02*
X010622Y015351D01*
X010617Y015352D02*
X010837Y015352D01*
X010835Y015353D02*
X010613Y015353D01*
X010609Y015354D02*
X010833Y015354D01*
X010831Y015355D02*
X010605Y015355D01*
X010601Y015356D02*
X010829Y015356D01*
X010826Y015357D02*
X010597Y015357D01*
X010593Y015358D02*
X010824Y015358D01*
X010822Y015359D02*
X010588Y015359D01*
X010584Y015360D02*
X010819Y015360D01*
X010817Y015361D02*
X010580Y015361D01*
X010576Y015362D02*
X010814Y015362D01*
X010812Y015363D02*
X010572Y015363D01*
X010568Y015364D02*
X010809Y015364D01*
X010807Y015365D02*
X010563Y015365D01*
X010559Y015366D02*
X010804Y015366D01*
X010801Y015367D02*
X010555Y015367D01*
X010551Y015368D02*
X010799Y015368D01*
X010796Y015369D02*
X010547Y015369D01*
X010542Y015370D02*
X010794Y015370D01*
X010791Y015371D02*
X010537Y015371D01*
X010532Y015372D02*
X010789Y015372D01*
X010786Y015373D02*
X010528Y015373D01*
X010523Y015374D02*
X010783Y015374D01*
X010781Y015375D02*
X010518Y015375D01*
X010513Y015376D02*
X010778Y015376D01*
X010776Y015377D02*
X010508Y015377D01*
X010503Y015378D02*
X010773Y015378D01*
X010771Y015379D02*
X010498Y015379D01*
X010494Y015380D02*
X010768Y015380D01*
X010766Y015381D02*
X010489Y015381D01*
X010484Y015382D02*
X010763Y015382D01*
X010760Y015383D02*
X010479Y015383D01*
X010474Y015384D02*
X010758Y015384D01*
X010755Y015385D02*
X010469Y015385D01*
X010464Y015386D02*
X010753Y015386D01*
X010750Y015387D02*
X010459Y015387D01*
X010453Y015388D02*
X010748Y015388D01*
X010745Y015389D02*
X010447Y015389D01*
X010441Y015390D02*
X010742Y015390D01*
X010740Y015391D02*
X010436Y015391D01*
X010430Y015392D02*
X010737Y015392D01*
X010734Y015393D02*
X010424Y015393D01*
X010419Y015394D02*
X010731Y015394D01*
X010728Y015395D02*
X010413Y015395D01*
X010407Y015396D02*
X010725Y015396D01*
X010722Y015397D02*
X010401Y015397D01*
X010396Y015398D02*
X010719Y015398D01*
X010716Y015399D02*
X010390Y015399D01*
X010384Y015400D02*
X010713Y015400D01*
X010710Y015401D02*
X010378Y015401D01*
X010371Y015402D02*
X010707Y015402D01*
X010704Y015403D02*
X010365Y015403D01*
X010358Y015404D02*
X010701Y015404D01*
X010698Y015405D02*
X010351Y015405D01*
X010344Y015406D02*
X010695Y015406D01*
X010692Y015407D02*
X010338Y015407D01*
X010331Y015408D02*
X010689Y015408D01*
X010686Y015409D02*
X010324Y015409D01*
X010318Y015410D02*
X010683Y015410D01*
X010680Y015411D02*
X010311Y015411D01*
X010304Y015412D02*
X010677Y015412D01*
X010674Y015413D02*
X010298Y015413D01*
X010290Y015414D02*
X010671Y015414D01*
X010668Y015415D02*
X010282Y015415D01*
X010274Y015416D02*
X010666Y015416D01*
X010663Y015417D02*
X010266Y015417D01*
X010258Y015418D02*
X010660Y015418D01*
X010656Y015419D02*
X010250Y015419D01*
X010242Y015420D02*
X010653Y015420D01*
X010649Y015421D02*
X010234Y015421D01*
X010226Y015422D02*
X010646Y015422D01*
X010643Y015423D02*
X010218Y015423D01*
X010209Y015424D02*
X010639Y015424D01*
X010636Y015425D02*
X010200Y015425D01*
X010191Y015426D02*
X010632Y015426D01*
X010629Y015427D02*
X010181Y015427D01*
X010172Y015428D02*
X010625Y015428D01*
X010622Y015429D02*
X010163Y015429D01*
X010153Y015430D02*
X010619Y015430D01*
X010615Y015431D02*
X010144Y015431D01*
X010134Y015432D02*
X010612Y015432D01*
X010608Y015433D02*
X010124Y015433D01*
X010113Y015434D02*
X010605Y015434D01*
X010602Y015435D02*
X010101Y015435D01*
X010090Y015436D02*
X010598Y015436D01*
X010595Y015437D02*
X010079Y015437D01*
X010068Y015438D02*
X010591Y015438D01*
X010588Y015439D02*
X010056Y015439D01*
X010045Y015440D02*
X010584Y015440D01*
X010581Y015441D02*
X010031Y015441D01*
X010017Y015442D02*
X010578Y015442D01*
X010576Y015443D02*
X010004Y015443D01*
X009990Y015444D02*
X010576Y015444D01*
X010575Y015445D02*
X009976Y015445D01*
X009962Y015446D02*
X010575Y015446D01*
X010574Y015447D02*
X009945Y015447D01*
X009928Y015448D02*
X010574Y015448D01*
X010573Y015449D02*
X009911Y015449D01*
X009894Y015450D02*
X010573Y015450D01*
X010572Y015451D02*
X009876Y015451D01*
X009855Y015452D02*
X010572Y015452D01*
X010571Y015453D02*
X009833Y015453D01*
X009811Y015454D02*
X010571Y015454D01*
X010570Y015455D02*
X009788Y015455D01*
X009758Y015456D02*
X010570Y015456D01*
X010569Y015457D02*
X009729Y015457D01*
X009693Y015458D02*
X010568Y015458D01*
X010568Y015459D02*
X009649Y015459D01*
X009587Y015460D02*
X010567Y015460D01*
X010567Y015461D02*
X009106Y015461D01*
X009106Y015462D02*
X010566Y015462D01*
X010566Y015463D02*
X009107Y015463D01*
X009107Y015464D02*
X010565Y015464D01*
X010565Y015465D02*
X009107Y015465D01*
X009108Y015466D02*
X010564Y015466D01*
X010564Y015467D02*
X009108Y015467D01*
X009109Y015468D02*
X010563Y015468D01*
X010563Y015469D02*
X009109Y015469D01*
X009110Y015470D02*
X010562Y015470D01*
X010562Y015471D02*
X009110Y015471D01*
X009111Y015472D02*
X010561Y015472D01*
X010561Y015473D02*
X009111Y015473D01*
X009112Y015474D02*
X010560Y015474D01*
X010560Y015475D02*
X009112Y015475D01*
X009113Y015476D02*
X010559Y015476D01*
X010559Y015477D02*
X009114Y015477D01*
X009114Y015478D02*
X010558Y015478D01*
X010558Y015479D02*
X009115Y015479D01*
X009115Y015480D02*
X010557Y015480D01*
X010557Y015481D02*
X009116Y015481D01*
X009116Y015482D02*
X010556Y015482D01*
X010556Y015483D02*
X009117Y015483D01*
X009117Y015484D02*
X010555Y015484D01*
X010555Y015485D02*
X009118Y015485D01*
X009118Y015486D02*
X010554Y015486D01*
X010554Y015487D02*
X009119Y015487D01*
X009120Y015488D02*
X010553Y015488D01*
X010553Y015489D02*
X009120Y015489D01*
X009121Y015490D02*
X010552Y015490D01*
X010552Y015491D02*
X009121Y015491D01*
X009122Y015492D02*
X010551Y015492D01*
X010550Y015493D02*
X009122Y015493D01*
X009123Y015494D02*
X010550Y015494D01*
X010549Y015495D02*
X009123Y015495D01*
X009124Y015496D02*
X010549Y015496D01*
X010548Y015497D02*
X009125Y015497D01*
X009125Y015498D02*
X010548Y015498D01*
X010547Y015499D02*
X009126Y015499D01*
X009126Y015500D02*
X010547Y015500D01*
X010546Y015501D02*
X009127Y015501D01*
X009127Y015502D02*
X010546Y015502D01*
X010545Y015503D02*
X009128Y015503D01*
X009128Y015504D02*
X010545Y015504D01*
X010544Y015505D02*
X009129Y015505D01*
X009130Y015506D02*
X010544Y015506D01*
X010543Y015507D02*
X009130Y015507D01*
X009131Y015508D02*
X010543Y015508D01*
X010542Y015509D02*
X009131Y015509D01*
X009132Y015510D02*
X010542Y015510D01*
X010541Y015511D02*
X009132Y015511D01*
X009133Y015512D02*
X010540Y015512D01*
X010539Y015513D02*
X009133Y015513D01*
X009134Y015514D02*
X010538Y015514D01*
X010537Y015515D02*
X009134Y015515D01*
X009135Y015516D02*
X010536Y015516D01*
X010535Y015517D02*
X009136Y015517D01*
X009136Y015518D02*
X010534Y015518D01*
X010533Y015519D02*
X009137Y015519D01*
X009137Y015520D02*
X010532Y015520D01*
X010531Y015521D02*
X009138Y015521D01*
X009138Y015522D02*
X010530Y015522D01*
X010529Y015523D02*
X009139Y015523D01*
X009139Y015524D02*
X010528Y015524D01*
X010527Y015525D02*
X009140Y015525D01*
X009141Y015526D02*
X010526Y015526D01*
X010525Y015527D02*
X009141Y015527D01*
X009142Y015528D02*
X010524Y015528D01*
X010522Y015529D02*
X009142Y015529D01*
X009143Y015530D02*
X010521Y015530D01*
X010520Y015531D02*
X009143Y015531D01*
X009144Y015532D02*
X010519Y015532D01*
X010518Y015533D02*
X009144Y015533D01*
X009145Y015534D02*
X010517Y015534D01*
X010516Y015535D02*
X009146Y015535D01*
X009146Y015536D02*
X010515Y015536D01*
X010514Y015537D02*
X009147Y015537D01*
X009149Y015538D02*
X010513Y015538D01*
X010512Y015539D02*
X009150Y015539D01*
X009151Y015540D02*
X010511Y015540D01*
X010510Y015541D02*
X009153Y015541D01*
X009154Y015542D02*
X010509Y015542D01*
X010508Y015543D02*
X009156Y015543D01*
X009157Y015544D02*
X010507Y015544D01*
X010506Y015545D02*
X009158Y015545D01*
X009160Y015546D02*
X010505Y015546D01*
X010503Y015547D02*
X009161Y015547D01*
X009163Y015548D02*
X010502Y015548D01*
X010501Y015549D02*
X009164Y015549D01*
X009165Y015550D02*
X010500Y015550D01*
X010499Y015551D02*
X009167Y015551D01*
X009168Y015552D02*
X010498Y015552D01*
X010497Y015553D02*
X009170Y015553D01*
X009171Y015554D02*
X010496Y015554D01*
X010495Y015555D02*
X009172Y015555D01*
X009174Y015556D02*
X010494Y015556D01*
X010493Y015557D02*
X009175Y015557D01*
X009176Y015558D02*
X010492Y015558D01*
X010491Y015559D02*
X009178Y015559D01*
X009179Y015560D02*
X010490Y015560D01*
X010489Y015561D02*
X009181Y015561D01*
X009182Y015562D02*
X010488Y015562D01*
X010487Y015563D02*
X009183Y015563D01*
X009185Y015564D02*
X010485Y015564D01*
X010484Y015565D02*
X009186Y015565D01*
X009188Y015566D02*
X010483Y015566D01*
X010482Y015567D02*
X009189Y015567D01*
X009190Y015568D02*
X010481Y015568D01*
X010479Y015569D02*
X009192Y015569D01*
X009193Y015570D02*
X010478Y015570D01*
X010476Y015571D02*
X009195Y015571D01*
X009196Y015572D02*
X010475Y015572D01*
X010474Y015573D02*
X009627Y015573D01*
X009625Y015573D02*
X009197Y015573D01*
X009199Y015574D02*
X009600Y015574D01*
X009604Y015582D02*
X010461Y015582D01*
X010460Y015583D02*
X009601Y015583D01*
X009599Y015584D02*
X010459Y015584D01*
X010457Y015585D02*
X009596Y015585D01*
X009594Y015586D02*
X010456Y015586D01*
X010455Y015587D02*
X009591Y015587D01*
X009589Y015588D02*
X010453Y015588D01*
X010452Y015589D02*
X009586Y015589D01*
X009584Y015590D02*
X010450Y015590D01*
X010449Y015591D02*
X009581Y015591D01*
X009578Y015592D02*
X010448Y015592D01*
X010446Y015593D02*
X009576Y015593D01*
X009573Y015594D02*
X010445Y015594D01*
X010444Y015595D02*
X009571Y015595D01*
X009568Y015596D02*
X010442Y015596D01*
X010441Y015597D02*
X009566Y015597D01*
X009563Y015598D02*
X010439Y015598D01*
X010438Y015599D02*
X009561Y015599D01*
X009558Y015600D02*
X010437Y015600D01*
X010435Y015601D02*
X009555Y015601D01*
X009553Y015602D02*
X010434Y015602D01*
X010433Y015603D02*
X009550Y015603D01*
X009548Y015604D02*
X010431Y015604D01*
X010430Y015605D02*
X009545Y015605D01*
X009543Y015606D02*
X010429Y015606D01*
X010427Y015607D02*
X009541Y015607D01*
X009539Y015608D02*
X010426Y015608D01*
X010424Y015609D02*
X009536Y015609D01*
X009534Y015610D02*
X010423Y015610D01*
X010422Y015611D02*
X009532Y015611D01*
X009530Y015612D02*
X010420Y015612D01*
X010419Y015613D02*
X009527Y015613D01*
X009525Y015614D02*
X010417Y015614D01*
X010416Y015615D02*
X009523Y015615D01*
X009521Y015616D02*
X010414Y015616D01*
X010412Y015617D02*
X009518Y015617D01*
X009516Y015618D02*
X010411Y015618D01*
X010409Y015619D02*
X009514Y015619D01*
X009511Y015620D02*
X010408Y015620D01*
X010406Y015621D02*
X009509Y015621D01*
X009507Y015622D02*
X010404Y015622D01*
X010403Y015623D02*
X009505Y015623D01*
X009502Y015624D02*
X010401Y015624D01*
X010399Y015625D02*
X009500Y015625D01*
X009498Y015626D02*
X010398Y015626D01*
X010396Y015627D02*
X009496Y015627D01*
X009493Y015628D02*
X010395Y015628D01*
X010393Y015629D02*
X009491Y015629D01*
X009489Y015630D02*
X010391Y015630D01*
X010390Y015631D02*
X009487Y015631D01*
X009484Y015632D02*
X010388Y015632D01*
X010387Y015633D02*
X009482Y015633D01*
X009480Y015634D02*
X010385Y015634D01*
X010383Y015635D02*
X009477Y015635D01*
X009475Y015636D02*
X010382Y015636D01*
X010380Y015637D02*
X009473Y015637D01*
X009471Y015638D02*
X010379Y015638D01*
X010377Y015639D02*
X009468Y015639D01*
X009466Y015640D02*
X010375Y015640D01*
X010374Y015641D02*
X009464Y015641D01*
X009462Y015642D02*
X010372Y015642D01*
X010371Y015643D02*
X009460Y015643D01*
X009458Y015644D02*
X010369Y015644D01*
X010367Y015645D02*
X009456Y015645D01*
X009454Y015646D02*
X010366Y015646D01*
X010364Y015647D02*
X009452Y015647D01*
X009450Y015648D02*
X010363Y015648D01*
X010361Y015649D02*
X009448Y015649D01*
X009446Y015650D02*
X010359Y015650D01*
X010358Y015651D02*
X009444Y015651D01*
X009442Y015652D02*
X010356Y015652D01*
X010354Y015653D02*
X009440Y015653D01*
X009438Y015654D02*
X010353Y015654D01*
X010351Y015655D02*
X009436Y015655D01*
X009434Y015656D02*
X010349Y015656D01*
X010347Y015657D02*
X009432Y015657D01*
X009430Y015658D02*
X010346Y015658D01*
X010344Y015659D02*
X009428Y015659D01*
X009425Y015660D02*
X010342Y015660D01*
X010340Y015661D02*
X009423Y015661D01*
X009421Y015662D02*
X010339Y015662D01*
X010337Y015663D02*
X009419Y015663D01*
X009417Y015664D02*
X010335Y015664D01*
X010333Y015665D02*
X009415Y015665D01*
X009413Y015666D02*
X010331Y015666D01*
X010330Y015667D02*
X009411Y015667D01*
X009409Y015668D02*
X010328Y015668D01*
X010326Y015669D02*
X009407Y015669D01*
X009405Y015670D02*
X010324Y015670D01*
X010322Y015671D02*
X009403Y015671D01*
X009401Y015672D02*
X010321Y015672D01*
X010319Y015673D02*
X009399Y015673D01*
X009397Y015674D02*
X010317Y015674D01*
X010315Y015675D02*
X009395Y015675D01*
X009393Y015676D02*
X010313Y015676D01*
X010312Y015677D02*
X009391Y015677D01*
X009389Y015678D02*
X010310Y015678D01*
X010308Y015679D02*
X009387Y015679D01*
X009385Y015680D02*
X010306Y015680D01*
X010304Y015681D02*
X009383Y015681D01*
X009382Y015682D02*
X010303Y015682D01*
X010301Y015683D02*
X009380Y015683D01*
X009378Y015684D02*
X010299Y015684D01*
X010297Y015685D02*
X009376Y015685D01*
X009374Y015686D02*
X010295Y015686D01*
X010294Y015687D02*
X009372Y015687D01*
X009370Y015688D02*
X010292Y015688D01*
X010290Y015689D02*
X009369Y015689D01*
X009367Y015690D02*
X010288Y015690D01*
X010286Y015691D02*
X009365Y015691D01*
X009363Y015692D02*
X010285Y015692D01*
X010283Y015693D02*
X009361Y015693D01*
X009359Y015694D02*
X010281Y015694D01*
X010279Y015695D02*
X009358Y015695D01*
X009356Y015696D02*
X010277Y015696D01*
X010275Y015697D02*
X009354Y015697D01*
X009352Y015698D02*
X010273Y015698D01*
X010271Y015699D02*
X009350Y015699D01*
X009348Y015700D02*
X010269Y015700D01*
X010267Y015701D02*
X009346Y015701D01*
X009345Y015702D02*
X010265Y015702D01*
X010263Y015703D02*
X009343Y015703D01*
X009341Y015704D02*
X010261Y015704D01*
X010259Y015705D02*
X009339Y015705D01*
X009337Y015706D02*
X010257Y015706D01*
X010255Y015707D02*
X009335Y015707D01*
X009334Y015708D02*
X010253Y015708D01*
X010251Y015709D02*
X009332Y015709D01*
X009330Y015710D02*
X010249Y015710D01*
X010247Y015711D02*
X009328Y015711D01*
X009326Y015712D02*
X010246Y015712D01*
X010244Y015713D02*
X009324Y015713D01*
X009322Y015714D02*
X010242Y015714D01*
X010240Y015715D02*
X009321Y015715D01*
X009319Y015716D02*
X010238Y015716D01*
X010236Y015717D02*
X009317Y015717D01*
X009315Y015718D02*
X010234Y015718D01*
X010232Y015719D02*
X009313Y015719D01*
X009312Y015720D02*
X010230Y015720D01*
X010228Y015721D02*
X009310Y015721D01*
X009308Y015722D02*
X010226Y015722D01*
X010224Y015723D02*
X009307Y015723D01*
X009305Y015724D02*
X010222Y015724D01*
X010220Y015725D02*
X009303Y015725D01*
X009302Y015726D02*
X010218Y015726D01*
X010216Y015727D02*
X009300Y015727D01*
X009298Y015728D02*
X010214Y015728D01*
X010212Y015729D02*
X009297Y015729D01*
X009295Y015730D02*
X010210Y015730D01*
X010208Y015731D02*
X009293Y015731D01*
X009292Y015732D02*
X010206Y015732D01*
X010204Y015733D02*
X009290Y015733D01*
X009288Y015734D02*
X010202Y015734D01*
X010199Y015735D02*
X009287Y015735D01*
X009285Y015736D02*
X010197Y015736D01*
X010195Y015737D02*
X009283Y015737D01*
X009281Y015738D02*
X010193Y015738D01*
X010191Y015739D02*
X009280Y015739D01*
X009278Y015740D02*
X010189Y015740D01*
X010187Y015741D02*
X009276Y015741D01*
X009275Y015742D02*
X010185Y015742D01*
X010183Y015743D02*
X009273Y015743D01*
X009271Y015744D02*
X010180Y015744D01*
X010178Y015745D02*
X009270Y015745D01*
X009268Y015746D02*
X010176Y015746D01*
X010174Y015747D02*
X009266Y015747D01*
X009265Y015748D02*
X010172Y015748D01*
X010170Y015749D02*
X009263Y015749D01*
X009261Y015750D02*
X010168Y015750D01*
X010166Y015751D02*
X009260Y015751D01*
X009258Y015752D02*
X010164Y015752D01*
X010162Y015753D02*
X009256Y015753D01*
X009255Y015754D02*
X010159Y015754D01*
X010157Y015755D02*
X009253Y015755D01*
X009251Y015756D02*
X010155Y015756D01*
X010153Y015757D02*
X009250Y015757D01*
X009248Y015758D02*
X010151Y015758D01*
X010149Y015759D02*
X009246Y015759D01*
X009245Y015760D02*
X010147Y015760D01*
X010145Y015761D02*
X009243Y015761D01*
X009241Y015762D02*
X010143Y015762D01*
X010140Y015763D02*
X009240Y015763D01*
X009238Y015764D02*
X010138Y015764D01*
X010136Y015765D02*
X009237Y015765D01*
X009235Y015766D02*
X010134Y015766D01*
X010131Y015767D02*
X009234Y015767D01*
X009232Y015768D02*
X010129Y015768D01*
X010127Y015769D02*
X009230Y015769D01*
X009229Y015770D02*
X010125Y015770D01*
X010122Y015771D02*
X009227Y015771D01*
X009226Y015772D02*
X010120Y015772D01*
X010118Y015773D02*
X009224Y015773D01*
X009223Y015774D02*
X010116Y015774D01*
X010114Y015775D02*
X009221Y015775D01*
X009220Y015776D02*
X010111Y015776D01*
X010109Y015777D02*
X009218Y015777D01*
X009217Y015778D02*
X010107Y015778D01*
X010105Y015779D02*
X009215Y015779D01*
X009214Y015780D02*
X010102Y015780D01*
X010100Y015781D02*
X009212Y015781D01*
X009211Y015782D02*
X010098Y015782D01*
X010096Y015783D02*
X009209Y015783D01*
X009208Y015784D02*
X010093Y015784D01*
X010091Y015785D02*
X009206Y015785D01*
X009205Y015786D02*
X010089Y015786D01*
X010087Y015787D02*
X009203Y015787D01*
X009202Y015788D02*
X010084Y015788D01*
X010082Y015789D02*
X009200Y015789D01*
X009198Y015790D02*
X010080Y015790D01*
X010078Y015791D02*
X009197Y015791D01*
X009195Y015792D02*
X010076Y015792D01*
X010073Y015793D02*
X009194Y015793D01*
X009192Y015794D02*
X010071Y015794D01*
X010069Y015795D02*
X009191Y015795D01*
X009189Y015796D02*
X010066Y015796D01*
X010064Y015797D02*
X009188Y015797D01*
X009186Y015798D02*
X010062Y015798D01*
X010059Y015799D02*
X009185Y015799D01*
X009183Y015800D02*
X010057Y015800D01*
X010055Y015801D02*
X009182Y015801D01*
X009180Y015802D02*
X010052Y015802D01*
X010050Y015803D02*
X009179Y015803D01*
X009177Y015804D02*
X010048Y015804D01*
X010045Y015805D02*
X009176Y015805D01*
X009174Y015806D02*
X010043Y015806D01*
X010040Y015807D02*
X009173Y015807D01*
X009171Y015808D02*
X010038Y015808D01*
X010036Y015809D02*
X009170Y015809D01*
X009168Y015810D02*
X010033Y015810D01*
X010031Y015811D02*
X009167Y015811D01*
X009165Y015812D02*
X010029Y015812D01*
X010026Y015813D02*
X009164Y015813D01*
X009163Y015814D02*
X010024Y015814D01*
X010022Y015815D02*
X009161Y015815D01*
X009160Y015816D02*
X010019Y015816D01*
X010017Y015817D02*
X009159Y015817D01*
X009157Y015818D02*
X010015Y015818D01*
X010012Y015819D02*
X009156Y015819D01*
X009154Y015820D02*
X010010Y015820D01*
X010007Y015821D02*
X009153Y015821D01*
X009152Y015822D02*
X010005Y015822D01*
X010003Y015823D02*
X009150Y015823D01*
X009149Y015824D02*
X010000Y015824D01*
X009998Y015825D02*
X009148Y015825D01*
X009146Y015826D02*
X009996Y015826D01*
X009993Y015827D02*
X009145Y015827D01*
X009144Y015828D02*
X009990Y015828D01*
X009988Y015829D02*
X009142Y015829D01*
X009141Y015830D02*
X009985Y015830D01*
X009983Y015831D02*
X009139Y015831D01*
X009138Y015832D02*
X009980Y015832D01*
X009978Y015833D02*
X009137Y015833D01*
X009135Y015834D02*
X009975Y015834D01*
X009973Y015835D02*
X009134Y015835D01*
X009133Y015836D02*
X009970Y015836D01*
X009967Y015837D02*
X009131Y015837D01*
X009130Y015838D02*
X009965Y015838D01*
X009962Y015839D02*
X009129Y015839D01*
X009127Y015840D02*
X009960Y015840D01*
X009957Y015841D02*
X009126Y015841D01*
X009125Y015842D02*
X009955Y015842D01*
X009952Y015843D02*
X009123Y015843D01*
X009122Y015844D02*
X009950Y015844D01*
X009947Y015845D02*
X009120Y015845D01*
X009119Y015846D02*
X009944Y015846D01*
X009942Y015847D02*
X009118Y015847D01*
X009116Y015848D02*
X009939Y015848D01*
X009937Y015849D02*
X009115Y015849D01*
X009114Y015850D02*
X009934Y015850D01*
X009932Y015851D02*
X009112Y015851D01*
X009111Y015852D02*
X009929Y015852D01*
X009927Y015853D02*
X009110Y015853D01*
X009108Y015854D02*
X009924Y015854D01*
X009922Y015855D02*
X009107Y015855D01*
X009106Y015856D02*
X009919Y015856D01*
X009916Y015857D02*
X009104Y015857D01*
X009103Y015858D02*
X009913Y015858D01*
X009910Y015859D02*
X009101Y015859D01*
X009100Y015860D02*
X009908Y015860D01*
X009905Y015861D02*
X009099Y015861D01*
X009098Y015862D02*
X009902Y015862D01*
X009899Y015863D02*
X009096Y015863D01*
X009095Y015864D02*
X009896Y015864D01*
X009893Y015865D02*
X009094Y015865D01*
X009093Y015866D02*
X009890Y015866D01*
X009887Y015867D02*
X009092Y015867D01*
X009091Y015868D02*
X009884Y015868D01*
X009881Y015869D02*
X009089Y015869D01*
X009088Y015870D02*
X009878Y015870D01*
X009876Y015871D02*
X009087Y015871D01*
X009086Y015872D02*
X009873Y015872D01*
X009870Y015873D02*
X009086Y015873D01*
X009087Y015874D02*
X009867Y015874D01*
X009864Y015875D02*
X009088Y015875D01*
X009089Y015876D02*
X009861Y015876D01*
X009858Y015877D02*
X009090Y015877D01*
X009091Y015878D02*
X009855Y015878D01*
X009852Y015879D02*
X009092Y015879D01*
X009093Y015880D02*
X009849Y015880D01*
X009847Y015881D02*
X009094Y015881D01*
X009096Y015882D02*
X009844Y015882D01*
X009841Y015883D02*
X009098Y015883D01*
X009100Y015883D02*
X009838Y015883D01*
X009834Y015884D02*
X009102Y015884D01*
X009104Y015885D02*
X009831Y015885D01*
X009828Y015886D02*
X009107Y015886D01*
X009109Y015887D02*
X009824Y015887D01*
X009821Y015888D02*
X009111Y015888D01*
X009113Y015889D02*
X009817Y015889D01*
X009814Y015890D02*
X009115Y015890D01*
X009118Y015891D02*
X009811Y015891D01*
X009807Y015892D02*
X009120Y015892D01*
X009122Y015893D02*
X009804Y015893D01*
X009800Y015894D02*
X009124Y015894D01*
X009127Y015895D02*
X009797Y015895D01*
X009794Y015896D02*
X009129Y015896D01*
X009131Y015897D02*
X009790Y015897D01*
X009787Y015898D02*
X009133Y015898D01*
X009135Y015899D02*
X009783Y015899D01*
X009780Y015900D02*
X009138Y015900D01*
X009140Y015901D02*
X009776Y015901D01*
X009773Y015902D02*
X009142Y015902D01*
X009144Y015903D02*
X009770Y015903D01*
X009766Y015904D02*
X009147Y015904D01*
X009149Y015905D02*
X009763Y015905D01*
X009759Y015906D02*
X009151Y015906D01*
X009153Y015907D02*
X009756Y015907D01*
X009752Y015908D02*
X009155Y015908D01*
X009158Y015909D02*
X009747Y015909D01*
X009743Y015910D02*
X009160Y015910D01*
X009162Y015911D02*
X009739Y015911D01*
X009735Y015912D02*
X009164Y015912D01*
X009166Y015913D02*
X009731Y015913D01*
X009727Y015914D02*
X009169Y015914D01*
X009171Y015915D02*
X009722Y015915D01*
X009718Y015916D02*
X009174Y015916D01*
X009178Y015917D02*
X009714Y015917D01*
X009710Y015918D02*
X009181Y015918D01*
X009185Y015919D02*
X009706Y015919D01*
X009701Y015920D02*
X009189Y015920D01*
X009192Y015921D02*
X009697Y015921D01*
X009693Y015922D02*
X009196Y015922D01*
X009200Y015923D02*
X009689Y015923D01*
X009685Y015924D02*
X009204Y015924D01*
X009207Y015925D02*
X009680Y015925D01*
X009676Y015926D02*
X009211Y015926D01*
X009215Y015927D02*
X009671Y015927D01*
X009666Y015928D02*
X009218Y015928D01*
X009222Y015929D02*
X009660Y015929D01*
X009655Y015930D02*
X009226Y015930D01*
X009229Y015931D02*
X009649Y015931D01*
X009643Y015932D02*
X009233Y015932D01*
X009237Y015933D02*
X009638Y015933D01*
X009632Y015934D02*
X009241Y015934D01*
X009244Y015935D02*
X009626Y015935D01*
X009621Y015936D02*
X009248Y015936D01*
X009252Y015937D02*
X009615Y015937D01*
X009610Y015938D02*
X009257Y015938D01*
X009264Y015939D02*
X009604Y015939D01*
X009598Y015940D02*
X009270Y015940D01*
X009277Y015941D02*
X009593Y015941D01*
X009585Y015942D02*
X009284Y015942D01*
X009291Y015943D02*
X009576Y015943D01*
X009567Y015944D02*
X009298Y015944D01*
X009304Y015945D02*
X009558Y015945D01*
X009549Y015946D02*
X009311Y015946D01*
X009318Y015947D02*
X009540Y015947D01*
X009531Y015948D02*
X009325Y015948D01*
X009332Y015949D02*
X009522Y015949D01*
X009513Y015950D02*
X009341Y015950D01*
X009362Y015951D02*
X009499Y015951D01*
X009472Y015952D02*
X009383Y015952D01*
X009404Y015953D02*
X009445Y015953D01*
X009448Y015579D02*
X009206Y015579D01*
X009207Y015580D02*
X009397Y015580D01*
X009324Y015581D02*
X009209Y015581D01*
X009204Y015578D02*
X009486Y015578D01*
X009520Y015577D02*
X009203Y015577D01*
X009202Y015576D02*
X009551Y015576D01*
X009576Y015575D02*
X009200Y015575D01*
X009207Y015457D02*
X009105Y015457D01*
X009105Y015458D02*
X009231Y015458D01*
X009207Y015456D02*
X009104Y015456D01*
X009104Y015455D02*
X009206Y015455D01*
X009205Y015454D02*
X009104Y015454D01*
X009103Y015453D02*
X009204Y015453D01*
X009203Y015452D02*
X009103Y015452D01*
X009103Y015451D02*
X009203Y015451D01*
X009202Y015450D02*
X009102Y015450D01*
X009102Y015449D02*
X009201Y015449D01*
X009200Y015448D02*
X009102Y015448D01*
X009101Y015447D02*
X009199Y015447D01*
X009198Y015446D02*
X009101Y015446D01*
X009101Y015445D02*
X009198Y015445D01*
X009197Y015444D02*
X009100Y015444D01*
X009100Y015443D02*
X009196Y015443D01*
X009195Y015442D02*
X009100Y015442D01*
X009099Y015441D02*
X009194Y015441D01*
X009194Y015440D02*
X009099Y015440D01*
X009099Y015439D02*
X009193Y015439D01*
X009192Y015438D02*
X009098Y015438D01*
X009098Y015437D02*
X009191Y015437D01*
X009190Y015436D02*
X009098Y015436D01*
X009097Y015435D02*
X009190Y015435D01*
X009189Y015434D02*
X009097Y015434D01*
X009097Y015433D02*
X009188Y015433D01*
X009187Y015432D02*
X009096Y015432D01*
X009096Y015431D02*
X009186Y015431D01*
X009185Y015430D02*
X009096Y015430D01*
X009095Y015429D02*
X009185Y015429D01*
X009184Y015428D02*
X009095Y015428D01*
X009095Y015427D02*
X009183Y015427D01*
X009182Y015426D02*
X009094Y015426D01*
X009094Y015425D02*
X009181Y015425D01*
X009181Y015424D02*
X009094Y015424D01*
X009093Y015423D02*
X009180Y015423D01*
X009179Y015422D02*
X009093Y015422D01*
X009093Y015421D02*
X009178Y015421D01*
X009177Y015420D02*
X009092Y015420D01*
X009092Y015419D02*
X009176Y015419D01*
X009176Y015418D02*
X009091Y015418D01*
X009091Y015417D02*
X009175Y015417D01*
X009174Y015416D02*
X009091Y015416D01*
X009090Y015415D02*
X009173Y015415D01*
X009172Y015414D02*
X009090Y015414D01*
X009090Y015413D02*
X009172Y015413D01*
X009171Y015412D02*
X009089Y015412D01*
X009089Y015411D02*
X009170Y015411D01*
X009169Y015410D02*
X009089Y015410D01*
X009088Y015409D02*
X009168Y015409D01*
X009168Y015408D02*
X009088Y015408D01*
X009088Y015407D02*
X009167Y015407D01*
X009166Y015406D02*
X009087Y015406D01*
X009087Y015405D02*
X009165Y015405D01*
X009164Y015404D02*
X009087Y015404D01*
X009086Y015403D02*
X009163Y015403D01*
X009163Y015402D02*
X009086Y015402D01*
X009086Y015401D02*
X009162Y015401D01*
X009161Y015400D02*
X009085Y015400D01*
X009085Y015399D02*
X009160Y015399D01*
X009159Y015398D02*
X009085Y015398D01*
X009084Y015397D02*
X009159Y015397D01*
X009158Y015396D02*
X009084Y015396D01*
X009084Y015395D02*
X009158Y015395D01*
X009158Y015394D02*
X009083Y015394D01*
X009083Y015393D02*
X009157Y015393D01*
X009157Y015392D02*
X009083Y015392D01*
X009082Y015391D02*
X009157Y015391D01*
X009156Y015390D02*
X009082Y015390D01*
X009082Y015389D02*
X009156Y015389D01*
X009156Y015388D02*
X009082Y015388D01*
X009082Y015387D02*
X009155Y015387D01*
X009155Y015386D02*
X009081Y015386D01*
X009081Y015385D02*
X009155Y015385D01*
X009154Y015384D02*
X009081Y015384D01*
X009081Y015383D02*
X009154Y015383D01*
X009154Y015382D02*
X009080Y015382D01*
X009080Y015381D02*
X009153Y015381D01*
X009153Y015380D02*
X009080Y015380D01*
X009080Y015379D02*
X009153Y015379D01*
X009152Y015378D02*
X009080Y015378D01*
X009079Y015377D02*
X009152Y015377D01*
X009152Y015376D02*
X009079Y015376D01*
X009079Y015375D02*
X009151Y015375D01*
X009151Y015374D02*
X009079Y015374D01*
X009078Y015373D02*
X009151Y015373D01*
X009150Y015372D02*
X009078Y015372D01*
X009078Y015371D02*
X009150Y015371D01*
X009150Y015370D02*
X009078Y015370D01*
X009078Y015369D02*
X009149Y015369D01*
X009149Y015368D02*
X009077Y015368D01*
X009077Y015367D02*
X009149Y015367D01*
X009148Y015366D02*
X009077Y015366D01*
X009077Y015365D02*
X009148Y015365D01*
X009148Y015364D02*
X009076Y015364D01*
X009076Y015363D02*
X009147Y015363D01*
X009147Y015362D02*
X009076Y015362D01*
X009076Y015361D02*
X009146Y015361D01*
X009146Y015360D02*
X009075Y015360D01*
X009075Y015359D02*
X009146Y015359D01*
X009145Y015358D02*
X009075Y015358D01*
X009075Y015357D02*
X009145Y015357D01*
X009145Y015356D02*
X009075Y015356D01*
X009074Y015355D02*
X009144Y015355D01*
X009144Y015354D02*
X009074Y015354D01*
X009074Y015353D02*
X009144Y015353D01*
X009143Y015352D02*
X009074Y015352D01*
X009073Y015351D02*
X009143Y015351D01*
X009143Y015350D02*
X009073Y015350D01*
X009073Y015349D02*
X009142Y015349D01*
X009142Y015348D02*
X009073Y015348D01*
X009073Y015347D02*
X009142Y015347D01*
X009141Y015346D02*
X009072Y015346D01*
X009072Y015345D02*
X009141Y015345D01*
X009141Y015344D02*
X009072Y015344D01*
X009072Y015343D02*
X009140Y015343D01*
X009140Y015342D02*
X009071Y015342D01*
X009071Y015341D02*
X009140Y015341D01*
X009139Y015340D02*
X009071Y015340D01*
X009071Y015339D02*
X009139Y015339D01*
X009139Y015338D02*
X009071Y015338D01*
X009070Y015337D02*
X009138Y015337D01*
X009138Y015336D02*
X009070Y015336D01*
X009070Y015335D02*
X009138Y015335D01*
X009137Y015334D02*
X009070Y015334D01*
X009069Y015333D02*
X009137Y015333D01*
X009137Y015332D02*
X009069Y015332D01*
X009069Y015331D02*
X009136Y015331D01*
X009136Y015330D02*
X009069Y015330D01*
X009069Y015329D02*
X009136Y015329D01*
X009135Y015328D02*
X009068Y015328D01*
X009068Y015327D02*
X009135Y015327D01*
X009135Y015326D02*
X009068Y015326D01*
X009068Y015325D02*
X009134Y015325D01*
X009134Y015324D02*
X009067Y015324D01*
X009067Y015323D02*
X009134Y015323D01*
X009133Y015322D02*
X009067Y015322D01*
X009067Y015321D02*
X009133Y015321D01*
X009133Y015320D02*
X009067Y015320D01*
X009066Y015319D02*
X009133Y015319D01*
X009132Y015318D02*
X009066Y015318D01*
X009066Y015317D02*
X009132Y015317D01*
X009132Y015316D02*
X009066Y015316D01*
X009065Y015315D02*
X009132Y015315D01*
X009132Y015314D02*
X009065Y015314D01*
X009065Y015313D02*
X009131Y015313D01*
X009131Y015312D02*
X009065Y015312D01*
X009065Y015311D02*
X009131Y015311D01*
X009131Y015310D02*
X009065Y015310D01*
X009064Y015309D02*
X009131Y015309D01*
X009130Y015308D02*
X009064Y015308D01*
X009064Y015307D02*
X009130Y015307D01*
X009130Y015306D02*
X009064Y015306D01*
X009064Y015305D02*
X009130Y015305D01*
X009130Y015304D02*
X009064Y015304D01*
X009063Y015303D02*
X009129Y015303D01*
X009129Y015302D02*
X009063Y015302D01*
X009063Y015301D02*
X009129Y015301D01*
X009129Y015300D02*
X009063Y015300D01*
X009063Y015299D02*
X009129Y015299D01*
X009128Y015298D02*
X009063Y015298D01*
X009062Y015297D02*
X009128Y015297D01*
X009128Y015296D02*
X009062Y015296D01*
X009062Y015295D02*
X009128Y015295D01*
X009128Y015294D02*
X009062Y015294D01*
X009062Y015293D02*
X009127Y015293D01*
X009127Y015292D02*
X009062Y015292D01*
X009062Y015291D02*
X009127Y015291D01*
X009127Y015290D02*
X009061Y015290D01*
X009061Y015289D02*
X009127Y015289D01*
X009126Y015288D02*
X009061Y015288D01*
X009061Y015287D02*
X009126Y015287D01*
X009126Y015286D02*
X009061Y015286D01*
X009061Y015285D02*
X009126Y015285D01*
X009126Y015284D02*
X009060Y015284D01*
X009060Y015283D02*
X009125Y015283D01*
X009125Y015282D02*
X009060Y015282D01*
X009060Y015281D02*
X009125Y015281D01*
X009125Y015280D02*
X009060Y015280D01*
X009060Y015279D02*
X009125Y015279D01*
X009124Y015278D02*
X009060Y015278D01*
X009059Y015277D02*
X009124Y015277D01*
X009124Y015276D02*
X009059Y015276D01*
X009059Y015275D02*
X009124Y015275D01*
X009124Y015274D02*
X009059Y015274D01*
X009059Y015273D02*
X009123Y015273D01*
X009123Y015272D02*
X009059Y015272D01*
X009058Y015271D02*
X009123Y015271D01*
X009123Y015270D02*
X009058Y015270D01*
X009058Y015269D02*
X009123Y015269D01*
X009122Y015268D02*
X009058Y015268D01*
X009058Y015267D02*
X009122Y015267D01*
X009122Y015266D02*
X009058Y015266D01*
X009058Y015265D02*
X009122Y015265D01*
X009122Y015264D02*
X009057Y015264D01*
X009057Y015263D02*
X009121Y015263D01*
X009121Y015262D02*
X009057Y015262D01*
X009057Y015261D02*
X009121Y015261D01*
X009121Y015260D02*
X009057Y015260D01*
X009057Y015259D02*
X009121Y015259D01*
X009120Y015258D02*
X009056Y015258D01*
X009056Y015257D02*
X009120Y015257D01*
X009120Y015256D02*
X009056Y015256D01*
X009056Y015255D02*
X009120Y015255D01*
X009120Y015254D02*
X009056Y015254D01*
X009056Y015253D02*
X009119Y015253D01*
X009119Y015252D02*
X009055Y015252D01*
X009055Y015251D02*
X009119Y015251D01*
X009119Y015250D02*
X009055Y015250D01*
X009055Y015249D02*
X009119Y015249D01*
X009118Y015248D02*
X009055Y015248D01*
X009055Y015247D02*
X009118Y015247D01*
X009118Y015246D02*
X009055Y015246D01*
X009054Y015245D02*
X009118Y015245D01*
X009118Y015244D02*
X009054Y015244D01*
X009054Y015243D02*
X009117Y015243D01*
X009117Y015242D02*
X009054Y015242D01*
X009054Y015241D02*
X009117Y015241D01*
X009117Y015240D02*
X009054Y015240D01*
X009053Y015239D02*
X009117Y015239D01*
X009117Y015238D02*
X009053Y015238D01*
X009053Y015237D02*
X009117Y015237D01*
X009117Y015236D02*
X009053Y015236D01*
X009052Y015236D02*
X008885Y015236D01*
X008883Y015237D02*
X009052Y015237D01*
X009051Y015238D02*
X008882Y015238D01*
X008880Y015239D02*
X009051Y015239D01*
X009050Y015240D02*
X008879Y015240D01*
X008877Y015241D02*
X009050Y015241D01*
X009049Y015242D02*
X008875Y015242D01*
X008874Y015243D02*
X009049Y015243D01*
X009048Y015244D02*
X008872Y015244D01*
X008870Y015245D02*
X009048Y015245D01*
X009047Y015246D02*
X008869Y015246D01*
X008867Y015247D02*
X009047Y015247D01*
X009046Y015248D02*
X008865Y015248D01*
X008864Y015249D02*
X009046Y015249D01*
X009045Y015250D02*
X008862Y015250D01*
X008860Y015251D02*
X009045Y015251D01*
X009044Y015252D02*
X008859Y015252D01*
X008857Y015253D02*
X009044Y015253D01*
X009043Y015254D02*
X008855Y015254D01*
X008854Y015255D02*
X009043Y015255D01*
X009042Y015256D02*
X008852Y015256D01*
X008850Y015257D02*
X009042Y015257D01*
X009041Y015258D02*
X008849Y015258D01*
X008847Y015259D02*
X009041Y015259D01*
X009040Y015260D02*
X008845Y015260D01*
X008844Y015261D02*
X009040Y015261D01*
X009039Y015262D02*
X008842Y015262D01*
X008841Y015263D02*
X009039Y015263D01*
X009038Y015264D02*
X008839Y015264D01*
X008837Y015265D02*
X009038Y015265D01*
X009037Y015266D02*
X008836Y015266D01*
X008834Y015267D02*
X009037Y015267D01*
X009036Y015268D02*
X008832Y015268D01*
X008831Y015269D02*
X009036Y015269D01*
X009035Y015270D02*
X008829Y015270D01*
X008827Y015271D02*
X009035Y015271D01*
X009034Y015272D02*
X008826Y015272D01*
X008824Y015273D02*
X009034Y015273D01*
X009033Y015274D02*
X008972Y015274D01*
X008822Y015274D01*
X008821Y015275D02*
X008971Y015275D01*
X009033Y015275D01*
X009033Y015276D02*
X008970Y015276D01*
X008819Y015276D01*
X008817Y015277D02*
X008969Y015277D01*
X009032Y015277D01*
X009032Y015278D02*
X008968Y015278D01*
X008816Y015278D01*
X008814Y015279D02*
X008966Y015279D01*
X008967Y015279D02*
X009031Y015279D01*
X009031Y015280D02*
X008966Y015280D01*
X008965Y015280D02*
X008812Y015280D01*
X008811Y015281D02*
X008964Y015281D01*
X008964Y015282D02*
X009030Y015282D01*
X009030Y015281D02*
X008965Y015281D01*
X008963Y015282D02*
X008809Y015282D01*
X008807Y015283D02*
X008962Y015283D01*
X008962Y015284D02*
X009029Y015284D01*
X009029Y015283D02*
X008963Y015283D01*
X008961Y015284D02*
X008806Y015284D01*
X008804Y015285D02*
X008960Y015285D01*
X008960Y015286D02*
X009028Y015286D01*
X009028Y015285D02*
X008961Y015285D01*
X008959Y015286D02*
X008803Y015286D01*
X008801Y015287D02*
X008958Y015287D01*
X008958Y015288D02*
X009027Y015288D01*
X009027Y015287D02*
X008959Y015287D01*
X008957Y015288D02*
X008799Y015288D01*
X008798Y015289D02*
X008956Y015289D01*
X008957Y015290D02*
X009026Y015290D01*
X009026Y015289D02*
X008958Y015289D01*
X008956Y015291D02*
X009025Y015291D01*
X009025Y015292D02*
X008955Y015292D01*
X008954Y015291D02*
X008794Y015291D01*
X008794Y015292D02*
X008953Y015292D01*
X008954Y015293D02*
X009024Y015293D01*
X009024Y015294D02*
X008953Y015294D01*
X008952Y015295D02*
X009023Y015295D01*
X009023Y015296D02*
X008951Y015296D01*
X008950Y015297D02*
X009022Y015297D01*
X009022Y015298D02*
X008949Y015298D01*
X008948Y015299D02*
X009022Y015299D01*
X009021Y015300D02*
X008947Y015300D01*
X008946Y015301D02*
X009021Y015301D01*
X009020Y015302D02*
X008945Y015302D01*
X008944Y015303D02*
X009020Y015303D01*
X009020Y015304D02*
X008943Y015304D01*
X008942Y015305D02*
X009019Y015305D01*
X009019Y015306D02*
X008941Y015306D01*
X008940Y015307D02*
X009019Y015307D01*
X009018Y015308D02*
X008939Y015308D01*
X008938Y015309D02*
X009018Y015309D01*
X009017Y015310D02*
X008937Y015310D01*
X008937Y015311D02*
X009017Y015311D01*
X009017Y015312D02*
X008936Y015312D01*
X008935Y015313D02*
X009016Y015313D01*
X009016Y015314D02*
X008934Y015314D01*
X008933Y015315D02*
X009015Y015315D01*
X009015Y015316D02*
X008932Y015316D01*
X008931Y015317D02*
X009015Y015317D01*
X009014Y015318D02*
X008930Y015318D01*
X008929Y015319D02*
X009014Y015319D01*
X009013Y015320D02*
X008928Y015320D01*
X008927Y015321D02*
X009013Y015321D01*
X009013Y015322D02*
X008926Y015322D01*
X008925Y015323D02*
X009012Y015323D01*
X009012Y015324D02*
X008924Y015324D01*
X008923Y015325D02*
X009012Y015325D01*
X009011Y015326D02*
X008922Y015326D01*
X008921Y015327D02*
X009011Y015327D01*
X009010Y015328D02*
X008920Y015328D01*
X008919Y015329D02*
X009010Y015329D01*
X009010Y015330D02*
X008918Y015330D01*
X008917Y015331D02*
X009009Y015331D01*
X009009Y015332D02*
X008916Y015332D01*
X008916Y015333D02*
X009008Y015333D01*
X009008Y015334D02*
X008915Y015334D01*
X008914Y015335D02*
X009008Y015335D01*
X009007Y015336D02*
X008913Y015336D01*
X008912Y015337D02*
X009007Y015337D01*
X009007Y015338D02*
X008911Y015338D01*
X008910Y015339D02*
X009006Y015339D01*
X009006Y015340D02*
X008909Y015340D01*
X008908Y015341D02*
X009005Y015341D01*
X009005Y015342D02*
X008907Y015342D01*
X008906Y015343D02*
X009005Y015343D01*
X009004Y015344D02*
X008905Y015344D01*
X008904Y015345D02*
X009004Y015345D01*
X009003Y015346D02*
X008903Y015346D01*
X008902Y015347D02*
X009003Y015347D01*
X009003Y015348D02*
X008901Y015348D01*
X008900Y015349D02*
X009002Y015349D01*
X009002Y015350D02*
X008899Y015350D01*
X008898Y015351D02*
X009001Y015351D01*
X009001Y015352D02*
X008897Y015352D01*
X008896Y015353D02*
X009001Y015353D01*
X009000Y015354D02*
X008895Y015354D01*
X008894Y015355D02*
X009000Y015355D01*
X009000Y015356D02*
X008894Y015356D01*
X008893Y015357D02*
X008999Y015357D01*
X008999Y015358D02*
X008892Y015358D01*
X008891Y015359D02*
X008999Y015359D01*
X008998Y015360D02*
X008890Y015360D01*
X008889Y015361D02*
X008998Y015361D01*
X008998Y015362D02*
X008888Y015362D01*
X008887Y015363D02*
X008997Y015363D01*
X008997Y015364D02*
X008886Y015364D01*
X008885Y015365D02*
X008997Y015365D01*
X008996Y015366D02*
X008884Y015366D01*
X008884Y015367D02*
X008996Y015367D01*
X008996Y015368D02*
X008886Y015368D01*
X008887Y015369D02*
X008996Y015369D01*
X008995Y015370D02*
X008889Y015370D01*
X008891Y015371D02*
X008995Y015371D01*
X008995Y015372D02*
X008893Y015372D01*
X008895Y015373D02*
X008994Y015373D01*
X008994Y015374D02*
X008896Y015374D01*
X008898Y015375D02*
X008994Y015375D01*
X008993Y015376D02*
X008900Y015376D01*
X008902Y015377D02*
X008993Y015377D01*
X008993Y015378D02*
X008904Y015378D01*
X008906Y015379D02*
X008993Y015379D01*
X008992Y015380D02*
X008907Y015380D01*
X008909Y015381D02*
X008992Y015381D01*
X008992Y015382D02*
X008911Y015382D01*
X008913Y015383D02*
X008991Y015383D01*
X008991Y015384D02*
X008915Y015384D01*
X008916Y015385D02*
X008991Y015385D01*
X008990Y015386D02*
X008918Y015386D01*
X008920Y015387D02*
X008990Y015387D01*
X008990Y015388D02*
X008922Y015388D01*
X008924Y015389D02*
X008989Y015389D01*
X008989Y015390D02*
X008925Y015390D01*
X008927Y015391D02*
X008989Y015391D01*
X008989Y015392D02*
X008929Y015392D01*
X008931Y015393D02*
X008988Y015393D01*
X008988Y015394D02*
X008933Y015394D01*
X008935Y015395D02*
X008988Y015395D01*
X008987Y015396D02*
X008936Y015396D01*
X008938Y015397D02*
X008987Y015397D01*
X008987Y015398D02*
X008940Y015398D01*
X008942Y015399D02*
X008986Y015399D01*
X008986Y015400D02*
X008944Y015400D01*
X008946Y015401D02*
X008986Y015401D01*
X008985Y015402D02*
X008947Y015402D01*
X008949Y015403D02*
X008985Y015403D01*
X008985Y015404D02*
X008951Y015404D01*
X008953Y015405D02*
X008985Y015405D01*
X008984Y015406D02*
X008955Y015406D01*
X008956Y015407D02*
X008984Y015407D01*
X008984Y015408D02*
X008958Y015408D01*
X008960Y015409D02*
X008983Y015409D01*
X008983Y015410D02*
X008962Y015410D01*
X008964Y015411D02*
X008983Y015411D01*
X008982Y015412D02*
X008966Y015412D01*
X008967Y015413D02*
X008982Y015413D01*
X008982Y015414D02*
X008969Y015414D01*
X008971Y015415D02*
X008982Y015415D01*
X008981Y015416D02*
X008973Y015416D01*
X008975Y015417D02*
X008981Y015417D01*
X008981Y015418D02*
X008977Y015418D01*
X008978Y015419D02*
X008980Y015419D01*
X008904Y015338D02*
X008825Y015338D01*
X008826Y015339D02*
X008903Y015339D01*
X008902Y015340D02*
X008826Y015340D01*
X008827Y015341D02*
X008901Y015341D01*
X008900Y015342D02*
X008828Y015342D01*
X008828Y015343D02*
X008899Y015343D01*
X008898Y015344D02*
X008829Y015344D01*
X008830Y015345D02*
X008896Y015345D01*
X008895Y015346D02*
X008830Y015346D01*
X008831Y015347D02*
X008894Y015347D01*
X008893Y015348D02*
X008832Y015348D01*
X008832Y015349D02*
X008892Y015349D01*
X008891Y015350D02*
X008833Y015350D01*
X008834Y015351D02*
X008890Y015351D01*
X008889Y015352D02*
X008834Y015352D01*
X008835Y015353D02*
X008888Y015353D01*
X008887Y015354D02*
X008836Y015354D01*
X008836Y015355D02*
X008886Y015355D01*
X008885Y015356D02*
X008837Y015356D01*
X008838Y015357D02*
X008884Y015357D01*
X008883Y015358D02*
X008838Y015358D01*
X008839Y015359D02*
X008882Y015359D01*
X008881Y015360D02*
X008840Y015360D01*
X008840Y015361D02*
X008880Y015361D01*
X008878Y015362D02*
X008841Y015362D01*
X008842Y015363D02*
X008877Y015363D01*
X008876Y015364D02*
X008842Y015364D01*
X008843Y015365D02*
X008875Y015365D01*
X008874Y015366D02*
X008844Y015366D01*
X008844Y015367D02*
X008873Y015367D01*
X008872Y015368D02*
X008845Y015368D01*
X008846Y015369D02*
X008871Y015369D01*
X008870Y015370D02*
X008847Y015370D01*
X008847Y015371D02*
X008869Y015371D01*
X008868Y015372D02*
X008848Y015372D01*
X008849Y015373D02*
X008867Y015373D01*
X008866Y015374D02*
X008849Y015374D01*
X008850Y015375D02*
X008865Y015375D01*
X008864Y015376D02*
X008851Y015376D01*
X008851Y015377D02*
X008863Y015377D01*
X008862Y015378D02*
X008852Y015378D01*
X008853Y015379D02*
X008860Y015379D01*
X008859Y015380D02*
X008853Y015380D01*
X008854Y015381D02*
X008858Y015381D01*
X008857Y015382D02*
X008855Y015382D01*
X008855Y015383D02*
X008856Y015383D01*
X008824Y015337D02*
X008905Y015337D01*
X008906Y015336D02*
X008823Y015336D01*
X008823Y015335D02*
X008907Y015335D01*
X008908Y015334D02*
X008822Y015334D01*
X008821Y015333D02*
X008909Y015333D01*
X008910Y015332D02*
X008821Y015332D01*
X008820Y015331D02*
X008911Y015331D01*
X008912Y015330D02*
X008819Y015330D01*
X008819Y015329D02*
X008913Y015329D01*
X008915Y015328D02*
X008818Y015328D01*
X008817Y015327D02*
X008916Y015327D01*
X008917Y015326D02*
X008817Y015326D01*
X008816Y015325D02*
X008918Y015325D01*
X008919Y015324D02*
X008815Y015324D01*
X008815Y015323D02*
X008920Y015323D01*
X008921Y015322D02*
X008814Y015322D01*
X008813Y015321D02*
X008922Y015321D01*
X008923Y015320D02*
X008813Y015320D01*
X008812Y015319D02*
X008924Y015319D01*
X008925Y015318D02*
X008811Y015318D01*
X008811Y015317D02*
X008926Y015317D01*
X008927Y015316D02*
X008810Y015316D01*
X008809Y015315D02*
X008928Y015315D01*
X008929Y015314D02*
X008809Y015314D01*
X008808Y015313D02*
X008930Y015313D01*
X008931Y015312D02*
X008807Y015312D01*
X008807Y015311D02*
X008933Y015311D01*
X008934Y015310D02*
X008806Y015310D01*
X008805Y015309D02*
X008935Y015309D01*
X008936Y015308D02*
X008805Y015308D01*
X008804Y015307D02*
X008937Y015307D01*
X008938Y015306D02*
X008803Y015306D01*
X008803Y015305D02*
X008939Y015305D01*
X008940Y015304D02*
X008802Y015304D01*
X008801Y015303D02*
X008941Y015303D01*
X008942Y015302D02*
X008800Y015302D01*
X008800Y015301D02*
X008943Y015301D01*
X008944Y015300D02*
X008799Y015300D01*
X008798Y015299D02*
X008945Y015299D01*
X008946Y015298D02*
X008798Y015298D01*
X008797Y015297D02*
X008947Y015297D01*
X008948Y015296D02*
X008796Y015296D01*
X008796Y015295D02*
X008950Y015295D01*
X008951Y015294D02*
X008795Y015294D01*
X008794Y015293D02*
X008952Y015293D01*
X008955Y015290D02*
X008796Y015290D01*
X008835Y015238D02*
X008839Y015238D01*
X008843Y015237D02*
X008834Y015237D01*
X008834Y015236D02*
X008847Y015236D01*
X008851Y015235D02*
X008834Y015235D01*
X008833Y015234D02*
X008855Y015234D01*
X008859Y015233D02*
X008833Y015233D01*
X008833Y015232D02*
X008863Y015232D01*
X008867Y015231D02*
X008832Y015231D01*
X008832Y015230D02*
X008871Y015230D01*
X008875Y015229D02*
X008832Y015229D01*
X008831Y015228D02*
X008879Y015228D01*
X008883Y015227D02*
X008831Y015227D01*
X008831Y015226D02*
X008887Y015226D01*
X008891Y015225D02*
X008830Y015225D01*
X008830Y015224D02*
X008895Y015224D01*
X008899Y015223D02*
X008830Y015223D01*
X008830Y015222D02*
X008903Y015222D01*
X008905Y015224D02*
X009115Y015224D01*
X009115Y015223D02*
X008907Y015223D01*
X008908Y015222D02*
X009115Y015222D01*
X009115Y015221D02*
X008910Y015221D01*
X008911Y015220D02*
X008829Y015220D01*
X008829Y015219D02*
X009114Y015219D01*
X009114Y015218D02*
X008828Y015218D01*
X008828Y015217D02*
X009114Y015217D01*
X009114Y015216D02*
X008828Y015216D01*
X008827Y015215D02*
X009114Y015215D01*
X009114Y015214D02*
X008827Y015214D01*
X008827Y015213D02*
X009114Y015213D01*
X009114Y015212D02*
X008826Y015212D01*
X008826Y015211D02*
X009113Y015211D01*
X009113Y015210D02*
X008826Y015210D01*
X008825Y015209D02*
X009113Y015209D01*
X009113Y015208D02*
X008825Y015208D01*
X008825Y015207D02*
X009113Y015207D01*
X009113Y015206D02*
X008825Y015206D01*
X008824Y015205D02*
X009113Y015205D01*
X009113Y015204D02*
X008824Y015204D01*
X008824Y015203D02*
X009112Y015203D01*
X009112Y015202D02*
X008823Y015202D01*
X008823Y015201D02*
X009112Y015201D01*
X009112Y015200D02*
X008823Y015200D01*
X008822Y015199D02*
X009112Y015199D01*
X009112Y015198D02*
X008822Y015198D01*
X008822Y015197D02*
X009112Y015197D01*
X009111Y015196D02*
X008821Y015196D01*
X008821Y015195D02*
X009111Y015195D01*
X009111Y015194D02*
X008821Y015194D01*
X008820Y015193D02*
X009111Y015193D01*
X009111Y015192D02*
X008820Y015192D01*
X008820Y015191D02*
X009111Y015191D01*
X009111Y015190D02*
X008820Y015190D01*
X008819Y015189D02*
X009111Y015189D01*
X009110Y015188D02*
X008819Y015188D01*
X008819Y015187D02*
X009110Y015187D01*
X009110Y015186D02*
X008818Y015186D01*
X008818Y015185D02*
X009110Y015185D01*
X009110Y015184D02*
X008818Y015184D01*
X008817Y015183D02*
X009110Y015183D01*
X009110Y015182D02*
X008817Y015182D01*
X008817Y015181D02*
X009110Y015181D01*
X009109Y015180D02*
X008816Y015180D01*
X008816Y015179D02*
X009109Y015179D01*
X009109Y015178D02*
X008816Y015178D01*
X008815Y015177D02*
X009109Y015177D01*
X009109Y015176D02*
X008815Y015176D01*
X008815Y015175D02*
X009109Y015175D01*
X009109Y015174D02*
X008814Y015174D01*
X008814Y015173D02*
X009109Y015173D01*
X009108Y015172D02*
X008814Y015172D01*
X008814Y015171D02*
X009108Y015171D01*
X009108Y015170D02*
X008813Y015170D01*
X008813Y015169D02*
X009108Y015169D01*
X009108Y015168D02*
X008813Y015168D01*
X008812Y015167D02*
X009108Y015167D01*
X009108Y015166D02*
X008812Y015166D01*
X008812Y015165D02*
X009108Y015165D01*
X009107Y015164D02*
X008811Y015164D01*
X008811Y015163D02*
X009107Y015163D01*
X009107Y015162D02*
X008811Y015162D01*
X008810Y015161D02*
X009107Y015161D01*
X009107Y015160D02*
X008810Y015160D01*
X008810Y015159D02*
X009107Y015159D01*
X009107Y015158D02*
X008809Y015158D01*
X008809Y015157D02*
X009107Y015157D01*
X009107Y015156D02*
X008809Y015156D01*
X008809Y015155D02*
X009107Y015155D01*
X009107Y015154D02*
X008808Y015154D01*
X008808Y015153D02*
X009107Y015153D01*
X009107Y015152D02*
X008808Y015152D01*
X008807Y015151D02*
X009106Y015151D01*
X009106Y015150D02*
X008807Y015150D01*
X008807Y015149D02*
X009106Y015149D01*
X009106Y015148D02*
X008806Y015148D01*
X008806Y015147D02*
X009106Y015147D01*
X009106Y015146D02*
X008806Y015146D01*
X008805Y015145D02*
X009106Y015145D01*
X009106Y015144D02*
X008805Y015144D01*
X008805Y015143D02*
X009106Y015143D01*
X009106Y015142D02*
X008805Y015142D01*
X008806Y015141D02*
X009106Y015141D01*
X009106Y015140D02*
X008808Y015140D01*
X008809Y015139D02*
X009106Y015139D01*
X009105Y015138D02*
X008811Y015138D01*
X008812Y015137D02*
X009105Y015137D01*
X009105Y015136D02*
X008814Y015136D01*
X008815Y015135D02*
X009105Y015135D01*
X009105Y015134D02*
X008817Y015134D01*
X008818Y015133D02*
X009105Y015133D01*
X009105Y015132D02*
X008820Y015132D01*
X008821Y015131D02*
X009105Y015131D01*
X009105Y015130D02*
X008823Y015130D01*
X008824Y015129D02*
X009105Y015129D01*
X009105Y015128D02*
X008826Y015128D01*
X008827Y015127D02*
X009105Y015127D01*
X009105Y015126D02*
X008829Y015126D01*
X008830Y015125D02*
X009104Y015125D01*
X009104Y015124D02*
X008832Y015124D01*
X008833Y015123D02*
X009104Y015123D01*
X009104Y015122D02*
X008835Y015122D01*
X008836Y015121D02*
X009104Y015121D01*
X009104Y015120D02*
X008838Y015120D01*
X008839Y015119D02*
X009104Y015119D01*
X009104Y015118D02*
X008841Y015118D01*
X008842Y015117D02*
X009104Y015117D01*
X009104Y015116D02*
X008844Y015116D01*
X008845Y015115D02*
X009104Y015115D01*
X009104Y015114D02*
X008847Y015114D01*
X008848Y015113D02*
X009104Y015113D01*
X009103Y015112D02*
X008850Y015112D01*
X008851Y015111D02*
X009103Y015111D01*
X009103Y015110D02*
X008853Y015110D01*
X008854Y015109D02*
X009103Y015109D01*
X009103Y015108D02*
X008856Y015108D01*
X008857Y015107D02*
X009103Y015107D01*
X009103Y015106D02*
X008859Y015106D01*
X008860Y015105D02*
X009103Y015105D01*
X009103Y015104D02*
X008862Y015104D01*
X008863Y015103D02*
X009103Y015103D01*
X009103Y015102D02*
X008865Y015102D01*
X008866Y015101D02*
X009103Y015101D01*
X009103Y015100D02*
X008868Y015100D01*
X008869Y015099D02*
X009103Y015099D01*
X009102Y015098D02*
X008871Y015098D01*
X008873Y015097D02*
X009102Y015097D01*
X009102Y015096D02*
X008874Y015096D01*
X008876Y015095D02*
X009102Y015095D01*
X009102Y015094D02*
X008877Y015094D01*
X008880Y015093D02*
X009102Y015093D01*
X009102Y015092D02*
X008882Y015092D01*
X008884Y015091D02*
X009102Y015091D01*
X009102Y015090D02*
X008886Y015090D01*
X008888Y015089D02*
X009102Y015089D01*
X009102Y015088D02*
X008891Y015088D01*
X008893Y015087D02*
X009102Y015087D01*
X009102Y015086D02*
X008895Y015086D01*
X008897Y015085D02*
X009101Y015085D01*
X009101Y015084D02*
X008900Y015084D01*
X008902Y015083D02*
X009101Y015083D01*
X009101Y015082D02*
X008904Y015082D01*
X008906Y015081D02*
X009101Y015081D01*
X009101Y015080D02*
X008909Y015080D01*
X008911Y015079D02*
X009101Y015079D01*
X009101Y015078D02*
X008913Y015078D01*
X008915Y015077D02*
X009101Y015077D01*
X009101Y015076D02*
X008917Y015076D01*
X008920Y015075D02*
X009101Y015075D01*
X009101Y015074D02*
X008922Y015074D01*
X008924Y015073D02*
X009101Y015073D01*
X009101Y015072D02*
X008926Y015072D01*
X008929Y015071D02*
X009101Y015071D01*
X009101Y015070D02*
X008931Y015070D01*
X008933Y015069D02*
X009101Y015069D01*
X009101Y015068D02*
X008935Y015068D01*
X008938Y015067D02*
X009101Y015067D01*
X009101Y015066D02*
X008940Y015066D01*
X008942Y015065D02*
X009101Y015065D01*
X009101Y015064D02*
X008944Y015064D01*
X008946Y015063D02*
X009101Y015063D01*
X009101Y015062D02*
X008949Y015062D01*
X008951Y015061D02*
X009100Y015061D01*
X009100Y015060D02*
X008953Y015060D01*
X008955Y015059D02*
X009100Y015059D01*
X009100Y015058D02*
X008958Y015058D01*
X008961Y015057D02*
X009100Y015057D01*
X009100Y015056D02*
X008964Y015056D01*
X008967Y015055D02*
X009100Y015055D01*
X009100Y015054D02*
X008970Y015054D01*
X008973Y015053D02*
X009100Y015053D01*
X009100Y015052D02*
X008976Y015052D01*
X008979Y015051D02*
X009100Y015051D01*
X009100Y015050D02*
X008982Y015050D01*
X008984Y015049D02*
X009100Y015049D01*
X009100Y015048D02*
X008987Y015048D01*
X008990Y015047D02*
X009100Y015047D01*
X009100Y015046D02*
X008993Y015046D01*
X008996Y015045D02*
X009100Y015045D01*
X009100Y015044D02*
X008999Y015044D01*
X009002Y015043D02*
X009100Y015043D01*
X009100Y015042D02*
X009005Y015042D01*
X009008Y015041D02*
X009100Y015041D01*
X009100Y015040D02*
X009011Y015040D01*
X009013Y015039D02*
X009100Y015039D01*
X009100Y015038D02*
X009016Y015038D01*
X009019Y015037D02*
X009100Y015037D01*
X009100Y015036D02*
X009022Y015036D01*
X009025Y015035D02*
X009099Y015035D01*
X009099Y015034D02*
X009028Y015034D01*
X009031Y015033D02*
X009099Y015033D01*
X009099Y015032D02*
X009034Y015032D01*
X009037Y015031D02*
X009099Y015031D01*
X009099Y015030D02*
X009037Y015030D01*
X009037Y015029D02*
X009099Y015029D01*
X009099Y015028D02*
X009037Y015028D01*
X009037Y015027D02*
X009099Y015027D01*
X009099Y015026D02*
X009037Y015026D01*
X009037Y015025D02*
X009099Y015025D01*
X009099Y015024D02*
X009037Y015024D01*
X009037Y015023D02*
X009099Y015023D01*
X009099Y015022D02*
X009037Y015022D01*
X009037Y015021D02*
X009099Y015021D01*
X009099Y015020D02*
X009037Y015020D01*
X009037Y015019D02*
X009099Y015019D01*
X009099Y015018D02*
X009037Y015018D01*
X009037Y015017D02*
X009099Y015017D01*
X009099Y015016D02*
X009037Y015016D01*
X009037Y015015D02*
X009099Y015015D01*
X009099Y015014D02*
X009037Y015014D01*
X009037Y015013D02*
X009099Y015013D01*
X009099Y015012D02*
X009037Y015012D01*
X009037Y015011D02*
X009099Y015011D01*
X009098Y015010D02*
X009037Y015010D01*
X009036Y015009D02*
X009098Y015009D01*
X009098Y015008D02*
X009036Y015008D01*
X009036Y015007D02*
X009098Y015007D01*
X009098Y015006D02*
X009036Y015006D01*
X009036Y015005D02*
X009098Y015005D01*
X009098Y015004D02*
X009036Y015004D01*
X009036Y015003D02*
X009098Y015003D01*
X009098Y015002D02*
X009036Y015002D01*
X009036Y015001D02*
X009098Y015001D01*
X009098Y015000D02*
X009036Y015000D01*
X009036Y014999D02*
X009098Y014999D01*
X009098Y014998D02*
X009036Y014998D01*
X009036Y014997D02*
X009098Y014997D01*
X009098Y014996D02*
X009036Y014996D01*
X009036Y014995D02*
X009098Y014995D01*
X009098Y014994D02*
X009036Y014994D01*
X009036Y014993D02*
X009098Y014993D01*
X009098Y014992D02*
X009036Y014992D01*
X009036Y014991D02*
X009098Y014991D01*
X009098Y014990D02*
X009036Y014990D01*
X009036Y014989D02*
X009098Y014989D01*
X009098Y014988D02*
X009036Y014988D01*
X009036Y014987D02*
X009098Y014987D01*
X009098Y014986D02*
X009036Y014986D01*
X009036Y014985D02*
X009098Y014985D01*
X009098Y014984D02*
X009036Y014984D01*
X009036Y014983D02*
X009098Y014983D01*
X009098Y014982D02*
X009036Y014982D01*
X009036Y014981D02*
X009098Y014981D01*
X009098Y014980D02*
X009036Y014980D01*
X009036Y014979D02*
X009098Y014979D01*
X009098Y014978D02*
X009036Y014978D01*
X009036Y014977D02*
X009098Y014977D01*
X009098Y014976D02*
X009036Y014976D01*
X009036Y014975D02*
X009098Y014975D01*
X009098Y014974D02*
X009036Y014974D01*
X009036Y014973D02*
X009098Y014973D01*
X009098Y014972D02*
X009036Y014972D01*
X009035Y014971D02*
X009098Y014971D01*
X009098Y014970D02*
X009035Y014970D01*
X009035Y014969D02*
X009098Y014969D01*
X009098Y014968D02*
X009035Y014968D01*
X009035Y014967D02*
X009098Y014967D01*
X009098Y014966D02*
X009035Y014966D01*
X009035Y014965D02*
X009098Y014965D01*
X009098Y014964D02*
X009035Y014964D01*
X009035Y014963D02*
X009098Y014963D01*
X009098Y014962D02*
X009035Y014962D01*
X009035Y014961D02*
X009098Y014961D01*
X009098Y014960D02*
X009035Y014960D01*
X009035Y014959D02*
X009098Y014959D01*
X009098Y014958D02*
X009035Y014958D01*
X009035Y014957D02*
X009098Y014957D01*
X009098Y014956D02*
X009035Y014956D01*
X009035Y014955D02*
X009098Y014955D01*
X009098Y014954D02*
X009035Y014954D01*
X009035Y014953D02*
X009098Y014953D01*
X009098Y014952D02*
X009035Y014952D01*
X009035Y014951D02*
X009098Y014951D01*
X009098Y014950D02*
X009035Y014950D01*
X009035Y014949D02*
X009098Y014949D01*
X009098Y014948D02*
X009035Y014948D01*
X009035Y014947D02*
X009098Y014947D01*
X009098Y014946D02*
X009035Y014946D01*
X009035Y014945D02*
X009098Y014945D01*
X009098Y014944D02*
X009035Y014944D01*
X009035Y014943D02*
X009098Y014943D01*
X009098Y014942D02*
X009035Y014942D01*
X009035Y014941D02*
X009098Y014941D01*
X009097Y014940D02*
X009035Y014940D01*
X009035Y014939D02*
X009097Y014939D01*
X009097Y014938D02*
X009035Y014938D01*
X009035Y014937D02*
X009097Y014937D01*
X009097Y014936D02*
X009035Y014936D01*
X009035Y014935D02*
X009097Y014935D01*
X009097Y014934D02*
X009035Y014934D01*
X009035Y014933D02*
X009097Y014933D01*
X009097Y014932D02*
X009035Y014932D01*
X009035Y014931D02*
X009097Y014931D01*
X009097Y014930D02*
X009035Y014930D01*
X009035Y014929D02*
X009097Y014929D01*
X009097Y014928D02*
X009035Y014928D01*
X009035Y014927D02*
X009097Y014927D01*
X009097Y014926D02*
X009035Y014926D01*
X009035Y014925D02*
X009097Y014925D01*
X009097Y014924D02*
X009035Y014924D01*
X009035Y014923D02*
X009097Y014923D01*
X009097Y014922D02*
X009035Y014922D01*
X009035Y014921D02*
X009097Y014921D01*
X009097Y014920D02*
X009035Y014920D01*
X009035Y014919D02*
X009097Y014919D01*
X009097Y014918D02*
X009035Y014918D01*
X009035Y014917D02*
X009097Y014917D01*
X009097Y014916D02*
X009035Y014916D01*
X009035Y014915D02*
X009097Y014915D01*
X009097Y014914D02*
X009035Y014914D01*
X009035Y014913D02*
X009097Y014913D01*
X009097Y014912D02*
X009035Y014912D01*
X009035Y014911D02*
X009097Y014911D01*
X009097Y014910D02*
X009035Y014910D01*
X009035Y014909D02*
X009097Y014909D01*
X009097Y014908D02*
X009035Y014908D01*
X009035Y014907D02*
X009097Y014907D01*
X009097Y014906D02*
X009035Y014906D01*
X009035Y014905D02*
X009097Y014905D01*
X009097Y014904D02*
X009035Y014904D01*
X009035Y014903D02*
X009097Y014903D01*
X009097Y014902D02*
X009035Y014902D01*
X009035Y014901D02*
X009097Y014901D01*
X009097Y014900D02*
X009035Y014900D01*
X009035Y014899D02*
X009097Y014899D01*
X009097Y014898D02*
X009035Y014898D01*
X009035Y014897D02*
X009097Y014897D01*
X009097Y014896D02*
X009035Y014896D01*
X009035Y014895D02*
X009097Y014895D01*
X009097Y014894D02*
X009035Y014894D01*
X009035Y014893D02*
X009097Y014893D01*
X009097Y014892D02*
X009035Y014892D01*
X009035Y014891D02*
X009097Y014891D01*
X009097Y014890D02*
X009035Y014890D01*
X009035Y014889D02*
X009097Y014889D01*
X009097Y014888D02*
X009035Y014888D01*
X009035Y014887D02*
X009097Y014887D01*
X009097Y014886D02*
X009035Y014886D01*
X009035Y014885D02*
X009097Y014885D01*
X009097Y014884D02*
X009035Y014884D01*
X009035Y014883D02*
X009097Y014883D01*
X009097Y014882D02*
X009035Y014882D01*
X009035Y014881D02*
X009097Y014881D01*
X009097Y014880D02*
X009035Y014880D01*
X009035Y014879D02*
X009097Y014879D01*
X009097Y014878D02*
X009035Y014878D01*
X009035Y014877D02*
X009097Y014877D01*
X009097Y014876D02*
X009035Y014876D01*
X009035Y014875D02*
X009097Y014875D01*
X009097Y014874D02*
X009035Y014874D01*
X009035Y014873D02*
X009097Y014873D01*
X009097Y014872D02*
X009035Y014872D01*
X009035Y014871D02*
X009097Y014871D01*
X009097Y014870D02*
X009035Y014870D01*
X009035Y014869D02*
X009097Y014869D01*
X009097Y014868D02*
X009035Y014868D01*
X009097Y014868D01*
X009097Y014867D02*
X009035Y014867D01*
X009035Y014866D02*
X009097Y014866D01*
X009097Y014865D02*
X009035Y014865D01*
X009035Y014864D02*
X009097Y014864D01*
X009097Y014863D02*
X009035Y014863D01*
X009035Y014862D02*
X009097Y014862D01*
X009097Y014861D02*
X009035Y014861D01*
X009035Y014860D02*
X009097Y014860D01*
X009097Y014859D02*
X009035Y014859D01*
X009035Y014858D02*
X009097Y014858D01*
X009097Y014857D02*
X009035Y014857D01*
X009035Y014856D02*
X009097Y014856D01*
X009097Y014855D02*
X009035Y014855D01*
X009035Y014854D02*
X009097Y014854D01*
X009097Y014853D02*
X009034Y014853D01*
X009032Y014852D02*
X009097Y014852D01*
X009097Y014851D02*
X009030Y014851D01*
X009027Y014850D02*
X009097Y014850D01*
X009097Y014849D02*
X009025Y014849D01*
X009023Y014848D02*
X009097Y014848D01*
X009097Y014847D02*
X009021Y014847D01*
X009019Y014846D02*
X009097Y014846D01*
X009097Y014845D02*
X009017Y014845D01*
X009014Y014844D02*
X009097Y014844D01*
X009098Y014843D02*
X009012Y014843D01*
X009010Y014842D02*
X009098Y014842D01*
X009098Y014841D02*
X009008Y014841D01*
X009006Y014840D02*
X009098Y014840D01*
X009098Y014839D02*
X009004Y014839D01*
X009001Y014838D02*
X009098Y014838D01*
X009098Y014837D02*
X008999Y014837D01*
X008997Y014836D02*
X009098Y014836D01*
X009098Y014835D02*
X008995Y014835D01*
X008993Y014834D02*
X009098Y014834D01*
X009098Y014833D02*
X008991Y014833D01*
X008988Y014832D02*
X009098Y014832D01*
X009098Y014831D02*
X008986Y014831D01*
X008984Y014830D02*
X009098Y014830D01*
X009098Y014829D02*
X008982Y014829D01*
X008980Y014828D02*
X009099Y014828D01*
X009099Y014827D02*
X008977Y014827D01*
X008975Y014826D02*
X009099Y014826D01*
X009099Y014825D02*
X008973Y014825D01*
X008971Y014824D02*
X009099Y014824D01*
X009099Y014823D02*
X008969Y014823D01*
X008967Y014822D02*
X009099Y014822D01*
X009099Y014821D02*
X008965Y014821D01*
X008963Y014820D02*
X009099Y014820D01*
X009099Y014819D02*
X008961Y014819D01*
X008960Y014818D02*
X009099Y014818D01*
X009099Y014817D02*
X008958Y014817D01*
X008956Y014816D02*
X009099Y014816D01*
X009099Y014815D02*
X008954Y014815D01*
X008952Y014814D02*
X009099Y014814D01*
X009100Y014813D02*
X008950Y014813D01*
X008948Y014812D02*
X009100Y014812D01*
X009100Y014811D02*
X008947Y014811D01*
X008945Y014810D02*
X009100Y014810D01*
X009100Y014809D02*
X008943Y014809D01*
X008941Y014808D02*
X009100Y014808D01*
X009100Y014807D02*
X008939Y014807D01*
X008937Y014806D02*
X009100Y014806D01*
X009100Y014805D02*
X008935Y014805D01*
X008934Y014804D02*
X009100Y014804D01*
X009100Y014803D02*
X008932Y014803D01*
X008930Y014802D02*
X009100Y014802D01*
X009100Y014801D02*
X008928Y014801D01*
X008926Y014800D02*
X009100Y014800D01*
X009100Y014799D02*
X008924Y014799D01*
X008922Y014798D02*
X009100Y014798D01*
X009101Y014797D02*
X008921Y014797D01*
X008919Y014796D02*
X009101Y014796D01*
X009101Y014795D02*
X008917Y014795D01*
X008915Y014794D02*
X009101Y014794D01*
X009101Y014793D02*
X008913Y014793D01*
X008911Y014792D02*
X009101Y014792D01*
X009101Y014791D02*
X008909Y014791D01*
X008908Y014790D02*
X009101Y014790D01*
X009101Y014789D02*
X008906Y014789D01*
X008904Y014788D02*
X009101Y014788D01*
X009101Y014787D02*
X008902Y014787D01*
X008901Y014786D02*
X009101Y014786D01*
X009101Y014785D02*
X008899Y014785D01*
X008898Y014784D02*
X009101Y014784D01*
X009101Y014783D02*
X008896Y014783D01*
X008894Y014782D02*
X009102Y014782D01*
X009102Y014781D02*
X008893Y014781D01*
X008891Y014780D02*
X009102Y014780D01*
X009102Y014779D02*
X008889Y014779D01*
X008888Y014778D02*
X009102Y014778D01*
X009102Y014777D02*
X008886Y014777D01*
X008885Y014776D02*
X009102Y014776D01*
X009102Y014775D02*
X008883Y014775D01*
X008881Y014774D02*
X009102Y014774D01*
X009102Y014773D02*
X008880Y014773D01*
X008878Y014772D02*
X009102Y014772D01*
X009102Y014771D02*
X008877Y014771D01*
X008875Y014770D02*
X009102Y014770D01*
X009102Y014769D02*
X008873Y014769D01*
X008872Y014768D02*
X009102Y014768D01*
X009103Y014767D02*
X008870Y014767D01*
X008869Y014766D02*
X009103Y014766D01*
X009103Y014765D02*
X008867Y014765D01*
X008865Y014764D02*
X009103Y014764D01*
X009103Y014763D02*
X008864Y014763D01*
X008862Y014762D02*
X009103Y014762D01*
X009103Y014761D02*
X008861Y014761D01*
X008859Y014760D02*
X009103Y014760D01*
X009103Y014759D02*
X008857Y014759D01*
X008856Y014758D02*
X009103Y014758D01*
X009103Y014757D02*
X008854Y014757D01*
X008852Y014756D02*
X009104Y014756D01*
X009104Y014755D02*
X008851Y014755D01*
X008849Y014754D02*
X009104Y014754D01*
X009104Y014753D02*
X008848Y014753D01*
X008846Y014752D02*
X009104Y014752D01*
X009104Y014751D02*
X008844Y014751D01*
X008843Y014750D02*
X009104Y014750D01*
X009104Y014749D02*
X008841Y014749D01*
X008840Y014748D02*
X009105Y014748D01*
X009105Y014747D02*
X008839Y014747D01*
X008838Y014746D02*
X009105Y014746D01*
X009105Y014745D02*
X008836Y014745D01*
X008835Y014744D02*
X009105Y014744D01*
X009105Y014743D02*
X008834Y014743D01*
X008832Y014742D02*
X009105Y014742D01*
X009105Y014741D02*
X008831Y014741D01*
X008830Y014740D02*
X009106Y014740D01*
X009106Y014739D02*
X008828Y014739D01*
X008827Y014738D02*
X009106Y014738D01*
X009106Y014737D02*
X008826Y014737D01*
X008824Y014736D02*
X009106Y014736D01*
X009106Y014735D02*
X008823Y014735D01*
X008822Y014734D02*
X009106Y014734D01*
X009106Y014733D02*
X008821Y014733D01*
X008819Y014732D02*
X009106Y014732D01*
X009107Y014731D02*
X008818Y014731D01*
X008817Y014730D02*
X009107Y014730D01*
X009107Y014729D02*
X008815Y014729D01*
X008814Y014728D02*
X009107Y014728D01*
X009107Y014727D02*
X008813Y014727D01*
X008811Y014726D02*
X009107Y014726D01*
X009107Y014725D02*
X008810Y014725D01*
X008809Y014724D02*
X009107Y014724D01*
X009108Y014723D02*
X008807Y014723D01*
X008806Y014722D02*
X009108Y014722D01*
X009108Y014721D02*
X008805Y014721D01*
X008804Y014720D02*
X009108Y014720D01*
X009108Y014719D02*
X008802Y014719D01*
X008801Y014718D02*
X009108Y014718D01*
X009108Y014717D02*
X008800Y014717D01*
X008798Y014716D02*
X009108Y014716D01*
X009109Y014715D02*
X008797Y014715D01*
X008796Y014714D02*
X009109Y014714D01*
X009109Y014713D02*
X008794Y014713D01*
X008793Y014712D02*
X009109Y014712D01*
X009109Y014711D02*
X008792Y014711D01*
X008790Y014710D02*
X009109Y014710D01*
X009109Y014709D02*
X008789Y014709D01*
X008788Y014708D02*
X009109Y014708D01*
X009110Y014707D02*
X008787Y014707D01*
X008785Y014706D02*
X009110Y014706D01*
X009110Y014705D02*
X008784Y014705D01*
X008785Y014704D02*
X009110Y014704D01*
X009110Y014703D02*
X008785Y014703D01*
X008785Y014702D02*
X009110Y014702D01*
X009110Y014701D02*
X008786Y014701D01*
X008786Y014700D02*
X009110Y014700D01*
X009111Y014699D02*
X008787Y014699D01*
X008787Y014698D02*
X009111Y014698D01*
X009111Y014697D02*
X008787Y014697D01*
X008788Y014696D02*
X009111Y014696D01*
X009111Y014695D02*
X008788Y014695D01*
X008789Y014694D02*
X009111Y014694D01*
X009111Y014693D02*
X008789Y014693D01*
X008789Y014692D02*
X009111Y014692D01*
X009111Y014691D02*
X008790Y014691D01*
X008790Y014690D02*
X009112Y014690D01*
X009112Y014689D02*
X008791Y014689D01*
X008791Y014688D02*
X009112Y014688D01*
X009112Y014687D02*
X008791Y014687D01*
X008792Y014686D02*
X009112Y014686D01*
X009112Y014685D02*
X008792Y014685D01*
X008793Y014684D02*
X009112Y014684D01*
X009112Y014683D02*
X008793Y014683D01*
X008793Y014682D02*
X009113Y014682D01*
X009113Y014681D02*
X008794Y014681D01*
X008794Y014680D02*
X009113Y014680D01*
X009113Y014679D02*
X008795Y014679D01*
X008795Y014678D02*
X009113Y014678D01*
X009113Y014677D02*
X008795Y014677D01*
X008796Y014676D02*
X009113Y014676D01*
X009114Y014675D02*
X008796Y014675D01*
X008797Y014674D02*
X009114Y014674D01*
X009114Y014673D02*
X008797Y014673D01*
X008798Y014672D02*
X009114Y014672D01*
X009114Y014671D02*
X008798Y014671D01*
X008798Y014670D02*
X009115Y014670D01*
X009115Y014669D02*
X008799Y014669D01*
X008799Y014668D02*
X009115Y014668D01*
X009115Y014667D02*
X008897Y014667D01*
X008800Y014667D01*
X008800Y014666D02*
X008895Y014666D01*
X008896Y014666D02*
X009115Y014666D01*
X009116Y014665D02*
X008895Y014665D01*
X008894Y014665D02*
X008800Y014665D01*
X008801Y014664D02*
X008892Y014664D01*
X008892Y014663D02*
X009116Y014663D01*
X009116Y014664D02*
X008893Y014664D01*
X008891Y014663D02*
X008801Y014663D01*
X008802Y014662D02*
X008889Y014662D01*
X008890Y014661D02*
X009043Y014661D01*
X009044Y014662D02*
X008891Y014662D01*
X008888Y014660D02*
X009043Y014660D01*
X009042Y014659D02*
X008887Y014659D01*
X008886Y014660D02*
X008802Y014660D01*
X008802Y014661D02*
X008887Y014661D01*
X008886Y014658D02*
X009042Y014658D01*
X009041Y014657D02*
X008885Y014657D01*
X008884Y014659D02*
X008803Y014659D01*
X008803Y014658D02*
X008883Y014658D01*
X008883Y014656D02*
X009041Y014656D01*
X009040Y014655D02*
X008882Y014655D01*
X008881Y014654D02*
X009040Y014654D01*
X009039Y014653D02*
X008880Y014653D01*
X008879Y014652D02*
X009039Y014652D01*
X009038Y014651D02*
X008877Y014651D01*
X008876Y014650D02*
X009038Y014650D01*
X009037Y014649D02*
X008875Y014649D01*
X008874Y014648D02*
X009037Y014648D01*
X009036Y014647D02*
X008872Y014647D01*
X008871Y014646D02*
X009036Y014646D01*
X009035Y014645D02*
X008870Y014645D01*
X008869Y014644D02*
X009035Y014644D01*
X009034Y014643D02*
X008867Y014643D01*
X008866Y014642D02*
X009034Y014642D01*
X009033Y014641D02*
X008865Y014641D01*
X008864Y014640D02*
X009032Y014640D01*
X009032Y014639D02*
X008863Y014639D01*
X008861Y014638D02*
X009031Y014638D01*
X009031Y014637D02*
X008860Y014637D01*
X008859Y014636D02*
X009030Y014636D01*
X009030Y014635D02*
X008858Y014635D01*
X008856Y014634D02*
X009029Y014634D01*
X009029Y014633D02*
X008855Y014633D01*
X008854Y014632D02*
X009028Y014632D01*
X009028Y014631D02*
X008853Y014631D01*
X008851Y014630D02*
X009027Y014630D01*
X009027Y014629D02*
X008850Y014629D01*
X008849Y014628D02*
X009026Y014628D01*
X009026Y014627D02*
X008848Y014627D01*
X008846Y014626D02*
X009025Y014626D01*
X009025Y014625D02*
X008845Y014625D01*
X008844Y014624D02*
X009024Y014624D01*
X009024Y014623D02*
X008843Y014623D01*
X008842Y014622D02*
X009023Y014622D01*
X009023Y014621D02*
X008840Y014621D01*
X008839Y014620D02*
X009022Y014620D01*
X009022Y014619D02*
X008838Y014619D01*
X008837Y014618D02*
X009021Y014618D01*
X009021Y014617D02*
X008835Y014617D01*
X008834Y014616D02*
X009020Y014616D01*
X009019Y014615D02*
X008833Y014615D01*
X008832Y014614D02*
X009019Y014614D01*
X009018Y014613D02*
X008830Y014613D01*
X008829Y014612D02*
X008956Y014612D01*
X009018Y014612D01*
X009017Y014611D02*
X008955Y014611D01*
X008828Y014611D01*
X008827Y014610D02*
X008954Y014610D01*
X009017Y014610D01*
X009016Y014609D02*
X008953Y014609D01*
X008826Y014609D01*
X008824Y014608D02*
X008952Y014608D01*
X009016Y014608D01*
X009015Y014607D02*
X008951Y014607D01*
X008823Y014607D01*
X008822Y014606D02*
X008950Y014606D01*
X009015Y014606D01*
X009014Y014605D02*
X008949Y014605D01*
X008821Y014605D01*
X008819Y014604D02*
X008947Y014604D01*
X008947Y014603D02*
X009013Y014603D01*
X009014Y014604D02*
X008948Y014604D01*
X008946Y014603D02*
X008818Y014603D01*
X008817Y014602D02*
X008945Y014602D01*
X008946Y014601D02*
X009012Y014601D01*
X009013Y014602D02*
X008946Y014602D01*
X008944Y014601D02*
X008816Y014601D01*
X008814Y014600D02*
X008943Y014600D01*
X008944Y014599D02*
X009011Y014599D01*
X009012Y014600D02*
X008945Y014600D01*
X008942Y014599D02*
X008813Y014599D01*
X008812Y014598D02*
X008941Y014598D01*
X008942Y014597D02*
X009010Y014597D01*
X009011Y014598D02*
X008943Y014598D01*
X008941Y014596D02*
X009010Y014596D01*
X009010Y014595D02*
X008940Y014595D01*
X008939Y014596D02*
X008810Y014596D01*
X008811Y014597D02*
X008940Y014597D01*
X008938Y014595D02*
X008808Y014595D01*
X008807Y014594D02*
X008937Y014594D01*
X008938Y014593D02*
X009009Y014593D01*
X009009Y014594D02*
X008939Y014594D01*
X008937Y014592D02*
X009009Y014592D01*
X009008Y014591D02*
X008936Y014591D01*
X008935Y014592D02*
X008805Y014592D01*
X008806Y014593D02*
X008936Y014593D01*
X008934Y014591D02*
X008803Y014591D01*
X008802Y014590D02*
X008933Y014590D01*
X008934Y014589D02*
X009007Y014589D01*
X009008Y014590D02*
X008935Y014590D01*
X008933Y014588D02*
X009007Y014588D01*
X009007Y014587D02*
X008932Y014587D01*
X008931Y014586D02*
X009006Y014586D01*
X009006Y014585D02*
X008930Y014585D01*
X008929Y014584D02*
X009005Y014584D01*
X009005Y014583D02*
X008928Y014583D01*
X008927Y014582D02*
X009005Y014582D01*
X009004Y014581D02*
X008926Y014581D01*
X008926Y014580D02*
X009004Y014580D01*
X009003Y014579D02*
X008925Y014579D01*
X008924Y014578D02*
X009003Y014578D01*
X009003Y014577D02*
X008923Y014577D01*
X008922Y014576D02*
X009002Y014576D01*
X009002Y014575D02*
X008921Y014575D01*
X008920Y014574D02*
X009001Y014574D01*
X009001Y014573D02*
X008919Y014573D01*
X008918Y014572D02*
X009001Y014572D01*
X009000Y014571D02*
X008917Y014571D01*
X008916Y014570D02*
X009000Y014570D01*
X008999Y014569D02*
X008915Y014569D01*
X008914Y014568D02*
X008999Y014568D01*
X008999Y014567D02*
X008913Y014567D01*
X008912Y014566D02*
X008998Y014566D01*
X008998Y014565D02*
X008911Y014565D01*
X008910Y014564D02*
X008997Y014564D01*
X008997Y014563D02*
X008909Y014563D01*
X008908Y014562D02*
X008997Y014562D01*
X008996Y014561D02*
X008907Y014561D01*
X008906Y014560D02*
X008996Y014560D01*
X008995Y014559D02*
X008905Y014559D01*
X008904Y014558D02*
X008995Y014558D01*
X008995Y014557D02*
X008904Y014557D01*
X008903Y014556D02*
X008994Y014556D01*
X008994Y014555D02*
X008902Y014555D01*
X008901Y014554D02*
X008994Y014554D01*
X008993Y014553D02*
X008900Y014553D01*
X008899Y014552D02*
X008993Y014552D01*
X008992Y014551D02*
X008898Y014551D01*
X008897Y014550D02*
X008992Y014550D01*
X008992Y014549D02*
X008896Y014549D01*
X008895Y014548D02*
X008991Y014548D01*
X008991Y014547D02*
X008894Y014547D01*
X008893Y014546D02*
X008990Y014546D01*
X008990Y014545D02*
X008892Y014545D01*
X008891Y014544D02*
X008990Y014544D01*
X008989Y014543D02*
X008890Y014543D01*
X008889Y014542D02*
X008989Y014542D01*
X008988Y014541D02*
X008888Y014541D01*
X008887Y014540D02*
X008988Y014540D01*
X008988Y014539D02*
X008886Y014539D01*
X008885Y014538D02*
X008987Y014538D01*
X008987Y014537D02*
X008884Y014537D01*
X008883Y014536D02*
X008986Y014536D01*
X008986Y014535D02*
X008883Y014535D01*
X008882Y014534D02*
X008986Y014534D01*
X008985Y014533D02*
X008881Y014533D01*
X008880Y014532D02*
X008985Y014532D01*
X008985Y014531D02*
X008879Y014531D01*
X008878Y014530D02*
X008984Y014530D01*
X008984Y014529D02*
X008877Y014529D01*
X008876Y014528D02*
X008984Y014528D01*
X008983Y014527D02*
X008875Y014527D01*
X008874Y014526D02*
X008983Y014526D01*
X008983Y014525D02*
X008873Y014525D01*
X008872Y014524D02*
X008983Y014524D01*
X008982Y014523D02*
X008871Y014523D01*
X008870Y014522D02*
X008982Y014522D01*
X008982Y014521D02*
X008869Y014521D01*
X008868Y014520D02*
X008981Y014520D01*
X008981Y014519D02*
X008870Y014519D01*
X008872Y014518D02*
X008981Y014518D01*
X008980Y014517D02*
X008873Y014517D01*
X008875Y014516D02*
X008980Y014516D01*
X008980Y014515D02*
X008877Y014515D01*
X008879Y014514D02*
X008979Y014514D01*
X008979Y014513D02*
X008881Y014513D01*
X008882Y014512D02*
X008979Y014512D01*
X008979Y014511D02*
X008884Y014511D01*
X008886Y014510D02*
X008978Y014510D01*
X008978Y014509D02*
X008888Y014509D01*
X008890Y014508D02*
X008978Y014508D01*
X008977Y014507D02*
X008892Y014507D01*
X008893Y014506D02*
X008977Y014506D01*
X008977Y014505D02*
X008895Y014505D01*
X008897Y014504D02*
X008976Y014504D01*
X008976Y014503D02*
X008899Y014503D01*
X008901Y014502D02*
X008976Y014502D01*
X008975Y014501D02*
X008902Y014501D01*
X008904Y014500D02*
X008975Y014500D01*
X008975Y014499D02*
X008906Y014499D01*
X008908Y014498D02*
X008975Y014498D01*
X008974Y014497D02*
X008910Y014497D01*
X008912Y014496D02*
X008974Y014496D01*
X008974Y014495D02*
X008913Y014495D01*
X008915Y014494D02*
X008973Y014494D01*
X008973Y014493D02*
X008917Y014493D01*
X008919Y014492D02*
X008973Y014492D01*
X008972Y014491D02*
X008921Y014491D01*
X008922Y014490D02*
X008972Y014490D01*
X008972Y014489D02*
X008924Y014489D01*
X008926Y014488D02*
X008971Y014488D01*
X008971Y014487D02*
X008928Y014487D01*
X008930Y014486D02*
X008971Y014486D01*
X008971Y014485D02*
X008932Y014485D01*
X008933Y014484D02*
X008970Y014484D01*
X008970Y014483D02*
X008935Y014483D01*
X008937Y014482D02*
X008970Y014482D01*
X008969Y014481D02*
X008939Y014481D01*
X008941Y014480D02*
X008969Y014480D01*
X008969Y014479D02*
X008942Y014479D01*
X008944Y014478D02*
X008968Y014478D01*
X008968Y014477D02*
X008946Y014477D01*
X008948Y014476D02*
X008968Y014476D01*
X008967Y014475D02*
X008950Y014475D01*
X008952Y014474D02*
X008967Y014474D01*
X008967Y014473D02*
X008953Y014473D01*
X008955Y014472D02*
X008966Y014472D01*
X008966Y014471D02*
X008957Y014471D01*
X008959Y014470D02*
X008966Y014470D01*
X008966Y014469D02*
X008961Y014469D01*
X008962Y014468D02*
X008965Y014468D01*
X008964Y014467D02*
X008965Y014467D01*
X009068Y014490D02*
X009157Y014490D01*
X009157Y014491D02*
X009067Y014491D01*
X009067Y014492D02*
X009156Y014492D01*
X009156Y014493D02*
X009067Y014493D01*
X009067Y014494D02*
X009156Y014494D01*
X009155Y014495D02*
X009067Y014495D01*
X009066Y014496D02*
X009155Y014496D01*
X009155Y014497D02*
X009066Y014497D01*
X009066Y014498D02*
X009154Y014498D01*
X009154Y014499D02*
X009066Y014499D01*
X009065Y014500D02*
X009154Y014500D01*
X009153Y014501D02*
X009065Y014501D01*
X009065Y014502D02*
X009153Y014502D01*
X009153Y014503D02*
X009065Y014503D01*
X009065Y014504D02*
X009152Y014504D01*
X009152Y014505D02*
X009065Y014505D01*
X009064Y014506D02*
X009152Y014506D01*
X009151Y014507D02*
X009064Y014507D01*
X009064Y014508D02*
X009151Y014508D01*
X009151Y014509D02*
X009064Y014509D01*
X009064Y014510D02*
X009150Y014510D01*
X009150Y014511D02*
X009064Y014511D01*
X009063Y014512D02*
X009150Y014512D01*
X009149Y014513D02*
X009063Y014513D01*
X009063Y014514D02*
X009149Y014514D01*
X009149Y014515D02*
X009063Y014515D01*
X009063Y014516D02*
X009148Y014516D01*
X009148Y014517D02*
X009063Y014517D01*
X009063Y014518D02*
X009148Y014518D01*
X009148Y014519D02*
X009062Y014519D01*
X009062Y014520D02*
X009147Y014520D01*
X009147Y014521D02*
X009062Y014521D01*
X009062Y014522D02*
X009147Y014522D01*
X009147Y014523D02*
X009062Y014523D01*
X009062Y014524D02*
X009146Y014524D01*
X009146Y014525D02*
X009061Y014525D01*
X009061Y014526D02*
X009146Y014526D01*
X009146Y014527D02*
X009061Y014527D01*
X009061Y014528D02*
X009145Y014528D01*
X009145Y014529D02*
X009061Y014529D01*
X009061Y014530D02*
X009145Y014530D01*
X009145Y014531D02*
X009061Y014531D01*
X009060Y014532D02*
X009144Y014532D01*
X009144Y014533D02*
X009060Y014533D01*
X009060Y014534D02*
X009144Y014534D01*
X009144Y014535D02*
X009060Y014535D01*
X009060Y014536D02*
X009143Y014536D01*
X009143Y014537D02*
X009060Y014537D01*
X009060Y014538D02*
X009143Y014538D01*
X009143Y014539D02*
X009059Y014539D01*
X009059Y014540D02*
X009142Y014540D01*
X009142Y014541D02*
X009059Y014541D01*
X009059Y014542D02*
X009142Y014542D01*
X009142Y014543D02*
X009059Y014543D01*
X009059Y014544D02*
X009141Y014544D01*
X009141Y014545D02*
X009058Y014545D01*
X009058Y014546D02*
X009141Y014546D01*
X009141Y014547D02*
X009058Y014547D01*
X009058Y014548D02*
X009140Y014548D01*
X009140Y014549D02*
X009058Y014549D01*
X009058Y014550D02*
X009140Y014550D01*
X009140Y014551D02*
X009058Y014551D01*
X009057Y014552D02*
X009139Y014552D01*
X009139Y014553D02*
X009057Y014553D01*
X009057Y014554D02*
X009139Y014554D01*
X009139Y014555D02*
X009057Y014555D01*
X009057Y014556D02*
X009138Y014556D01*
X009138Y014557D02*
X009057Y014557D01*
X009056Y014558D02*
X009138Y014558D01*
X009138Y014559D02*
X009056Y014559D01*
X009056Y014560D02*
X009137Y014560D01*
X009137Y014561D02*
X009056Y014561D01*
X009056Y014562D02*
X009137Y014562D01*
X009137Y014563D02*
X009056Y014563D01*
X009056Y014564D02*
X009136Y014564D01*
X009136Y014565D02*
X009055Y014565D01*
X009055Y014566D02*
X009136Y014566D01*
X009136Y014567D02*
X009055Y014567D01*
X009055Y014568D02*
X009135Y014568D01*
X009135Y014569D02*
X009055Y014569D01*
X009055Y014570D02*
X009135Y014570D01*
X009135Y014571D02*
X009054Y014571D01*
X009054Y014572D02*
X009134Y014572D01*
X009134Y014573D02*
X009054Y014573D01*
X009054Y014574D02*
X009134Y014574D01*
X009134Y014575D02*
X009054Y014575D01*
X009054Y014576D02*
X009133Y014576D01*
X009133Y014577D02*
X009054Y014577D01*
X009053Y014578D02*
X009133Y014578D01*
X009133Y014579D02*
X009053Y014579D01*
X009053Y014580D02*
X009132Y014580D01*
X009132Y014581D02*
X009053Y014581D01*
X009053Y014582D02*
X009132Y014582D01*
X009132Y014583D02*
X009053Y014583D01*
X009053Y014584D02*
X009131Y014584D01*
X009131Y014585D02*
X009052Y014585D01*
X009052Y014586D02*
X009131Y014586D01*
X009131Y014587D02*
X009052Y014587D01*
X009052Y014588D02*
X009130Y014588D01*
X009130Y014589D02*
X009052Y014589D01*
X009052Y014590D02*
X009130Y014590D01*
X009129Y014591D02*
X009052Y014591D01*
X009052Y014592D02*
X009129Y014592D01*
X009129Y014593D02*
X009052Y014593D01*
X009052Y014594D02*
X009129Y014594D01*
X009128Y014595D02*
X009051Y014595D01*
X009051Y014596D02*
X009128Y014596D01*
X009128Y014597D02*
X009051Y014597D01*
X009051Y014598D02*
X009128Y014598D01*
X009128Y014599D02*
X009051Y014599D01*
X009051Y014600D02*
X009127Y014600D01*
X009127Y014601D02*
X009051Y014601D01*
X009051Y014602D02*
X009127Y014602D01*
X009127Y014603D02*
X009051Y014603D01*
X009050Y014604D02*
X009127Y014604D01*
X009127Y014605D02*
X009050Y014605D01*
X009050Y014606D02*
X009126Y014606D01*
X009126Y014607D02*
X009050Y014607D01*
X009050Y014608D02*
X009126Y014608D01*
X009126Y014609D02*
X009050Y014609D01*
X009050Y014610D02*
X009126Y014610D01*
X009125Y014611D02*
X009050Y014611D01*
X009050Y014612D02*
X009125Y014612D01*
X009125Y014613D02*
X009050Y014613D01*
X009049Y014614D02*
X009125Y014614D01*
X009125Y014615D02*
X009049Y014615D01*
X009049Y014616D02*
X009125Y014616D01*
X009124Y014617D02*
X009049Y014617D01*
X009049Y014618D02*
X009124Y014618D01*
X009124Y014619D02*
X009049Y014619D01*
X009049Y014620D02*
X009124Y014620D01*
X009124Y014621D02*
X009049Y014621D01*
X009049Y014622D02*
X009123Y014622D01*
X009123Y014623D02*
X009049Y014623D01*
X009048Y014624D02*
X009123Y014624D01*
X009123Y014625D02*
X009048Y014625D01*
X009048Y014626D02*
X009123Y014626D01*
X009123Y014627D02*
X009048Y014627D01*
X009048Y014628D02*
X009122Y014628D01*
X009122Y014629D02*
X009048Y014629D01*
X009048Y014630D02*
X009122Y014630D01*
X009122Y014631D02*
X009048Y014631D01*
X009048Y014632D02*
X009122Y014632D01*
X009121Y014633D02*
X009047Y014633D01*
X009047Y014634D02*
X009121Y014634D01*
X009121Y014635D02*
X009047Y014635D01*
X009047Y014636D02*
X009121Y014636D01*
X009121Y014637D02*
X009047Y014637D01*
X009047Y014638D02*
X009120Y014638D01*
X009120Y014639D02*
X009047Y014639D01*
X009047Y014640D02*
X009120Y014640D01*
X009120Y014641D02*
X009047Y014641D01*
X009047Y014642D02*
X009120Y014642D01*
X009120Y014643D02*
X009046Y014643D01*
X009046Y014644D02*
X009119Y014644D01*
X009119Y014645D02*
X009046Y014645D01*
X009046Y014646D02*
X009119Y014646D01*
X009119Y014647D02*
X009046Y014647D01*
X009046Y014648D02*
X009119Y014648D01*
X009118Y014649D02*
X009046Y014649D01*
X009046Y014650D02*
X009118Y014650D01*
X009118Y014651D02*
X009046Y014651D01*
X009045Y014652D02*
X009118Y014652D01*
X009118Y014653D02*
X009045Y014653D01*
X009045Y014654D02*
X009118Y014654D01*
X009117Y014655D02*
X009045Y014655D01*
X009045Y014656D02*
X009117Y014656D01*
X009117Y014657D02*
X009045Y014657D01*
X009045Y014658D02*
X009117Y014658D01*
X009117Y014659D02*
X009045Y014659D01*
X009045Y014660D02*
X009116Y014660D01*
X009116Y014661D02*
X009045Y014661D01*
X009044Y014662D02*
X009116Y014662D01*
X009157Y014489D02*
X009068Y014489D01*
X009068Y014488D02*
X009158Y014488D01*
X009158Y014487D02*
X009068Y014487D01*
X009069Y014486D02*
X009158Y014486D01*
X009159Y014485D02*
X009069Y014485D01*
X009069Y014484D02*
X009159Y014484D01*
X009159Y014483D02*
X009069Y014483D01*
X009069Y014482D02*
X009160Y014482D01*
X009160Y014481D02*
X009070Y014481D01*
X009070Y014480D02*
X009160Y014480D01*
X009161Y014479D02*
X009070Y014479D01*
X009070Y014478D02*
X009161Y014478D01*
X009161Y014477D02*
X009070Y014477D01*
X009071Y014476D02*
X009162Y014476D01*
X009162Y014475D02*
X009071Y014475D01*
X009071Y014474D02*
X009162Y014474D01*
X009163Y014473D02*
X009071Y014473D01*
X009072Y014472D02*
X009163Y014472D01*
X009163Y014471D02*
X009072Y014471D01*
X009072Y014470D02*
X009164Y014470D01*
X009164Y014469D02*
X009072Y014469D01*
X009072Y014468D02*
X009164Y014468D01*
X009165Y014467D02*
X009073Y014467D01*
X009073Y014466D02*
X009165Y014466D01*
X009165Y014465D02*
X009073Y014465D01*
X009073Y014464D02*
X009166Y014464D01*
X009166Y014463D02*
X009074Y014463D01*
X009074Y014462D02*
X009166Y014462D01*
X009167Y014461D02*
X009074Y014461D01*
X009074Y014460D02*
X009167Y014460D01*
X009167Y014459D02*
X009074Y014459D01*
X009075Y014458D02*
X009168Y014458D01*
X009168Y014457D02*
X009075Y014457D01*
X009075Y014456D02*
X009168Y014456D01*
X009169Y014455D02*
X009075Y014455D01*
X009076Y014454D02*
X009169Y014454D01*
X009169Y014453D02*
X009076Y014453D01*
X009076Y014452D02*
X009170Y014452D01*
X009170Y014451D02*
X009076Y014451D01*
X009076Y014450D02*
X009170Y014450D01*
X009171Y014449D02*
X009077Y014449D01*
X009077Y014448D02*
X009171Y014448D01*
X009171Y014447D02*
X009077Y014447D01*
X009077Y014446D02*
X009172Y014446D01*
X009172Y014445D02*
X009078Y014445D01*
X009078Y014444D02*
X009172Y014444D01*
X009173Y014443D02*
X009078Y014443D01*
X009078Y014442D02*
X009173Y014442D01*
X009173Y014441D02*
X009078Y014441D01*
X009079Y014440D02*
X009174Y014440D01*
X009174Y014439D02*
X009079Y014439D01*
X009079Y014438D02*
X009174Y014438D01*
X009175Y014437D02*
X009079Y014437D01*
X009080Y014436D02*
X009175Y014436D01*
X009176Y014435D02*
X009080Y014435D01*
X009080Y014434D02*
X009177Y014434D01*
X009178Y014433D02*
X009080Y014433D01*
X009080Y014432D02*
X009179Y014432D01*
X009180Y014431D02*
X009081Y014431D01*
X009081Y014430D02*
X009182Y014430D01*
X009183Y014429D02*
X009081Y014429D01*
X009081Y014428D02*
X009184Y014428D01*
X009185Y014427D02*
X009082Y014427D01*
X009082Y014426D02*
X009186Y014426D01*
X009187Y014425D02*
X009082Y014425D01*
X009082Y014424D02*
X009188Y014424D01*
X009189Y014423D02*
X009082Y014423D01*
X009083Y014422D02*
X009190Y014422D01*
X009191Y014421D02*
X009083Y014421D01*
X009083Y014420D02*
X009192Y014420D01*
X009193Y014419D02*
X009084Y014419D01*
X009084Y014418D02*
X009194Y014418D01*
X009195Y014417D02*
X009084Y014417D01*
X009085Y014416D02*
X009196Y014416D01*
X009197Y014415D02*
X009085Y014415D01*
X009085Y014414D02*
X009198Y014414D01*
X009199Y014413D02*
X009086Y014413D01*
X009086Y014412D02*
X009200Y014412D01*
X009201Y014411D02*
X009086Y014411D01*
X009087Y014410D02*
X009202Y014410D01*
X009203Y014409D02*
X009087Y014409D01*
X009087Y014408D02*
X009204Y014408D01*
X009205Y014407D02*
X009088Y014407D01*
X009088Y014406D02*
X009206Y014406D01*
X009207Y014405D02*
X009088Y014405D01*
X009089Y014404D02*
X009208Y014404D01*
X009209Y014403D02*
X009089Y014403D01*
X009089Y014402D02*
X009210Y014402D01*
X009211Y014401D02*
X009090Y014401D01*
X009090Y014400D02*
X009212Y014400D01*
X009213Y014399D02*
X009090Y014399D01*
X009090Y014398D02*
X009214Y014398D01*
X009215Y014397D02*
X009091Y014397D01*
X009091Y014396D02*
X009216Y014396D01*
X009217Y014395D02*
X009091Y014395D01*
X009092Y014394D02*
X009218Y014394D01*
X009219Y014393D02*
X009092Y014393D01*
X009092Y014392D02*
X009220Y014392D01*
X009222Y014391D02*
X009093Y014391D01*
X009093Y014390D02*
X009223Y014390D01*
X009224Y014389D02*
X009093Y014389D01*
X009094Y014388D02*
X009225Y014388D01*
X009226Y014387D02*
X009094Y014387D01*
X009094Y014386D02*
X009227Y014386D01*
X009228Y014385D02*
X009095Y014385D01*
X009095Y014384D02*
X009229Y014384D01*
X009230Y014383D02*
X009095Y014383D01*
X009096Y014382D02*
X009231Y014382D01*
X009232Y014381D02*
X009096Y014381D01*
X009096Y014380D02*
X009233Y014380D01*
X009234Y014379D02*
X009097Y014379D01*
X009097Y014378D02*
X009236Y014378D01*
X009239Y014377D02*
X009097Y014377D01*
X009098Y014376D02*
X009242Y014376D01*
X009245Y014375D02*
X009098Y014375D01*
X009098Y014374D02*
X009247Y014374D01*
X009250Y014373D02*
X009099Y014373D01*
X009099Y014372D02*
X009253Y014372D01*
X009256Y014371D02*
X009099Y014371D01*
X009100Y014370D02*
X009259Y014370D01*
X009262Y014369D02*
X009100Y014369D01*
X009100Y014368D02*
X009264Y014368D01*
X009267Y014367D02*
X009101Y014367D01*
X009101Y014366D02*
X009270Y014366D01*
X009273Y014365D02*
X009101Y014365D01*
X009102Y014364D02*
X009276Y014364D01*
X009279Y014363D02*
X009102Y014363D01*
X009102Y014362D02*
X009281Y014362D01*
X009284Y014361D02*
X009103Y014361D01*
X009103Y014360D02*
X009287Y014360D01*
X009290Y014359D02*
X009103Y014359D01*
X009104Y014358D02*
X009293Y014358D01*
X009296Y014357D02*
X009104Y014357D01*
X009104Y014356D02*
X009298Y014356D01*
X009301Y014355D02*
X009105Y014355D01*
X009105Y014354D02*
X009304Y014354D01*
X009307Y014353D02*
X009105Y014353D01*
X009105Y014352D02*
X009310Y014352D01*
X009313Y014351D02*
X009106Y014351D01*
X009106Y014350D02*
X009316Y014350D01*
X009322Y014349D02*
X009106Y014349D01*
X009107Y014348D02*
X009328Y014348D01*
X009333Y014347D02*
X009107Y014347D01*
X009107Y014346D02*
X009339Y014346D01*
X009344Y014345D02*
X009108Y014345D01*
X009108Y014344D02*
X009350Y014344D01*
X009355Y014343D02*
X009109Y014343D01*
X009109Y014342D02*
X009361Y014342D01*
X009367Y014341D02*
X009110Y014341D01*
X009110Y014340D02*
X009372Y014340D01*
X009378Y014339D02*
X009111Y014339D01*
X009112Y014338D02*
X009383Y014338D01*
X009389Y014337D02*
X009112Y014337D01*
X009113Y014336D02*
X009395Y014336D01*
X009402Y014335D02*
X009113Y014335D01*
X009114Y014334D02*
X009413Y014334D01*
X009424Y014333D02*
X009114Y014333D01*
X009115Y014332D02*
X009434Y014332D01*
X009445Y014331D02*
X009115Y014331D01*
X009116Y014330D02*
X009456Y014330D01*
X009467Y014329D02*
X009116Y014329D01*
X009117Y014328D02*
X009477Y014328D01*
X009496Y014327D02*
X009117Y014327D01*
X009118Y014326D02*
X009521Y014326D01*
X009546Y014325D02*
X009118Y014325D01*
X009119Y014324D02*
X010580Y014324D01*
X010580Y014325D02*
X009673Y014325D01*
X009704Y014326D02*
X010581Y014326D01*
X010581Y014327D02*
X009735Y014327D01*
X009753Y014328D02*
X010582Y014328D01*
X010582Y014329D02*
X009770Y014329D01*
X009787Y014330D02*
X010582Y014330D01*
X010583Y014331D02*
X009804Y014331D01*
X009822Y014332D02*
X010583Y014332D01*
X010584Y014333D02*
X009834Y014333D01*
X009847Y014334D02*
X010584Y014334D01*
X010585Y014335D02*
X009859Y014335D01*
X009872Y014336D02*
X010585Y014336D01*
X010586Y014337D02*
X009884Y014337D01*
X009896Y014338D02*
X010586Y014338D01*
X010587Y014339D02*
X009909Y014339D01*
X009919Y014340D02*
X010587Y014340D01*
X010588Y014341D02*
X009929Y014341D01*
X009938Y014342D02*
X010588Y014342D01*
X010589Y014343D02*
X009948Y014343D01*
X009958Y014344D02*
X010589Y014344D01*
X010590Y014345D02*
X009968Y014345D01*
X009978Y014346D02*
X010590Y014346D01*
X010591Y014347D02*
X009988Y014347D01*
X009997Y014348D02*
X010591Y014348D01*
X010592Y014349D02*
X010006Y014349D01*
X010014Y014350D02*
X010592Y014350D01*
X010593Y014351D02*
X010023Y014351D01*
X010031Y014352D02*
X010593Y014352D01*
X010594Y014353D02*
X010040Y014353D01*
X010048Y014354D02*
X010594Y014354D01*
X010595Y014355D02*
X010057Y014355D01*
X010065Y014356D02*
X010595Y014356D01*
X010596Y014357D02*
X010073Y014357D01*
X010081Y014358D02*
X010596Y014358D01*
X010596Y014359D02*
X010089Y014359D01*
X010096Y014360D02*
X010597Y014360D01*
X010599Y014361D02*
X010104Y014361D01*
X010111Y014362D02*
X010603Y014362D01*
X010607Y014363D02*
X010118Y014363D01*
X010126Y014364D02*
X010610Y014364D01*
X010614Y014365D02*
X010133Y014365D01*
X010141Y014366D02*
X010618Y014366D01*
X010622Y014367D02*
X010148Y014367D01*
X010156Y014368D02*
X010626Y014368D01*
X010629Y014369D02*
X010163Y014369D01*
X010169Y014370D02*
X010633Y014370D01*
X010637Y014371D02*
X010176Y014371D01*
X010182Y014372D02*
X010641Y014372D01*
X010644Y014373D02*
X010189Y014373D01*
X010196Y014374D02*
X010648Y014374D01*
X010652Y014375D02*
X010202Y014375D01*
X010209Y014376D02*
X010656Y014376D01*
X010660Y014377D02*
X010215Y014377D01*
X010222Y014378D02*
X010663Y014378D01*
X010667Y014379D02*
X010229Y014379D01*
X010235Y014380D02*
X010671Y014380D01*
X010675Y014381D02*
X010242Y014381D01*
X010248Y014382D02*
X010678Y014382D01*
X010681Y014383D02*
X010254Y014383D01*
X010260Y014384D02*
X010685Y014384D01*
X010688Y014385D02*
X010266Y014385D01*
X010272Y014386D02*
X010691Y014386D01*
X010695Y014387D02*
X010278Y014387D01*
X010284Y014388D02*
X010698Y014388D01*
X010701Y014389D02*
X010289Y014389D01*
X010295Y014390D02*
X010705Y014390D01*
X010708Y014391D02*
X010301Y014391D01*
X010307Y014392D02*
X010711Y014392D01*
X010715Y014393D02*
X010313Y014393D01*
X010319Y014394D02*
X010718Y014394D01*
X010721Y014395D02*
X010325Y014395D01*
X010331Y014396D02*
X010725Y014396D01*
X010728Y014397D02*
X010336Y014397D01*
X010341Y014398D02*
X010731Y014398D01*
X010735Y014399D02*
X010347Y014399D01*
X010352Y014400D02*
X010738Y014400D01*
X010741Y014401D02*
X010358Y014401D01*
X010363Y014402D02*
X010744Y014402D01*
X010748Y014403D02*
X010368Y014403D01*
X010374Y014404D02*
X010751Y014404D01*
X010754Y014405D02*
X010379Y014405D01*
X010384Y014406D02*
X010757Y014406D01*
X010760Y014407D02*
X010390Y014407D01*
X010395Y014408D02*
X010763Y014408D01*
X010766Y014409D02*
X010401Y014409D01*
X010406Y014410D02*
X010769Y014410D01*
X010772Y014411D02*
X010411Y014411D01*
X010416Y014412D02*
X010775Y014412D01*
X010778Y014413D02*
X010421Y014413D01*
X010426Y014414D02*
X010780Y014414D01*
X010783Y014415D02*
X010431Y014415D01*
X010436Y014416D02*
X010786Y014416D01*
X010789Y014417D02*
X010441Y014417D01*
X010446Y014418D02*
X010792Y014418D01*
X010795Y014419D02*
X010451Y014419D01*
X010456Y014420D02*
X010798Y014420D01*
X010801Y014421D02*
X010460Y014421D01*
X010465Y014422D02*
X010804Y014422D01*
X010806Y014423D02*
X010470Y014423D01*
X010475Y014424D02*
X010809Y014424D01*
X010812Y014425D02*
X010480Y014425D01*
X010485Y014426D02*
X010815Y014426D01*
X010818Y014427D02*
X010490Y014427D01*
X010495Y014428D02*
X010821Y014428D01*
X010824Y014429D02*
X010499Y014429D01*
X010504Y014430D02*
X010827Y014430D01*
X010830Y014431D02*
X010508Y014431D01*
X010513Y014432D02*
X010832Y014432D01*
X010835Y014433D02*
X010517Y014433D01*
X010522Y014434D02*
X010837Y014434D01*
X010840Y014435D02*
X010526Y014435D01*
X010530Y014436D02*
X010842Y014436D01*
X010845Y014437D02*
X010535Y014437D01*
X010539Y014438D02*
X010847Y014438D01*
X010850Y014439D02*
X010544Y014439D01*
X010548Y014440D02*
X010852Y014440D01*
X010855Y014441D02*
X010553Y014441D01*
X010557Y014442D02*
X010857Y014442D01*
X010860Y014443D02*
X010562Y014443D01*
X010566Y014444D02*
X010862Y014444D01*
X010865Y014445D02*
X010571Y014445D01*
X010575Y014446D02*
X010867Y014446D01*
X010870Y014447D02*
X010579Y014447D01*
X010583Y014448D02*
X010872Y014448D01*
X010875Y014449D02*
X010587Y014449D01*
X010591Y014450D02*
X010877Y014450D01*
X010880Y014451D02*
X010595Y014451D01*
X010600Y014452D02*
X010882Y014452D01*
X010885Y014453D02*
X010604Y014453D01*
X010608Y014454D02*
X010887Y014454D01*
X010890Y014455D02*
X010612Y014455D01*
X010616Y014456D02*
X010892Y014456D01*
X010895Y014457D02*
X010620Y014457D01*
X010624Y014458D02*
X010897Y014458D01*
X010900Y014459D02*
X010628Y014459D01*
X010632Y014460D02*
X010902Y014460D01*
X010905Y014461D02*
X010636Y014461D01*
X010640Y014462D02*
X010907Y014462D01*
X010909Y014463D02*
X010644Y014463D01*
X010648Y014464D02*
X010911Y014464D01*
X010913Y014465D02*
X010652Y014465D01*
X010656Y014466D02*
X010916Y014466D01*
X010918Y014467D02*
X010660Y014467D01*
X010664Y014468D02*
X010920Y014468D01*
X010922Y014469D02*
X010667Y014469D01*
X010671Y014470D02*
X010924Y014470D01*
X010926Y014471D02*
X010674Y014471D01*
X010678Y014472D02*
X010928Y014472D01*
X010930Y014473D02*
X010682Y014473D01*
X010685Y014474D02*
X010932Y014474D01*
X010935Y014475D02*
X010689Y014475D01*
X010693Y014476D02*
X010937Y014476D01*
X010939Y014477D02*
X010696Y014477D01*
X010700Y014478D02*
X010941Y014478D01*
X010943Y014479D02*
X010703Y014479D01*
X010707Y014480D02*
X010945Y014480D01*
X010947Y014481D02*
X010711Y014481D01*
X010714Y014482D02*
X010949Y014482D01*
X010952Y014483D02*
X010718Y014483D01*
X010721Y014484D02*
X010954Y014484D01*
X010956Y014485D02*
X010725Y014485D01*
X010729Y014486D02*
X010958Y014486D01*
X010960Y014487D02*
X010732Y014487D01*
X010736Y014488D02*
X010962Y014488D01*
X010964Y014489D02*
X010740Y014489D01*
X010743Y014490D02*
X010966Y014490D01*
X010969Y014491D02*
X010746Y014491D01*
X010749Y014492D02*
X010971Y014492D01*
X010973Y014493D02*
X010753Y014493D01*
X010756Y014494D02*
X010975Y014494D01*
X010977Y014495D02*
X010759Y014495D01*
X010762Y014496D02*
X010979Y014496D01*
X010981Y014497D02*
X010765Y014497D01*
X010769Y014498D02*
X010983Y014498D01*
X010985Y014499D02*
X010772Y014499D01*
X010775Y014500D02*
X010986Y014500D01*
X010988Y014501D02*
X010778Y014501D01*
X010781Y014502D02*
X010990Y014502D01*
X010992Y014503D02*
X010784Y014503D01*
X010788Y014504D02*
X010993Y014504D01*
X010995Y014505D02*
X010791Y014505D01*
X010794Y014506D02*
X010997Y014506D01*
X010999Y014507D02*
X010797Y014507D01*
X010800Y014508D02*
X011000Y014508D01*
X011002Y014509D02*
X010804Y014509D01*
X010807Y014510D02*
X011004Y014510D01*
X011006Y014511D02*
X010810Y014511D01*
X010813Y014512D02*
X011007Y014512D01*
X011009Y014513D02*
X010816Y014513D01*
X010819Y014514D02*
X011011Y014514D01*
X011013Y014515D02*
X010823Y014515D01*
X010825Y014516D02*
X011015Y014516D01*
X011016Y014517D02*
X010828Y014517D01*
X010831Y014518D02*
X011018Y014518D01*
X011020Y014519D02*
X010834Y014519D01*
X010836Y014520D02*
X011022Y014520D01*
X011023Y014521D02*
X010839Y014521D01*
X010842Y014522D02*
X011025Y014522D01*
X011027Y014523D02*
X010844Y014523D01*
X010847Y014524D02*
X011029Y014524D01*
X011030Y014525D02*
X010850Y014525D01*
X010853Y014526D02*
X011032Y014526D01*
X011034Y014527D02*
X010855Y014527D01*
X010858Y014528D02*
X011036Y014528D01*
X011037Y014529D02*
X010861Y014529D01*
X010863Y014530D02*
X011039Y014530D01*
X011041Y014531D02*
X010866Y014531D01*
X010869Y014532D02*
X011043Y014532D01*
X011044Y014533D02*
X010872Y014533D01*
X010874Y014534D02*
X011046Y014534D01*
X010626Y015005D02*
X010346Y015005D01*
X010345Y015006D02*
X010625Y015006D01*
X010625Y015007D02*
X010345Y015007D01*
X010344Y015008D02*
X010625Y015008D01*
X010625Y015009D02*
X010344Y015009D01*
X010343Y015010D02*
X010625Y015010D01*
X010624Y015011D02*
X010343Y015011D01*
X010342Y015012D02*
X010624Y015012D01*
X010624Y015013D02*
X010341Y015013D01*
X010341Y015014D02*
X010624Y015014D01*
X010623Y015015D02*
X010340Y015015D01*
X010340Y015016D02*
X010623Y015016D01*
X010623Y015017D02*
X010339Y015017D01*
X010339Y015018D02*
X010623Y015018D01*
X010623Y015019D02*
X010338Y015019D01*
X010338Y015020D02*
X010622Y015020D01*
X010622Y015021D02*
X010340Y015021D01*
X010343Y015022D02*
X010622Y015022D01*
X010622Y015023D02*
X010346Y015023D01*
X010348Y015024D02*
X010621Y015024D01*
X010621Y015025D02*
X010351Y015025D01*
X010354Y015026D02*
X010621Y015026D01*
X010621Y015027D02*
X010356Y015027D01*
X010359Y015028D02*
X010621Y015028D01*
X010620Y015029D02*
X010362Y015029D01*
X010364Y015030D02*
X010620Y015030D01*
X010620Y015031D02*
X010367Y015031D01*
X010370Y015032D02*
X010620Y015032D01*
X010619Y015033D02*
X010372Y015033D01*
X010375Y015034D02*
X010619Y015034D01*
X010619Y015035D02*
X010378Y015035D01*
X010380Y015036D02*
X010619Y015036D01*
X010619Y015037D02*
X010383Y015037D01*
X010386Y015038D02*
X010618Y015038D01*
X010618Y015039D02*
X010388Y015039D01*
X010391Y015040D02*
X010618Y015040D01*
X010618Y015041D02*
X010394Y015041D01*
X010396Y015042D02*
X010617Y015042D01*
X010617Y015043D02*
X010399Y015043D01*
X010402Y015044D02*
X010617Y015044D01*
X010617Y015045D02*
X010404Y015045D01*
X010409Y015046D02*
X010617Y015046D01*
X010612Y015047D02*
X010414Y015047D01*
X010419Y015048D02*
X010607Y015048D01*
X010602Y015049D02*
X010425Y015049D01*
X010430Y015050D02*
X010597Y015050D01*
X010592Y015051D02*
X010435Y015051D01*
X010440Y015052D02*
X010587Y015052D01*
X010581Y015053D02*
X010445Y015053D01*
X010450Y015054D02*
X010576Y015054D01*
X010571Y015055D02*
X010455Y015055D01*
X010461Y015056D02*
X010566Y015056D01*
X010561Y015057D02*
X010466Y015057D01*
X010471Y015058D02*
X010556Y015058D01*
X010550Y015059D02*
X010491Y015059D01*
X010472Y015574D02*
X009624Y015574D01*
X009622Y015575D02*
X010471Y015575D01*
X010470Y015576D02*
X009619Y015576D01*
X009617Y015577D02*
X010468Y015577D01*
X010467Y015578D02*
X009614Y015578D01*
X009612Y015579D02*
X010466Y015579D01*
X010464Y015580D02*
X009609Y015580D01*
X009607Y015581D02*
X010463Y015581D01*
X009345Y015460D02*
X009106Y015460D01*
X009105Y015459D02*
X009277Y015459D01*
X009116Y015235D02*
X009053Y015235D01*
X008887Y015235D01*
X008888Y015234D02*
X009116Y015234D01*
X009116Y015233D02*
X008890Y015233D01*
X008892Y015232D02*
X009116Y015232D01*
X009116Y015231D02*
X008893Y015231D01*
X008895Y015230D02*
X009116Y015230D01*
X009116Y015229D02*
X008897Y015229D01*
X008898Y015228D02*
X009116Y015228D01*
X009115Y015227D02*
X008900Y015227D01*
X008902Y015226D02*
X009115Y015226D01*
X009115Y015225D02*
X008903Y015225D01*
X008907Y015221D02*
X008829Y015221D01*
X008912Y015220D02*
X009115Y015220D01*
X008881Y014657D02*
X008804Y014657D01*
X008804Y014656D02*
X008879Y014656D01*
X008878Y014655D02*
X008804Y014655D01*
X008805Y014654D02*
X008876Y014654D01*
X008875Y014653D02*
X008805Y014653D01*
X008806Y014652D02*
X008873Y014652D01*
X008871Y014651D02*
X008806Y014651D01*
X008806Y014650D02*
X008870Y014650D01*
X008868Y014649D02*
X008807Y014649D01*
X008807Y014648D02*
X008867Y014648D01*
X008865Y014647D02*
X008808Y014647D01*
X008808Y014646D02*
X008863Y014646D01*
X008862Y014645D02*
X008808Y014645D01*
X008809Y014644D02*
X008860Y014644D01*
X008859Y014643D02*
X008809Y014643D01*
X008810Y014642D02*
X008857Y014642D01*
X008855Y014641D02*
X008810Y014641D01*
X008810Y014640D02*
X008854Y014640D01*
X008852Y014639D02*
X008811Y014639D01*
X008811Y014638D02*
X008851Y014638D01*
X008849Y014637D02*
X008812Y014637D01*
X008812Y014636D02*
X008847Y014636D01*
X008846Y014635D02*
X008813Y014635D01*
X008813Y014634D02*
X008844Y014634D01*
X008843Y014633D02*
X008813Y014633D01*
X008814Y014632D02*
X008841Y014632D01*
X008839Y014631D02*
X008814Y014631D01*
X008815Y014630D02*
X008838Y014630D01*
X008836Y014629D02*
X008815Y014629D01*
X008815Y014628D02*
X008834Y014628D01*
X008833Y014627D02*
X008816Y014627D01*
X008816Y014626D02*
X008831Y014626D01*
X008830Y014625D02*
X008817Y014625D01*
X008817Y014624D02*
X008828Y014624D01*
X008826Y014623D02*
X008817Y014623D01*
X008818Y014622D02*
X008825Y014622D01*
X008823Y014621D02*
X008818Y014621D01*
X008819Y014620D02*
X008822Y014620D01*
X008820Y014619D02*
X008819Y014619D01*
X008801Y014589D02*
X008932Y014589D01*
X008930Y014588D02*
X008800Y014588D01*
X008798Y014587D02*
X008929Y014587D01*
X008928Y014586D02*
X008797Y014586D01*
X008796Y014585D02*
X008927Y014585D01*
X008926Y014584D02*
X008795Y014584D01*
X008793Y014583D02*
X008925Y014583D01*
X008924Y014582D02*
X008792Y014582D01*
X008791Y014581D02*
X008923Y014581D01*
X008922Y014580D02*
X008790Y014580D01*
X008789Y014579D02*
X008921Y014579D01*
X008920Y014578D02*
X008787Y014578D01*
X008786Y014577D02*
X008919Y014577D01*
X008918Y014576D02*
X008785Y014576D01*
X008784Y014575D02*
X008917Y014575D01*
X008916Y014574D02*
X008782Y014574D01*
X008781Y014573D02*
X008915Y014573D01*
X008914Y014572D02*
X008780Y014572D01*
X008779Y014571D02*
X008912Y014571D01*
X008911Y014570D02*
X008777Y014570D01*
X008777Y014569D02*
X008910Y014569D01*
X008909Y014568D02*
X008778Y014568D01*
X008779Y014567D02*
X008908Y014567D01*
X008907Y014566D02*
X008780Y014566D01*
X008781Y014565D02*
X008906Y014565D01*
X008905Y014564D02*
X008782Y014564D01*
X008783Y014563D02*
X008904Y014563D01*
X008903Y014562D02*
X008784Y014562D01*
X008785Y014561D02*
X008902Y014561D01*
X008901Y014560D02*
X008786Y014560D01*
X008787Y014559D02*
X008900Y014559D01*
X008899Y014558D02*
X008788Y014558D01*
X008789Y014557D02*
X008898Y014557D01*
X008897Y014556D02*
X008790Y014556D01*
X008791Y014555D02*
X008895Y014555D01*
X008894Y014554D02*
X008792Y014554D01*
X008793Y014553D02*
X008893Y014553D01*
X008892Y014552D02*
X008794Y014552D01*
X008794Y014551D02*
X008891Y014551D01*
X008890Y014550D02*
X008795Y014550D01*
X008796Y014549D02*
X008889Y014549D01*
X008888Y014548D02*
X008797Y014548D01*
X008798Y014547D02*
X008887Y014547D01*
X008886Y014546D02*
X008799Y014546D01*
X008800Y014545D02*
X008885Y014545D01*
X008884Y014544D02*
X008801Y014544D01*
X008802Y014543D02*
X008883Y014543D01*
X008882Y014542D02*
X008803Y014542D01*
X008804Y014541D02*
X008881Y014541D01*
X008880Y014540D02*
X008805Y014540D01*
X008806Y014539D02*
X008879Y014539D01*
X008877Y014538D02*
X008807Y014538D01*
X008808Y014537D02*
X008876Y014537D01*
X008875Y014536D02*
X008809Y014536D01*
X008810Y014535D02*
X008874Y014535D01*
X008873Y014534D02*
X008811Y014534D01*
X008812Y014533D02*
X008872Y014533D01*
X008871Y014532D02*
X008813Y014532D01*
X008814Y014531D02*
X008870Y014531D01*
X008869Y014530D02*
X008815Y014530D01*
X008816Y014529D02*
X008868Y014529D01*
X008867Y014528D02*
X008817Y014528D01*
X008818Y014527D02*
X008866Y014527D01*
X008865Y014526D02*
X008819Y014526D01*
X008819Y014525D02*
X008864Y014525D01*
X008863Y014524D02*
X008820Y014524D01*
X008821Y014523D02*
X008862Y014523D01*
X008861Y014522D02*
X008822Y014522D01*
X008823Y014521D02*
X008859Y014521D01*
X008858Y014520D02*
X008824Y014520D01*
X008825Y014519D02*
X008857Y014519D01*
X008856Y014518D02*
X008826Y014518D01*
X008827Y014517D02*
X008855Y014517D01*
X008854Y014516D02*
X008828Y014516D01*
X008829Y014515D02*
X008853Y014515D01*
X008852Y014514D02*
X008830Y014514D01*
X008831Y014513D02*
X008851Y014513D01*
X008850Y014512D02*
X008832Y014512D01*
X008833Y014511D02*
X008849Y014511D01*
X008848Y014510D02*
X008834Y014510D01*
X008835Y014509D02*
X008847Y014509D01*
X008846Y014508D02*
X008836Y014508D01*
X008837Y014507D02*
X008845Y014507D01*
X008844Y014506D02*
X008838Y014506D01*
X008839Y014505D02*
X008842Y014505D01*
X008841Y014504D02*
X008840Y014504D01*
X009119Y014323D02*
X010579Y014323D01*
X010579Y014322D02*
X009120Y014322D01*
X009120Y014321D02*
X010578Y014321D01*
X010578Y014320D02*
X009121Y014320D01*
X009122Y014319D02*
X010577Y014319D01*
X010577Y014318D02*
X009122Y014318D01*
X009123Y014317D02*
X010576Y014317D01*
X010576Y014316D02*
X009123Y014316D01*
X009124Y014315D02*
X010575Y014315D01*
X010575Y014314D02*
X009124Y014314D01*
X009125Y014313D02*
X010574Y014313D01*
X010574Y014312D02*
X009125Y014312D01*
X009126Y014311D02*
X010573Y014311D01*
X010573Y014310D02*
X009126Y014310D01*
X009127Y014309D02*
X010572Y014309D01*
X010572Y014308D02*
X009127Y014308D01*
X009128Y014307D02*
X010571Y014307D01*
X010571Y014306D02*
X009128Y014306D01*
X009129Y014305D02*
X010570Y014305D01*
X010570Y014304D02*
X009129Y014304D01*
X009130Y014303D02*
X010569Y014303D01*
X010569Y014302D02*
X009130Y014302D01*
X009131Y014301D02*
X010569Y014301D01*
X010568Y014300D02*
X009132Y014300D01*
X009132Y014299D02*
X010568Y014299D01*
X010567Y014298D02*
X009133Y014298D01*
X009133Y014297D02*
X010567Y014297D01*
X010566Y014296D02*
X009134Y014296D01*
X009134Y014295D02*
X010566Y014295D01*
X010565Y014294D02*
X009135Y014294D01*
X009135Y014293D02*
X010565Y014293D01*
X010564Y014292D02*
X009136Y014292D01*
X009136Y014291D02*
X010564Y014291D01*
X010563Y014290D02*
X009137Y014290D01*
X009137Y014289D02*
X010562Y014289D01*
X010561Y014288D02*
X009138Y014288D01*
X009138Y014287D02*
X010560Y014287D01*
X010559Y014286D02*
X009139Y014286D01*
X009139Y014285D02*
X010558Y014285D01*
X010557Y014284D02*
X009140Y014284D01*
X009140Y014283D02*
X010556Y014283D01*
X010555Y014282D02*
X009141Y014282D01*
X009141Y014281D02*
X010554Y014281D01*
X010553Y014280D02*
X009142Y014280D01*
X009143Y014279D02*
X010551Y014279D01*
X010550Y014278D02*
X009143Y014278D01*
X009144Y014277D02*
X010549Y014277D01*
X010548Y014276D02*
X009144Y014276D01*
X009145Y014275D02*
X010547Y014275D01*
X010546Y014274D02*
X009145Y014274D01*
X009146Y014273D02*
X010545Y014273D01*
X010544Y014272D02*
X009147Y014272D01*
X009149Y014271D02*
X010543Y014271D01*
X010542Y014270D02*
X009150Y014270D01*
X009151Y014269D02*
X010541Y014269D01*
X010540Y014268D02*
X009152Y014268D01*
X009154Y014267D02*
X010539Y014267D01*
X010538Y014266D02*
X009155Y014266D01*
X009156Y014265D02*
X010537Y014265D01*
X010536Y014264D02*
X009157Y014264D01*
X009159Y014263D02*
X010535Y014263D01*
X010534Y014262D02*
X009160Y014262D01*
X009161Y014261D02*
X010533Y014261D01*
X010532Y014260D02*
X009162Y014260D01*
X009164Y014259D02*
X010531Y014259D01*
X010530Y014258D02*
X009165Y014258D01*
X009166Y014257D02*
X010528Y014257D01*
X010527Y014256D02*
X009167Y014256D01*
X009169Y014255D02*
X010526Y014255D01*
X010525Y014254D02*
X009170Y014254D01*
X009171Y014253D02*
X010524Y014253D01*
X010523Y014252D02*
X009172Y014252D01*
X009173Y014251D02*
X010522Y014251D01*
X010521Y014250D02*
X009175Y014250D01*
X009176Y014249D02*
X010520Y014249D01*
X010519Y014248D02*
X009177Y014248D01*
X009178Y014247D02*
X010518Y014247D01*
X010517Y014246D02*
X009180Y014246D01*
X009181Y014245D02*
X010516Y014245D01*
X010515Y014244D02*
X009182Y014244D01*
X009183Y014243D02*
X010514Y014243D01*
X010513Y014242D02*
X009185Y014242D01*
X009186Y014241D02*
X010512Y014241D01*
X010511Y014240D02*
X009187Y014240D01*
X009188Y014239D02*
X010510Y014239D01*
X010509Y014238D02*
X009190Y014238D01*
X009191Y014237D02*
X010508Y014237D01*
X010506Y014236D02*
X009192Y014236D01*
X009193Y014235D02*
X009656Y014235D01*
X009657Y014230D02*
X010498Y014230D01*
X010497Y014229D02*
X009654Y014229D01*
X009651Y014228D02*
X010496Y014228D01*
X010494Y014227D02*
X009649Y014227D01*
X009646Y014226D02*
X010493Y014226D01*
X010492Y014225D02*
X009643Y014225D01*
X009641Y014224D02*
X010490Y014224D01*
X010489Y014223D02*
X009638Y014223D01*
X009635Y014222D02*
X010488Y014222D01*
X010486Y014221D02*
X009633Y014221D01*
X009630Y014220D02*
X010485Y014220D01*
X010483Y014219D02*
X009627Y014219D01*
X009625Y014218D02*
X010482Y014218D01*
X010481Y014217D02*
X009622Y014217D01*
X009619Y014216D02*
X010479Y014216D01*
X010478Y014215D02*
X009617Y014215D01*
X009614Y014214D02*
X010477Y014214D01*
X010475Y014213D02*
X009611Y014213D01*
X009609Y014212D02*
X010474Y014212D01*
X010472Y014211D02*
X009606Y014211D01*
X009603Y014210D02*
X010471Y014210D01*
X010470Y014209D02*
X009601Y014209D01*
X009598Y014208D02*
X010468Y014208D01*
X010467Y014207D02*
X009596Y014207D01*
X009593Y014206D02*
X010466Y014206D01*
X010464Y014205D02*
X009591Y014205D01*
X009588Y014204D02*
X010463Y014204D01*
X010462Y014203D02*
X009586Y014203D01*
X009584Y014202D02*
X010460Y014202D01*
X010459Y014201D02*
X009581Y014201D01*
X009579Y014200D02*
X010457Y014200D01*
X010456Y014199D02*
X009576Y014199D01*
X009574Y014198D02*
X010455Y014198D01*
X010453Y014197D02*
X009572Y014197D01*
X009569Y014196D02*
X010452Y014196D01*
X010451Y014195D02*
X009567Y014195D01*
X009565Y014194D02*
X010449Y014194D01*
X010448Y014193D02*
X009562Y014193D01*
X009560Y014192D02*
X010447Y014192D01*
X010445Y014191D02*
X009557Y014191D01*
X009555Y014190D02*
X010444Y014190D01*
X010442Y014189D02*
X009553Y014189D01*
X009550Y014188D02*
X010441Y014188D01*
X010439Y014187D02*
X009548Y014187D01*
X009545Y014186D02*
X010438Y014186D01*
X010436Y014185D02*
X009543Y014185D01*
X009541Y014184D02*
X010435Y014184D01*
X010433Y014183D02*
X009538Y014183D01*
X009536Y014182D02*
X010431Y014182D01*
X010430Y014181D02*
X009534Y014181D01*
X009531Y014180D02*
X010428Y014180D01*
X010427Y014179D02*
X009529Y014179D01*
X009526Y014178D02*
X010425Y014178D01*
X010423Y014177D02*
X009524Y014177D01*
X009522Y014176D02*
X010422Y014176D01*
X010420Y014175D02*
X009520Y014175D01*
X009518Y014174D02*
X010419Y014174D01*
X010417Y014173D02*
X009516Y014173D01*
X009513Y014172D02*
X010415Y014172D01*
X010414Y014171D02*
X009511Y014171D01*
X009509Y014170D02*
X010412Y014170D01*
X010411Y014169D02*
X009507Y014169D01*
X009505Y014168D02*
X010409Y014168D01*
X010407Y014167D02*
X009503Y014167D01*
X009500Y014166D02*
X010406Y014166D01*
X010404Y014165D02*
X009498Y014165D01*
X009496Y014164D02*
X010403Y014164D01*
X010401Y014163D02*
X009494Y014163D01*
X009492Y014162D02*
X010399Y014162D01*
X010398Y014161D02*
X009490Y014161D01*
X009488Y014160D02*
X010396Y014160D01*
X010395Y014159D02*
X009485Y014159D01*
X009483Y014158D02*
X010393Y014158D01*
X010391Y014157D02*
X009481Y014157D01*
X009479Y014156D02*
X010390Y014156D01*
X010388Y014155D02*
X009477Y014155D01*
X009475Y014154D02*
X010387Y014154D01*
X010385Y014153D02*
X009473Y014153D01*
X009470Y014152D02*
X010383Y014152D01*
X010382Y014151D02*
X009468Y014151D01*
X009466Y014150D02*
X010380Y014150D01*
X010379Y014149D02*
X009464Y014149D01*
X009462Y014148D02*
X010377Y014148D01*
X010375Y014147D02*
X009460Y014147D01*
X009457Y014146D02*
X010374Y014146D01*
X010372Y014145D02*
X009455Y014145D01*
X009453Y014144D02*
X010370Y014144D01*
X010368Y014143D02*
X009451Y014143D01*
X009449Y014142D02*
X010366Y014142D01*
X010365Y014141D02*
X009447Y014141D01*
X009445Y014140D02*
X010363Y014140D01*
X010361Y014139D02*
X009443Y014139D01*
X009442Y014138D02*
X010359Y014138D01*
X010357Y014137D02*
X009440Y014137D01*
X009438Y014136D02*
X010356Y014136D01*
X010354Y014135D02*
X009436Y014135D01*
X009434Y014134D02*
X010352Y014134D01*
X010350Y014133D02*
X009432Y014133D01*
X009430Y014132D02*
X010349Y014132D01*
X010347Y014131D02*
X009428Y014131D01*
X009426Y014130D02*
X010345Y014130D01*
X010343Y014129D02*
X009424Y014129D01*
X009422Y014128D02*
X010341Y014128D01*
X010340Y014127D02*
X009420Y014127D01*
X009418Y014126D02*
X010338Y014126D01*
X010336Y014125D02*
X009416Y014125D01*
X009414Y014124D02*
X010334Y014124D01*
X010332Y014123D02*
X009412Y014123D01*
X009410Y014122D02*
X010331Y014122D01*
X010329Y014121D02*
X009408Y014121D01*
X009406Y014120D02*
X010327Y014120D01*
X010325Y014119D02*
X009404Y014119D01*
X009402Y014118D02*
X010323Y014118D01*
X010322Y014117D02*
X009400Y014117D01*
X009398Y014116D02*
X010320Y014116D01*
X010318Y014115D02*
X009396Y014115D01*
X009395Y014114D02*
X010316Y014114D01*
X010314Y014113D02*
X009393Y014113D01*
X009391Y014112D02*
X010313Y014112D01*
X010311Y014111D02*
X009389Y014111D01*
X009387Y014110D02*
X010309Y014110D01*
X010307Y014109D02*
X009385Y014109D01*
X009383Y014108D02*
X010305Y014108D01*
X010304Y014107D02*
X009381Y014107D01*
X009379Y014106D02*
X010302Y014106D01*
X010300Y014105D02*
X009378Y014105D01*
X009376Y014104D02*
X010298Y014104D01*
X010296Y014103D02*
X009374Y014103D01*
X009372Y014102D02*
X010294Y014102D01*
X010292Y014101D02*
X009370Y014101D01*
X009369Y014100D02*
X010290Y014100D01*
X010288Y014099D02*
X009367Y014099D01*
X009365Y014098D02*
X010286Y014098D01*
X010284Y014097D02*
X009363Y014097D01*
X009361Y014096D02*
X010282Y014096D01*
X010280Y014095D02*
X009360Y014095D01*
X009358Y014094D02*
X010278Y014094D01*
X010276Y014093D02*
X009356Y014093D01*
X009354Y014092D02*
X010274Y014092D01*
X010272Y014091D02*
X009352Y014091D01*
X009351Y014090D02*
X010270Y014090D01*
X010268Y014089D02*
X009349Y014089D01*
X009347Y014088D02*
X010266Y014088D01*
X010264Y014087D02*
X009345Y014087D01*
X009344Y014086D02*
X010262Y014086D01*
X010260Y014085D02*
X009342Y014085D01*
X009340Y014084D02*
X010258Y014084D01*
X010256Y014083D02*
X009338Y014083D01*
X009336Y014082D02*
X010254Y014082D01*
X010253Y014081D02*
X009335Y014081D01*
X009333Y014080D02*
X010251Y014080D01*
X010249Y014079D02*
X009331Y014079D01*
X009329Y014078D02*
X010247Y014078D01*
X010245Y014077D02*
X009327Y014077D01*
X009326Y014076D02*
X010243Y014076D01*
X010241Y014075D02*
X009324Y014075D01*
X009322Y014074D02*
X010239Y014074D01*
X010237Y014073D02*
X009320Y014073D01*
X009318Y014072D02*
X010235Y014072D01*
X010233Y014071D02*
X009317Y014071D01*
X009315Y014070D02*
X010231Y014070D01*
X010229Y014069D02*
X009313Y014069D01*
X009312Y014068D02*
X010226Y014068D01*
X010224Y014067D02*
X009310Y014067D01*
X009308Y014066D02*
X010222Y014066D01*
X010220Y014065D02*
X009307Y014065D01*
X009305Y014064D02*
X010218Y014064D01*
X010216Y014063D02*
X009303Y014063D01*
X009302Y014062D02*
X010214Y014062D01*
X010212Y014061D02*
X009300Y014061D01*
X009298Y014060D02*
X010210Y014060D01*
X010208Y014059D02*
X009297Y014059D01*
X009295Y014058D02*
X010205Y014058D01*
X010203Y014057D02*
X009294Y014057D01*
X009292Y014056D02*
X010201Y014056D01*
X010199Y014055D02*
X009290Y014055D01*
X009289Y014054D02*
X010197Y014054D01*
X010195Y014053D02*
X009287Y014053D01*
X009285Y014052D02*
X010193Y014052D01*
X010191Y014051D02*
X009284Y014051D01*
X009282Y014050D02*
X010189Y014050D01*
X010186Y014049D02*
X009280Y014049D01*
X009279Y014048D02*
X010184Y014048D01*
X010182Y014047D02*
X009277Y014047D01*
X009275Y014046D02*
X010180Y014046D01*
X010178Y014045D02*
X009274Y014045D01*
X009272Y014044D02*
X010176Y014044D01*
X010174Y014043D02*
X009271Y014043D01*
X009269Y014042D02*
X010172Y014042D01*
X010170Y014041D02*
X009267Y014041D01*
X009266Y014040D02*
X010168Y014040D01*
X010165Y014039D02*
X009264Y014039D01*
X009262Y014038D02*
X010163Y014038D01*
X010161Y014037D02*
X009261Y014037D01*
X009259Y014036D02*
X010159Y014036D01*
X010157Y014035D02*
X009257Y014035D01*
X009256Y014034D02*
X010154Y014034D01*
X010152Y014033D02*
X009254Y014033D01*
X009252Y014032D02*
X010150Y014032D01*
X010148Y014031D02*
X009251Y014031D01*
X009249Y014030D02*
X010145Y014030D01*
X010143Y014029D02*
X009248Y014029D01*
X009246Y014028D02*
X010141Y014028D01*
X010139Y014027D02*
X009245Y014027D01*
X009243Y014026D02*
X010136Y014026D01*
X010134Y014025D02*
X009242Y014025D01*
X009240Y014024D02*
X010132Y014024D01*
X010130Y014023D02*
X009239Y014023D01*
X009237Y014022D02*
X010128Y014022D01*
X010125Y014021D02*
X009236Y014021D01*
X009234Y014020D02*
X010123Y014020D01*
X010121Y014019D02*
X009233Y014019D01*
X009231Y014018D02*
X010119Y014018D01*
X010116Y014017D02*
X009230Y014017D01*
X009228Y014016D02*
X010114Y014016D01*
X010112Y014015D02*
X009227Y014015D01*
X009225Y014014D02*
X010110Y014014D01*
X010107Y014013D02*
X009224Y014013D01*
X009222Y014012D02*
X010105Y014012D01*
X010103Y014011D02*
X009221Y014011D01*
X009219Y014010D02*
X010101Y014010D01*
X010098Y014009D02*
X009218Y014009D01*
X009216Y014008D02*
X010096Y014008D01*
X010094Y014007D02*
X009215Y014007D01*
X009213Y014006D02*
X010092Y014006D01*
X010089Y014005D02*
X009212Y014005D01*
X009210Y014004D02*
X010087Y014004D01*
X010085Y014003D02*
X009209Y014003D01*
X009207Y014002D02*
X010082Y014002D01*
X010080Y014001D02*
X009206Y014001D01*
X009204Y014000D02*
X010078Y014000D01*
X010075Y013999D02*
X009203Y013999D01*
X009201Y013998D02*
X010073Y013998D01*
X010071Y013997D02*
X009199Y013997D01*
X009198Y013996D02*
X010068Y013996D01*
X010066Y013995D02*
X009196Y013995D01*
X009195Y013994D02*
X010064Y013994D01*
X010061Y013993D02*
X009193Y013993D01*
X009192Y013992D02*
X010059Y013992D01*
X010056Y013991D02*
X009190Y013991D01*
X009189Y013990D02*
X010054Y013990D01*
X010052Y013989D02*
X009187Y013989D01*
X009186Y013988D02*
X010049Y013988D01*
X010047Y013987D02*
X009184Y013987D01*
X009183Y013986D02*
X010045Y013986D01*
X010042Y013985D02*
X009182Y013985D01*
X009180Y013984D02*
X010040Y013984D01*
X010038Y013983D02*
X009179Y013983D01*
X009178Y013982D02*
X010035Y013982D01*
X010033Y013981D02*
X009176Y013981D01*
X009175Y013980D02*
X010030Y013980D01*
X010028Y013979D02*
X009173Y013979D01*
X009172Y013978D02*
X010026Y013978D01*
X010023Y013977D02*
X009171Y013977D01*
X009169Y013976D02*
X010021Y013976D01*
X010019Y013975D02*
X009168Y013975D01*
X009167Y013974D02*
X010016Y013974D01*
X010014Y013973D02*
X009165Y013973D01*
X009164Y013972D02*
X010011Y013972D01*
X010009Y013971D02*
X009163Y013971D01*
X009161Y013970D02*
X010006Y013970D01*
X010003Y013969D02*
X009160Y013969D01*
X009159Y013968D02*
X010001Y013968D01*
X009998Y013967D02*
X009157Y013967D01*
X009156Y013966D02*
X009996Y013966D01*
X009993Y013965D02*
X009155Y013965D01*
X009153Y013964D02*
X009991Y013964D01*
X009988Y013963D02*
X009152Y013963D01*
X009151Y013962D02*
X009986Y013962D01*
X009983Y013961D02*
X009149Y013961D01*
X009148Y013960D02*
X009980Y013960D01*
X009978Y013959D02*
X009146Y013959D01*
X009145Y013958D02*
X009975Y013958D01*
X009973Y013957D02*
X009144Y013957D01*
X009142Y013956D02*
X009970Y013956D01*
X009968Y013955D02*
X009141Y013955D01*
X009140Y013954D02*
X009965Y013954D01*
X009963Y013953D02*
X009138Y013953D01*
X009137Y013952D02*
X009960Y013952D01*
X009957Y013951D02*
X009136Y013951D01*
X009134Y013950D02*
X009955Y013950D01*
X009952Y013949D02*
X009133Y013949D01*
X009132Y013948D02*
X009950Y013948D01*
X009947Y013947D02*
X009130Y013947D01*
X009129Y013946D02*
X009945Y013946D01*
X009942Y013945D02*
X009128Y013945D01*
X009126Y013944D02*
X009940Y013944D01*
X009937Y013943D02*
X009125Y013943D01*
X009124Y013942D02*
X009934Y013942D01*
X009931Y013941D02*
X009122Y013941D01*
X009121Y013940D02*
X009928Y013940D01*
X009925Y013939D02*
X009119Y013939D01*
X009118Y013938D02*
X009922Y013938D01*
X009919Y013937D02*
X009117Y013937D01*
X009116Y013936D02*
X009917Y013936D01*
X009914Y013935D02*
X009115Y013935D01*
X009114Y013934D02*
X009911Y013934D01*
X009908Y013933D02*
X009112Y013933D01*
X009111Y013932D02*
X009905Y013932D01*
X009902Y013931D02*
X009110Y013931D01*
X009109Y013930D02*
X009899Y013930D01*
X009896Y013929D02*
X009108Y013929D01*
X009107Y013928D02*
X009893Y013928D01*
X009890Y013927D02*
X009107Y013927D01*
X009108Y013926D02*
X009888Y013926D01*
X009885Y013925D02*
X009109Y013925D01*
X009110Y013924D02*
X009882Y013924D01*
X009879Y013923D02*
X009111Y013923D01*
X009112Y013922D02*
X009876Y013922D01*
X009873Y013921D02*
X009113Y013921D01*
X009114Y013920D02*
X009870Y013920D01*
X009867Y013919D02*
X009115Y013919D01*
X009116Y013918D02*
X009864Y013918D01*
X009861Y013917D02*
X009119Y013917D01*
X009121Y013916D02*
X009859Y013916D01*
X009855Y013915D02*
X009123Y013915D01*
X009125Y013914D02*
X009852Y013914D01*
X009848Y013913D02*
X009127Y013913D01*
X009130Y013912D02*
X009845Y013912D01*
X009841Y013911D02*
X009132Y013911D01*
X009134Y013910D02*
X009838Y013910D01*
X009835Y013909D02*
X009136Y013909D01*
X009139Y013908D02*
X009831Y013908D01*
X009828Y013907D02*
X009141Y013907D01*
X009143Y013906D02*
X009824Y013906D01*
X009821Y013905D02*
X009145Y013905D01*
X009147Y013904D02*
X009818Y013904D01*
X009814Y013903D02*
X009150Y013903D01*
X009152Y013902D02*
X009811Y013902D01*
X009807Y013901D02*
X009154Y013901D01*
X009156Y013900D02*
X009804Y013900D01*
X009800Y013899D02*
X009158Y013899D01*
X009161Y013898D02*
X009797Y013898D01*
X009794Y013897D02*
X009163Y013897D01*
X009165Y013896D02*
X009790Y013896D01*
X009787Y013895D02*
X009167Y013895D01*
X009170Y013894D02*
X009783Y013894D01*
X009780Y013893D02*
X009172Y013893D01*
X009174Y013892D02*
X009776Y013892D01*
X009772Y013891D02*
X009176Y013891D01*
X009178Y013890D02*
X009768Y013890D01*
X009764Y013889D02*
X009181Y013889D01*
X009183Y013888D02*
X009760Y013888D01*
X009755Y013887D02*
X009185Y013887D01*
X009187Y013886D02*
X009751Y013886D01*
X009747Y013885D02*
X009190Y013885D01*
X009192Y013884D02*
X009743Y013884D01*
X009739Y013883D02*
X009195Y013883D01*
X009198Y013882D02*
X009735Y013882D01*
X009730Y013881D02*
X009202Y013881D01*
X009206Y013880D02*
X009726Y013880D01*
X009722Y013879D02*
X009210Y013879D01*
X009213Y013878D02*
X009718Y013878D01*
X009714Y013877D02*
X009217Y013877D01*
X009221Y013876D02*
X009709Y013876D01*
X009705Y013875D02*
X009224Y013875D01*
X009228Y013874D02*
X009701Y013874D01*
X009697Y013873D02*
X009232Y013873D01*
X009236Y013872D02*
X009692Y013872D01*
X009686Y013871D02*
X009239Y013871D01*
X009243Y013870D02*
X009681Y013870D01*
X009675Y013869D02*
X009247Y013869D01*
X009250Y013868D02*
X009669Y013868D01*
X009664Y013867D02*
X009254Y013867D01*
X009258Y013866D02*
X009658Y013866D01*
X009653Y013865D02*
X009262Y013865D01*
X009265Y013864D02*
X009647Y013864D01*
X009641Y013863D02*
X009269Y013863D01*
X009273Y013862D02*
X009636Y013862D01*
X009630Y013861D02*
X009278Y013861D01*
X009285Y013860D02*
X009624Y013860D01*
X009619Y013859D02*
X009292Y013859D01*
X009299Y013858D02*
X009613Y013858D01*
X009605Y013857D02*
X009305Y013857D01*
X009312Y013856D02*
X009596Y013856D01*
X009587Y013855D02*
X009319Y013855D01*
X009326Y013854D02*
X009578Y013854D01*
X009569Y013853D02*
X009333Y013853D01*
X009339Y013853D02*
X009560Y013853D01*
X009551Y013852D02*
X009346Y013852D01*
X009353Y013851D02*
X009542Y013851D01*
X009533Y013850D02*
X009363Y013850D01*
X009384Y013849D02*
X009518Y013849D01*
X009491Y013848D02*
X009405Y013848D01*
X009426Y013847D02*
X009464Y013847D01*
X009465Y014227D02*
X009203Y014227D01*
X009202Y014228D02*
X009497Y014228D01*
X009526Y014229D02*
X009201Y014229D01*
X009199Y014230D02*
X009550Y014230D01*
X009574Y014231D02*
X009198Y014231D01*
X009197Y014232D02*
X009598Y014232D01*
X009617Y014233D02*
X009196Y014233D01*
X009195Y014234D02*
X009637Y014234D01*
X009659Y014231D02*
X010500Y014231D01*
X010501Y014232D02*
X009662Y014232D01*
X009665Y014233D02*
X010503Y014233D01*
X010504Y014234D02*
X009667Y014234D01*
X009670Y014235D02*
X010505Y014235D01*
X009430Y014226D02*
X009204Y014226D01*
X009206Y014225D02*
X009385Y014225D01*
X009314Y014224D02*
X009207Y014224D01*
D14*
X005252Y014780D02*
X004934Y014748D01*
X004900Y014641D01*
X004849Y014541D01*
X005051Y014294D01*
X004881Y014124D01*
X004634Y014326D01*
X004534Y014275D01*
X004427Y014241D01*
X004395Y013923D01*
X004155Y013923D01*
X004123Y014241D01*
X004016Y014275D01*
X003916Y014326D01*
X003669Y014124D01*
X003499Y014294D01*
X003701Y014541D01*
X003650Y014641D01*
X003991Y014782D01*
X004019Y014729D01*
X004057Y014682D01*
X004104Y014644D01*
X004157Y014616D01*
X004215Y014598D01*
X004275Y014592D01*
X004338Y014599D01*
X004398Y014618D01*
X004453Y014649D01*
X004500Y014691D01*
X004538Y014741D01*
X004565Y014798D01*
X004580Y014860D01*
X004582Y014923D01*
X004571Y014985D01*
X004547Y015044D01*
X004512Y015096D01*
X004467Y015140D01*
X004414Y015175D01*
X004355Y015197D01*
X004292Y015207D01*
X004229Y015204D01*
X004168Y015188D01*
X004111Y015160D01*
X004062Y015122D01*
X004021Y015073D01*
X003991Y015018D01*
X003650Y015159D01*
X003701Y015259D01*
X003499Y015506D01*
X003669Y015676D01*
X003916Y015474D01*
X004016Y015525D01*
X004123Y015559D01*
X004155Y015877D01*
X004395Y015877D01*
X004427Y015559D01*
X004534Y015525D01*
X004634Y015474D01*
X004881Y015676D01*
X005051Y015506D01*
X004849Y015259D01*
X004900Y015159D01*
X004934Y015052D01*
X005252Y015020D01*
X005252Y014780D01*
X005252Y014827D02*
X004572Y014827D01*
X004581Y014884D02*
X005252Y014884D01*
X005252Y014942D02*
X004578Y014942D01*
X004565Y014999D02*
X005252Y014999D01*
X005144Y014769D02*
X004552Y014769D01*
X004516Y014712D02*
X004923Y014712D01*
X004904Y014654D02*
X004458Y014654D01*
X004314Y014596D02*
X004877Y014596D01*
X004851Y014539D02*
X003699Y014539D01*
X003673Y014596D02*
X004234Y014596D01*
X004092Y014654D02*
X003681Y014654D01*
X003820Y014712D02*
X004034Y014712D01*
X003998Y014769D02*
X003959Y014769D01*
X004012Y015057D02*
X003896Y015057D01*
X003757Y015114D02*
X004056Y015114D01*
X004135Y015172D02*
X003656Y015172D01*
X003686Y015230D02*
X004864Y015230D01*
X004872Y015287D02*
X003678Y015287D01*
X003631Y015345D02*
X004919Y015345D01*
X004966Y015402D02*
X003584Y015402D01*
X003537Y015460D02*
X005013Y015460D01*
X005039Y015517D02*
X004687Y015517D01*
X004757Y015575D02*
X004982Y015575D01*
X004924Y015632D02*
X004828Y015632D01*
X004549Y015517D02*
X004001Y015517D01*
X004124Y015575D02*
X004426Y015575D01*
X004420Y015632D02*
X004130Y015632D01*
X004136Y015690D02*
X004414Y015690D01*
X004408Y015748D02*
X004142Y015748D01*
X004148Y015805D02*
X004402Y015805D01*
X004396Y015863D02*
X004154Y015863D01*
X003863Y015517D02*
X003511Y015517D01*
X003568Y015575D02*
X003793Y015575D01*
X003722Y015632D02*
X003626Y015632D01*
X004418Y015172D02*
X004893Y015172D01*
X004914Y015114D02*
X004493Y015114D01*
X004538Y015057D02*
X004933Y015057D01*
X004898Y014481D02*
X003652Y014481D01*
X003605Y014424D02*
X004945Y014424D01*
X004992Y014366D02*
X003558Y014366D01*
X003511Y014309D02*
X003895Y014309D01*
X003950Y014309D02*
X004600Y014309D01*
X004655Y014309D02*
X005039Y014309D01*
X005008Y014251D02*
X004726Y014251D01*
X004796Y014194D02*
X004950Y014194D01*
X004893Y014136D02*
X004867Y014136D01*
X004460Y014251D02*
X004090Y014251D01*
X004128Y014194D02*
X004422Y014194D01*
X004417Y014136D02*
X004133Y014136D01*
X004139Y014078D02*
X004411Y014078D01*
X004405Y014021D02*
X004145Y014021D01*
X004151Y013963D02*
X004399Y013963D01*
X003824Y014251D02*
X003542Y014251D01*
X003600Y014194D02*
X003754Y014194D01*
X003683Y014136D02*
X003657Y014136D01*
M02*
