G75*
%MOIN*%
%OFA0B0*%
%FSLAX24Y24*%
%IPPOS*%
%LPD*%
%AMOC8*
5,1,8,0,0,1.08239X$1,22.5*
%
%ADD10C,0.0060*%
%ADD11C,0.0120*%
%ADD12C,0.0040*%
%ADD13C,0.0030*%
%ADD14C,0.0050*%
%ADD15C,0.0100*%
%ADD16R,0.0200X0.0200*%
D10*
X008711Y001269D02*
X009138Y001269D01*
X008925Y001055D02*
X008925Y001482D01*
X008925Y002055D02*
X008925Y002482D01*
X008925Y003430D02*
X008925Y003857D01*
X008711Y003644D02*
X009138Y003644D01*
X008925Y004430D02*
X008925Y004857D01*
X008925Y005805D02*
X008925Y006232D01*
X008711Y006019D02*
X009138Y006019D01*
X008925Y006805D02*
X008925Y007232D01*
X008925Y008180D02*
X008925Y008607D01*
X008711Y008394D02*
X009138Y008394D01*
X008925Y009180D02*
X008925Y009607D01*
X008925Y010555D02*
X008925Y010982D01*
X008711Y010769D02*
X009138Y010769D01*
X008925Y011555D02*
X008925Y011982D01*
D11*
X009025Y012275D02*
X009150Y012275D01*
X009275Y012150D01*
X009275Y010400D01*
X009150Y010275D01*
X009025Y010275D01*
X009025Y009900D02*
X009150Y009900D01*
X009275Y009775D01*
X009275Y008025D01*
X009150Y007900D01*
X009025Y007900D01*
X009025Y007525D02*
X009150Y007525D01*
X009275Y007400D01*
X009275Y005650D01*
X009150Y005525D01*
X009025Y005525D01*
X009025Y005150D02*
X009150Y005150D01*
X009275Y005025D01*
X009275Y003275D01*
X009150Y003150D01*
X009025Y003150D01*
X009025Y002775D02*
X009150Y002775D01*
X009275Y002650D01*
X009275Y000900D01*
X009150Y000775D01*
X009025Y000775D01*
D12*
X013420Y002988D02*
X013880Y002988D01*
X013880Y002835D02*
X013880Y003142D01*
X013803Y003295D02*
X013496Y003602D01*
X013803Y003602D01*
X013880Y003525D01*
X013880Y003372D01*
X013803Y003295D01*
X013496Y003295D01*
X013420Y003372D01*
X013420Y003525D01*
X013496Y003602D01*
X013496Y004065D02*
X013573Y004065D01*
X013650Y004142D01*
X013650Y004372D01*
X013803Y004372D02*
X013496Y004372D01*
X013420Y004295D01*
X013420Y004142D01*
X013496Y004065D01*
X013803Y004065D02*
X013880Y004142D01*
X013880Y004295D01*
X013803Y004372D01*
X013803Y005065D02*
X013727Y005065D01*
X013650Y005142D01*
X013650Y005295D01*
X013727Y005372D01*
X013803Y005372D01*
X013880Y005295D01*
X013880Y005142D01*
X013803Y005065D01*
X013650Y005142D02*
X013573Y005065D01*
X013496Y005065D01*
X013420Y005142D01*
X013420Y005295D01*
X013496Y005372D01*
X013573Y005372D01*
X013650Y005295D01*
X013803Y006065D02*
X013880Y006065D01*
X013803Y006065D02*
X013496Y006372D01*
X013420Y006372D01*
X013420Y006065D01*
X013650Y007065D02*
X013650Y007295D01*
X013727Y007372D01*
X013803Y007372D01*
X013880Y007295D01*
X013880Y007142D01*
X013803Y007065D01*
X013650Y007065D01*
X013496Y007218D01*
X013420Y007372D01*
X013420Y008065D02*
X013650Y008065D01*
X013573Y008218D01*
X013573Y008295D01*
X013650Y008372D01*
X013803Y008372D01*
X013880Y008295D01*
X013880Y008142D01*
X013803Y008065D01*
X013420Y008065D02*
X013420Y008372D01*
X013650Y009065D02*
X013650Y009372D01*
X013880Y009295D02*
X013420Y009295D01*
X013650Y009065D01*
X013803Y010065D02*
X013880Y010142D01*
X013880Y010295D01*
X013803Y010372D01*
X013727Y010372D01*
X013650Y010295D01*
X013650Y010218D01*
X013650Y010295D02*
X013573Y010372D01*
X013496Y010372D01*
X013420Y010295D01*
X013420Y010142D01*
X013496Y010065D01*
X013496Y011065D02*
X013420Y011142D01*
X013420Y011295D01*
X013496Y011372D01*
X013573Y011372D01*
X013880Y011065D01*
X013880Y011372D01*
X013880Y011835D02*
X013420Y011835D01*
X013420Y012065D01*
X013496Y012142D01*
X013650Y012142D01*
X013727Y012065D01*
X013727Y011835D01*
X013727Y011988D02*
X013880Y012142D01*
X013880Y012295D02*
X013420Y012602D01*
X013420Y012835D02*
X013420Y013142D01*
X013420Y013295D02*
X013880Y013602D01*
X013880Y013295D02*
X013420Y013602D01*
X013420Y012988D02*
X013880Y012988D01*
X013880Y012602D02*
X013420Y012295D01*
X009062Y013786D02*
X008755Y013786D01*
X008909Y013786D02*
X008909Y014247D01*
X008755Y014093D01*
X008602Y014247D02*
X008448Y014247D01*
X008525Y014247D02*
X008525Y013863D01*
X008448Y013786D01*
X008372Y013786D01*
X008295Y013863D01*
X008475Y014795D02*
X008475Y015002D01*
X000880Y013437D02*
X000727Y013283D01*
X000420Y013283D01*
X000420Y013130D02*
X000497Y013130D01*
X000804Y012823D01*
X000880Y012823D01*
X000880Y013130D01*
X000650Y013283D02*
X000650Y013590D01*
X000727Y013590D02*
X000880Y013437D01*
X000727Y013590D02*
X000420Y013590D01*
X000420Y012590D02*
X000727Y012590D01*
X000880Y012437D01*
X000727Y012283D01*
X000420Y012283D01*
X000497Y012130D02*
X000420Y012053D01*
X000420Y011900D01*
X000497Y011823D01*
X000573Y011823D01*
X000650Y011900D01*
X000650Y012130D01*
X000497Y012130D01*
X000650Y012130D02*
X000804Y011977D01*
X000880Y011823D01*
X000727Y011590D02*
X000880Y011437D01*
X000727Y011283D01*
X000420Y011283D01*
X000497Y011130D02*
X000420Y011053D01*
X000420Y010900D01*
X000497Y010823D01*
X000650Y010823D01*
X000727Y010900D01*
X000727Y010977D01*
X000650Y011130D01*
X000880Y011130D01*
X000880Y010823D01*
X000727Y010590D02*
X000880Y010437D01*
X000727Y010283D01*
X000420Y010283D01*
X000650Y010283D02*
X000650Y010590D01*
X000727Y010590D02*
X000420Y010590D01*
X000650Y010130D02*
X000650Y009823D01*
X000650Y009590D02*
X000650Y009283D01*
X000727Y009283D02*
X000420Y009283D01*
X000497Y009130D02*
X000420Y009053D01*
X000420Y008900D01*
X000497Y008823D01*
X000573Y008823D01*
X000650Y008900D01*
X000650Y008977D01*
X000650Y008900D02*
X000727Y008823D01*
X000804Y008823D01*
X000880Y008900D01*
X000880Y009053D01*
X000804Y009130D01*
X000727Y009283D02*
X000880Y009437D01*
X000727Y009590D01*
X000420Y009590D01*
X000420Y009900D02*
X000880Y009900D01*
X000650Y010130D01*
X000650Y011283D02*
X000650Y011590D01*
X000727Y011590D02*
X000420Y011590D01*
X000650Y012283D02*
X000650Y012590D01*
X000650Y008590D02*
X000650Y008283D01*
X000727Y008283D02*
X000420Y008283D01*
X000420Y008130D02*
X000727Y007823D01*
X000804Y007823D01*
X000880Y007900D01*
X000880Y008053D01*
X000804Y008130D01*
X000727Y008283D02*
X000880Y008437D01*
X000727Y008590D01*
X000420Y008590D01*
X000420Y008130D02*
X000420Y007823D01*
X000420Y007590D02*
X000727Y007590D01*
X000880Y007437D01*
X000727Y007283D01*
X000420Y007283D01*
X000420Y007130D02*
X000420Y006823D01*
X000420Y006977D02*
X000880Y006977D01*
X000727Y007130D01*
X000650Y007283D02*
X000650Y007590D01*
X000650Y006590D02*
X000650Y006283D01*
X000727Y006283D02*
X000420Y006283D01*
X000497Y006130D02*
X000420Y006053D01*
X000420Y005900D01*
X000497Y005823D01*
X000804Y005823D01*
X000497Y006130D01*
X000804Y006130D01*
X000880Y006053D01*
X000880Y005900D01*
X000804Y005823D01*
X000727Y005590D02*
X000880Y005437D01*
X000420Y005437D01*
X000420Y005590D02*
X000420Y005283D01*
X000497Y005130D02*
X000420Y005053D01*
X000420Y004900D01*
X000497Y004823D01*
X000573Y004823D01*
X000650Y004900D01*
X000650Y004977D01*
X000650Y004900D02*
X000727Y004823D01*
X000804Y004823D01*
X000880Y004900D01*
X000880Y005053D01*
X000804Y005130D01*
X000727Y004590D02*
X000880Y004437D01*
X000420Y004437D01*
X000420Y004590D02*
X000420Y004283D01*
X000420Y004130D02*
X000727Y003823D01*
X000804Y003823D01*
X000880Y003900D01*
X000880Y004053D01*
X000804Y004130D01*
X000420Y004130D02*
X000420Y003823D01*
X000420Y003590D02*
X000420Y003283D01*
X000420Y003130D02*
X000420Y002823D01*
X000420Y002977D02*
X000880Y002977D01*
X000727Y003130D01*
X000880Y003437D02*
X000727Y003590D01*
X000880Y003437D02*
X000420Y003437D01*
X000727Y006283D02*
X000880Y006437D01*
X000727Y006590D01*
X000420Y006590D01*
X013420Y002988D02*
X013573Y002835D01*
D13*
X005695Y013692D02*
X005695Y013899D01*
X005798Y013795D02*
X005591Y013795D01*
X005591Y014005D02*
X005540Y014057D01*
X005540Y014160D01*
X005591Y014212D01*
X005643Y014212D01*
X005695Y014160D01*
X005747Y014212D01*
X005798Y014212D01*
X005850Y014160D01*
X005850Y014057D01*
X005798Y014005D01*
X005695Y014108D02*
X005695Y014160D01*
X005798Y014318D02*
X005798Y014370D01*
X005850Y014370D01*
X005850Y014318D01*
X005798Y014318D01*
X005798Y014475D02*
X005850Y014526D01*
X005850Y014630D01*
X005798Y014682D01*
X005747Y014682D01*
X005695Y014630D01*
X005695Y014578D01*
X005695Y014630D02*
X005643Y014682D01*
X005591Y014682D01*
X005540Y014630D01*
X005540Y014526D01*
X005591Y014475D01*
X005695Y014788D02*
X005695Y014995D01*
X005643Y015101D02*
X005540Y015204D01*
X005850Y015204D01*
X005850Y015101D02*
X005850Y015308D01*
X005850Y015414D02*
X005643Y015621D01*
X005591Y015621D01*
X005540Y015569D01*
X005540Y015466D01*
X005591Y015414D01*
X005850Y015414D02*
X005850Y015621D01*
X005747Y015727D02*
X005850Y015830D01*
X005747Y015934D01*
X005540Y015934D01*
X005540Y015727D02*
X005747Y015727D01*
D14*
X006150Y016050D02*
X006400Y016050D01*
X006900Y016050D02*
X007150Y016050D01*
X007900Y016050D02*
X008050Y016050D01*
X007650Y013900D02*
X007650Y013750D01*
X007550Y013750D01*
X007150Y013750D02*
X006150Y013750D01*
X006250Y012175D02*
X006250Y012025D01*
X006250Y011275D02*
X006250Y011025D01*
X006250Y010525D02*
X006250Y010275D01*
X006250Y009800D02*
X006250Y009650D01*
X006250Y008900D02*
X006250Y008650D01*
X006250Y008150D02*
X006250Y007900D01*
X006250Y007425D02*
X006250Y007275D01*
X006250Y006525D02*
X006250Y006275D01*
X006250Y005775D02*
X006250Y005525D01*
X006250Y005050D02*
X006250Y004900D01*
X006250Y004150D02*
X006250Y003900D01*
X006250Y003400D02*
X006250Y003150D01*
X006250Y002675D02*
X006250Y002525D01*
X006250Y001775D02*
X006250Y001525D01*
X006250Y001025D02*
X006250Y000775D01*
X008400Y002275D02*
X008550Y002275D01*
X008550Y002175D01*
X008550Y001775D02*
X008550Y000775D01*
X008550Y003150D02*
X008550Y004150D01*
X008550Y004550D02*
X008550Y004650D01*
X008400Y004650D01*
X008550Y005525D02*
X008550Y006525D01*
X008550Y006925D02*
X008550Y007025D01*
X008400Y007025D01*
X008550Y007900D02*
X008550Y008900D01*
X008550Y009300D02*
X008550Y009400D01*
X008400Y009400D01*
X008550Y010275D02*
X008550Y011275D01*
X008550Y011675D02*
X008550Y011775D01*
X008400Y011775D01*
X011000Y012700D02*
X011000Y013650D01*
X013150Y013150D02*
X013300Y013150D01*
X013300Y013050D01*
X011000Y009650D02*
X011000Y008700D01*
X013150Y009150D02*
X013300Y009150D01*
X013300Y009050D01*
X011000Y005650D02*
X011000Y004650D01*
X011000Y004400D01*
X013150Y005150D02*
X013300Y005150D01*
X013300Y005050D01*
X003300Y005650D02*
X003300Y006600D01*
X001150Y006150D02*
X001000Y006150D01*
X001000Y006250D01*
X003300Y003900D02*
X003300Y003650D01*
X003300Y002650D01*
X001150Y003150D02*
X001000Y003150D01*
X001000Y003250D01*
X003300Y009650D02*
X003300Y010600D01*
X001150Y010150D02*
X001000Y010150D01*
X001000Y010250D01*
D15*
X001000Y003150D02*
X001000Y002650D01*
X002150Y002650D01*
X003300Y002650D01*
X003300Y002750D02*
X003300Y002900D01*
X003300Y003400D01*
X003300Y003900D01*
X003050Y003900D01*
X003050Y004400D01*
X003300Y004400D01*
X003300Y004900D01*
X003050Y004900D01*
X003050Y005400D01*
X003300Y005400D01*
X003300Y005650D01*
X002150Y005650D01*
X001000Y005650D01*
X001000Y003650D01*
X001000Y003150D01*
X001400Y003150D01*
X001600Y003250D01*
X001600Y005050D01*
X001400Y005150D01*
X001000Y005150D01*
X001000Y005050D02*
X001400Y005050D01*
X001400Y005150D01*
X001400Y005050D02*
X001400Y003250D01*
X001000Y003250D01*
X001400Y003250D02*
X001400Y003150D01*
X003050Y002900D02*
X003050Y003400D01*
X003300Y003400D01*
X003300Y002900D02*
X003050Y002900D01*
X003300Y003900D02*
X003300Y004400D01*
X003300Y004900D02*
X003300Y005400D01*
X003300Y005650D02*
X002150Y005650D01*
X001000Y005650D01*
X001000Y006150D01*
X001400Y006150D01*
X001600Y006250D01*
X001600Y009050D01*
X001400Y009150D01*
X001000Y009150D01*
X001000Y009050D02*
X001400Y009050D01*
X001400Y009150D01*
X001400Y009050D02*
X001400Y006250D01*
X001000Y006250D01*
X001000Y006150D02*
X001000Y006650D01*
X001000Y009650D01*
X002150Y009650D01*
X003300Y009650D01*
X003300Y009400D01*
X003050Y009400D01*
X003050Y008900D01*
X003300Y008900D01*
X003300Y008400D01*
X003050Y008400D01*
X003050Y007900D01*
X003300Y007900D01*
X003300Y007400D01*
X003300Y005900D01*
X003050Y005900D01*
X003050Y006400D01*
X003300Y006400D01*
X003300Y006900D01*
X003050Y006900D01*
X003050Y007400D01*
X003300Y007400D01*
X003300Y006600D02*
X003300Y009650D01*
X002150Y009650D01*
X001000Y009650D01*
X001000Y010150D01*
X001400Y010150D01*
X001600Y010250D01*
X001600Y013050D01*
X001400Y013150D01*
X001000Y013150D01*
X001000Y013050D02*
X001400Y013050D01*
X001400Y013150D01*
X001400Y013050D02*
X001400Y010250D01*
X001000Y010250D01*
X001000Y010150D02*
X001000Y010650D01*
X001000Y013650D01*
X002150Y013650D01*
X003300Y013650D01*
X003300Y013400D01*
X003050Y013400D01*
X003050Y012900D01*
X003300Y012900D01*
X003300Y012400D01*
X003050Y012400D01*
X003050Y011900D01*
X003300Y011900D01*
X003300Y011400D01*
X003300Y009900D01*
X003050Y009900D01*
X003050Y010400D01*
X003300Y010400D01*
X003300Y010900D01*
X003050Y010900D01*
X003050Y011400D01*
X003300Y011400D01*
X003300Y010600D02*
X003300Y013650D01*
X006150Y013750D02*
X006150Y014900D01*
X006150Y016050D01*
X006400Y016050D01*
X006400Y015800D01*
X006900Y015800D01*
X006900Y016050D01*
X007400Y016050D01*
X007400Y015800D01*
X007900Y015800D01*
X007900Y016050D01*
X008150Y016050D01*
X007150Y016050D01*
X006900Y016050D02*
X006400Y016050D01*
X006750Y014350D02*
X006650Y014150D01*
X006650Y013750D01*
X006750Y013750D02*
X006750Y014150D01*
X006650Y014150D01*
X006750Y014150D02*
X007550Y014150D01*
X007550Y013750D01*
X007650Y013750D02*
X007650Y014150D01*
X007550Y014350D01*
X006750Y014350D01*
X007150Y013750D02*
X007650Y013750D01*
X008150Y013750D01*
X008150Y014900D01*
X008150Y016050D01*
X007650Y014150D02*
X007550Y014150D01*
X007400Y012275D02*
X006250Y012275D01*
X006250Y012025D01*
X006500Y012025D01*
X006500Y011525D01*
X006250Y011525D01*
X006250Y011025D01*
X006500Y011025D01*
X006500Y010525D01*
X006250Y010525D01*
X006250Y010275D01*
X007400Y010275D01*
X008550Y010275D01*
X008550Y009900D02*
X008550Y009400D01*
X008150Y009400D01*
X007950Y009300D01*
X007950Y008500D01*
X008150Y008400D01*
X008550Y008400D01*
X008550Y008500D02*
X008150Y008500D01*
X008150Y008400D01*
X008150Y008500D02*
X008150Y009300D01*
X008550Y009300D01*
X008550Y009400D02*
X008550Y008900D01*
X008150Y009300D02*
X008150Y009400D01*
X008550Y009900D02*
X007400Y009900D01*
X006250Y009900D01*
X006250Y009650D01*
X006500Y009650D01*
X006500Y009150D01*
X006250Y009150D01*
X006250Y008650D01*
X006500Y008650D01*
X006500Y008150D01*
X006250Y008150D01*
X006250Y007900D01*
X007400Y007900D01*
X008550Y007900D01*
X008550Y007525D02*
X008550Y007025D01*
X008150Y007025D01*
X007950Y006925D01*
X007950Y006125D01*
X008150Y006025D01*
X008550Y006025D01*
X008550Y006125D02*
X008150Y006125D01*
X008150Y006025D01*
X008150Y006125D02*
X008150Y006925D01*
X008550Y006925D01*
X008550Y007025D02*
X008550Y006525D01*
X008150Y006925D02*
X008150Y007025D01*
X008550Y007525D02*
X007400Y007525D01*
X006250Y007525D01*
X006250Y007275D01*
X006500Y007275D01*
X006500Y006775D01*
X006250Y006775D01*
X006250Y006275D01*
X006500Y006275D01*
X006500Y005775D01*
X006250Y005775D01*
X006250Y005525D01*
X007400Y005525D01*
X008550Y005525D01*
X008550Y005150D02*
X008550Y004650D01*
X008150Y004650D01*
X007950Y004550D01*
X007950Y003750D01*
X008150Y003650D01*
X008550Y003650D01*
X008550Y003750D02*
X008150Y003750D01*
X008150Y003650D01*
X008150Y003750D02*
X008150Y004550D01*
X008550Y004550D01*
X008550Y004650D02*
X008550Y004150D01*
X008150Y004550D02*
X008150Y004650D01*
X008550Y005150D02*
X007400Y005150D01*
X006250Y005150D01*
X006250Y004900D01*
X006500Y004900D01*
X006500Y004400D01*
X006250Y004400D01*
X006250Y003900D01*
X006500Y003900D01*
X006500Y003400D01*
X006250Y003400D01*
X006250Y003150D01*
X007400Y003150D01*
X008550Y003150D01*
X008550Y002775D02*
X008550Y002275D01*
X008150Y002275D01*
X007950Y002175D01*
X007950Y001375D01*
X008150Y001275D01*
X008550Y001275D01*
X008550Y001375D02*
X008150Y001375D01*
X008150Y001275D01*
X008150Y001375D02*
X008150Y002175D01*
X008550Y002175D01*
X008550Y002275D02*
X008550Y001775D01*
X008150Y002175D02*
X008150Y002275D01*
X008550Y002775D02*
X007400Y002775D01*
X006250Y002775D01*
X006250Y002525D01*
X006500Y002525D01*
X006500Y002025D01*
X006250Y002025D01*
X006250Y001525D01*
X006500Y001525D01*
X006500Y001025D01*
X006250Y001025D01*
X006250Y000775D01*
X007400Y000775D01*
X008550Y000775D01*
X006250Y001025D02*
X006250Y001525D01*
X006250Y001775D02*
X006250Y002775D01*
X006250Y003400D02*
X006250Y003900D01*
X006250Y004150D02*
X006250Y005150D01*
X006250Y005775D02*
X006250Y006275D01*
X006250Y006525D02*
X006250Y007525D01*
X006250Y008150D02*
X006250Y008650D01*
X006250Y008900D02*
X006250Y009900D01*
X006250Y010525D02*
X006250Y011025D01*
X006250Y011275D02*
X006250Y012275D01*
X007400Y012275D02*
X008550Y012275D01*
X008550Y011775D01*
X008150Y011775D01*
X007950Y011675D01*
X007950Y010875D01*
X008150Y010775D01*
X008550Y010775D01*
X008550Y010875D02*
X008150Y010875D01*
X008150Y010775D01*
X008150Y010875D02*
X008150Y011675D01*
X008550Y011675D01*
X008550Y011775D02*
X008550Y011275D01*
X008150Y011675D02*
X008150Y011775D01*
X011000Y011900D02*
X011000Y011400D01*
X011250Y011400D01*
X011250Y010900D01*
X011000Y010900D01*
X011000Y010400D01*
X011250Y010400D01*
X011250Y009900D01*
X011000Y009900D01*
X011000Y009650D01*
X012150Y009650D01*
X013300Y009650D01*
X013300Y009150D01*
X012900Y009150D01*
X012700Y009050D01*
X012700Y006250D01*
X012900Y006150D01*
X013300Y006150D01*
X013300Y006250D02*
X012900Y006250D01*
X012900Y006150D01*
X012900Y006250D02*
X012900Y009050D01*
X013300Y009050D01*
X013300Y009150D02*
X013300Y008650D01*
X013300Y005650D01*
X013300Y005150D01*
X012900Y005150D01*
X012700Y005050D01*
X012700Y003250D01*
X012900Y003150D01*
X013300Y003150D01*
X013300Y003250D02*
X012900Y003250D01*
X012900Y003150D01*
X012900Y003250D02*
X012900Y005050D01*
X013300Y005050D01*
X013300Y005150D02*
X013300Y004650D01*
X013300Y002650D01*
X012150Y002650D01*
X011000Y002650D01*
X011000Y002900D01*
X011250Y002900D01*
X011250Y003400D01*
X011000Y003400D01*
X011000Y003900D01*
X011250Y003900D01*
X011250Y004400D01*
X011000Y004400D01*
X011000Y004900D01*
X011000Y005400D01*
X011250Y005400D01*
X011250Y004900D01*
X011000Y004900D01*
X011000Y005400D02*
X011000Y005550D01*
X011000Y005650D02*
X012150Y005650D01*
X013300Y005650D01*
X012150Y005650D01*
X011000Y005650D01*
X011000Y005900D01*
X011250Y005900D01*
X011250Y006400D01*
X011000Y006400D01*
X011000Y006900D01*
X011250Y006900D01*
X011250Y007400D01*
X011000Y007400D01*
X011000Y007900D01*
X011000Y009400D01*
X011250Y009400D01*
X011250Y008900D01*
X011000Y008900D01*
X011000Y008400D01*
X011250Y008400D01*
X011250Y007900D01*
X011000Y007900D01*
X011000Y008700D02*
X011000Y005650D01*
X011000Y004400D02*
X011000Y003900D01*
X011000Y003400D02*
X011000Y002900D01*
X012900Y005050D02*
X012900Y005150D01*
X012900Y009050D02*
X012900Y009150D01*
X013300Y009650D02*
X013300Y012650D01*
X013300Y013150D01*
X012900Y013150D01*
X012700Y013050D01*
X012700Y010250D01*
X012900Y010150D01*
X013300Y010150D01*
X013300Y010250D02*
X012900Y010250D01*
X012900Y010150D01*
X012900Y010250D02*
X012900Y013050D01*
X013300Y013050D01*
X013300Y013150D02*
X013300Y013650D01*
X012150Y013650D01*
X011000Y013650D01*
X011000Y013550D02*
X011000Y013400D01*
X011000Y011900D01*
X011250Y011900D01*
X011250Y012400D01*
X011000Y012400D01*
X011000Y012900D01*
X011250Y012900D01*
X011250Y013400D01*
X011000Y013400D01*
X011000Y012700D02*
X011000Y009650D01*
X012150Y009650D01*
X013300Y009650D01*
X011000Y009550D02*
X011000Y009400D01*
X012900Y013050D02*
X012900Y013150D01*
X003300Y009900D02*
X003300Y009750D01*
X001400Y010150D02*
X001400Y010250D01*
X001400Y006250D02*
X001400Y006150D01*
X003300Y005900D02*
X003300Y005750D01*
D16*
X002150Y006150D03*
X002150Y005150D03*
X002150Y004150D03*
X002150Y003150D03*
X002150Y007150D03*
X002150Y008150D03*
X002150Y009150D03*
X002150Y010150D03*
X002150Y011150D03*
X002150Y012150D03*
X002150Y013150D03*
X006650Y014900D03*
X007650Y014900D03*
X007400Y011775D03*
X007400Y010775D03*
X007400Y009400D03*
X007400Y008400D03*
X007400Y007025D03*
X007400Y006025D03*
X007400Y004650D03*
X007400Y003650D03*
X007400Y002275D03*
X007400Y001275D03*
X012150Y003150D03*
X012150Y004150D03*
X012150Y005150D03*
X012150Y006150D03*
X012150Y007150D03*
X012150Y008150D03*
X012150Y009150D03*
X012150Y010150D03*
X012150Y011150D03*
X012150Y012150D03*
X012150Y013150D03*
M02*
