G75*
%MOIN*%
%OFA0B0*%
%FSLAX24Y24*%
%IPPOS*%
%LPD*%
%AMOC8*
5,1,8,0,0,1.08239X$1,22.5*
%
%ADD10C,0.0060*%
%ADD11C,0.0600*%
%ADD12C,0.0740*%
%ADD13C,0.0100*%
%ADD14C,0.0120*%
D10*
X000805Y006555D02*
X001032Y006782D01*
X001089Y006782D01*
X001145Y006725D01*
X001145Y006612D01*
X001089Y006555D01*
X000805Y006555D02*
X000805Y006782D01*
X000805Y006923D02*
X001145Y007150D01*
X001032Y007292D02*
X001145Y007405D01*
X000805Y007405D01*
X000805Y007292D02*
X000805Y007518D01*
X000862Y007660D02*
X000805Y007717D01*
X000805Y007830D01*
X000862Y007887D01*
X000918Y007887D01*
X000975Y007830D01*
X000975Y007717D01*
X001032Y007660D01*
X001089Y007660D01*
X001145Y007717D01*
X001145Y007830D01*
X001089Y007887D01*
X001032Y007887D01*
X000975Y007830D01*
X000975Y007717D02*
X000918Y007660D01*
X000862Y007660D01*
X000805Y008028D02*
X001145Y008255D01*
X001089Y008397D02*
X001145Y008453D01*
X001145Y008567D01*
X001089Y008623D01*
X001032Y008623D01*
X000805Y008397D01*
X000805Y008623D01*
X000862Y008765D02*
X001089Y008992D01*
X000862Y008992D01*
X000805Y008935D01*
X000805Y008822D01*
X000862Y008765D01*
X001089Y008765D01*
X001145Y008822D01*
X001145Y008935D01*
X001089Y008992D01*
X001032Y009133D02*
X001145Y009247D01*
X000805Y009247D01*
X000805Y009360D02*
X000805Y009133D01*
X000862Y009502D02*
X000805Y009558D01*
X000805Y009672D01*
X000862Y009728D01*
X000975Y009728D01*
X001032Y009672D01*
X001032Y009615D01*
X000975Y009502D01*
X001145Y009502D01*
X001145Y009728D01*
D11*
X001850Y010150D02*
X002450Y010150D01*
X002450Y009150D02*
X001850Y009150D01*
X001850Y008150D02*
X002450Y008150D01*
X002450Y007150D02*
X001850Y007150D01*
X001850Y006150D02*
X002450Y006150D01*
X002450Y005150D02*
X001850Y005150D01*
X001850Y004150D02*
X002450Y004150D01*
X002450Y003150D02*
X001850Y003150D01*
X007100Y003650D02*
X007700Y003650D01*
X007700Y004650D02*
X007100Y004650D01*
X007100Y006025D02*
X007700Y006025D01*
X007700Y007025D02*
X007100Y007025D01*
X007100Y008400D02*
X007700Y008400D01*
X007700Y009400D02*
X007100Y009400D01*
X007100Y010775D02*
X007700Y010775D01*
X007700Y011775D02*
X007100Y011775D01*
X006650Y014600D02*
X006650Y015200D01*
X007650Y015200D02*
X007650Y014600D01*
X011850Y013150D02*
X012450Y013150D01*
X012450Y012150D02*
X011850Y012150D01*
X011850Y011150D02*
X012450Y011150D01*
X012450Y010150D02*
X011850Y010150D01*
X011850Y009150D02*
X012450Y009150D01*
X012450Y008150D02*
X011850Y008150D01*
X011850Y007150D02*
X012450Y007150D01*
X012450Y006150D02*
X011850Y006150D01*
X011850Y005150D02*
X012450Y005150D01*
X012450Y004150D02*
X011850Y004150D01*
X011850Y003150D02*
X012450Y003150D01*
X007700Y002275D02*
X007100Y002275D01*
X007100Y001275D02*
X007700Y001275D01*
X002450Y011150D02*
X001850Y011150D01*
X001850Y012150D02*
X002450Y012150D01*
X002450Y013150D02*
X001850Y013150D01*
D12*
X004150Y012150D03*
X004150Y011150D03*
X004150Y010150D03*
X004150Y009150D03*
X004150Y008150D03*
X004150Y007150D03*
X004150Y006150D03*
X004150Y005150D03*
X004150Y004150D03*
X004150Y003150D03*
X004150Y002150D03*
X004150Y001150D03*
X005275Y003588D03*
X005275Y004588D03*
X005275Y007713D03*
X005275Y008713D03*
X005650Y013150D03*
X004650Y013150D03*
X006650Y013150D03*
X007650Y013150D03*
X008650Y013150D03*
X009650Y013150D03*
X010150Y012150D03*
X010150Y011150D03*
X010150Y010150D03*
X010150Y009150D03*
X010150Y008150D03*
X010150Y007150D03*
X010150Y006150D03*
X010150Y005150D03*
X010150Y004150D03*
X010150Y003150D03*
X010150Y002150D03*
X010150Y001150D03*
D13*
X000350Y000350D02*
X000350Y015950D01*
X013950Y015950D01*
X013950Y000350D01*
X000350Y000350D01*
X000350Y000446D02*
X013950Y000446D01*
X013950Y000544D02*
X000350Y000544D01*
X000350Y000643D02*
X001008Y000643D01*
X000919Y000679D02*
X001231Y000550D01*
X001569Y000550D01*
X001881Y000679D01*
X002121Y000919D01*
X002250Y001231D01*
X002250Y001569D01*
X002121Y001881D01*
X001881Y002121D01*
X001569Y002250D01*
X001231Y002250D01*
X000919Y002121D01*
X000679Y001881D01*
X000550Y001569D01*
X000550Y001231D01*
X000679Y000919D01*
X000919Y000679D01*
X000857Y000741D02*
X000350Y000741D01*
X000350Y000840D02*
X000758Y000840D01*
X000671Y000938D02*
X000350Y000938D01*
X000350Y001037D02*
X000631Y001037D01*
X000590Y001135D02*
X000350Y001135D01*
X000350Y001234D02*
X000550Y001234D01*
X000550Y001332D02*
X000350Y001332D01*
X000350Y001431D02*
X000550Y001431D01*
X000550Y001529D02*
X000350Y001529D01*
X000350Y001628D02*
X000574Y001628D01*
X000615Y001726D02*
X000350Y001726D01*
X000350Y001825D02*
X000656Y001825D01*
X000721Y001923D02*
X000350Y001923D01*
X000350Y002022D02*
X000819Y002022D01*
X000918Y002120D02*
X000350Y002120D01*
X000350Y002219D02*
X001155Y002219D01*
X001645Y002219D02*
X003341Y002219D01*
X003243Y002317D02*
X000350Y002317D01*
X000350Y002416D02*
X003144Y002416D01*
X003105Y002455D02*
X003205Y002355D01*
X003580Y001980D01*
X003701Y001980D01*
X003743Y001878D01*
X003878Y001743D01*
X004055Y001670D01*
X004245Y001670D01*
X004422Y001743D01*
X004557Y001878D01*
X004630Y002055D01*
X004630Y002245D01*
X004557Y002422D01*
X004422Y002557D01*
X004245Y002630D01*
X004055Y002630D01*
X003878Y002557D01*
X003743Y002422D01*
X003707Y002334D01*
X003445Y002595D01*
X003445Y002845D01*
X003070Y003220D01*
X002970Y003320D01*
X002823Y003320D01*
X002798Y003382D01*
X002682Y003498D01*
X002532Y003560D01*
X001768Y003560D01*
X001618Y003498D01*
X001502Y003382D01*
X001440Y003232D01*
X001440Y003068D01*
X001502Y002918D01*
X001618Y002802D01*
X001768Y002740D01*
X002532Y002740D01*
X002682Y002802D01*
X002798Y002918D01*
X002823Y002980D01*
X002830Y002980D01*
X003105Y002705D01*
X003105Y002455D01*
X003105Y002514D02*
X000350Y002514D01*
X000350Y002613D02*
X003105Y002613D01*
X003099Y002711D02*
X000350Y002711D01*
X000350Y002810D02*
X001611Y002810D01*
X001512Y002908D02*
X000350Y002908D01*
X000350Y003007D02*
X001466Y003007D01*
X001440Y003105D02*
X000350Y003105D01*
X000350Y003204D02*
X001440Y003204D01*
X001469Y003302D02*
X000350Y003302D01*
X000350Y003401D02*
X001521Y003401D01*
X001621Y003499D02*
X000350Y003499D01*
X000350Y003598D02*
X003976Y003598D01*
X004055Y003630D02*
X003878Y003557D01*
X003743Y003422D01*
X003670Y003245D01*
X003670Y003055D01*
X003743Y002878D01*
X003878Y002743D01*
X004055Y002670D01*
X004245Y002670D01*
X004422Y002743D01*
X004557Y002878D01*
X004630Y003055D01*
X004630Y003245D01*
X004557Y003422D01*
X004422Y003557D01*
X004245Y003630D01*
X004055Y003630D01*
X004055Y003670D02*
X004245Y003670D01*
X004422Y003743D01*
X004557Y003878D01*
X004605Y003994D01*
X004605Y003955D01*
X004819Y003741D01*
X004795Y003683D01*
X004795Y003492D01*
X004868Y003316D01*
X005003Y003181D01*
X005180Y003108D01*
X005370Y003108D01*
X005547Y003181D01*
X005682Y003316D01*
X005755Y003492D01*
X005755Y003683D01*
X005682Y003859D01*
X005547Y003994D01*
X005370Y004067D01*
X005180Y004067D01*
X005033Y004007D01*
X004945Y004095D01*
X004945Y004239D01*
X005003Y004181D01*
X005180Y004108D01*
X005370Y004108D01*
X005547Y004181D01*
X005682Y004316D01*
X005755Y004492D01*
X005755Y004683D01*
X005731Y004741D01*
X006070Y005080D01*
X006070Y010470D01*
X005970Y010570D01*
X005720Y010820D01*
X004553Y010820D01*
X004595Y010877D01*
X004632Y010950D01*
X004657Y011028D01*
X004669Y011100D01*
X004200Y011100D01*
X004200Y011200D01*
X004100Y011200D01*
X004100Y011669D01*
X004028Y011657D01*
X003950Y011632D01*
X003877Y011595D01*
X003811Y011547D01*
X003753Y011489D01*
X003705Y011423D01*
X003668Y011350D01*
X003643Y011272D01*
X003631Y011200D01*
X004100Y011200D01*
X004100Y011100D01*
X003631Y011100D01*
X003643Y011028D01*
X003668Y010950D01*
X003705Y010877D01*
X003747Y010820D01*
X003720Y010820D01*
X003570Y010970D01*
X003570Y012970D01*
X003470Y013070D01*
X003220Y013320D01*
X002823Y013320D01*
X002798Y013382D01*
X002682Y013498D01*
X002532Y013560D01*
X001768Y013560D01*
X001618Y013498D01*
X001502Y013382D01*
X001440Y013232D01*
X001440Y013068D01*
X001502Y012918D01*
X001618Y012802D01*
X001768Y012740D01*
X002532Y012740D01*
X002682Y012802D01*
X002798Y012918D01*
X002823Y012980D01*
X003080Y012980D01*
X003230Y012830D01*
X003230Y012060D01*
X003220Y012070D01*
X002970Y012320D01*
X002823Y012320D01*
X002798Y012382D01*
X002682Y012498D01*
X002532Y012560D01*
X001768Y012560D01*
X001618Y012498D01*
X001502Y012382D01*
X001440Y012232D01*
X001440Y012068D01*
X001502Y011918D01*
X001618Y011802D01*
X001768Y011740D01*
X002532Y011740D01*
X002682Y011802D01*
X002798Y011918D01*
X002823Y011980D01*
X002830Y011980D01*
X002980Y011830D01*
X002980Y009830D01*
X003230Y009580D01*
X003330Y009480D01*
X003801Y009480D01*
X003743Y009422D01*
X003670Y009245D01*
X003670Y009055D01*
X003743Y008878D01*
X003878Y008743D01*
X004055Y008670D01*
X004245Y008670D01*
X004422Y008743D01*
X004557Y008878D01*
X004605Y008994D01*
X004605Y008306D01*
X004557Y008422D01*
X004422Y008557D01*
X004245Y008630D01*
X004055Y008630D01*
X003878Y008557D01*
X003743Y008422D01*
X003707Y008334D01*
X003445Y008595D01*
X003445Y008845D01*
X003070Y009220D01*
X002970Y009320D01*
X002823Y009320D01*
X002798Y009382D01*
X002682Y009498D01*
X002532Y009560D01*
X001768Y009560D01*
X001618Y009498D01*
X001502Y009382D01*
X001440Y009232D01*
X001440Y009068D01*
X001502Y008918D01*
X001618Y008802D01*
X001768Y008740D01*
X002532Y008740D01*
X002682Y008802D01*
X002798Y008918D01*
X002823Y008980D01*
X002830Y008980D01*
X003105Y008705D01*
X003105Y008455D01*
X003205Y008355D01*
X003580Y007980D01*
X003701Y007980D01*
X003743Y007878D01*
X003878Y007743D01*
X004055Y007670D01*
X004245Y007670D01*
X004422Y007743D01*
X004557Y007878D01*
X004605Y007994D01*
X004605Y007306D01*
X004557Y007422D01*
X004422Y007557D01*
X004245Y007630D01*
X004055Y007630D01*
X003878Y007557D01*
X003743Y007422D01*
X003670Y007245D01*
X003670Y007055D01*
X003743Y006878D01*
X003878Y006743D01*
X004055Y006670D01*
X004245Y006670D01*
X004422Y006743D01*
X004557Y006878D01*
X004605Y006994D01*
X004605Y006306D01*
X004557Y006422D01*
X004422Y006557D01*
X004245Y006630D01*
X004055Y006630D01*
X003878Y006557D01*
X003743Y006422D01*
X003707Y006334D01*
X003445Y006595D01*
X003445Y006845D01*
X003070Y007220D01*
X002970Y007320D01*
X002823Y007320D01*
X002798Y007382D01*
X002682Y007498D01*
X002532Y007560D01*
X001768Y007560D01*
X001618Y007498D01*
X001502Y007382D01*
X001440Y007232D01*
X001440Y007068D01*
X001502Y006918D01*
X001618Y006802D01*
X001768Y006740D01*
X002532Y006740D01*
X002682Y006802D01*
X002798Y006918D01*
X002823Y006980D01*
X002830Y006980D01*
X003105Y006705D01*
X003105Y006455D01*
X003205Y006355D01*
X003580Y005980D01*
X003701Y005980D01*
X003743Y005878D01*
X003878Y005743D01*
X004055Y005670D01*
X004245Y005670D01*
X004422Y005743D01*
X004557Y005878D01*
X004605Y005994D01*
X004605Y005306D01*
X004557Y005422D01*
X004422Y005557D01*
X004245Y005630D01*
X004055Y005630D01*
X003878Y005557D01*
X003743Y005422D01*
X003670Y005245D01*
X003670Y005055D01*
X003743Y004878D01*
X003878Y004743D01*
X004055Y004670D01*
X004245Y004670D01*
X004422Y004743D01*
X004557Y004878D01*
X004605Y004994D01*
X004605Y004306D01*
X004557Y004422D01*
X004422Y004557D01*
X004245Y004630D01*
X004055Y004630D01*
X003878Y004557D01*
X003743Y004422D01*
X003707Y004334D01*
X003445Y004595D01*
X003445Y004845D01*
X003070Y005220D01*
X002970Y005320D01*
X002823Y005320D01*
X002798Y005382D01*
X002682Y005498D01*
X002532Y005560D01*
X001768Y005560D01*
X001618Y005498D01*
X001502Y005382D01*
X001440Y005232D01*
X001440Y005068D01*
X001502Y004918D01*
X001618Y004802D01*
X001768Y004740D01*
X002532Y004740D01*
X002682Y004802D01*
X002798Y004918D01*
X002823Y004980D01*
X002830Y004980D01*
X003105Y004705D01*
X003105Y004455D01*
X003205Y004355D01*
X003580Y003980D01*
X003701Y003980D01*
X003743Y003878D01*
X003878Y003743D01*
X004055Y003670D01*
X003992Y003696D02*
X000350Y003696D01*
X000350Y003795D02*
X001637Y003795D01*
X001618Y003802D02*
X001768Y003740D01*
X002532Y003740D01*
X002682Y003802D01*
X002798Y003918D01*
X002860Y004068D01*
X002860Y004232D01*
X002798Y004382D01*
X002682Y004498D01*
X002532Y004560D01*
X001768Y004560D01*
X001618Y004498D01*
X001502Y004382D01*
X001440Y004232D01*
X001440Y004068D01*
X001502Y003918D01*
X001618Y003802D01*
X001527Y003893D02*
X000350Y003893D01*
X000350Y003992D02*
X001472Y003992D01*
X001440Y004090D02*
X000350Y004090D01*
X000350Y004189D02*
X001440Y004189D01*
X001463Y004287D02*
X000350Y004287D01*
X000350Y004386D02*
X001506Y004386D01*
X001604Y004484D02*
X000350Y004484D01*
X000350Y004583D02*
X003105Y004583D01*
X003105Y004681D02*
X000350Y004681D01*
X000350Y004780D02*
X001673Y004780D01*
X001542Y004878D02*
X000350Y004878D01*
X000350Y004977D02*
X001478Y004977D01*
X001440Y005075D02*
X000350Y005075D01*
X000350Y005174D02*
X001440Y005174D01*
X001457Y005272D02*
X000350Y005272D01*
X000350Y005371D02*
X001498Y005371D01*
X001589Y005469D02*
X000350Y005469D01*
X000350Y005568D02*
X003904Y005568D01*
X003790Y005469D02*
X002711Y005469D01*
X002802Y005371D02*
X003722Y005371D01*
X003681Y005272D02*
X003018Y005272D01*
X003117Y005174D02*
X003670Y005174D01*
X003670Y005075D02*
X003215Y005075D01*
X003314Y004977D02*
X003702Y004977D01*
X003743Y004878D02*
X003412Y004878D01*
X003445Y004780D02*
X003842Y004780D01*
X003940Y004583D02*
X003458Y004583D01*
X003445Y004681D02*
X004028Y004681D01*
X004272Y004681D02*
X004605Y004681D01*
X004605Y004583D02*
X004360Y004583D01*
X004495Y004484D02*
X004605Y004484D01*
X004605Y004386D02*
X004572Y004386D01*
X004604Y003992D02*
X004605Y003992D01*
X004563Y003893D02*
X004667Y003893D01*
X004765Y003795D02*
X004473Y003795D01*
X004308Y003696D02*
X004800Y003696D01*
X004795Y003598D02*
X004324Y003598D01*
X004480Y003499D02*
X004795Y003499D01*
X004833Y003401D02*
X004566Y003401D01*
X004607Y003302D02*
X004882Y003302D01*
X004980Y003204D02*
X004630Y003204D01*
X004630Y003105D02*
X009670Y003105D01*
X009670Y003055D02*
X009670Y003245D01*
X009743Y003422D01*
X009878Y003557D01*
X010055Y003630D01*
X010245Y003630D01*
X010422Y003557D01*
X010557Y003422D01*
X010593Y003334D01*
X010730Y003470D01*
X010730Y004470D01*
X010830Y004570D01*
X010980Y004720D01*
X010980Y005240D01*
X010820Y005080D01*
X010720Y004980D01*
X010599Y004980D01*
X010557Y004878D01*
X010422Y004743D01*
X010245Y004670D01*
X010055Y004670D01*
X009878Y004743D01*
X009743Y004878D01*
X009670Y005055D01*
X009670Y005245D01*
X009743Y005422D01*
X009878Y005557D01*
X010055Y005630D01*
X010245Y005630D01*
X010422Y005557D01*
X010557Y005422D01*
X010593Y005334D01*
X010730Y005470D01*
X010730Y006470D01*
X010830Y006570D01*
X010980Y006720D01*
X010980Y007240D01*
X010820Y007080D01*
X010720Y006980D01*
X010599Y006980D01*
X010557Y006878D01*
X010422Y006743D01*
X010245Y006670D01*
X010055Y006670D01*
X009878Y006743D01*
X009743Y006878D01*
X009670Y007055D01*
X009670Y007245D01*
X009743Y007422D01*
X009878Y007557D01*
X010055Y007630D01*
X010245Y007630D01*
X010422Y007557D01*
X010557Y007422D01*
X010593Y007334D01*
X010730Y007470D01*
X010730Y009970D01*
X010830Y010070D01*
X011080Y010320D01*
X011477Y010320D01*
X011502Y010382D01*
X011618Y010498D01*
X011768Y010560D01*
X012532Y010560D01*
X012682Y010498D01*
X012798Y010382D01*
X012860Y010232D01*
X012860Y010068D01*
X012798Y009918D01*
X012682Y009802D01*
X012532Y009740D01*
X011768Y009740D01*
X011618Y009802D01*
X011502Y009918D01*
X011477Y009980D01*
X011220Y009980D01*
X011070Y009830D01*
X011070Y008060D01*
X011080Y008070D01*
X011330Y008320D01*
X011477Y008320D01*
X011502Y008382D01*
X011618Y008498D01*
X011768Y008560D01*
X012532Y008560D01*
X012682Y008498D01*
X012798Y008382D01*
X012860Y008232D01*
X012860Y008068D01*
X012798Y007918D01*
X012682Y007802D01*
X012532Y007740D01*
X011768Y007740D01*
X011618Y007802D01*
X011502Y007918D01*
X011477Y007980D01*
X011470Y007980D01*
X011320Y007830D01*
X011320Y006580D01*
X011070Y006330D01*
X011070Y006060D01*
X011080Y006070D01*
X011330Y006320D01*
X011477Y006320D01*
X011502Y006382D01*
X011618Y006498D01*
X011768Y006560D01*
X012532Y006560D01*
X012682Y006498D01*
X012798Y006382D01*
X012860Y006232D01*
X012860Y006068D01*
X012798Y005918D01*
X012682Y005802D01*
X012532Y005740D01*
X011768Y005740D01*
X011618Y005802D01*
X011502Y005918D01*
X011477Y005980D01*
X011470Y005980D01*
X011320Y005830D01*
X011320Y004580D01*
X011070Y004330D01*
X011070Y004060D01*
X011080Y004070D01*
X011330Y004320D01*
X011477Y004320D01*
X011502Y004382D01*
X011618Y004498D01*
X011768Y004560D01*
X012532Y004560D01*
X012682Y004498D01*
X012798Y004382D01*
X012860Y004232D01*
X012860Y004068D01*
X012798Y003918D01*
X012682Y003802D01*
X012532Y003740D01*
X011768Y003740D01*
X011618Y003802D01*
X011502Y003918D01*
X011477Y003980D01*
X011470Y003980D01*
X011320Y003830D01*
X011320Y002580D01*
X011070Y002330D01*
X011070Y001330D01*
X010820Y001080D01*
X010720Y000980D01*
X010599Y000980D01*
X010557Y000878D01*
X010422Y000743D01*
X010245Y000670D01*
X010055Y000670D01*
X009878Y000743D01*
X009743Y000878D01*
X009670Y001055D01*
X009670Y001245D01*
X009743Y001422D01*
X009878Y001557D01*
X010055Y001630D01*
X010245Y001630D01*
X010422Y001557D01*
X010557Y001422D01*
X010593Y001334D01*
X010730Y001470D01*
X010730Y002470D01*
X010830Y002570D01*
X010980Y002720D01*
X010980Y003240D01*
X010820Y003080D01*
X010720Y002980D01*
X010599Y002980D01*
X010557Y002878D01*
X010422Y002743D01*
X010245Y002670D01*
X010055Y002670D01*
X009878Y002743D01*
X009743Y002878D01*
X009670Y003055D01*
X009690Y003007D02*
X004610Y003007D01*
X004569Y002908D02*
X009731Y002908D01*
X009812Y002810D02*
X004488Y002810D01*
X004344Y002711D02*
X006986Y002711D01*
X006995Y002714D02*
X006927Y002692D01*
X006864Y002660D01*
X006807Y002618D01*
X006757Y002568D01*
X006715Y002511D01*
X006683Y002448D01*
X006661Y002380D01*
X006652Y002325D01*
X007350Y002325D01*
X007350Y002725D01*
X007065Y002725D01*
X006995Y002714D01*
X006801Y002613D02*
X004288Y002613D01*
X004012Y002613D02*
X003445Y002613D01*
X003445Y002711D02*
X003956Y002711D01*
X003812Y002810D02*
X003445Y002810D01*
X003382Y002908D02*
X003731Y002908D01*
X003690Y003007D02*
X003284Y003007D01*
X003185Y003105D02*
X003670Y003105D01*
X003670Y003204D02*
X003087Y003204D01*
X002988Y003302D02*
X003693Y003302D01*
X003734Y003401D02*
X002779Y003401D01*
X002679Y003499D02*
X003820Y003499D01*
X003827Y003795D02*
X002663Y003795D01*
X002773Y003893D02*
X003737Y003893D01*
X003568Y003992D02*
X002828Y003992D01*
X002860Y004090D02*
X003470Y004090D01*
X003371Y004189D02*
X002860Y004189D01*
X002837Y004287D02*
X003273Y004287D01*
X003174Y004386D02*
X002794Y004386D01*
X002696Y004484D02*
X003105Y004484D01*
X003030Y004780D02*
X002627Y004780D01*
X002758Y004878D02*
X002932Y004878D01*
X002833Y004977D02*
X002822Y004977D01*
X002532Y005740D02*
X002682Y005802D01*
X002798Y005918D01*
X002860Y006068D01*
X002860Y006232D01*
X002798Y006382D01*
X002682Y006498D01*
X002532Y006560D01*
X001768Y006560D01*
X001618Y006498D01*
X001502Y006382D01*
X001440Y006232D01*
X001440Y006068D01*
X001502Y005918D01*
X001618Y005802D01*
X001768Y005740D01*
X002532Y005740D01*
X002591Y005765D02*
X003857Y005765D01*
X003758Y005863D02*
X002743Y005863D01*
X002816Y005962D02*
X003709Y005962D01*
X003500Y006060D02*
X002857Y006060D01*
X002860Y006159D02*
X003401Y006159D01*
X003303Y006257D02*
X002849Y006257D01*
X002809Y006356D02*
X003204Y006356D01*
X003106Y006454D02*
X002726Y006454D01*
X002550Y006553D02*
X003105Y006553D01*
X003105Y006651D02*
X001285Y006651D01*
X001285Y006554D02*
X001285Y006783D01*
X001203Y006865D01*
X001147Y006922D01*
X001055Y006922D01*
X001271Y007066D01*
X001294Y007180D01*
X001230Y007276D01*
X001217Y007279D01*
X001285Y007347D01*
X001285Y007463D01*
X001203Y007545D01*
X001172Y007545D01*
X001229Y007602D01*
X001285Y007659D01*
X001285Y007888D01*
X001229Y007945D01*
X001147Y008027D01*
X001055Y008027D01*
X001271Y008171D01*
X001294Y008285D01*
X001246Y008356D01*
X001285Y008395D01*
X001285Y008625D01*
X001216Y008694D01*
X001229Y008707D01*
X001285Y008764D01*
X001285Y008993D01*
X001229Y009050D01*
X001187Y009091D01*
X001203Y009107D01*
X001285Y009189D01*
X001285Y009305D01*
X001216Y009374D01*
X001285Y009444D01*
X001285Y009786D01*
X001203Y009868D01*
X001087Y009868D01*
X001060Y009841D01*
X001033Y009868D01*
X000804Y009868D01*
X000747Y009812D01*
X000665Y009730D01*
X000665Y009500D01*
X000706Y009459D01*
X000665Y009418D01*
X000665Y009075D01*
X000706Y009034D01*
X000665Y008993D01*
X000665Y008764D01*
X000706Y008723D01*
X000665Y008681D01*
X000665Y008339D01*
X000747Y008257D01*
X000863Y008257D01*
X000949Y008342D01*
X000949Y008339D01*
X000976Y008311D01*
X000679Y008113D01*
X000656Y007999D01*
X000704Y007927D01*
X000665Y007888D01*
X000665Y007659D01*
X000706Y007618D01*
X000665Y007576D01*
X000665Y007234D01*
X000747Y007152D01*
X000863Y007152D01*
X000918Y007207D01*
X000942Y007183D01*
X000679Y007008D01*
X000656Y006894D01*
X000681Y006856D01*
X000665Y006840D01*
X000665Y006497D01*
X000747Y006415D01*
X000863Y006415D01*
X000949Y006501D01*
X000949Y006497D01*
X001031Y006415D01*
X001147Y006415D01*
X001285Y006554D01*
X001284Y006553D02*
X001750Y006553D01*
X001745Y006750D02*
X001285Y006750D01*
X001220Y006848D02*
X001572Y006848D01*
X001491Y006947D02*
X001092Y006947D01*
X001240Y007045D02*
X001450Y007045D01*
X001440Y007144D02*
X001287Y007144D01*
X001252Y007242D02*
X001444Y007242D01*
X001485Y007341D02*
X001279Y007341D01*
X001285Y007439D02*
X001559Y007439D01*
X001714Y007538D02*
X001211Y007538D01*
X001229Y007602D02*
X001229Y007602D01*
X001263Y007636D02*
X004605Y007636D01*
X004605Y007538D02*
X004441Y007538D01*
X004540Y007439D02*
X004605Y007439D01*
X004591Y007341D02*
X004605Y007341D01*
X004585Y006947D02*
X004605Y006947D01*
X004605Y006848D02*
X004527Y006848D01*
X004605Y006750D02*
X004428Y006750D01*
X004426Y006553D02*
X004605Y006553D01*
X004605Y006651D02*
X003445Y006651D01*
X003445Y006750D02*
X003872Y006750D01*
X003773Y006848D02*
X003442Y006848D01*
X003344Y006947D02*
X003715Y006947D01*
X003674Y007045D02*
X003245Y007045D01*
X003147Y007144D02*
X003670Y007144D01*
X003670Y007242D02*
X003048Y007242D01*
X002815Y007341D02*
X003709Y007341D01*
X003760Y007439D02*
X002741Y007439D01*
X002586Y007538D02*
X003859Y007538D01*
X003899Y007735D02*
X001285Y007735D01*
X001285Y007833D02*
X001587Y007833D01*
X001618Y007802D02*
X001768Y007740D01*
X002532Y007740D01*
X002682Y007802D01*
X002798Y007918D01*
X002860Y008068D01*
X002860Y008232D01*
X002798Y008382D01*
X002682Y008498D01*
X002532Y008560D01*
X001768Y008560D01*
X001618Y008498D01*
X001502Y008382D01*
X001440Y008232D01*
X001440Y008068D01*
X001502Y007918D01*
X001618Y007802D01*
X001497Y007932D02*
X001242Y007932D01*
X001208Y008129D02*
X001440Y008129D01*
X001440Y008227D02*
X001282Y008227D01*
X001267Y008326D02*
X001479Y008326D01*
X001544Y008424D02*
X001285Y008424D01*
X001285Y008523D02*
X001678Y008523D01*
X001602Y008818D02*
X001285Y008818D01*
X001285Y008917D02*
X001504Y008917D01*
X001462Y009015D02*
X001263Y009015D01*
X001229Y009050D02*
X001229Y009050D01*
X001210Y009114D02*
X001440Y009114D01*
X001440Y009212D02*
X001285Y009212D01*
X001279Y009311D02*
X001473Y009311D01*
X001529Y009409D02*
X001251Y009409D01*
X001285Y009508D02*
X001642Y009508D01*
X001768Y009740D02*
X001618Y009802D01*
X001502Y009918D01*
X001440Y010068D01*
X001440Y010232D01*
X001502Y010382D01*
X001618Y010498D01*
X001768Y010560D01*
X002532Y010560D01*
X002682Y010498D01*
X002798Y010382D01*
X002860Y010232D01*
X002860Y010068D01*
X002798Y009918D01*
X002682Y009802D01*
X002532Y009740D01*
X001768Y009740D01*
X001617Y009803D02*
X001269Y009803D01*
X001285Y009705D02*
X003105Y009705D01*
X003007Y009803D02*
X002683Y009803D01*
X002781Y009902D02*
X002980Y009902D01*
X002980Y010000D02*
X002832Y010000D01*
X002860Y010099D02*
X002980Y010099D01*
X002980Y010197D02*
X002860Y010197D01*
X002834Y010296D02*
X002980Y010296D01*
X002980Y010394D02*
X002786Y010394D01*
X002687Y010493D02*
X002980Y010493D01*
X002980Y010591D02*
X000350Y010591D01*
X000350Y010493D02*
X001613Y010493D01*
X001514Y010394D02*
X000350Y010394D01*
X000350Y010296D02*
X001466Y010296D01*
X001440Y010197D02*
X000350Y010197D01*
X000350Y010099D02*
X001440Y010099D01*
X001468Y010000D02*
X000350Y010000D01*
X000350Y009902D02*
X001519Y009902D01*
X001285Y009606D02*
X003204Y009606D01*
X003302Y009508D02*
X002658Y009508D01*
X002771Y009409D02*
X003738Y009409D01*
X003697Y009311D02*
X002980Y009311D01*
X003078Y009212D02*
X003670Y009212D01*
X003670Y009114D02*
X003177Y009114D01*
X003275Y009015D02*
X003686Y009015D01*
X003727Y008917D02*
X003374Y008917D01*
X003445Y008818D02*
X003803Y008818D01*
X003935Y008720D02*
X003445Y008720D01*
X003445Y008621D02*
X004033Y008621D01*
X004267Y008621D02*
X004605Y008621D01*
X004605Y008523D02*
X004456Y008523D01*
X004555Y008424D02*
X004605Y008424D01*
X004597Y008326D02*
X004605Y008326D01*
X004605Y008720D02*
X004365Y008720D01*
X004497Y008818D02*
X004605Y008818D01*
X004605Y008917D02*
X004573Y008917D01*
X003844Y008523D02*
X003518Y008523D01*
X003616Y008424D02*
X003745Y008424D01*
X003530Y008030D02*
X002844Y008030D01*
X002860Y008129D02*
X003431Y008129D01*
X003333Y008227D02*
X002860Y008227D01*
X002821Y008326D02*
X003234Y008326D01*
X003136Y008424D02*
X002756Y008424D01*
X002622Y008523D02*
X003105Y008523D01*
X003105Y008621D02*
X001285Y008621D01*
X001229Y008707D02*
X001229Y008707D01*
X001241Y008720D02*
X003090Y008720D01*
X002992Y008818D02*
X002698Y008818D01*
X002796Y008917D02*
X002893Y008917D01*
X002803Y007932D02*
X003721Y007932D01*
X003788Y007833D02*
X002713Y007833D01*
X002809Y006947D02*
X002863Y006947D01*
X002962Y006848D02*
X002728Y006848D01*
X002555Y006750D02*
X003060Y006750D01*
X003488Y006553D02*
X003874Y006553D01*
X003775Y006454D02*
X003586Y006454D01*
X003685Y006356D02*
X003716Y006356D01*
X004396Y005568D02*
X004605Y005568D01*
X004605Y005666D02*
X000350Y005666D01*
X000350Y005765D02*
X001709Y005765D01*
X001557Y005863D02*
X000350Y005863D01*
X000350Y005962D02*
X001484Y005962D01*
X001443Y006060D02*
X000350Y006060D01*
X000350Y006159D02*
X001440Y006159D01*
X001451Y006257D02*
X000350Y006257D01*
X000350Y006356D02*
X001491Y006356D01*
X001574Y006454D02*
X001186Y006454D01*
X000992Y006454D02*
X000902Y006454D01*
X000708Y006454D02*
X000350Y006454D01*
X000350Y006553D02*
X000665Y006553D01*
X000665Y006651D02*
X000350Y006651D01*
X000350Y006750D02*
X000665Y006750D01*
X000673Y006848D02*
X000350Y006848D01*
X000350Y006947D02*
X000667Y006947D01*
X000735Y007045D02*
X000350Y007045D01*
X000350Y007144D02*
X000883Y007144D01*
X000665Y007242D02*
X000350Y007242D01*
X000350Y007341D02*
X000665Y007341D01*
X000665Y007439D02*
X000350Y007439D01*
X000350Y007538D02*
X000665Y007538D01*
X000688Y007636D02*
X000350Y007636D01*
X000350Y007735D02*
X000665Y007735D01*
X000665Y007833D02*
X000350Y007833D01*
X000350Y007932D02*
X000701Y007932D01*
X000663Y008030D02*
X000350Y008030D01*
X000350Y008129D02*
X000703Y008129D01*
X000851Y008227D02*
X000350Y008227D01*
X000350Y008326D02*
X000678Y008326D01*
X000665Y008424D02*
X000350Y008424D01*
X000350Y008523D02*
X000665Y008523D01*
X000665Y008621D02*
X000350Y008621D01*
X000350Y008720D02*
X000703Y008720D01*
X000665Y008818D02*
X000350Y008818D01*
X000350Y008917D02*
X000665Y008917D01*
X000687Y009015D02*
X000350Y009015D01*
X000350Y009114D02*
X000665Y009114D01*
X000665Y009212D02*
X000350Y009212D01*
X000350Y009311D02*
X000665Y009311D01*
X000665Y009409D02*
X000350Y009409D01*
X000350Y009508D02*
X000665Y009508D01*
X000665Y009606D02*
X000350Y009606D01*
X000350Y009705D02*
X000665Y009705D01*
X000738Y009803D02*
X000350Y009803D01*
X000350Y010690D02*
X002980Y010690D01*
X002980Y010788D02*
X002647Y010788D01*
X002682Y010802D02*
X002798Y010918D01*
X002860Y011068D01*
X002860Y011232D01*
X002798Y011382D01*
X002682Y011498D01*
X002532Y011560D01*
X001768Y011560D01*
X001618Y011498D01*
X001502Y011382D01*
X001440Y011232D01*
X001440Y011068D01*
X001502Y010918D01*
X001618Y010802D01*
X001768Y010740D01*
X002532Y010740D01*
X002682Y010802D01*
X002766Y010887D02*
X002980Y010887D01*
X002980Y010985D02*
X002825Y010985D01*
X002860Y011084D02*
X002980Y011084D01*
X002980Y011182D02*
X002860Y011182D01*
X002840Y011281D02*
X002980Y011281D01*
X002980Y011379D02*
X002799Y011379D01*
X002702Y011478D02*
X002980Y011478D01*
X002980Y011576D02*
X000350Y011576D01*
X000350Y011478D02*
X001598Y011478D01*
X001501Y011379D02*
X000350Y011379D01*
X000350Y011281D02*
X001460Y011281D01*
X001440Y011182D02*
X000350Y011182D01*
X000350Y011084D02*
X001440Y011084D01*
X001475Y010985D02*
X000350Y010985D01*
X000350Y010887D02*
X001534Y010887D01*
X001652Y010788D02*
X000350Y010788D01*
X000350Y011675D02*
X002980Y011675D01*
X002980Y011773D02*
X002611Y011773D01*
X002751Y011872D02*
X002938Y011872D01*
X002840Y011970D02*
X002819Y011970D01*
X003025Y012266D02*
X003230Y012266D01*
X003230Y012364D02*
X002805Y012364D01*
X002717Y012463D02*
X003230Y012463D01*
X003230Y012561D02*
X000350Y012561D01*
X000350Y012463D02*
X001583Y012463D01*
X001495Y012364D02*
X000350Y012364D01*
X000350Y012266D02*
X001454Y012266D01*
X001440Y012167D02*
X000350Y012167D01*
X000350Y012069D02*
X001440Y012069D01*
X001481Y011970D02*
X000350Y011970D01*
X000350Y011872D02*
X001549Y011872D01*
X001689Y011773D02*
X000350Y011773D01*
X000350Y012660D02*
X003230Y012660D01*
X003230Y012758D02*
X002575Y012758D01*
X002736Y012857D02*
X003203Y012857D01*
X003105Y012955D02*
X002813Y012955D01*
X002811Y013349D02*
X004213Y013349D01*
X004243Y013422D02*
X004170Y013245D01*
X004170Y013055D01*
X004243Y012878D01*
X004378Y012743D01*
X004555Y012670D01*
X004745Y012670D01*
X004922Y012743D01*
X005057Y012878D01*
X005130Y013055D01*
X005130Y013245D01*
X005057Y013422D01*
X004922Y013557D01*
X004745Y013630D01*
X004555Y013630D01*
X004378Y013557D01*
X004243Y013422D01*
X004269Y013448D02*
X002732Y013448D01*
X002565Y013546D02*
X004367Y013546D01*
X004172Y013251D02*
X003290Y013251D01*
X003388Y013152D02*
X004170Y013152D01*
X004170Y013054D02*
X003487Y013054D01*
X003570Y012955D02*
X004211Y012955D01*
X004265Y012857D02*
X003570Y012857D01*
X003570Y012758D02*
X004363Y012758D01*
X004245Y012630D02*
X004055Y012630D01*
X003878Y012557D01*
X003743Y012422D01*
X003670Y012245D01*
X003670Y012055D01*
X003743Y011878D01*
X003878Y011743D01*
X004055Y011670D01*
X004245Y011670D01*
X004422Y011743D01*
X004557Y011878D01*
X004630Y012055D01*
X004630Y012245D01*
X004557Y012422D01*
X004422Y012557D01*
X004245Y012630D01*
X004412Y012561D02*
X009888Y012561D01*
X009878Y012557D02*
X009743Y012422D01*
X009670Y012245D01*
X009670Y012055D01*
X009743Y011878D01*
X009878Y011743D01*
X010055Y011670D01*
X010245Y011670D01*
X010422Y011743D01*
X010557Y011878D01*
X010630Y012055D01*
X010630Y012245D01*
X010557Y012422D01*
X010422Y012557D01*
X010245Y012630D01*
X010055Y012630D01*
X009878Y012557D01*
X009784Y012463D02*
X004516Y012463D01*
X004581Y012364D02*
X009719Y012364D01*
X009678Y012266D02*
X004622Y012266D01*
X004630Y012167D02*
X006878Y012167D01*
X006864Y012160D02*
X006807Y012118D01*
X006757Y012068D01*
X006715Y012011D01*
X006683Y011948D01*
X006661Y011880D01*
X006652Y011825D01*
X007350Y011825D01*
X007350Y012225D01*
X007065Y012225D01*
X006995Y012214D01*
X006927Y012192D01*
X006864Y012160D01*
X006757Y012069D02*
X004630Y012069D01*
X004595Y011970D02*
X006694Y011970D01*
X006660Y011872D02*
X004550Y011872D01*
X004452Y011773D02*
X007350Y011773D01*
X007350Y011725D02*
X007350Y011825D01*
X007450Y011825D01*
X007450Y012225D01*
X007735Y012225D01*
X007805Y012214D01*
X007873Y012192D01*
X007936Y012160D01*
X007993Y012118D01*
X008043Y012068D01*
X008085Y012011D01*
X008117Y011948D01*
X008139Y011880D01*
X008148Y011825D01*
X007450Y011825D01*
X007450Y011725D01*
X008148Y011725D01*
X008139Y011670D01*
X008117Y011602D01*
X008085Y011539D01*
X008043Y011482D01*
X007993Y011432D01*
X007936Y011390D01*
X007873Y011358D01*
X007805Y011336D01*
X007735Y011325D01*
X007450Y011325D01*
X007450Y011725D01*
X007350Y011725D01*
X007350Y011325D01*
X007065Y011325D01*
X006995Y011336D01*
X006927Y011358D01*
X006864Y011390D01*
X006807Y011432D01*
X006757Y011482D01*
X006715Y011539D01*
X006683Y011602D01*
X006661Y011670D01*
X006652Y011725D01*
X007350Y011725D01*
X007350Y011675D02*
X007450Y011675D01*
X007450Y011773D02*
X009848Y011773D01*
X009750Y011872D02*
X008140Y011872D01*
X008106Y011970D02*
X009705Y011970D01*
X009670Y012069D02*
X008043Y012069D01*
X007922Y012167D02*
X009670Y012167D01*
X009745Y012670D02*
X009555Y012670D01*
X009378Y012743D01*
X009243Y012878D01*
X009170Y013055D01*
X009170Y013245D01*
X009243Y013422D01*
X009378Y013557D01*
X009555Y013630D01*
X009745Y013630D01*
X009922Y013557D01*
X010057Y013422D01*
X010130Y013245D01*
X010130Y013055D01*
X010057Y012878D01*
X009922Y012743D01*
X009745Y012670D01*
X009937Y012758D02*
X011725Y012758D01*
X011768Y012740D02*
X011618Y012802D01*
X011502Y012918D01*
X011440Y013068D01*
X011440Y013232D01*
X011502Y013382D01*
X011618Y013498D01*
X011768Y013560D01*
X012532Y013560D01*
X012682Y013498D01*
X012798Y013382D01*
X012860Y013232D01*
X012860Y013068D01*
X012798Y012918D01*
X012682Y012802D01*
X012532Y012740D01*
X011768Y012740D01*
X011768Y012560D02*
X011618Y012498D01*
X011502Y012382D01*
X011477Y012320D01*
X011330Y012320D01*
X010955Y011945D01*
X010855Y011845D01*
X010855Y011595D01*
X010593Y011334D01*
X010557Y011422D01*
X010422Y011557D01*
X010245Y011630D01*
X010055Y011630D01*
X009878Y011557D01*
X009743Y011422D01*
X009670Y011245D01*
X009670Y011055D01*
X009743Y010878D01*
X009878Y010743D01*
X010055Y010670D01*
X010245Y010670D01*
X010422Y010743D01*
X010557Y010878D01*
X010599Y010980D01*
X010720Y010980D01*
X011195Y011455D01*
X011195Y011705D01*
X011470Y011980D01*
X011477Y011980D01*
X011502Y011918D01*
X011618Y011802D01*
X011768Y011740D01*
X012532Y011740D01*
X012682Y011802D01*
X012798Y011918D01*
X012860Y012068D01*
X012860Y012232D01*
X012798Y012382D01*
X012682Y012498D01*
X012532Y012560D01*
X011768Y012560D01*
X011583Y012463D02*
X010516Y012463D01*
X010581Y012364D02*
X011495Y012364D01*
X011275Y012266D02*
X010622Y012266D01*
X010630Y012167D02*
X011177Y012167D01*
X011078Y012069D02*
X010630Y012069D01*
X010595Y011970D02*
X010980Y011970D01*
X010881Y011872D02*
X010550Y011872D01*
X010452Y011773D02*
X010855Y011773D01*
X010855Y011675D02*
X010256Y011675D01*
X010376Y011576D02*
X010836Y011576D01*
X010737Y011478D02*
X010501Y011478D01*
X010575Y011379D02*
X010639Y011379D01*
X010922Y011182D02*
X011440Y011182D01*
X011440Y011232D02*
X011440Y011068D01*
X011502Y010918D01*
X011618Y010802D01*
X011768Y010740D01*
X012532Y010740D01*
X012682Y010802D01*
X012798Y010918D01*
X012860Y011068D01*
X012860Y011232D01*
X012798Y011382D01*
X012682Y011498D01*
X012532Y011560D01*
X011768Y011560D01*
X011618Y011498D01*
X011502Y011382D01*
X011440Y011232D01*
X011460Y011281D02*
X011021Y011281D01*
X011119Y011379D02*
X011501Y011379D01*
X011598Y011478D02*
X011195Y011478D01*
X011195Y011576D02*
X013950Y011576D01*
X013950Y011478D02*
X012702Y011478D01*
X012799Y011379D02*
X013950Y011379D01*
X013950Y011281D02*
X012840Y011281D01*
X012860Y011182D02*
X013950Y011182D01*
X013950Y011084D02*
X012860Y011084D01*
X012825Y010985D02*
X013950Y010985D01*
X013950Y010887D02*
X012766Y010887D01*
X012647Y010788D02*
X013950Y010788D01*
X013950Y010690D02*
X010293Y010690D01*
X010245Y010630D02*
X010055Y010630D01*
X009878Y010557D01*
X009743Y010422D01*
X009670Y010245D01*
X009670Y010055D01*
X009743Y009878D01*
X009878Y009743D01*
X010055Y009670D01*
X010245Y009670D01*
X010422Y009743D01*
X010557Y009878D01*
X010630Y010055D01*
X010630Y010245D01*
X010557Y010422D01*
X010422Y010557D01*
X010245Y010630D01*
X010340Y010591D02*
X013950Y010591D01*
X013950Y010493D02*
X012687Y010493D01*
X012786Y010394D02*
X013950Y010394D01*
X013950Y010296D02*
X012834Y010296D01*
X012860Y010197D02*
X013950Y010197D01*
X013950Y010099D02*
X012860Y010099D01*
X012832Y010000D02*
X013950Y010000D01*
X013950Y009902D02*
X012781Y009902D01*
X012683Y009803D02*
X013950Y009803D01*
X013950Y009705D02*
X011070Y009705D01*
X011070Y009803D02*
X011617Y009803D01*
X011519Y009902D02*
X011142Y009902D01*
X011070Y009606D02*
X013950Y009606D01*
X013950Y009508D02*
X012658Y009508D01*
X012682Y009498D02*
X012532Y009560D01*
X011768Y009560D01*
X011618Y009498D01*
X011502Y009382D01*
X011440Y009232D01*
X011440Y009068D01*
X011502Y008918D01*
X011618Y008802D01*
X011768Y008740D01*
X012532Y008740D01*
X012682Y008802D01*
X012798Y008918D01*
X012860Y009068D01*
X012860Y009232D01*
X012798Y009382D01*
X012682Y009498D01*
X012771Y009409D02*
X013950Y009409D01*
X013950Y009311D02*
X012827Y009311D01*
X012860Y009212D02*
X013950Y009212D01*
X013950Y009114D02*
X012860Y009114D01*
X012838Y009015D02*
X013950Y009015D01*
X013950Y008917D02*
X012796Y008917D01*
X012698Y008818D02*
X013950Y008818D01*
X013950Y008720D02*
X011070Y008720D01*
X011070Y008818D02*
X011602Y008818D01*
X011504Y008917D02*
X011070Y008917D01*
X011070Y009015D02*
X011462Y009015D01*
X011440Y009114D02*
X011070Y009114D01*
X011070Y009212D02*
X011440Y009212D01*
X011473Y009311D02*
X011070Y009311D01*
X011070Y009409D02*
X011529Y009409D01*
X011642Y009508D02*
X011070Y009508D01*
X010730Y009508D02*
X010528Y009508D01*
X010547Y009489D02*
X010489Y009547D01*
X010423Y009595D01*
X010350Y009632D01*
X010272Y009657D01*
X010200Y009669D01*
X010200Y009200D01*
X010669Y009200D01*
X010657Y009272D01*
X010632Y009350D01*
X010595Y009423D01*
X010547Y009489D01*
X010602Y009409D02*
X010730Y009409D01*
X010730Y009311D02*
X010645Y009311D01*
X010667Y009212D02*
X010730Y009212D01*
X010730Y009114D02*
X010200Y009114D01*
X010200Y009100D02*
X010200Y009200D01*
X010100Y009200D01*
X010100Y009669D01*
X010028Y009657D01*
X009950Y009632D01*
X009877Y009595D01*
X009811Y009547D01*
X009753Y009489D01*
X009705Y009423D01*
X009668Y009350D01*
X009643Y009272D01*
X009631Y009200D01*
X010100Y009200D01*
X010100Y009100D01*
X010200Y009100D01*
X010669Y009100D01*
X010657Y009028D01*
X010632Y008950D01*
X010595Y008877D01*
X010547Y008811D01*
X010489Y008753D01*
X010423Y008705D01*
X010350Y008668D01*
X010272Y008643D01*
X010200Y008631D01*
X010200Y009100D01*
X010200Y009015D02*
X010100Y009015D01*
X010100Y009100D02*
X010100Y008631D01*
X010028Y008643D01*
X009950Y008668D01*
X009877Y008705D01*
X009811Y008753D01*
X009753Y008811D01*
X009705Y008877D01*
X009668Y008950D01*
X009643Y009028D01*
X009631Y009100D01*
X010100Y009100D01*
X010100Y009114D02*
X008048Y009114D01*
X008043Y009107D02*
X008085Y009164D01*
X008117Y009227D01*
X008139Y009295D01*
X008148Y009350D01*
X007450Y009350D01*
X007450Y009450D01*
X007350Y009450D01*
X007350Y009850D01*
X007065Y009850D01*
X006995Y009839D01*
X006927Y009817D01*
X006864Y009785D01*
X006807Y009743D01*
X006757Y009693D01*
X006715Y009636D01*
X006683Y009573D01*
X006661Y009505D01*
X006652Y009450D01*
X007350Y009450D01*
X007350Y009350D01*
X007450Y009350D01*
X007450Y008950D01*
X007735Y008950D01*
X007805Y008961D01*
X007873Y008983D01*
X007936Y009015D01*
X007993Y009057D01*
X008043Y009107D01*
X008109Y009212D02*
X009633Y009212D01*
X009655Y009311D02*
X008141Y009311D01*
X008148Y009450D02*
X008139Y009505D01*
X008117Y009573D01*
X008085Y009636D01*
X008043Y009693D01*
X007993Y009743D01*
X007936Y009785D01*
X007873Y009817D01*
X007805Y009839D01*
X007735Y009850D01*
X007450Y009850D01*
X007450Y009450D01*
X008148Y009450D01*
X008138Y009508D02*
X009772Y009508D01*
X009698Y009409D02*
X007450Y009409D01*
X007450Y009311D02*
X007350Y009311D01*
X007350Y009350D02*
X007350Y008950D01*
X007065Y008950D01*
X006995Y008961D01*
X006927Y008983D01*
X006864Y009015D01*
X006807Y009057D01*
X006757Y009107D01*
X006715Y009164D01*
X006683Y009227D01*
X006661Y009295D01*
X006652Y009350D01*
X007350Y009350D01*
X007350Y009409D02*
X006070Y009409D01*
X006070Y009311D02*
X006659Y009311D01*
X006691Y009212D02*
X006070Y009212D01*
X006070Y009114D02*
X006752Y009114D01*
X006864Y009015D02*
X006070Y009015D01*
X006070Y008917D02*
X009685Y008917D01*
X009647Y009015D02*
X007936Y009015D01*
X007782Y008810D02*
X007932Y008748D01*
X008048Y008632D01*
X008110Y008482D01*
X008110Y008318D01*
X008048Y008168D01*
X007932Y008052D01*
X007782Y007990D01*
X007018Y007990D01*
X006868Y008052D01*
X006752Y008168D01*
X006690Y008318D01*
X006690Y008482D01*
X006752Y008632D01*
X006868Y008748D01*
X007018Y008810D01*
X007782Y008810D01*
X007960Y008720D02*
X009858Y008720D01*
X009748Y008818D02*
X006070Y008818D01*
X006070Y008720D02*
X006840Y008720D01*
X006748Y008621D02*
X006070Y008621D01*
X006070Y008523D02*
X006707Y008523D01*
X006690Y008424D02*
X006070Y008424D01*
X006070Y008326D02*
X006690Y008326D01*
X006728Y008227D02*
X006070Y008227D01*
X006070Y008129D02*
X006792Y008129D01*
X006922Y008030D02*
X006070Y008030D01*
X006070Y007932D02*
X009721Y007932D01*
X009743Y007878D02*
X009670Y008055D01*
X009670Y008245D01*
X009743Y008422D01*
X009878Y008557D01*
X010055Y008630D01*
X010245Y008630D01*
X010422Y008557D01*
X010557Y008422D01*
X010630Y008245D01*
X010630Y008055D01*
X010557Y007878D01*
X010422Y007743D01*
X010245Y007670D01*
X010055Y007670D01*
X009878Y007743D01*
X009743Y007878D01*
X009788Y007833D02*
X006070Y007833D01*
X006070Y007735D02*
X009899Y007735D01*
X009859Y007538D02*
X006070Y007538D01*
X006070Y007636D02*
X010730Y007636D01*
X010730Y007538D02*
X010441Y007538D01*
X010540Y007439D02*
X010699Y007439D01*
X010600Y007341D02*
X010591Y007341D01*
X010785Y007045D02*
X010980Y007045D01*
X010980Y006947D02*
X010585Y006947D01*
X010527Y006848D02*
X010980Y006848D01*
X010980Y006750D02*
X010428Y006750D01*
X010422Y006557D02*
X010245Y006630D01*
X010055Y006630D01*
X009878Y006557D01*
X009743Y006422D01*
X009670Y006245D01*
X009670Y006055D01*
X009743Y005878D01*
X009878Y005743D01*
X010055Y005670D01*
X010245Y005670D01*
X010422Y005743D01*
X010557Y005878D01*
X010630Y006055D01*
X010630Y006245D01*
X010557Y006422D01*
X010422Y006557D01*
X010426Y006553D02*
X010812Y006553D01*
X010730Y006454D02*
X010525Y006454D01*
X010584Y006356D02*
X010730Y006356D01*
X010730Y006257D02*
X010625Y006257D01*
X010630Y006159D02*
X010730Y006159D01*
X010730Y006060D02*
X010630Y006060D01*
X010591Y005962D02*
X010730Y005962D01*
X010730Y005863D02*
X010542Y005863D01*
X010443Y005765D02*
X010730Y005765D01*
X010730Y005666D02*
X007905Y005666D01*
X007932Y005677D02*
X008048Y005793D01*
X008110Y005943D01*
X008110Y006107D01*
X008048Y006257D01*
X009675Y006257D01*
X009670Y006159D02*
X008088Y006159D01*
X008110Y006060D02*
X009670Y006060D01*
X009709Y005962D02*
X008110Y005962D01*
X008077Y005863D02*
X009758Y005863D01*
X009857Y005765D02*
X008019Y005765D01*
X007932Y005677D02*
X007782Y005615D01*
X007018Y005615D01*
X006868Y005677D01*
X006752Y005793D01*
X006690Y005943D01*
X006690Y006107D01*
X006752Y006257D01*
X006070Y006257D01*
X006070Y006159D02*
X006712Y006159D01*
X006690Y006060D02*
X006070Y006060D01*
X006070Y005962D02*
X006690Y005962D01*
X006723Y005863D02*
X006070Y005863D01*
X006070Y005765D02*
X006781Y005765D01*
X006895Y005666D02*
X006070Y005666D01*
X006070Y005568D02*
X009904Y005568D01*
X009790Y005469D02*
X006070Y005469D01*
X006070Y005371D02*
X009722Y005371D01*
X009681Y005272D02*
X006070Y005272D01*
X006070Y005174D02*
X009670Y005174D01*
X009670Y005075D02*
X007848Y005075D01*
X007873Y005067D02*
X007805Y005089D01*
X007735Y005100D01*
X007450Y005100D01*
X007450Y004700D01*
X007350Y004700D01*
X007350Y005100D01*
X007065Y005100D01*
X006995Y005089D01*
X006927Y005067D01*
X006864Y005035D01*
X006807Y004993D01*
X006757Y004943D01*
X006715Y004886D01*
X006683Y004823D01*
X006661Y004755D01*
X006652Y004700D01*
X007350Y004700D01*
X007350Y004600D01*
X007450Y004600D01*
X007450Y004700D01*
X008148Y004700D01*
X008139Y004755D01*
X008117Y004823D01*
X008085Y004886D01*
X008043Y004943D01*
X007993Y004993D01*
X007936Y005035D01*
X007873Y005067D01*
X008010Y004977D02*
X009702Y004977D01*
X009743Y004878D02*
X008089Y004878D01*
X008131Y004780D02*
X009842Y004780D01*
X009940Y004583D02*
X008145Y004583D01*
X008148Y004600D02*
X007450Y004600D01*
X007450Y004200D01*
X007735Y004200D01*
X007805Y004211D01*
X007873Y004233D01*
X007936Y004265D01*
X007993Y004307D01*
X008043Y004357D01*
X008085Y004414D01*
X008117Y004477D01*
X008139Y004545D01*
X008148Y004600D01*
X008119Y004484D02*
X009805Y004484D01*
X009743Y004422D02*
X009670Y004245D01*
X009670Y004055D01*
X009743Y003878D01*
X009878Y003743D01*
X010055Y003670D01*
X010245Y003670D01*
X010422Y003743D01*
X010557Y003878D01*
X010630Y004055D01*
X010630Y004245D01*
X010557Y004422D01*
X010422Y004557D01*
X010245Y004630D01*
X010055Y004630D01*
X009878Y004557D01*
X009743Y004422D01*
X009728Y004386D02*
X008064Y004386D01*
X007966Y004287D02*
X009687Y004287D01*
X009670Y004189D02*
X005555Y004189D01*
X005653Y004287D02*
X006834Y004287D01*
X006807Y004307D02*
X006864Y004265D01*
X006927Y004233D01*
X006995Y004211D01*
X007065Y004200D01*
X007350Y004200D01*
X007350Y004600D01*
X006652Y004600D01*
X006661Y004545D01*
X006683Y004477D01*
X006715Y004414D01*
X006757Y004357D01*
X006807Y004307D01*
X006736Y004386D02*
X005711Y004386D01*
X005752Y004484D02*
X006681Y004484D01*
X006655Y004583D02*
X005755Y004583D01*
X005755Y004681D02*
X007350Y004681D01*
X007350Y004583D02*
X007450Y004583D01*
X007450Y004681D02*
X010028Y004681D01*
X010272Y004681D02*
X010941Y004681D01*
X010980Y004780D02*
X010458Y004780D01*
X010557Y004878D02*
X010980Y004878D01*
X010980Y004977D02*
X010598Y004977D01*
X010815Y005075D02*
X010980Y005075D01*
X010980Y005174D02*
X010914Y005174D01*
X010630Y005371D02*
X010578Y005371D01*
X010510Y005469D02*
X010729Y005469D01*
X010730Y005568D02*
X010396Y005568D01*
X011070Y006159D02*
X011168Y006159D01*
X011070Y006257D02*
X011267Y006257D01*
X011096Y006356D02*
X011491Y006356D01*
X011574Y006454D02*
X011194Y006454D01*
X011293Y006553D02*
X011750Y006553D01*
X011768Y006740D02*
X011618Y006802D01*
X011502Y006918D01*
X011440Y007068D01*
X011440Y007232D01*
X011502Y007382D01*
X011618Y007498D01*
X011768Y007560D01*
X012532Y007560D01*
X012682Y007498D01*
X012798Y007382D01*
X012860Y007232D01*
X012860Y007068D01*
X012798Y006918D01*
X012682Y006802D01*
X012532Y006740D01*
X011768Y006740D01*
X011745Y006750D02*
X011320Y006750D01*
X011320Y006848D02*
X011572Y006848D01*
X011491Y006947D02*
X011320Y006947D01*
X011320Y007045D02*
X011450Y007045D01*
X011440Y007144D02*
X011320Y007144D01*
X011320Y007242D02*
X011444Y007242D01*
X011485Y007341D02*
X011320Y007341D01*
X011320Y007439D02*
X011559Y007439D01*
X011714Y007538D02*
X011320Y007538D01*
X011320Y007636D02*
X013950Y007636D01*
X013950Y007538D02*
X012586Y007538D01*
X012741Y007439D02*
X013950Y007439D01*
X013950Y007341D02*
X012815Y007341D01*
X012856Y007242D02*
X013950Y007242D01*
X013950Y007144D02*
X012860Y007144D01*
X012850Y007045D02*
X013950Y007045D01*
X013950Y006947D02*
X012809Y006947D01*
X012728Y006848D02*
X013950Y006848D01*
X013950Y006750D02*
X012555Y006750D01*
X012550Y006553D02*
X013950Y006553D01*
X013950Y006651D02*
X011320Y006651D01*
X010911Y006651D02*
X007951Y006651D01*
X007936Y006640D02*
X007993Y006682D01*
X008043Y006732D01*
X008085Y006789D01*
X008117Y006852D01*
X008139Y006920D01*
X008148Y006975D01*
X007450Y006975D01*
X007450Y007075D01*
X007350Y007075D01*
X007350Y007475D01*
X007065Y007475D01*
X006995Y007464D01*
X006927Y007442D01*
X006864Y007410D01*
X006807Y007368D01*
X006757Y007318D01*
X006715Y007261D01*
X006683Y007198D01*
X006661Y007130D01*
X006652Y007075D01*
X007350Y007075D01*
X007350Y006975D01*
X007450Y006975D01*
X007450Y006575D01*
X007735Y006575D01*
X007805Y006586D01*
X007873Y006608D01*
X007936Y006640D01*
X008056Y006750D02*
X009872Y006750D01*
X009773Y006848D02*
X008115Y006848D01*
X008143Y006947D02*
X009715Y006947D01*
X009674Y007045D02*
X007450Y007045D01*
X007450Y007075D02*
X008148Y007075D01*
X008139Y007130D01*
X008117Y007198D01*
X008085Y007261D01*
X008043Y007318D01*
X007993Y007368D01*
X007936Y007410D01*
X007873Y007442D01*
X007805Y007464D01*
X007735Y007475D01*
X007450Y007475D01*
X007450Y007075D01*
X007450Y007144D02*
X007350Y007144D01*
X007350Y007242D02*
X007450Y007242D01*
X007450Y007341D02*
X007350Y007341D01*
X007350Y007439D02*
X007450Y007439D01*
X007350Y007045D02*
X006070Y007045D01*
X006070Y006947D02*
X006657Y006947D01*
X006661Y006920D02*
X006683Y006852D01*
X006715Y006789D01*
X006757Y006732D01*
X006807Y006682D01*
X006864Y006640D01*
X006927Y006608D01*
X006995Y006586D01*
X007065Y006575D01*
X007350Y006575D01*
X007350Y006975D01*
X006652Y006975D01*
X006661Y006920D01*
X006685Y006848D02*
X006070Y006848D01*
X006070Y006750D02*
X006744Y006750D01*
X006849Y006651D02*
X006070Y006651D01*
X006070Y006553D02*
X009874Y006553D01*
X009775Y006454D02*
X006070Y006454D01*
X006070Y006356D02*
X006851Y006356D01*
X006868Y006373D02*
X006752Y006257D01*
X006868Y006373D02*
X007018Y006435D01*
X007782Y006435D01*
X007932Y006373D01*
X008048Y006257D01*
X007949Y006356D02*
X009716Y006356D01*
X009670Y007144D02*
X008135Y007144D01*
X008094Y007242D02*
X009670Y007242D01*
X009709Y007341D02*
X008021Y007341D01*
X007879Y007439D02*
X009760Y007439D01*
X009680Y008030D02*
X007878Y008030D01*
X008008Y008129D02*
X009670Y008129D01*
X009670Y008227D02*
X008072Y008227D01*
X008110Y008326D02*
X009703Y008326D01*
X009745Y008424D02*
X008110Y008424D01*
X008093Y008523D02*
X009844Y008523D01*
X010033Y008621D02*
X008052Y008621D01*
X007450Y009015D02*
X007350Y009015D01*
X007350Y009114D02*
X007450Y009114D01*
X007450Y009212D02*
X007350Y009212D01*
X007350Y009508D02*
X007450Y009508D01*
X007450Y009606D02*
X007350Y009606D01*
X007350Y009705D02*
X007450Y009705D01*
X007450Y009803D02*
X007350Y009803D01*
X006900Y009803D02*
X006070Y009803D01*
X006070Y009705D02*
X006768Y009705D01*
X006700Y009606D02*
X006070Y009606D01*
X006070Y009508D02*
X006662Y009508D01*
X006070Y009902D02*
X009733Y009902D01*
X009693Y010000D02*
X006070Y010000D01*
X006070Y010099D02*
X009670Y010099D01*
X009670Y010197D02*
X006070Y010197D01*
X006070Y010296D02*
X009691Y010296D01*
X009732Y010394D02*
X007852Y010394D01*
X007782Y010365D02*
X007932Y010427D01*
X008048Y010543D01*
X008110Y010693D01*
X008110Y010857D01*
X008048Y011007D01*
X007932Y011123D01*
X007782Y011185D01*
X007018Y011185D01*
X006868Y011123D01*
X006752Y011007D01*
X006690Y010857D01*
X006690Y010693D01*
X006752Y010543D01*
X006868Y010427D01*
X007018Y010365D01*
X007782Y010365D01*
X007997Y010493D02*
X009814Y010493D01*
X009960Y010591D02*
X008068Y010591D01*
X008108Y010690D02*
X010007Y010690D01*
X009833Y010788D02*
X008110Y010788D01*
X008098Y010887D02*
X009740Y010887D01*
X009699Y010985D02*
X008057Y010985D01*
X007971Y011084D02*
X009670Y011084D01*
X009670Y011182D02*
X007789Y011182D01*
X007914Y011379D02*
X009725Y011379D01*
X009685Y011281D02*
X004654Y011281D01*
X004657Y011272D02*
X004632Y011350D01*
X004595Y011423D01*
X004547Y011489D01*
X004489Y011547D01*
X004423Y011595D01*
X004350Y011632D01*
X004272Y011657D01*
X004200Y011669D01*
X004200Y011200D01*
X004669Y011200D01*
X004657Y011272D01*
X004617Y011379D02*
X006886Y011379D01*
X006761Y011478D02*
X004555Y011478D01*
X004448Y011576D02*
X006696Y011576D01*
X006660Y011675D02*
X004256Y011675D01*
X004200Y011576D02*
X004100Y011576D01*
X004100Y011478D02*
X004200Y011478D01*
X004200Y011379D02*
X004100Y011379D01*
X004100Y011281D02*
X004200Y011281D01*
X004200Y011182D02*
X007011Y011182D01*
X006829Y011084D02*
X004666Y011084D01*
X004643Y010985D02*
X006743Y010985D01*
X006702Y010887D02*
X004599Y010887D01*
X004100Y011182D02*
X003570Y011182D01*
X003570Y011084D02*
X003634Y011084D01*
X003657Y010985D02*
X003570Y010985D01*
X003654Y010887D02*
X003701Y010887D01*
X003646Y011281D02*
X003570Y011281D01*
X003570Y011379D02*
X003683Y011379D01*
X003745Y011478D02*
X003570Y011478D01*
X003570Y011576D02*
X003852Y011576D01*
X003848Y011773D02*
X003570Y011773D01*
X003570Y011675D02*
X004044Y011675D01*
X003750Y011872D02*
X003570Y011872D01*
X003570Y011970D02*
X003705Y011970D01*
X003670Y012069D02*
X003570Y012069D01*
X003570Y012167D02*
X003670Y012167D01*
X003678Y012266D02*
X003570Y012266D01*
X003570Y012364D02*
X003719Y012364D01*
X003784Y012463D02*
X003570Y012463D01*
X003570Y012561D02*
X003888Y012561D01*
X003570Y012660D02*
X013950Y012660D01*
X013950Y012758D02*
X012575Y012758D01*
X012736Y012857D02*
X013950Y012857D01*
X013950Y012955D02*
X012813Y012955D01*
X012854Y013054D02*
X013950Y013054D01*
X013950Y013152D02*
X012860Y013152D01*
X012852Y013251D02*
X013950Y013251D01*
X013950Y013349D02*
X012811Y013349D01*
X012732Y013448D02*
X013950Y013448D01*
X013950Y013546D02*
X012565Y013546D01*
X012731Y014050D02*
X012419Y014179D01*
X012179Y014419D01*
X012050Y014731D01*
X012050Y015069D01*
X012179Y015381D01*
X012419Y015621D01*
X012731Y015750D01*
X013069Y015750D01*
X013381Y015621D01*
X013621Y015381D01*
X013750Y015069D01*
X013750Y014731D01*
X013621Y014419D01*
X013381Y014179D01*
X013069Y014050D01*
X012731Y014050D01*
X012521Y014137D02*
X001779Y014137D01*
X001881Y014179D02*
X002121Y014419D01*
X002250Y014731D01*
X002250Y015069D01*
X002121Y015381D01*
X001881Y015621D01*
X001569Y015750D01*
X001231Y015750D01*
X000919Y015621D01*
X000679Y015381D01*
X000550Y015069D01*
X000550Y014731D01*
X000679Y014419D01*
X000919Y014179D01*
X001231Y014050D01*
X001569Y014050D01*
X001881Y014179D01*
X001938Y014236D02*
X006459Y014236D01*
X006418Y014252D02*
X006302Y014368D01*
X006240Y014518D01*
X006240Y015282D01*
X006302Y015432D01*
X006418Y015548D01*
X006568Y015610D01*
X006732Y015610D01*
X006882Y015548D01*
X006998Y015432D01*
X007060Y015282D01*
X007060Y014518D01*
X006998Y014368D01*
X006882Y014252D01*
X006732Y014190D01*
X006568Y014190D01*
X006418Y014252D01*
X006336Y014334D02*
X002036Y014334D01*
X002126Y014433D02*
X006276Y014433D01*
X006240Y014531D02*
X002167Y014531D01*
X002208Y014630D02*
X006240Y014630D01*
X006240Y014728D02*
X002249Y014728D01*
X002250Y014827D02*
X006240Y014827D01*
X006240Y014925D02*
X002250Y014925D01*
X002250Y015024D02*
X006240Y015024D01*
X006240Y015122D02*
X002228Y015122D01*
X002187Y015221D02*
X006240Y015221D01*
X006256Y015319D02*
X002146Y015319D01*
X002085Y015418D02*
X006296Y015418D01*
X006386Y015516D02*
X001986Y015516D01*
X001888Y015615D02*
X007472Y015615D01*
X007477Y015617D02*
X007414Y015585D01*
X007357Y015543D01*
X007307Y015493D01*
X007265Y015436D01*
X007233Y015373D01*
X007211Y015305D01*
X007200Y015235D01*
X007200Y014950D01*
X007600Y014950D01*
X007600Y015648D01*
X007545Y015639D01*
X007477Y015617D01*
X007600Y015615D02*
X007700Y015615D01*
X007700Y015648D02*
X007700Y014950D01*
X007600Y014950D01*
X007600Y014850D01*
X007200Y014850D01*
X007200Y014565D01*
X007211Y014495D01*
X007233Y014427D01*
X007265Y014364D01*
X007307Y014307D01*
X007357Y014257D01*
X007414Y014215D01*
X007477Y014183D01*
X007545Y014161D01*
X007600Y014152D01*
X007600Y014850D01*
X007700Y014850D01*
X007700Y014950D01*
X008100Y014950D01*
X008100Y015235D01*
X008089Y015305D01*
X008067Y015373D01*
X008035Y015436D01*
X007993Y015493D01*
X007943Y015543D01*
X007886Y015585D01*
X007823Y015617D01*
X007755Y015639D01*
X007700Y015648D01*
X007828Y015615D02*
X012412Y015615D01*
X012314Y015516D02*
X007970Y015516D01*
X008044Y015418D02*
X012215Y015418D01*
X012154Y015319D02*
X008084Y015319D01*
X008100Y015221D02*
X012113Y015221D01*
X012072Y015122D02*
X008100Y015122D01*
X008100Y015024D02*
X012050Y015024D01*
X012050Y014925D02*
X007700Y014925D01*
X007700Y014850D02*
X008100Y014850D01*
X008100Y014565D01*
X008089Y014495D01*
X008067Y014427D01*
X008035Y014364D01*
X007993Y014307D01*
X007943Y014257D01*
X007886Y014215D01*
X007823Y014183D01*
X007755Y014161D01*
X007700Y014152D01*
X007700Y014850D01*
X007700Y014827D02*
X007600Y014827D01*
X007600Y014925D02*
X007060Y014925D01*
X007060Y014827D02*
X007200Y014827D01*
X007200Y014728D02*
X007060Y014728D01*
X007060Y014630D02*
X007200Y014630D01*
X007205Y014531D02*
X007060Y014531D01*
X007024Y014433D02*
X007231Y014433D01*
X007287Y014334D02*
X006964Y014334D01*
X006841Y014236D02*
X007386Y014236D01*
X007600Y014236D02*
X007700Y014236D01*
X007700Y014334D02*
X007600Y014334D01*
X007600Y014433D02*
X007700Y014433D01*
X007700Y014531D02*
X007600Y014531D01*
X007600Y014630D02*
X007700Y014630D01*
X007700Y014728D02*
X007600Y014728D01*
X007600Y015024D02*
X007700Y015024D01*
X007700Y015122D02*
X007600Y015122D01*
X007600Y015221D02*
X007700Y015221D01*
X007700Y015319D02*
X007600Y015319D01*
X007600Y015418D02*
X007700Y015418D01*
X007700Y015516D02*
X007600Y015516D01*
X007330Y015516D02*
X006914Y015516D01*
X007004Y015418D02*
X007256Y015418D01*
X007216Y015319D02*
X007044Y015319D01*
X007060Y015221D02*
X007200Y015221D01*
X007200Y015122D02*
X007060Y015122D01*
X007060Y015024D02*
X007200Y015024D01*
X007914Y014236D02*
X012362Y014236D01*
X012264Y014334D02*
X008013Y014334D01*
X008069Y014433D02*
X012174Y014433D01*
X012133Y014531D02*
X008095Y014531D01*
X008100Y014630D02*
X012092Y014630D01*
X012051Y014728D02*
X008100Y014728D01*
X008100Y014827D02*
X012050Y014827D01*
X012642Y015713D02*
X001658Y015713D01*
X001142Y015713D02*
X000350Y015713D01*
X000350Y015615D02*
X000912Y015615D01*
X000814Y015516D02*
X000350Y015516D01*
X000350Y015418D02*
X000715Y015418D01*
X000654Y015319D02*
X000350Y015319D01*
X000350Y015221D02*
X000613Y015221D01*
X000572Y015122D02*
X000350Y015122D01*
X000350Y015024D02*
X000550Y015024D01*
X000550Y014925D02*
X000350Y014925D01*
X000350Y014827D02*
X000550Y014827D01*
X000551Y014728D02*
X000350Y014728D01*
X000350Y014630D02*
X000592Y014630D01*
X000633Y014531D02*
X000350Y014531D01*
X000350Y014433D02*
X000674Y014433D01*
X000764Y014334D02*
X000350Y014334D01*
X000350Y014236D02*
X000862Y014236D01*
X001021Y014137D02*
X000350Y014137D01*
X000350Y014039D02*
X013950Y014039D01*
X013950Y014137D02*
X013279Y014137D01*
X013438Y014236D02*
X013950Y014236D01*
X013950Y014334D02*
X013536Y014334D01*
X013626Y014433D02*
X013950Y014433D01*
X013950Y014531D02*
X013667Y014531D01*
X013708Y014630D02*
X013950Y014630D01*
X013950Y014728D02*
X013749Y014728D01*
X013750Y014827D02*
X013950Y014827D01*
X013950Y014925D02*
X013750Y014925D01*
X013750Y015024D02*
X013950Y015024D01*
X013950Y015122D02*
X013728Y015122D01*
X013687Y015221D02*
X013950Y015221D01*
X013950Y015319D02*
X013646Y015319D01*
X013585Y015418D02*
X013950Y015418D01*
X013950Y015516D02*
X013486Y015516D01*
X013388Y015615D02*
X013950Y015615D01*
X013950Y015713D02*
X013158Y015713D01*
X013950Y015812D02*
X000350Y015812D01*
X000350Y015910D02*
X013950Y015910D01*
X013950Y013940D02*
X000350Y013940D01*
X000350Y013842D02*
X013950Y013842D01*
X013950Y013743D02*
X000350Y013743D01*
X000350Y013645D02*
X013950Y013645D01*
X013950Y012561D02*
X010412Y012561D01*
X010035Y012857D02*
X011564Y012857D01*
X011487Y012955D02*
X010089Y012955D01*
X010130Y013054D02*
X011446Y013054D01*
X011440Y013152D02*
X010130Y013152D01*
X010128Y013251D02*
X011448Y013251D01*
X011489Y013349D02*
X010087Y013349D01*
X010031Y013448D02*
X011568Y013448D01*
X011735Y013546D02*
X009933Y013546D01*
X009367Y013546D02*
X008933Y013546D01*
X008922Y013557D02*
X008745Y013630D01*
X008555Y013630D01*
X008378Y013557D01*
X008243Y013422D01*
X008170Y013245D01*
X008170Y013055D01*
X008243Y012878D01*
X008378Y012743D01*
X008555Y012670D01*
X008745Y012670D01*
X008922Y012743D01*
X009057Y012878D01*
X009130Y013055D01*
X009130Y013245D01*
X009057Y013422D01*
X008922Y013557D01*
X009031Y013448D02*
X009269Y013448D01*
X009213Y013349D02*
X009087Y013349D01*
X009128Y013251D02*
X009172Y013251D01*
X009170Y013152D02*
X009130Y013152D01*
X009130Y013054D02*
X009170Y013054D01*
X009211Y012955D02*
X009089Y012955D01*
X009035Y012857D02*
X009265Y012857D01*
X009363Y012758D02*
X008937Y012758D01*
X008363Y012758D02*
X007937Y012758D01*
X007922Y012743D02*
X008057Y012878D01*
X008130Y013055D01*
X008130Y013245D01*
X008057Y013422D01*
X007922Y013557D01*
X007745Y013630D01*
X007555Y013630D01*
X007378Y013557D01*
X007243Y013422D01*
X007170Y013245D01*
X007170Y013055D01*
X007243Y012878D01*
X007378Y012743D01*
X007555Y012670D01*
X007745Y012670D01*
X007922Y012743D01*
X008035Y012857D02*
X008265Y012857D01*
X008211Y012955D02*
X008089Y012955D01*
X008130Y013054D02*
X008170Y013054D01*
X008170Y013152D02*
X008130Y013152D01*
X008128Y013251D02*
X008172Y013251D01*
X008213Y013349D02*
X008087Y013349D01*
X008031Y013448D02*
X008269Y013448D01*
X008367Y013546D02*
X007933Y013546D01*
X007367Y013546D02*
X006933Y013546D01*
X006922Y013557D02*
X006745Y013630D01*
X006555Y013630D01*
X006378Y013557D01*
X006243Y013422D01*
X006170Y013245D01*
X006170Y013055D01*
X006243Y012878D01*
X006378Y012743D01*
X006555Y012670D01*
X006745Y012670D01*
X006922Y012743D01*
X007057Y012878D01*
X007130Y013055D01*
X007130Y013245D01*
X007057Y013422D01*
X006922Y013557D01*
X007031Y013448D02*
X007269Y013448D01*
X007213Y013349D02*
X007087Y013349D01*
X007128Y013251D02*
X007172Y013251D01*
X007170Y013152D02*
X007130Y013152D01*
X007130Y013054D02*
X007170Y013054D01*
X007211Y012955D02*
X007089Y012955D01*
X007035Y012857D02*
X007265Y012857D01*
X007363Y012758D02*
X006937Y012758D01*
X006363Y012758D02*
X005937Y012758D01*
X005922Y012743D02*
X006057Y012878D01*
X006130Y013055D01*
X006130Y013245D01*
X006057Y013422D01*
X005922Y013557D01*
X005745Y013630D01*
X005555Y013630D01*
X005378Y013557D01*
X005243Y013422D01*
X005170Y013245D01*
X005170Y013055D01*
X005243Y012878D01*
X005378Y012743D01*
X005555Y012670D01*
X005745Y012670D01*
X005922Y012743D01*
X006035Y012857D02*
X006265Y012857D01*
X006211Y012955D02*
X006089Y012955D01*
X006130Y013054D02*
X006170Y013054D01*
X006170Y013152D02*
X006130Y013152D01*
X006128Y013251D02*
X006172Y013251D01*
X006213Y013349D02*
X006087Y013349D01*
X006031Y013448D02*
X006269Y013448D01*
X006367Y013546D02*
X005933Y013546D01*
X005367Y013546D02*
X004933Y013546D01*
X005031Y013448D02*
X005269Y013448D01*
X005213Y013349D02*
X005087Y013349D01*
X005128Y013251D02*
X005172Y013251D01*
X005170Y013152D02*
X005130Y013152D01*
X005130Y013054D02*
X005170Y013054D01*
X005211Y012955D02*
X005089Y012955D01*
X005035Y012857D02*
X005265Y012857D01*
X005363Y012758D02*
X004937Y012758D01*
X003230Y012167D02*
X003123Y012167D01*
X003222Y012069D02*
X003230Y012069D01*
X001725Y012758D02*
X000350Y012758D01*
X000350Y012857D02*
X001564Y012857D01*
X001487Y012955D02*
X000350Y012955D01*
X000350Y013054D02*
X001446Y013054D01*
X001440Y013152D02*
X000350Y013152D01*
X000350Y013251D02*
X001448Y013251D01*
X001489Y013349D02*
X000350Y013349D01*
X000350Y013448D02*
X001568Y013448D01*
X001735Y013546D02*
X000350Y013546D01*
X000932Y008326D02*
X000962Y008326D01*
X001060Y008030D02*
X001456Y008030D01*
X004401Y007735D02*
X004605Y007735D01*
X004605Y007833D02*
X004512Y007833D01*
X004579Y007932D02*
X004605Y007932D01*
X004605Y006454D02*
X004525Y006454D01*
X004584Y006356D02*
X004605Y006356D01*
X004591Y005962D02*
X004605Y005962D01*
X004605Y005863D02*
X004542Y005863D01*
X004605Y005765D02*
X004443Y005765D01*
X004510Y005469D02*
X004605Y005469D01*
X004605Y005371D02*
X004578Y005371D01*
X004598Y004977D02*
X004605Y004977D01*
X004605Y004878D02*
X004557Y004878D01*
X004605Y004780D02*
X004458Y004780D01*
X004945Y004189D02*
X004995Y004189D01*
X004950Y004090D02*
X009670Y004090D01*
X009696Y003992D02*
X007938Y003992D01*
X007932Y003998D02*
X007782Y004060D01*
X007018Y004060D01*
X006868Y003998D01*
X006752Y003882D01*
X006690Y003732D01*
X006690Y003568D01*
X006752Y003418D01*
X006868Y003302D01*
X007018Y003240D01*
X007782Y003240D01*
X007932Y003302D01*
X008048Y003418D01*
X008110Y003568D01*
X008110Y003732D01*
X008048Y003882D01*
X007932Y003998D01*
X008037Y003893D02*
X009737Y003893D01*
X009827Y003795D02*
X008084Y003795D01*
X008110Y003696D02*
X009992Y003696D01*
X009976Y003598D02*
X008110Y003598D01*
X008081Y003499D02*
X009820Y003499D01*
X009734Y003401D02*
X008030Y003401D01*
X007931Y003302D02*
X009693Y003302D01*
X009670Y003204D02*
X005570Y003204D01*
X005668Y003302D02*
X006869Y003302D01*
X006770Y003401D02*
X005717Y003401D01*
X005755Y003499D02*
X006719Y003499D01*
X006690Y003598D02*
X005755Y003598D01*
X005750Y003696D02*
X006690Y003696D01*
X006716Y003795D02*
X005709Y003795D01*
X005648Y003893D02*
X006763Y003893D01*
X006862Y003992D02*
X005550Y003992D01*
X005770Y004780D02*
X006669Y004780D01*
X006711Y004878D02*
X005868Y004878D01*
X005967Y004977D02*
X006790Y004977D01*
X006952Y005075D02*
X006065Y005075D01*
X007350Y005075D02*
X007450Y005075D01*
X007450Y004977D02*
X007350Y004977D01*
X007350Y004878D02*
X007450Y004878D01*
X007450Y004780D02*
X007350Y004780D01*
X007350Y004484D02*
X007450Y004484D01*
X007450Y004386D02*
X007350Y004386D01*
X007350Y004287D02*
X007450Y004287D01*
X007450Y002725D02*
X007450Y002325D01*
X007350Y002325D01*
X007350Y002225D01*
X007450Y002225D01*
X007450Y002325D01*
X008148Y002325D01*
X008139Y002380D01*
X008117Y002448D01*
X008085Y002511D01*
X008043Y002568D01*
X007993Y002618D01*
X007936Y002660D01*
X007873Y002692D01*
X007805Y002714D01*
X007735Y002725D01*
X007450Y002725D01*
X007450Y002711D02*
X007350Y002711D01*
X007350Y002613D02*
X007450Y002613D01*
X007450Y002514D02*
X007350Y002514D01*
X007350Y002416D02*
X007450Y002416D01*
X007450Y002317D02*
X009700Y002317D01*
X009670Y002245D02*
X009670Y002055D01*
X009743Y001878D01*
X009878Y001743D01*
X010055Y001670D01*
X010245Y001670D01*
X010422Y001743D01*
X010557Y001878D01*
X010630Y002055D01*
X010630Y002245D01*
X010557Y002422D01*
X010422Y002557D01*
X010245Y002630D01*
X010055Y002630D01*
X009878Y002557D01*
X009743Y002422D01*
X009670Y002245D01*
X009670Y002219D02*
X008147Y002219D01*
X008148Y002225D02*
X007450Y002225D01*
X007450Y001825D01*
X007735Y001825D01*
X007805Y001836D01*
X007873Y001858D01*
X007936Y001890D01*
X007993Y001932D01*
X008043Y001982D01*
X008085Y002039D01*
X008117Y002102D01*
X008139Y002170D01*
X008148Y002225D01*
X008123Y002120D02*
X009670Y002120D01*
X009684Y002022D02*
X008072Y002022D01*
X007981Y001923D02*
X009724Y001923D01*
X009797Y001825D02*
X004503Y001825D01*
X004576Y001923D02*
X006819Y001923D01*
X006807Y001932D02*
X006864Y001890D01*
X006927Y001858D01*
X006995Y001836D01*
X007065Y001825D01*
X007350Y001825D01*
X007350Y002225D01*
X006652Y002225D01*
X006661Y002170D01*
X006683Y002102D01*
X006715Y002039D01*
X006757Y001982D01*
X006807Y001932D01*
X006728Y002022D02*
X004616Y002022D01*
X004630Y002120D02*
X006677Y002120D01*
X006653Y002219D02*
X004630Y002219D01*
X004600Y002317D02*
X007350Y002317D01*
X007350Y002219D02*
X007450Y002219D01*
X007450Y002120D02*
X007350Y002120D01*
X007350Y002022D02*
X007450Y002022D01*
X007450Y001923D02*
X007350Y001923D01*
X007018Y001685D02*
X006868Y001623D01*
X006752Y001507D01*
X006690Y001357D01*
X006690Y001193D01*
X006752Y001043D01*
X006868Y000927D01*
X007018Y000865D01*
X007782Y000865D01*
X007932Y000927D01*
X008048Y001043D01*
X008110Y001193D01*
X008110Y001357D01*
X008048Y001507D01*
X007932Y001623D01*
X007782Y001685D01*
X007018Y001685D01*
X006880Y001628D02*
X004252Y001628D01*
X004245Y001630D02*
X004055Y001630D01*
X003878Y001557D01*
X003743Y001422D01*
X003670Y001245D01*
X003670Y001055D01*
X003743Y000878D01*
X003878Y000743D01*
X004055Y000670D01*
X004245Y000670D01*
X004422Y000743D01*
X004557Y000878D01*
X004630Y001055D01*
X004630Y001245D01*
X004557Y001422D01*
X004422Y001557D01*
X004245Y001630D01*
X004381Y001726D02*
X009919Y001726D01*
X010048Y001628D02*
X007920Y001628D01*
X008026Y001529D02*
X009850Y001529D01*
X009752Y001431D02*
X008079Y001431D01*
X008110Y001332D02*
X009706Y001332D01*
X009670Y001234D02*
X008110Y001234D01*
X008086Y001135D02*
X009670Y001135D01*
X009677Y001037D02*
X008041Y001037D01*
X007943Y000938D02*
X009718Y000938D01*
X009782Y000840D02*
X004518Y000840D01*
X004582Y000938D02*
X006857Y000938D01*
X006759Y001037D02*
X004623Y001037D01*
X004630Y001135D02*
X006714Y001135D01*
X006690Y001234D02*
X004630Y001234D01*
X004594Y001332D02*
X006690Y001332D01*
X006721Y001431D02*
X004548Y001431D01*
X004450Y001529D02*
X006774Y001529D01*
X006672Y002416D02*
X004560Y002416D01*
X004465Y002514D02*
X006717Y002514D01*
X007814Y002711D02*
X009956Y002711D01*
X010012Y002613D02*
X007999Y002613D01*
X008083Y002514D02*
X009835Y002514D01*
X009740Y002416D02*
X008128Y002416D01*
X009883Y000741D02*
X004417Y000741D01*
X003883Y000741D02*
X001943Y000741D01*
X002042Y000840D02*
X003782Y000840D01*
X003718Y000938D02*
X002129Y000938D01*
X002169Y001037D02*
X003677Y001037D01*
X003670Y001135D02*
X002210Y001135D01*
X002250Y001234D02*
X003670Y001234D01*
X003706Y001332D02*
X002250Y001332D01*
X002250Y001431D02*
X003752Y001431D01*
X003850Y001529D02*
X002250Y001529D01*
X002226Y001628D02*
X004048Y001628D01*
X003919Y001726D02*
X002185Y001726D01*
X002144Y001825D02*
X003797Y001825D01*
X003724Y001923D02*
X002079Y001923D01*
X001981Y002022D02*
X003538Y002022D01*
X003440Y002120D02*
X001882Y002120D01*
X002689Y002810D02*
X003000Y002810D01*
X002902Y002908D02*
X002788Y002908D01*
X003526Y002514D02*
X003835Y002514D01*
X003740Y002416D02*
X003625Y002416D01*
X003655Y004386D02*
X003728Y004386D01*
X003805Y004484D02*
X003556Y004484D01*
X006070Y007144D02*
X006665Y007144D01*
X006706Y007242D02*
X006070Y007242D01*
X006070Y007341D02*
X006779Y007341D01*
X006921Y007439D02*
X006070Y007439D01*
X007350Y006947D02*
X007450Y006947D01*
X007450Y006848D02*
X007350Y006848D01*
X007350Y006750D02*
X007450Y006750D01*
X007450Y006651D02*
X007350Y006651D01*
X008100Y009606D02*
X009900Y009606D01*
X009971Y009705D02*
X008032Y009705D01*
X007900Y009803D02*
X009818Y009803D01*
X010100Y009606D02*
X010200Y009606D01*
X010200Y009508D02*
X010100Y009508D01*
X010100Y009409D02*
X010200Y009409D01*
X010200Y009311D02*
X010100Y009311D01*
X010100Y009212D02*
X010200Y009212D01*
X010200Y008917D02*
X010100Y008917D01*
X010100Y008818D02*
X010200Y008818D01*
X010200Y008720D02*
X010100Y008720D01*
X010267Y008621D02*
X010730Y008621D01*
X010730Y008523D02*
X010456Y008523D01*
X010555Y008424D02*
X010730Y008424D01*
X010730Y008326D02*
X010597Y008326D01*
X010630Y008227D02*
X010730Y008227D01*
X010730Y008129D02*
X010630Y008129D01*
X010620Y008030D02*
X010730Y008030D01*
X010730Y007932D02*
X010579Y007932D01*
X010512Y007833D02*
X010730Y007833D01*
X010730Y007735D02*
X010401Y007735D01*
X010884Y007144D02*
X010980Y007144D01*
X011320Y007735D02*
X013950Y007735D01*
X013950Y007833D02*
X012713Y007833D01*
X012803Y007932D02*
X013950Y007932D01*
X013950Y008030D02*
X012844Y008030D01*
X012860Y008129D02*
X013950Y008129D01*
X013950Y008227D02*
X012860Y008227D01*
X012821Y008326D02*
X013950Y008326D01*
X013950Y008424D02*
X012756Y008424D01*
X012622Y008523D02*
X013950Y008523D01*
X013950Y008621D02*
X011070Y008621D01*
X011070Y008523D02*
X011678Y008523D01*
X011544Y008424D02*
X011070Y008424D01*
X011070Y008326D02*
X011479Y008326D01*
X011237Y008227D02*
X011070Y008227D01*
X011070Y008129D02*
X011138Y008129D01*
X011422Y007932D02*
X011497Y007932D01*
X011587Y007833D02*
X011323Y007833D01*
X010730Y008720D02*
X010442Y008720D01*
X010552Y008818D02*
X010730Y008818D01*
X010730Y008917D02*
X010615Y008917D01*
X010653Y009015D02*
X010730Y009015D01*
X010730Y009606D02*
X010400Y009606D01*
X010329Y009705D02*
X010730Y009705D01*
X010730Y009803D02*
X010482Y009803D01*
X010567Y009902D02*
X010730Y009902D01*
X010760Y010000D02*
X010607Y010000D01*
X010630Y010099D02*
X010858Y010099D01*
X010957Y010197D02*
X010630Y010197D01*
X010609Y010296D02*
X011055Y010296D01*
X011514Y010394D02*
X010568Y010394D01*
X010486Y010493D02*
X011613Y010493D01*
X011652Y010788D02*
X010467Y010788D01*
X010560Y010887D02*
X011534Y010887D01*
X011475Y010985D02*
X010725Y010985D01*
X010824Y011084D02*
X011440Y011084D01*
X011195Y011675D02*
X013950Y011675D01*
X013950Y011773D02*
X012611Y011773D01*
X012751Y011872D02*
X013950Y011872D01*
X013950Y011970D02*
X012819Y011970D01*
X012860Y012069D02*
X013950Y012069D01*
X013950Y012167D02*
X012860Y012167D01*
X012846Y012266D02*
X013950Y012266D01*
X013950Y012364D02*
X012805Y012364D01*
X012717Y012463D02*
X013950Y012463D01*
X011689Y011773D02*
X011263Y011773D01*
X011362Y011872D02*
X011549Y011872D01*
X011481Y011970D02*
X011460Y011970D01*
X010044Y011675D02*
X008140Y011675D01*
X008104Y011576D02*
X009924Y011576D01*
X009799Y011478D02*
X008039Y011478D01*
X007450Y011478D02*
X007350Y011478D01*
X007350Y011576D02*
X007450Y011576D01*
X007450Y011379D02*
X007350Y011379D01*
X007350Y011872D02*
X007450Y011872D01*
X007450Y011970D02*
X007350Y011970D01*
X007350Y012069D02*
X007450Y012069D01*
X007450Y012167D02*
X007350Y012167D01*
X006690Y010788D02*
X005752Y010788D01*
X005851Y010690D02*
X006692Y010690D01*
X006732Y010591D02*
X005949Y010591D01*
X005970Y010570D02*
X005970Y010570D01*
X006048Y010493D02*
X006803Y010493D01*
X006948Y010394D02*
X006070Y010394D01*
X010360Y004583D02*
X010842Y004583D01*
X010744Y004484D02*
X010495Y004484D01*
X010572Y004386D02*
X010730Y004386D01*
X010730Y004287D02*
X010613Y004287D01*
X010630Y004189D02*
X010730Y004189D01*
X010730Y004090D02*
X010630Y004090D01*
X010604Y003992D02*
X010730Y003992D01*
X010730Y003893D02*
X010563Y003893D01*
X010473Y003795D02*
X010730Y003795D01*
X010730Y003696D02*
X010308Y003696D01*
X010324Y003598D02*
X010730Y003598D01*
X010730Y003499D02*
X010480Y003499D01*
X010566Y003401D02*
X010660Y003401D01*
X010845Y003105D02*
X010980Y003105D01*
X010980Y003007D02*
X010747Y003007D01*
X010569Y002908D02*
X010980Y002908D01*
X010980Y002810D02*
X010488Y002810D01*
X010344Y002711D02*
X010971Y002711D01*
X010872Y002613D02*
X010288Y002613D01*
X010465Y002514D02*
X010774Y002514D01*
X010730Y002416D02*
X010560Y002416D01*
X010600Y002317D02*
X010730Y002317D01*
X010730Y002219D02*
X010630Y002219D01*
X010630Y002120D02*
X010730Y002120D01*
X010730Y002022D02*
X010616Y002022D01*
X010576Y001923D02*
X010730Y001923D01*
X010730Y001825D02*
X010503Y001825D01*
X010381Y001726D02*
X010730Y001726D01*
X010730Y001628D02*
X010252Y001628D01*
X010450Y001529D02*
X010730Y001529D01*
X010690Y001431D02*
X010548Y001431D01*
X010777Y001037D02*
X012131Y001037D01*
X012090Y001135D02*
X010875Y001135D01*
X010974Y001234D02*
X012050Y001234D01*
X012050Y001231D02*
X012179Y000919D01*
X012419Y000679D01*
X012731Y000550D01*
X013069Y000550D01*
X013381Y000679D01*
X013621Y000919D01*
X013750Y001231D01*
X013750Y001569D01*
X013621Y001881D01*
X013381Y002121D01*
X013069Y002250D01*
X012731Y002250D01*
X012419Y002121D01*
X012179Y001881D01*
X012050Y001569D01*
X012050Y001231D01*
X012050Y001332D02*
X011070Y001332D01*
X011070Y001431D02*
X012050Y001431D01*
X012050Y001529D02*
X011070Y001529D01*
X011070Y001628D02*
X012074Y001628D01*
X012115Y001726D02*
X011070Y001726D01*
X011070Y001825D02*
X012156Y001825D01*
X012221Y001923D02*
X011070Y001923D01*
X011070Y002022D02*
X012319Y002022D01*
X012418Y002120D02*
X011070Y002120D01*
X011070Y002219D02*
X012655Y002219D01*
X013145Y002219D02*
X013950Y002219D01*
X013950Y002317D02*
X011070Y002317D01*
X011156Y002416D02*
X013950Y002416D01*
X013950Y002514D02*
X011254Y002514D01*
X011320Y002613D02*
X013950Y002613D01*
X013950Y002711D02*
X011320Y002711D01*
X011320Y002810D02*
X011611Y002810D01*
X011618Y002802D02*
X011768Y002740D01*
X012532Y002740D01*
X012682Y002802D01*
X012798Y002918D01*
X012860Y003068D01*
X012860Y003232D01*
X012798Y003382D01*
X012682Y003498D01*
X012532Y003560D01*
X011768Y003560D01*
X011618Y003498D01*
X011502Y003382D01*
X011440Y003232D01*
X011440Y003068D01*
X011502Y002918D01*
X011618Y002802D01*
X011512Y002908D02*
X011320Y002908D01*
X011320Y003007D02*
X011466Y003007D01*
X011440Y003105D02*
X011320Y003105D01*
X011320Y003204D02*
X011440Y003204D01*
X011469Y003302D02*
X011320Y003302D01*
X011320Y003401D02*
X011521Y003401D01*
X011621Y003499D02*
X011320Y003499D01*
X011320Y003598D02*
X013950Y003598D01*
X013950Y003696D02*
X011320Y003696D01*
X011320Y003795D02*
X011637Y003795D01*
X011527Y003893D02*
X011383Y003893D01*
X011100Y004090D02*
X011070Y004090D01*
X011070Y004189D02*
X011198Y004189D01*
X011297Y004287D02*
X011070Y004287D01*
X011126Y004386D02*
X011506Y004386D01*
X011604Y004484D02*
X011224Y004484D01*
X011320Y004583D02*
X013950Y004583D01*
X013950Y004681D02*
X011320Y004681D01*
X011320Y004780D02*
X011673Y004780D01*
X011618Y004802D02*
X011768Y004740D01*
X012532Y004740D01*
X012682Y004802D01*
X012798Y004918D01*
X012860Y005068D01*
X012860Y005232D01*
X012798Y005382D01*
X012682Y005498D01*
X012532Y005560D01*
X011768Y005560D01*
X011618Y005498D01*
X011502Y005382D01*
X011440Y005232D01*
X011440Y005068D01*
X011502Y004918D01*
X011618Y004802D01*
X011542Y004878D02*
X011320Y004878D01*
X011320Y004977D02*
X011478Y004977D01*
X011440Y005075D02*
X011320Y005075D01*
X011320Y005174D02*
X011440Y005174D01*
X011457Y005272D02*
X011320Y005272D01*
X011320Y005371D02*
X011498Y005371D01*
X011589Y005469D02*
X011320Y005469D01*
X011320Y005568D02*
X013950Y005568D01*
X013950Y005666D02*
X011320Y005666D01*
X011320Y005765D02*
X011709Y005765D01*
X011557Y005863D02*
X011353Y005863D01*
X011452Y005962D02*
X011484Y005962D01*
X012591Y005765D02*
X013950Y005765D01*
X013950Y005863D02*
X012743Y005863D01*
X012816Y005962D02*
X013950Y005962D01*
X013950Y006060D02*
X012857Y006060D01*
X012860Y006159D02*
X013950Y006159D01*
X013950Y006257D02*
X012849Y006257D01*
X012809Y006356D02*
X013950Y006356D01*
X013950Y006454D02*
X012726Y006454D01*
X012711Y005469D02*
X013950Y005469D01*
X013950Y005371D02*
X012802Y005371D01*
X012843Y005272D02*
X013950Y005272D01*
X013950Y005174D02*
X012860Y005174D01*
X012860Y005075D02*
X013950Y005075D01*
X013950Y004977D02*
X012822Y004977D01*
X012758Y004878D02*
X013950Y004878D01*
X013950Y004780D02*
X012627Y004780D01*
X012696Y004484D02*
X013950Y004484D01*
X013950Y004386D02*
X012794Y004386D01*
X012837Y004287D02*
X013950Y004287D01*
X013950Y004189D02*
X012860Y004189D01*
X012860Y004090D02*
X013950Y004090D01*
X013950Y003992D02*
X012828Y003992D01*
X012773Y003893D02*
X013950Y003893D01*
X013950Y003795D02*
X012663Y003795D01*
X012679Y003499D02*
X013950Y003499D01*
X013950Y003401D02*
X012779Y003401D01*
X012831Y003302D02*
X013950Y003302D01*
X013950Y003204D02*
X012860Y003204D01*
X012860Y003105D02*
X013950Y003105D01*
X013950Y003007D02*
X012834Y003007D01*
X012788Y002908D02*
X013950Y002908D01*
X013950Y002810D02*
X012689Y002810D01*
X013382Y002120D02*
X013950Y002120D01*
X013950Y002022D02*
X013481Y002022D01*
X013579Y001923D02*
X013950Y001923D01*
X013950Y001825D02*
X013644Y001825D01*
X013685Y001726D02*
X013950Y001726D01*
X013950Y001628D02*
X013726Y001628D01*
X013750Y001529D02*
X013950Y001529D01*
X013950Y001431D02*
X013750Y001431D01*
X013750Y001332D02*
X013950Y001332D01*
X013950Y001234D02*
X013750Y001234D01*
X013710Y001135D02*
X013950Y001135D01*
X013950Y001037D02*
X013669Y001037D01*
X013629Y000938D02*
X013950Y000938D01*
X013950Y000840D02*
X013542Y000840D01*
X013443Y000741D02*
X013950Y000741D01*
X013950Y000643D02*
X013292Y000643D01*
X012508Y000643D02*
X001792Y000643D01*
X010417Y000741D02*
X012357Y000741D01*
X012258Y000840D02*
X010518Y000840D01*
X010582Y000938D02*
X012171Y000938D01*
X010980Y003204D02*
X010944Y003204D01*
D14*
X010900Y003400D02*
X010650Y003150D01*
X010150Y003150D01*
X010900Y003400D02*
X010900Y004400D01*
X011150Y004650D01*
X011150Y005900D01*
X011400Y006150D01*
X012150Y006150D01*
X011150Y006650D02*
X010900Y006400D01*
X010900Y005400D01*
X010650Y005150D01*
X010150Y005150D01*
X011150Y003900D02*
X011150Y002650D01*
X010900Y002400D01*
X010900Y001400D01*
X010650Y001150D01*
X010150Y001150D01*
X011150Y003900D02*
X011400Y004150D01*
X012150Y004150D01*
X011150Y006650D02*
X011150Y007900D01*
X011400Y008150D01*
X012150Y008150D01*
X010900Y007400D02*
X010650Y007150D01*
X010150Y007150D01*
X010900Y007400D02*
X010900Y009900D01*
X011150Y010150D01*
X012150Y010150D01*
X011025Y011525D02*
X010650Y011150D01*
X010150Y011150D01*
X011025Y011525D02*
X011025Y011775D01*
X011400Y012150D01*
X012150Y012150D01*
X005900Y010400D02*
X005900Y005150D01*
X005400Y004650D01*
X004775Y004025D02*
X005150Y003650D01*
X004775Y004025D02*
X004775Y009400D01*
X004525Y009650D01*
X003400Y009650D01*
X003150Y009900D01*
X003150Y011900D01*
X002900Y012150D01*
X002150Y012150D01*
X002150Y013150D02*
X003150Y013150D01*
X003400Y012900D01*
X003400Y010900D01*
X003650Y010650D01*
X005650Y010650D01*
X005900Y010400D01*
X004150Y008150D02*
X003650Y008150D01*
X003275Y008525D01*
X003275Y008775D01*
X002900Y009150D01*
X002150Y009150D01*
X002150Y007150D02*
X002900Y007150D01*
X003275Y006775D01*
X003275Y006525D01*
X003650Y006150D01*
X004150Y006150D01*
X002900Y005150D02*
X003275Y004775D01*
X003275Y004525D01*
X003650Y004150D01*
X004150Y004150D01*
X002900Y003150D02*
X003275Y002775D01*
X003275Y002525D01*
X003650Y002150D01*
X004150Y002150D01*
X002900Y003150D02*
X002150Y003150D01*
X002150Y005150D02*
X002900Y005150D01*
M02*
