G75*
%MOIN*%
%OFA0B0*%
%FSLAX24Y24*%
%IPPOS*%
%LPD*%
%AMOC8*
5,1,8,0,0,1.08239X$1,22.5*
%
%ADD10C,0.0600*%
%ADD11C,0.0740*%
%ADD12C,0.0160*%
%ADD13C,0.0100*%
%ADD14C,0.0120*%
D10*
X001850Y003150D02*
X002450Y003150D01*
X002450Y004150D02*
X001850Y004150D01*
X001850Y005150D02*
X002450Y005150D01*
X002450Y006150D02*
X001850Y006150D01*
X001850Y007150D02*
X002450Y007150D01*
X002450Y008150D02*
X001850Y008150D01*
X001850Y009150D02*
X002450Y009150D01*
X002450Y010150D02*
X001850Y010150D01*
X001850Y011150D02*
X002450Y011150D01*
X002450Y012150D02*
X001850Y012150D01*
X001850Y013150D02*
X002450Y013150D01*
X006650Y014600D02*
X006650Y015200D01*
X007650Y015200D02*
X007650Y014600D01*
X007700Y011775D02*
X007100Y011775D01*
X007100Y010775D02*
X007700Y010775D01*
X007700Y009400D02*
X007100Y009400D01*
X007100Y008400D02*
X007700Y008400D01*
X007700Y007025D02*
X007100Y007025D01*
X007100Y006025D02*
X007700Y006025D01*
X007700Y004650D02*
X007100Y004650D01*
X007100Y003650D02*
X007700Y003650D01*
X007700Y002275D02*
X007100Y002275D01*
X007100Y001275D02*
X007700Y001275D01*
X011850Y003150D02*
X012450Y003150D01*
X012450Y004150D02*
X011850Y004150D01*
X011850Y005150D02*
X012450Y005150D01*
X012450Y006150D02*
X011850Y006150D01*
X011850Y007150D02*
X012450Y007150D01*
X012450Y008150D02*
X011850Y008150D01*
X011850Y009150D02*
X012450Y009150D01*
X012450Y010150D02*
X011850Y010150D01*
X011850Y011150D02*
X012450Y011150D01*
X012450Y012150D02*
X011850Y012150D01*
X011850Y013150D02*
X012450Y013150D01*
D11*
X010150Y012150D03*
X010150Y011150D03*
X010150Y010150D03*
X010150Y009150D03*
X010150Y008150D03*
X010150Y007150D03*
X010150Y006150D03*
X010150Y005150D03*
X010150Y004150D03*
X010150Y003150D03*
X010150Y002150D03*
X010150Y001150D03*
X005275Y003588D03*
X005275Y004588D03*
X004150Y004150D03*
X004150Y003150D03*
X004150Y002150D03*
X004150Y001150D03*
X004150Y005150D03*
X004150Y006150D03*
X004150Y007150D03*
X004150Y008150D03*
X004150Y009150D03*
X004150Y010150D03*
X004150Y011150D03*
X004150Y012150D03*
X004650Y013150D03*
X005650Y013150D03*
X006650Y013150D03*
X007650Y013150D03*
X008650Y013150D03*
X009650Y013150D03*
X005275Y008713D03*
X005275Y007713D03*
D12*
X004150Y012150D02*
X003650Y012650D01*
X003650Y014650D01*
X003900Y014900D01*
X006650Y014900D01*
D13*
X000350Y015950D02*
X000350Y000350D01*
X013950Y000350D01*
X013950Y015950D01*
X000350Y015950D01*
X000350Y015910D02*
X013950Y015910D01*
X013950Y015812D02*
X000350Y015812D01*
X000350Y015713D02*
X001142Y015713D01*
X001231Y015750D02*
X000919Y015621D01*
X000679Y015381D01*
X000550Y015069D01*
X000550Y014731D01*
X000679Y014419D01*
X000919Y014179D01*
X001231Y014050D01*
X001569Y014050D01*
X001881Y014179D01*
X002121Y014419D01*
X002250Y014731D01*
X002250Y015069D01*
X002121Y015381D01*
X001881Y015621D01*
X001569Y015750D01*
X001231Y015750D01*
X000912Y015615D02*
X000350Y015615D01*
X000350Y015516D02*
X000814Y015516D01*
X000715Y015418D02*
X000350Y015418D01*
X000350Y015319D02*
X000654Y015319D01*
X000613Y015221D02*
X000350Y015221D01*
X000350Y015122D02*
X000572Y015122D01*
X000550Y015024D02*
X000350Y015024D01*
X000350Y014925D02*
X000550Y014925D01*
X000550Y014827D02*
X000350Y014827D01*
X000350Y014728D02*
X000551Y014728D01*
X000592Y014630D02*
X000350Y014630D01*
X000350Y014531D02*
X000633Y014531D01*
X000674Y014433D02*
X000350Y014433D01*
X000350Y014334D02*
X000764Y014334D01*
X000862Y014236D02*
X000350Y014236D01*
X000350Y014137D02*
X001021Y014137D01*
X001618Y013498D02*
X001502Y013382D01*
X001440Y013232D01*
X001440Y013068D01*
X001502Y012918D01*
X001618Y012802D01*
X001768Y012740D01*
X002532Y012740D01*
X002682Y012802D01*
X002798Y012918D01*
X002860Y013068D01*
X002860Y013232D01*
X002798Y013382D01*
X002682Y013498D01*
X002532Y013560D01*
X001768Y013560D01*
X001618Y013498D01*
X001568Y013448D02*
X000350Y013448D01*
X000350Y013546D02*
X001735Y013546D01*
X001489Y013349D02*
X000350Y013349D01*
X000350Y013251D02*
X001448Y013251D01*
X001440Y013152D02*
X000350Y013152D01*
X000350Y013054D02*
X001446Y013054D01*
X001487Y012955D02*
X000350Y012955D01*
X000350Y012857D02*
X001564Y012857D01*
X001725Y012758D02*
X000350Y012758D01*
X000350Y012660D02*
X003460Y012660D01*
X003460Y012571D02*
X003704Y012327D01*
X003670Y012245D01*
X003670Y012055D01*
X003743Y011878D01*
X003878Y011743D01*
X004055Y011670D01*
X004245Y011670D01*
X004422Y011743D01*
X004557Y011878D01*
X004630Y012055D01*
X004630Y012245D01*
X004557Y012422D01*
X004422Y012557D01*
X004245Y012630D01*
X004055Y012630D01*
X003973Y012596D01*
X003840Y012729D01*
X003840Y014571D01*
X003979Y014710D01*
X006240Y014710D01*
X006240Y014518D01*
X006302Y014368D01*
X006418Y014252D01*
X006568Y014190D01*
X006732Y014190D01*
X006882Y014252D01*
X006998Y014368D01*
X007060Y014518D01*
X007060Y015282D01*
X006998Y015432D01*
X006882Y015548D01*
X006732Y015610D01*
X006568Y015610D01*
X006418Y015548D01*
X006302Y015432D01*
X006240Y015282D01*
X006240Y015090D01*
X003821Y015090D01*
X003571Y014840D01*
X003460Y014729D01*
X003460Y012571D01*
X003470Y012561D02*
X000350Y012561D01*
X000350Y012463D02*
X001583Y012463D01*
X001618Y012498D02*
X001502Y012382D01*
X001440Y012232D01*
X001440Y012068D01*
X001502Y011918D01*
X001618Y011802D01*
X001768Y011740D01*
X002532Y011740D01*
X002682Y011802D01*
X002798Y011918D01*
X002860Y012068D01*
X002860Y012232D01*
X002798Y012382D01*
X002682Y012498D01*
X002532Y012560D01*
X001768Y012560D01*
X001618Y012498D01*
X001495Y012364D02*
X000350Y012364D01*
X000350Y012266D02*
X001454Y012266D01*
X001440Y012167D02*
X000350Y012167D01*
X000350Y012069D02*
X001440Y012069D01*
X001481Y011970D02*
X000350Y011970D01*
X000350Y011872D02*
X001549Y011872D01*
X001689Y011773D02*
X000350Y011773D01*
X000350Y011675D02*
X004044Y011675D01*
X004055Y011630D02*
X003878Y011557D01*
X003743Y011422D01*
X003670Y011245D01*
X003670Y011055D01*
X003743Y010878D01*
X003878Y010743D01*
X004055Y010670D01*
X004245Y010670D01*
X004422Y010743D01*
X004557Y010878D01*
X004630Y011055D01*
X004630Y011245D01*
X004557Y011422D01*
X004422Y011557D01*
X004245Y011630D01*
X004055Y011630D01*
X003924Y011576D02*
X000350Y011576D01*
X000350Y011478D02*
X001598Y011478D01*
X001618Y011498D02*
X001502Y011382D01*
X001440Y011232D01*
X001440Y011068D01*
X001502Y010918D01*
X001618Y010802D01*
X001768Y010740D01*
X002532Y010740D01*
X002682Y010802D01*
X002798Y010918D01*
X002823Y010980D01*
X003080Y010980D01*
X003230Y010830D01*
X003230Y010060D01*
X003220Y010070D01*
X002970Y010320D01*
X002823Y010320D01*
X002798Y010382D01*
X002682Y010498D01*
X002532Y010560D01*
X001768Y010560D01*
X001618Y010498D01*
X001502Y010382D01*
X001440Y010232D01*
X001440Y010068D01*
X001502Y009918D01*
X001618Y009802D01*
X001768Y009740D01*
X002532Y009740D01*
X002682Y009802D01*
X002798Y009918D01*
X002823Y009980D01*
X002830Y009980D01*
X002980Y009830D01*
X002980Y008310D01*
X002970Y008320D01*
X002823Y008320D01*
X002798Y008382D01*
X002682Y008498D01*
X002532Y008560D01*
X001768Y008560D01*
X001618Y008498D01*
X001502Y008382D01*
X001440Y008232D01*
X001440Y008068D01*
X001502Y007918D01*
X001618Y007802D01*
X001768Y007740D01*
X002532Y007740D01*
X002682Y007802D01*
X002798Y007918D01*
X002823Y007980D01*
X002830Y007980D01*
X003105Y007705D01*
X003105Y007455D01*
X003205Y007355D01*
X003580Y006980D01*
X003701Y006980D01*
X003743Y006878D01*
X003878Y006743D01*
X004055Y006670D01*
X004245Y006670D01*
X004422Y006743D01*
X004557Y006878D01*
X004630Y007055D01*
X004630Y007245D01*
X004588Y007346D01*
X004855Y007080D01*
X004955Y006980D01*
X005720Y006980D01*
X005970Y007230D01*
X006070Y007330D01*
X006070Y008095D01*
X005694Y008471D01*
X005755Y008617D01*
X005755Y008808D01*
X005682Y008984D01*
X005547Y009119D01*
X005370Y009192D01*
X005180Y009192D01*
X005003Y009119D01*
X004868Y008984D01*
X004795Y008808D01*
X004795Y008620D01*
X004595Y008820D01*
X004553Y008820D01*
X004595Y008877D01*
X004632Y008950D01*
X004657Y009028D01*
X004669Y009100D01*
X004200Y009100D01*
X004200Y009200D01*
X004100Y009200D01*
X004100Y009669D01*
X004028Y009657D01*
X003950Y009632D01*
X003877Y009595D01*
X003811Y009547D01*
X003753Y009489D01*
X003705Y009423D01*
X003668Y009350D01*
X003643Y009272D01*
X003631Y009200D01*
X004100Y009200D01*
X004100Y009100D01*
X003631Y009100D01*
X003643Y009028D01*
X003668Y008950D01*
X003705Y008877D01*
X003747Y008820D01*
X003720Y008820D01*
X003570Y008970D01*
X003570Y010970D01*
X003470Y011070D01*
X003220Y011320D01*
X002823Y011320D01*
X002798Y011382D01*
X002682Y011498D01*
X002532Y011560D01*
X001768Y011560D01*
X001618Y011498D01*
X001501Y011379D02*
X000350Y011379D01*
X000350Y011281D02*
X001460Y011281D01*
X001440Y011182D02*
X000350Y011182D01*
X000350Y011084D02*
X001440Y011084D01*
X001475Y010985D02*
X000350Y010985D01*
X000350Y010887D02*
X001534Y010887D01*
X001652Y010788D02*
X000350Y010788D01*
X000350Y010690D02*
X003230Y010690D01*
X003230Y010788D02*
X002647Y010788D01*
X002766Y010887D02*
X003173Y010887D01*
X003230Y010591D02*
X000350Y010591D01*
X000350Y010493D02*
X001613Y010493D01*
X001514Y010394D02*
X000350Y010394D01*
X000350Y010296D02*
X001466Y010296D01*
X001440Y010197D02*
X000350Y010197D01*
X000350Y010099D02*
X001440Y010099D01*
X001468Y010000D02*
X000350Y010000D01*
X000350Y009902D02*
X001519Y009902D01*
X001617Y009803D02*
X000350Y009803D01*
X000350Y009705D02*
X002980Y009705D01*
X002980Y009803D02*
X002683Y009803D01*
X002781Y009902D02*
X002908Y009902D01*
X002980Y009606D02*
X000350Y009606D01*
X000350Y009508D02*
X001642Y009508D01*
X001618Y009498D02*
X001502Y009382D01*
X001440Y009232D01*
X001440Y009068D01*
X001502Y008918D01*
X001618Y008802D01*
X001768Y008740D01*
X002532Y008740D01*
X002682Y008802D01*
X002798Y008918D01*
X002860Y009068D01*
X002860Y009232D01*
X002798Y009382D01*
X002682Y009498D01*
X002532Y009560D01*
X001768Y009560D01*
X001618Y009498D01*
X001529Y009409D02*
X000350Y009409D01*
X000350Y009311D02*
X001473Y009311D01*
X001440Y009212D02*
X000350Y009212D01*
X000350Y009114D02*
X001440Y009114D01*
X001462Y009015D02*
X000350Y009015D01*
X000350Y008917D02*
X001504Y008917D01*
X001602Y008818D02*
X000350Y008818D01*
X000350Y008720D02*
X002980Y008720D01*
X002980Y008818D02*
X002698Y008818D01*
X002796Y008917D02*
X002980Y008917D01*
X002980Y009015D02*
X002838Y009015D01*
X002860Y009114D02*
X002980Y009114D01*
X002980Y009212D02*
X002860Y009212D01*
X002827Y009311D02*
X002980Y009311D01*
X002980Y009409D02*
X002771Y009409D01*
X002658Y009508D02*
X002980Y009508D01*
X003192Y010099D02*
X003230Y010099D01*
X003230Y010197D02*
X003093Y010197D01*
X002995Y010296D02*
X003230Y010296D01*
X003230Y010394D02*
X002786Y010394D01*
X002687Y010493D02*
X003230Y010493D01*
X003570Y010493D02*
X003814Y010493D01*
X003878Y010557D02*
X003743Y010422D01*
X003670Y010245D01*
X003670Y010055D01*
X003743Y009878D01*
X003878Y009743D01*
X004055Y009670D01*
X004245Y009670D01*
X004422Y009743D01*
X004557Y009878D01*
X004630Y010055D01*
X004630Y010245D01*
X004557Y010422D01*
X004422Y010557D01*
X004245Y010630D01*
X004055Y010630D01*
X003878Y010557D01*
X003960Y010591D02*
X003570Y010591D01*
X003570Y010690D02*
X004007Y010690D01*
X003833Y010788D02*
X003570Y010788D01*
X003570Y010887D02*
X003740Y010887D01*
X003699Y010985D02*
X003555Y010985D01*
X003457Y011084D02*
X003670Y011084D01*
X003670Y011182D02*
X003358Y011182D01*
X003260Y011281D02*
X003685Y011281D01*
X003725Y011379D02*
X002799Y011379D01*
X002702Y011478D02*
X003799Y011478D01*
X003848Y011773D02*
X002611Y011773D01*
X002751Y011872D02*
X003750Y011872D01*
X003705Y011970D02*
X002819Y011970D01*
X002860Y012069D02*
X003670Y012069D01*
X003670Y012167D02*
X002860Y012167D01*
X002846Y012266D02*
X003678Y012266D01*
X003667Y012364D02*
X002805Y012364D01*
X002717Y012463D02*
X003569Y012463D01*
X003460Y012758D02*
X002575Y012758D01*
X002736Y012857D02*
X003460Y012857D01*
X003460Y012955D02*
X002813Y012955D01*
X002854Y013054D02*
X003460Y013054D01*
X003460Y013152D02*
X002860Y013152D01*
X002852Y013251D02*
X003460Y013251D01*
X003460Y013349D02*
X002811Y013349D01*
X002732Y013448D02*
X003460Y013448D01*
X003460Y013546D02*
X002565Y013546D01*
X001938Y014236D02*
X003460Y014236D01*
X003460Y014334D02*
X002036Y014334D01*
X002126Y014433D02*
X003460Y014433D01*
X003460Y014531D02*
X002167Y014531D01*
X002208Y014630D02*
X003460Y014630D01*
X003460Y014728D02*
X002249Y014728D01*
X002250Y014827D02*
X003558Y014827D01*
X003656Y014925D02*
X002250Y014925D01*
X002250Y015024D02*
X003755Y015024D01*
X003898Y014630D02*
X006240Y014630D01*
X006240Y014531D02*
X003840Y014531D01*
X003840Y014433D02*
X006276Y014433D01*
X006336Y014334D02*
X003840Y014334D01*
X003840Y014236D02*
X006459Y014236D01*
X006841Y014236D02*
X007459Y014236D01*
X007418Y014252D02*
X007302Y014368D01*
X007240Y014518D01*
X007240Y015282D01*
X007302Y015432D01*
X007418Y015548D01*
X007568Y015610D01*
X007732Y015610D01*
X007882Y015548D01*
X007998Y015432D01*
X008060Y015282D01*
X008060Y014518D01*
X007998Y014368D01*
X007882Y014252D01*
X007732Y014190D01*
X007568Y014190D01*
X007418Y014252D01*
X007336Y014334D02*
X006964Y014334D01*
X007024Y014433D02*
X007276Y014433D01*
X007240Y014531D02*
X007060Y014531D01*
X007060Y014630D02*
X007240Y014630D01*
X007240Y014728D02*
X007060Y014728D01*
X007060Y014827D02*
X007240Y014827D01*
X007240Y014925D02*
X007060Y014925D01*
X007060Y015024D02*
X007240Y015024D01*
X007240Y015122D02*
X007060Y015122D01*
X007060Y015221D02*
X007240Y015221D01*
X007256Y015319D02*
X007044Y015319D01*
X007004Y015418D02*
X007296Y015418D01*
X007386Y015516D02*
X006914Y015516D01*
X006386Y015516D02*
X001986Y015516D01*
X001888Y015615D02*
X012412Y015615D01*
X012419Y015621D02*
X012179Y015381D01*
X012050Y015069D01*
X012050Y014731D01*
X012179Y014419D01*
X012419Y014179D01*
X012731Y014050D01*
X013069Y014050D01*
X013381Y014179D01*
X013621Y014419D01*
X013750Y014731D01*
X013750Y015069D01*
X013621Y015381D01*
X013381Y015621D01*
X013069Y015750D01*
X012731Y015750D01*
X012419Y015621D01*
X012314Y015516D02*
X007914Y015516D01*
X008004Y015418D02*
X012215Y015418D01*
X012154Y015319D02*
X008044Y015319D01*
X008060Y015221D02*
X012113Y015221D01*
X012072Y015122D02*
X008060Y015122D01*
X008060Y015024D02*
X012050Y015024D01*
X012050Y014925D02*
X008060Y014925D01*
X008060Y014827D02*
X012050Y014827D01*
X012051Y014728D02*
X008060Y014728D01*
X008060Y014630D02*
X012092Y014630D01*
X012133Y014531D02*
X008060Y014531D01*
X008024Y014433D02*
X012174Y014433D01*
X012264Y014334D02*
X007964Y014334D01*
X007841Y014236D02*
X012362Y014236D01*
X012521Y014137D02*
X003840Y014137D01*
X003840Y014039D02*
X013950Y014039D01*
X013950Y014137D02*
X013279Y014137D01*
X013438Y014236D02*
X013950Y014236D01*
X013950Y014334D02*
X013536Y014334D01*
X013626Y014433D02*
X013950Y014433D01*
X013950Y014531D02*
X013667Y014531D01*
X013708Y014630D02*
X013950Y014630D01*
X013950Y014728D02*
X013749Y014728D01*
X013750Y014827D02*
X013950Y014827D01*
X013950Y014925D02*
X013750Y014925D01*
X013750Y015024D02*
X013950Y015024D01*
X013950Y015122D02*
X013728Y015122D01*
X013687Y015221D02*
X013950Y015221D01*
X013950Y015319D02*
X013646Y015319D01*
X013585Y015418D02*
X013950Y015418D01*
X013950Y015516D02*
X013486Y015516D01*
X013388Y015615D02*
X013950Y015615D01*
X013950Y015713D02*
X013158Y015713D01*
X012642Y015713D02*
X001658Y015713D01*
X002085Y015418D02*
X006296Y015418D01*
X006256Y015319D02*
X002146Y015319D01*
X002187Y015221D02*
X006240Y015221D01*
X006240Y015122D02*
X002228Y015122D01*
X001779Y014137D02*
X003460Y014137D01*
X003460Y014039D02*
X000350Y014039D01*
X000350Y013940D02*
X003460Y013940D01*
X003460Y013842D02*
X000350Y013842D01*
X000350Y013743D02*
X003460Y013743D01*
X003460Y013645D02*
X000350Y013645D01*
X003570Y010394D02*
X003732Y010394D01*
X003691Y010296D02*
X003570Y010296D01*
X003570Y010197D02*
X003670Y010197D01*
X003670Y010099D02*
X003570Y010099D01*
X003570Y010000D02*
X003693Y010000D01*
X003733Y009902D02*
X003570Y009902D01*
X003570Y009803D02*
X003818Y009803D01*
X003971Y009705D02*
X003570Y009705D01*
X003570Y009606D02*
X003900Y009606D01*
X003772Y009508D02*
X003570Y009508D01*
X003570Y009409D02*
X003698Y009409D01*
X003655Y009311D02*
X003570Y009311D01*
X003570Y009212D02*
X003633Y009212D01*
X003570Y009114D02*
X004100Y009114D01*
X004100Y009212D02*
X004200Y009212D01*
X004200Y009200D02*
X004200Y009669D01*
X004272Y009657D01*
X004350Y009632D01*
X004423Y009595D01*
X004489Y009547D01*
X004547Y009489D01*
X004595Y009423D01*
X004632Y009350D01*
X004657Y009272D01*
X004669Y009200D01*
X004200Y009200D01*
X004200Y009114D02*
X004997Y009114D01*
X004899Y009015D02*
X004653Y009015D01*
X004615Y008917D02*
X004840Y008917D01*
X004799Y008818D02*
X004597Y008818D01*
X004696Y008720D02*
X004795Y008720D01*
X004794Y008621D02*
X004795Y008621D01*
X004667Y009212D02*
X006734Y009212D01*
X006752Y009168D02*
X006868Y009052D01*
X007018Y008990D01*
X007782Y008990D01*
X007932Y009052D01*
X008048Y009168D01*
X008110Y009318D01*
X008110Y009482D01*
X008048Y009632D01*
X007932Y009748D01*
X007782Y009810D01*
X007018Y009810D01*
X006868Y009748D01*
X006752Y009632D01*
X006690Y009482D01*
X006690Y009318D01*
X006752Y009168D01*
X006807Y009114D02*
X005553Y009114D01*
X005651Y009015D02*
X006958Y009015D01*
X006995Y008839D02*
X006927Y008817D01*
X006864Y008785D01*
X006807Y008743D01*
X006757Y008693D01*
X006715Y008636D01*
X006683Y008573D01*
X006661Y008505D01*
X006652Y008450D01*
X007350Y008450D01*
X007350Y008850D01*
X007065Y008850D01*
X006995Y008839D01*
X006930Y008818D02*
X005751Y008818D01*
X005755Y008720D02*
X006783Y008720D01*
X006708Y008621D02*
X005755Y008621D01*
X005716Y008523D02*
X006667Y008523D01*
X006652Y008350D02*
X006661Y008295D01*
X006683Y008227D01*
X005938Y008227D01*
X005840Y008326D02*
X006656Y008326D01*
X006652Y008350D02*
X007350Y008350D01*
X007450Y008350D01*
X007450Y008450D01*
X007350Y008450D01*
X007350Y008350D01*
X007350Y007950D01*
X007065Y007950D01*
X006995Y007961D01*
X006927Y007983D01*
X006864Y008015D01*
X006807Y008057D01*
X006757Y008107D01*
X006715Y008164D01*
X006683Y008227D01*
X006741Y008129D02*
X006037Y008129D01*
X006070Y008030D02*
X006844Y008030D01*
X007350Y008030D02*
X007450Y008030D01*
X007450Y007950D02*
X007735Y007950D01*
X007805Y007961D01*
X007873Y007983D01*
X007936Y008015D01*
X007993Y008057D01*
X008043Y008107D01*
X008085Y008164D01*
X008117Y008227D01*
X009670Y008227D01*
X009670Y008245D02*
X009670Y008055D01*
X009743Y007878D01*
X009878Y007743D01*
X010055Y007670D01*
X010245Y007670D01*
X010422Y007743D01*
X010557Y007878D01*
X010599Y007980D01*
X010720Y007980D01*
X010820Y008080D01*
X010980Y008240D01*
X010980Y007720D01*
X010830Y007570D01*
X010730Y007470D01*
X010730Y006470D01*
X010593Y006334D01*
X010557Y006422D01*
X010422Y006557D01*
X010245Y006630D01*
X010055Y006630D01*
X009878Y006557D01*
X009743Y006422D01*
X009670Y006245D01*
X009670Y006055D01*
X009743Y005878D01*
X009878Y005743D01*
X010055Y005670D01*
X010245Y005670D01*
X010422Y005743D01*
X010557Y005878D01*
X010599Y005980D01*
X010720Y005980D01*
X010820Y006080D01*
X010980Y006240D01*
X010980Y005720D01*
X010830Y005570D01*
X010730Y005470D01*
X010730Y004470D01*
X010593Y004334D01*
X010557Y004422D01*
X010422Y004557D01*
X010245Y004630D01*
X010055Y004630D01*
X009878Y004557D01*
X009743Y004422D01*
X009670Y004245D01*
X009670Y004055D01*
X009743Y003878D01*
X009878Y003743D01*
X010055Y003670D01*
X010245Y003670D01*
X010422Y003743D01*
X010557Y003878D01*
X010599Y003980D01*
X010720Y003980D01*
X010820Y004080D01*
X010980Y004240D01*
X010980Y003720D01*
X010730Y003470D01*
X010730Y002470D01*
X010593Y002334D01*
X010557Y002422D01*
X010422Y002557D01*
X010245Y002630D01*
X010055Y002630D01*
X009878Y002557D01*
X009743Y002422D01*
X009670Y002245D01*
X009670Y002055D01*
X009743Y001878D01*
X009878Y001743D01*
X010055Y001670D01*
X010245Y001670D01*
X010422Y001743D01*
X010557Y001878D01*
X010599Y001980D01*
X010720Y001980D01*
X010820Y002080D01*
X010980Y002240D01*
X010980Y000970D01*
X010830Y000820D01*
X010499Y000820D01*
X010557Y000878D01*
X010630Y001055D01*
X010630Y001245D01*
X010557Y001422D01*
X010422Y001557D01*
X010245Y001630D01*
X010055Y001630D01*
X009878Y001557D01*
X009743Y001422D01*
X009670Y001245D01*
X009670Y001055D01*
X009743Y000878D01*
X009801Y000820D01*
X004720Y000820D01*
X004588Y000953D01*
X004630Y001055D01*
X004630Y001245D01*
X004557Y001422D01*
X004422Y001557D01*
X004245Y001630D01*
X004055Y001630D01*
X003878Y001557D01*
X003743Y001422D01*
X003670Y001245D01*
X003670Y001055D01*
X003743Y000878D01*
X003878Y000743D01*
X004055Y000670D01*
X004245Y000670D01*
X004347Y000712D01*
X004580Y000480D01*
X010970Y000480D01*
X011070Y000580D01*
X011320Y000830D01*
X011320Y002830D01*
X011470Y002980D01*
X011477Y002980D01*
X011502Y002918D01*
X011618Y002802D01*
X011768Y002740D01*
X012532Y002740D01*
X012682Y002802D01*
X012798Y002918D01*
X012860Y003068D01*
X012860Y003232D01*
X012798Y003382D01*
X012682Y003498D01*
X012532Y003560D01*
X011768Y003560D01*
X011618Y003498D01*
X011502Y003382D01*
X011477Y003320D01*
X011330Y003320D01*
X011080Y003070D01*
X011070Y003060D01*
X011070Y003330D01*
X011320Y003580D01*
X011320Y004830D01*
X011470Y004980D01*
X011477Y004980D01*
X011502Y004918D01*
X011618Y004802D01*
X011768Y004740D01*
X012532Y004740D01*
X012682Y004802D01*
X012798Y004918D01*
X012860Y005068D01*
X012860Y005232D01*
X012798Y005382D01*
X012682Y005498D01*
X012532Y005560D01*
X011768Y005560D01*
X011618Y005498D01*
X011502Y005382D01*
X011477Y005320D01*
X011330Y005320D01*
X011080Y005070D01*
X011070Y005060D01*
X011070Y005330D01*
X011320Y005580D01*
X011320Y006830D01*
X011470Y006980D01*
X011477Y006980D01*
X011502Y006918D01*
X011618Y006802D01*
X011768Y006740D01*
X012532Y006740D01*
X012682Y006802D01*
X012798Y006918D01*
X012860Y007068D01*
X012860Y007232D01*
X012798Y007382D01*
X012682Y007498D01*
X012532Y007560D01*
X011768Y007560D01*
X011618Y007498D01*
X011502Y007382D01*
X011477Y007320D01*
X011330Y007320D01*
X011080Y007070D01*
X011070Y007060D01*
X011070Y007330D01*
X011320Y007580D01*
X011320Y008830D01*
X011470Y008980D01*
X011477Y008980D01*
X011502Y008918D01*
X011618Y008802D01*
X011768Y008740D01*
X012532Y008740D01*
X012682Y008802D01*
X012798Y008918D01*
X012860Y009068D01*
X012860Y009232D01*
X012798Y009382D01*
X012682Y009498D01*
X012532Y009560D01*
X011768Y009560D01*
X011618Y009498D01*
X011502Y009382D01*
X011477Y009320D01*
X011330Y009320D01*
X011080Y009070D01*
X011070Y009060D01*
X011070Y010830D01*
X011220Y010980D01*
X011477Y010980D01*
X011502Y010918D01*
X011618Y010802D01*
X011768Y010740D01*
X012532Y010740D01*
X012682Y010802D01*
X012798Y010918D01*
X012860Y011068D01*
X012860Y011232D01*
X012798Y011382D01*
X012682Y011498D01*
X012532Y011560D01*
X011768Y011560D01*
X011618Y011498D01*
X011502Y011382D01*
X011477Y011320D01*
X011080Y011320D01*
X010830Y011070D01*
X010730Y010970D01*
X010730Y008470D01*
X010593Y008334D01*
X010557Y008422D01*
X010422Y008557D01*
X010245Y008630D01*
X010055Y008630D01*
X009878Y008557D01*
X009743Y008422D01*
X009670Y008245D01*
X009703Y008326D02*
X008144Y008326D01*
X008148Y008350D02*
X007450Y008350D01*
X007450Y007950D01*
X007450Y008129D02*
X007350Y008129D01*
X007350Y008227D02*
X007450Y008227D01*
X007450Y008326D02*
X007350Y008326D01*
X007350Y008424D02*
X005741Y008424D01*
X005710Y008917D02*
X009727Y008917D01*
X009743Y008878D02*
X009878Y008743D01*
X010055Y008670D01*
X010245Y008670D01*
X010422Y008743D01*
X010557Y008878D01*
X010630Y009055D01*
X010630Y009245D01*
X010557Y009422D01*
X010422Y009557D01*
X010245Y009630D01*
X010055Y009630D01*
X009878Y009557D01*
X009743Y009422D01*
X009670Y009245D01*
X009670Y009055D01*
X009743Y008878D01*
X009803Y008818D02*
X007870Y008818D01*
X007873Y008817D02*
X007805Y008839D01*
X007735Y008850D01*
X007450Y008850D01*
X007450Y008450D01*
X008148Y008450D01*
X008139Y008505D01*
X008117Y008573D01*
X008085Y008636D01*
X008043Y008693D01*
X007993Y008743D01*
X007936Y008785D01*
X007873Y008817D01*
X008017Y008720D02*
X009935Y008720D01*
X010033Y008621D02*
X008092Y008621D01*
X008133Y008523D02*
X009844Y008523D01*
X009745Y008424D02*
X007450Y008424D01*
X007450Y008523D02*
X007350Y008523D01*
X007350Y008621D02*
X007450Y008621D01*
X007450Y008720D02*
X007350Y008720D01*
X007350Y008818D02*
X007450Y008818D01*
X007842Y009015D02*
X009686Y009015D01*
X009670Y009114D02*
X007993Y009114D01*
X008066Y009212D02*
X009670Y009212D01*
X009697Y009311D02*
X008107Y009311D01*
X008110Y009409D02*
X009738Y009409D01*
X009829Y009508D02*
X008099Y009508D01*
X008058Y009606D02*
X009997Y009606D01*
X010055Y009670D02*
X009878Y009743D01*
X009743Y009878D01*
X009670Y010055D01*
X009670Y010245D01*
X009743Y010422D01*
X009878Y010557D01*
X010055Y010630D01*
X010245Y010630D01*
X010422Y010557D01*
X010557Y010422D01*
X010630Y010245D01*
X010630Y010055D01*
X010557Y009878D01*
X010422Y009743D01*
X010245Y009670D01*
X010055Y009670D01*
X009971Y009705D02*
X007975Y009705D01*
X007798Y009803D02*
X009818Y009803D01*
X009733Y009902D02*
X004567Y009902D01*
X004607Y010000D02*
X009693Y010000D01*
X009670Y010099D02*
X004630Y010099D01*
X004630Y010197D02*
X009670Y010197D01*
X009691Y010296D02*
X004609Y010296D01*
X004568Y010394D02*
X006859Y010394D01*
X006864Y010390D02*
X006807Y010432D01*
X006757Y010482D01*
X006715Y010539D01*
X006683Y010602D01*
X006661Y010670D01*
X006652Y010725D01*
X007350Y010725D01*
X007450Y010725D01*
X007450Y010825D01*
X007350Y010825D01*
X007350Y011225D01*
X007065Y011225D01*
X006995Y011214D01*
X006927Y011192D01*
X006864Y011160D01*
X006807Y011118D01*
X006757Y011068D01*
X006715Y011011D01*
X006683Y010948D01*
X006661Y010880D01*
X006652Y010825D01*
X007350Y010825D01*
X007350Y010725D01*
X007350Y010325D01*
X007065Y010325D01*
X006995Y010336D01*
X006927Y010358D01*
X006864Y010390D01*
X006749Y010493D02*
X004486Y010493D01*
X004340Y010591D02*
X006689Y010591D01*
X006658Y010690D02*
X004293Y010690D01*
X004467Y010788D02*
X007350Y010788D01*
X007350Y010690D02*
X007450Y010690D01*
X007450Y010725D02*
X007450Y010325D01*
X007735Y010325D01*
X007805Y010336D01*
X007873Y010358D01*
X007936Y010390D01*
X007993Y010432D01*
X008043Y010482D01*
X008085Y010539D01*
X008117Y010602D01*
X008139Y010670D01*
X008148Y010725D01*
X007450Y010725D01*
X007450Y010788D02*
X009833Y010788D01*
X009878Y010743D02*
X009743Y010878D01*
X009670Y011055D01*
X009670Y011245D01*
X009743Y011422D01*
X009878Y011557D01*
X010055Y011630D01*
X010245Y011630D01*
X010422Y011557D01*
X010557Y011422D01*
X010630Y011245D01*
X010630Y011055D01*
X010557Y010878D01*
X010422Y010743D01*
X010245Y010670D01*
X010055Y010670D01*
X009878Y010743D01*
X010007Y010690D02*
X008142Y010690D01*
X008111Y010591D02*
X009960Y010591D01*
X009814Y010493D02*
X008051Y010493D01*
X007941Y010394D02*
X009732Y010394D01*
X009740Y010887D02*
X008137Y010887D01*
X008139Y010880D02*
X008117Y010948D01*
X008085Y011011D01*
X008043Y011068D01*
X007993Y011118D01*
X007936Y011160D01*
X007873Y011192D01*
X007805Y011214D01*
X007735Y011225D01*
X007450Y011225D01*
X007450Y010825D01*
X008148Y010825D01*
X008139Y010880D01*
X008098Y010985D02*
X009699Y010985D01*
X009670Y011084D02*
X008028Y011084D01*
X007892Y011182D02*
X009670Y011182D01*
X009685Y011281D02*
X004615Y011281D01*
X004630Y011182D02*
X006908Y011182D01*
X006772Y011084D02*
X004630Y011084D01*
X004601Y010985D02*
X006702Y010985D01*
X006663Y010887D02*
X004560Y010887D01*
X004575Y011379D02*
X006985Y011379D01*
X007018Y011365D02*
X006868Y011427D01*
X006752Y011543D01*
X006690Y011693D01*
X006690Y011857D01*
X006752Y012007D01*
X006868Y012123D01*
X007018Y012185D01*
X007782Y012185D01*
X007932Y012123D01*
X008048Y012007D01*
X008110Y011857D01*
X008110Y011693D01*
X008048Y011543D01*
X007932Y011427D01*
X007782Y011365D01*
X007018Y011365D01*
X006818Y011478D02*
X004501Y011478D01*
X004376Y011576D02*
X006739Y011576D01*
X006698Y011675D02*
X004256Y011675D01*
X004452Y011773D02*
X006690Y011773D01*
X006696Y011872D02*
X004550Y011872D01*
X004595Y011970D02*
X006737Y011970D01*
X006814Y012069D02*
X004630Y012069D01*
X004630Y012167D02*
X006975Y012167D01*
X006745Y012670D02*
X006555Y012670D01*
X006378Y012743D01*
X006243Y012878D01*
X006170Y013055D01*
X006170Y013245D01*
X006243Y013422D01*
X006378Y013557D01*
X006555Y013630D01*
X006745Y013630D01*
X006922Y013557D01*
X007057Y013422D01*
X007130Y013245D01*
X007130Y013055D01*
X007057Y012878D01*
X006922Y012743D01*
X006745Y012670D01*
X006937Y012758D02*
X007363Y012758D01*
X007378Y012743D02*
X007555Y012670D01*
X007745Y012670D01*
X007922Y012743D01*
X008057Y012878D01*
X008130Y013055D01*
X008130Y013245D01*
X008057Y013422D01*
X007922Y013557D01*
X007745Y013630D01*
X007555Y013630D01*
X007378Y013557D01*
X007243Y013422D01*
X007170Y013245D01*
X007170Y013055D01*
X007243Y012878D01*
X007378Y012743D01*
X007265Y012857D02*
X007035Y012857D01*
X007089Y012955D02*
X007211Y012955D01*
X007170Y013054D02*
X007130Y013054D01*
X007130Y013152D02*
X007170Y013152D01*
X007172Y013251D02*
X007128Y013251D01*
X007087Y013349D02*
X007213Y013349D01*
X007269Y013448D02*
X007031Y013448D01*
X006933Y013546D02*
X007367Y013546D01*
X007933Y013546D02*
X008367Y013546D01*
X008378Y013557D02*
X008243Y013422D01*
X008170Y013245D01*
X008170Y013055D01*
X008243Y012878D01*
X008378Y012743D01*
X008555Y012670D01*
X008745Y012670D01*
X008922Y012743D01*
X009057Y012878D01*
X009130Y013055D01*
X009130Y013245D01*
X009057Y013422D01*
X008922Y013557D01*
X008745Y013630D01*
X008555Y013630D01*
X008378Y013557D01*
X008269Y013448D02*
X008031Y013448D01*
X008087Y013349D02*
X008213Y013349D01*
X008172Y013251D02*
X008128Y013251D01*
X008130Y013152D02*
X008170Y013152D01*
X008170Y013054D02*
X008130Y013054D01*
X008089Y012955D02*
X008211Y012955D01*
X008265Y012857D02*
X008035Y012857D01*
X007937Y012758D02*
X008363Y012758D01*
X008937Y012758D02*
X009363Y012758D01*
X009378Y012743D02*
X009555Y012670D01*
X009745Y012670D01*
X009922Y012743D01*
X010057Y012878D01*
X010130Y013055D01*
X010130Y013245D01*
X010057Y013422D01*
X009922Y013557D01*
X009745Y013630D01*
X009555Y013630D01*
X009378Y013557D01*
X009243Y013422D01*
X009170Y013245D01*
X009170Y013055D01*
X009243Y012878D01*
X009378Y012743D01*
X009265Y012857D02*
X009035Y012857D01*
X009089Y012955D02*
X009211Y012955D01*
X009170Y013054D02*
X009130Y013054D01*
X009130Y013152D02*
X009170Y013152D01*
X009172Y013251D02*
X009128Y013251D01*
X009087Y013349D02*
X009213Y013349D01*
X009269Y013448D02*
X009031Y013448D01*
X008933Y013546D02*
X009367Y013546D01*
X009933Y013546D02*
X011735Y013546D01*
X011768Y013560D02*
X011618Y013498D01*
X011502Y013382D01*
X011477Y013320D01*
X011330Y013320D01*
X010955Y012945D01*
X010855Y012845D01*
X010855Y012595D01*
X010593Y012334D01*
X010557Y012422D01*
X010422Y012557D01*
X010245Y012630D01*
X010055Y012630D01*
X009878Y012557D01*
X009743Y012422D01*
X009670Y012245D01*
X009670Y012055D01*
X009743Y011878D01*
X009878Y011743D01*
X010055Y011670D01*
X010245Y011670D01*
X010422Y011743D01*
X010557Y011878D01*
X010599Y011980D01*
X010720Y011980D01*
X010820Y012080D01*
X011195Y012455D01*
X011195Y012705D01*
X011470Y012980D01*
X011477Y012980D01*
X011502Y012918D01*
X011618Y012802D01*
X011768Y012740D01*
X012532Y012740D01*
X012682Y012802D01*
X012798Y012918D01*
X012860Y013068D01*
X012860Y013232D01*
X012798Y013382D01*
X012682Y013498D01*
X012532Y013560D01*
X011768Y013560D01*
X011568Y013448D02*
X010031Y013448D01*
X010087Y013349D02*
X011489Y013349D01*
X011260Y013251D02*
X010128Y013251D01*
X010130Y013152D02*
X011162Y013152D01*
X011063Y013054D02*
X010130Y013054D01*
X010089Y012955D02*
X010965Y012955D01*
X010866Y012857D02*
X010035Y012857D01*
X009937Y012758D02*
X010855Y012758D01*
X010855Y012660D02*
X003909Y012660D01*
X003840Y012758D02*
X004363Y012758D01*
X004378Y012743D02*
X004555Y012670D01*
X004745Y012670D01*
X004922Y012743D01*
X005057Y012878D01*
X005130Y013055D01*
X005130Y013245D01*
X005057Y013422D01*
X004922Y013557D01*
X004745Y013630D01*
X004555Y013630D01*
X004378Y013557D01*
X004243Y013422D01*
X004170Y013245D01*
X004170Y013055D01*
X004243Y012878D01*
X004378Y012743D01*
X004265Y012857D02*
X003840Y012857D01*
X003840Y012955D02*
X004211Y012955D01*
X004170Y013054D02*
X003840Y013054D01*
X003840Y013152D02*
X004170Y013152D01*
X004172Y013251D02*
X003840Y013251D01*
X003840Y013349D02*
X004213Y013349D01*
X004269Y013448D02*
X003840Y013448D01*
X003840Y013546D02*
X004367Y013546D01*
X003840Y013645D02*
X013950Y013645D01*
X013950Y013743D02*
X003840Y013743D01*
X003840Y013842D02*
X013950Y013842D01*
X013950Y013940D02*
X003840Y013940D01*
X004933Y013546D02*
X005367Y013546D01*
X005378Y013557D02*
X005243Y013422D01*
X005170Y013245D01*
X005170Y013055D01*
X005243Y012878D01*
X005378Y012743D01*
X005555Y012670D01*
X005745Y012670D01*
X005922Y012743D01*
X006057Y012878D01*
X006130Y013055D01*
X006130Y013245D01*
X006057Y013422D01*
X005922Y013557D01*
X005745Y013630D01*
X005555Y013630D01*
X005378Y013557D01*
X005269Y013448D02*
X005031Y013448D01*
X005087Y013349D02*
X005213Y013349D01*
X005172Y013251D02*
X005128Y013251D01*
X005130Y013152D02*
X005170Y013152D01*
X005170Y013054D02*
X005130Y013054D01*
X005089Y012955D02*
X005211Y012955D01*
X005265Y012857D02*
X005035Y012857D01*
X004937Y012758D02*
X005363Y012758D01*
X005937Y012758D02*
X006363Y012758D01*
X006265Y012857D02*
X006035Y012857D01*
X006089Y012955D02*
X006211Y012955D01*
X006170Y013054D02*
X006130Y013054D01*
X006130Y013152D02*
X006170Y013152D01*
X006172Y013251D02*
X006128Y013251D01*
X006087Y013349D02*
X006213Y013349D01*
X006269Y013448D02*
X006031Y013448D01*
X005933Y013546D02*
X006367Y013546D01*
X007825Y012167D02*
X009670Y012167D01*
X009670Y012069D02*
X007986Y012069D01*
X008063Y011970D02*
X009705Y011970D01*
X009750Y011872D02*
X008104Y011872D01*
X008110Y011773D02*
X009848Y011773D01*
X009924Y011576D02*
X008061Y011576D01*
X008102Y011675D02*
X010044Y011675D01*
X010256Y011675D02*
X013950Y011675D01*
X013950Y011773D02*
X012611Y011773D01*
X012682Y011802D02*
X012798Y011918D01*
X012860Y012068D01*
X012860Y012232D01*
X012798Y012382D01*
X012682Y012498D01*
X012532Y012560D01*
X011768Y012560D01*
X011618Y012498D01*
X011502Y012382D01*
X011440Y012232D01*
X011440Y012068D01*
X011502Y011918D01*
X011618Y011802D01*
X011768Y011740D01*
X012532Y011740D01*
X012682Y011802D01*
X012751Y011872D02*
X013950Y011872D01*
X013950Y011970D02*
X012819Y011970D01*
X012860Y012069D02*
X013950Y012069D01*
X013950Y012167D02*
X012860Y012167D01*
X012846Y012266D02*
X013950Y012266D01*
X013950Y012364D02*
X012805Y012364D01*
X012717Y012463D02*
X013950Y012463D01*
X013950Y012561D02*
X011195Y012561D01*
X011195Y012463D02*
X011583Y012463D01*
X011495Y012364D02*
X011104Y012364D01*
X011006Y012266D02*
X011454Y012266D01*
X011440Y012167D02*
X010907Y012167D01*
X010809Y012069D02*
X011440Y012069D01*
X011481Y011970D02*
X010595Y011970D01*
X010550Y011872D02*
X011549Y011872D01*
X011689Y011773D02*
X010452Y011773D01*
X010376Y011576D02*
X013950Y011576D01*
X013950Y011478D02*
X012702Y011478D01*
X012799Y011379D02*
X013950Y011379D01*
X013950Y011281D02*
X012840Y011281D01*
X012860Y011182D02*
X013950Y011182D01*
X013950Y011084D02*
X012860Y011084D01*
X012825Y010985D02*
X013950Y010985D01*
X013950Y010887D02*
X012766Y010887D01*
X012647Y010788D02*
X013950Y010788D01*
X013950Y010690D02*
X011070Y010690D01*
X011070Y010788D02*
X011652Y010788D01*
X011534Y010887D02*
X011127Y010887D01*
X011070Y010591D02*
X013950Y010591D01*
X013950Y010493D02*
X012687Y010493D01*
X012682Y010498D02*
X012532Y010560D01*
X011768Y010560D01*
X011618Y010498D01*
X011502Y010382D01*
X011440Y010232D01*
X011440Y010068D01*
X011502Y009918D01*
X011618Y009802D01*
X011768Y009740D01*
X012532Y009740D01*
X012682Y009802D01*
X012798Y009918D01*
X012860Y010068D01*
X012860Y010232D01*
X012798Y010382D01*
X012682Y010498D01*
X012786Y010394D02*
X013950Y010394D01*
X013950Y010296D02*
X012834Y010296D01*
X012860Y010197D02*
X013950Y010197D01*
X013950Y010099D02*
X012860Y010099D01*
X012832Y010000D02*
X013950Y010000D01*
X013950Y009902D02*
X012781Y009902D01*
X012683Y009803D02*
X013950Y009803D01*
X013950Y009705D02*
X011070Y009705D01*
X011070Y009803D02*
X011617Y009803D01*
X011519Y009902D02*
X011070Y009902D01*
X011070Y010000D02*
X011468Y010000D01*
X011440Y010099D02*
X011070Y010099D01*
X011070Y010197D02*
X011440Y010197D01*
X011466Y010296D02*
X011070Y010296D01*
X011070Y010394D02*
X011514Y010394D01*
X011613Y010493D02*
X011070Y010493D01*
X010730Y010493D02*
X010486Y010493D01*
X010568Y010394D02*
X010730Y010394D01*
X010730Y010296D02*
X010609Y010296D01*
X010630Y010197D02*
X010730Y010197D01*
X010730Y010099D02*
X010630Y010099D01*
X010607Y010000D02*
X010730Y010000D01*
X010730Y009902D02*
X010567Y009902D01*
X010482Y009803D02*
X010730Y009803D01*
X010730Y009705D02*
X010329Y009705D01*
X010303Y009606D02*
X010730Y009606D01*
X010730Y009508D02*
X010471Y009508D01*
X010562Y009409D02*
X010730Y009409D01*
X010730Y009311D02*
X010603Y009311D01*
X010630Y009212D02*
X010730Y009212D01*
X010730Y009114D02*
X010630Y009114D01*
X010614Y009015D02*
X010730Y009015D01*
X010730Y008917D02*
X010573Y008917D01*
X010497Y008818D02*
X010730Y008818D01*
X010730Y008720D02*
X010365Y008720D01*
X010267Y008621D02*
X010730Y008621D01*
X010730Y008523D02*
X010456Y008523D01*
X010555Y008424D02*
X010684Y008424D01*
X010967Y008227D02*
X010980Y008227D01*
X010980Y008129D02*
X010869Y008129D01*
X010770Y008030D02*
X010980Y008030D01*
X010980Y007932D02*
X010579Y007932D01*
X010512Y007833D02*
X010980Y007833D01*
X010980Y007735D02*
X010401Y007735D01*
X010422Y007557D02*
X010245Y007630D01*
X010055Y007630D01*
X009878Y007557D01*
X009743Y007422D01*
X009670Y007245D01*
X009670Y007055D01*
X009743Y006878D01*
X009878Y006743D01*
X010055Y006670D01*
X010245Y006670D01*
X010422Y006743D01*
X010557Y006878D01*
X010630Y007055D01*
X010630Y007245D01*
X010557Y007422D01*
X010422Y007557D01*
X010441Y007538D02*
X010797Y007538D01*
X010730Y007439D02*
X010540Y007439D01*
X010591Y007341D02*
X010730Y007341D01*
X010730Y007242D02*
X010630Y007242D01*
X010630Y007144D02*
X010730Y007144D01*
X010730Y007045D02*
X010626Y007045D01*
X010585Y006947D02*
X010730Y006947D01*
X010730Y006848D02*
X010527Y006848D01*
X010428Y006750D02*
X010730Y006750D01*
X010730Y006651D02*
X007869Y006651D01*
X007932Y006677D02*
X008048Y006793D01*
X008110Y006943D01*
X008110Y007107D01*
X008048Y007257D01*
X007932Y007373D01*
X007782Y007435D01*
X007018Y007435D01*
X006868Y007373D01*
X006752Y007257D01*
X006690Y007107D01*
X006690Y006943D01*
X006752Y006793D01*
X006868Y006677D01*
X007018Y006615D01*
X007782Y006615D01*
X007932Y006677D01*
X008004Y006750D02*
X009872Y006750D01*
X009773Y006848D02*
X008070Y006848D01*
X008110Y006947D02*
X009715Y006947D01*
X009674Y007045D02*
X008110Y007045D01*
X008095Y007144D02*
X009670Y007144D01*
X009670Y007242D02*
X008054Y007242D01*
X007964Y007341D02*
X009709Y007341D01*
X009760Y007439D02*
X006070Y007439D01*
X006070Y007341D02*
X006836Y007341D01*
X006746Y007242D02*
X005982Y007242D01*
X005884Y007144D02*
X006705Y007144D01*
X006690Y007045D02*
X005785Y007045D01*
X006070Y007538D02*
X009859Y007538D01*
X009899Y007735D02*
X006070Y007735D01*
X006070Y007833D02*
X009788Y007833D01*
X009721Y007932D02*
X006070Y007932D01*
X006070Y007636D02*
X010896Y007636D01*
X011179Y007439D02*
X011559Y007439D01*
X011485Y007341D02*
X011081Y007341D01*
X011070Y007242D02*
X011252Y007242D01*
X011153Y007144D02*
X011070Y007144D01*
X011338Y006848D02*
X011572Y006848D01*
X011491Y006947D02*
X011437Y006947D01*
X011320Y006750D02*
X011745Y006750D01*
X011768Y006560D02*
X011618Y006498D01*
X011502Y006382D01*
X011440Y006232D01*
X011440Y006068D01*
X011502Y005918D01*
X011618Y005802D01*
X011768Y005740D01*
X012532Y005740D01*
X012682Y005802D01*
X012798Y005918D01*
X012860Y006068D01*
X012860Y006232D01*
X012798Y006382D01*
X012682Y006498D01*
X012532Y006560D01*
X011768Y006560D01*
X011750Y006553D02*
X011320Y006553D01*
X011320Y006651D02*
X013950Y006651D01*
X013950Y006553D02*
X012550Y006553D01*
X012555Y006750D02*
X013950Y006750D01*
X013950Y006848D02*
X012728Y006848D01*
X012809Y006947D02*
X013950Y006947D01*
X013950Y007045D02*
X012850Y007045D01*
X012860Y007144D02*
X013950Y007144D01*
X013950Y007242D02*
X012856Y007242D01*
X012815Y007341D02*
X013950Y007341D01*
X013950Y007439D02*
X012741Y007439D01*
X012586Y007538D02*
X013950Y007538D01*
X013950Y007636D02*
X011320Y007636D01*
X011320Y007735D02*
X013950Y007735D01*
X013950Y007833D02*
X012713Y007833D01*
X012682Y007802D02*
X012798Y007918D01*
X012860Y008068D01*
X012860Y008232D01*
X012798Y008382D01*
X012682Y008498D01*
X012532Y008560D01*
X011768Y008560D01*
X011618Y008498D01*
X011502Y008382D01*
X011440Y008232D01*
X011440Y008068D01*
X011502Y007918D01*
X011618Y007802D01*
X011768Y007740D01*
X012532Y007740D01*
X012682Y007802D01*
X012803Y007932D02*
X013950Y007932D01*
X013950Y008030D02*
X012844Y008030D01*
X012860Y008129D02*
X013950Y008129D01*
X013950Y008227D02*
X012860Y008227D01*
X012821Y008326D02*
X013950Y008326D01*
X013950Y008424D02*
X012756Y008424D01*
X012622Y008523D02*
X013950Y008523D01*
X013950Y008621D02*
X011320Y008621D01*
X011320Y008523D02*
X011678Y008523D01*
X011544Y008424D02*
X011320Y008424D01*
X011320Y008326D02*
X011479Y008326D01*
X011440Y008227D02*
X011320Y008227D01*
X011320Y008129D02*
X011440Y008129D01*
X011456Y008030D02*
X011320Y008030D01*
X011320Y007932D02*
X011497Y007932D01*
X011587Y007833D02*
X011320Y007833D01*
X011278Y007538D02*
X011714Y007538D01*
X010730Y006553D02*
X010426Y006553D01*
X010525Y006454D02*
X010714Y006454D01*
X010615Y006356D02*
X010584Y006356D01*
X010800Y006060D02*
X010980Y006060D01*
X010980Y005962D02*
X010591Y005962D01*
X010542Y005863D02*
X010980Y005863D01*
X010980Y005765D02*
X010443Y005765D01*
X010396Y005568D02*
X010827Y005568D01*
X010730Y005469D02*
X010510Y005469D01*
X010557Y005422D02*
X010422Y005557D01*
X010245Y005630D01*
X010055Y005630D01*
X009878Y005557D01*
X009743Y005422D01*
X009670Y005245D01*
X009670Y005055D01*
X009743Y004878D01*
X009878Y004743D01*
X010055Y004670D01*
X010245Y004670D01*
X010422Y004743D01*
X010557Y004878D01*
X010630Y005055D01*
X010630Y005245D01*
X010557Y005422D01*
X010578Y005371D02*
X010730Y005371D01*
X010730Y005272D02*
X010619Y005272D01*
X010630Y005174D02*
X010730Y005174D01*
X010730Y005075D02*
X010630Y005075D01*
X010598Y004977D02*
X010730Y004977D01*
X010730Y004878D02*
X010557Y004878D01*
X010458Y004780D02*
X010730Y004780D01*
X010730Y004681D02*
X010272Y004681D01*
X010360Y004583D02*
X010730Y004583D01*
X010730Y004484D02*
X010495Y004484D01*
X010572Y004386D02*
X010645Y004386D01*
X010830Y004090D02*
X010980Y004090D01*
X010980Y003992D02*
X010732Y003992D01*
X010563Y003893D02*
X010980Y003893D01*
X010980Y003795D02*
X010473Y003795D01*
X010308Y003696D02*
X010956Y003696D01*
X010857Y003598D02*
X010324Y003598D01*
X010245Y003630D02*
X010422Y003557D01*
X010557Y003422D01*
X010630Y003245D01*
X010630Y003055D01*
X010557Y002878D01*
X010422Y002743D01*
X010245Y002670D01*
X010055Y002670D01*
X009878Y002743D01*
X009743Y002878D01*
X009670Y003055D01*
X009670Y003245D01*
X009743Y003422D01*
X009878Y003557D01*
X010055Y003630D01*
X010245Y003630D01*
X009992Y003696D02*
X007450Y003696D01*
X007450Y003700D02*
X008148Y003700D01*
X008139Y003755D01*
X008117Y003823D01*
X008085Y003886D01*
X008043Y003943D01*
X007993Y003993D01*
X007936Y004035D01*
X007873Y004067D01*
X007805Y004089D01*
X007735Y004100D01*
X007450Y004100D01*
X007450Y003700D01*
X007350Y003700D01*
X007350Y004100D01*
X007065Y004100D01*
X006995Y004089D01*
X006927Y004067D01*
X006864Y004035D01*
X006807Y003993D01*
X006757Y003943D01*
X006715Y003886D01*
X006683Y003823D01*
X006661Y003755D01*
X006652Y003700D01*
X007350Y003700D01*
X007350Y003600D01*
X007450Y003600D01*
X007450Y003700D01*
X007450Y003795D02*
X007350Y003795D01*
X007350Y003893D02*
X007450Y003893D01*
X007450Y003992D02*
X007350Y003992D01*
X007350Y004090D02*
X007450Y004090D01*
X007798Y004090D02*
X009670Y004090D01*
X009670Y004189D02*
X005555Y004189D01*
X005547Y004181D02*
X005682Y004316D01*
X005755Y004492D01*
X005755Y004683D01*
X005682Y004859D01*
X005547Y004994D01*
X005370Y005067D01*
X005180Y005067D01*
X005003Y004994D01*
X004868Y004859D01*
X004795Y004683D01*
X004795Y004492D01*
X004868Y004316D01*
X005003Y004181D01*
X005180Y004108D01*
X005370Y004108D01*
X005547Y004181D01*
X005653Y004287D02*
X006905Y004287D01*
X006868Y004302D02*
X007018Y004240D01*
X007782Y004240D01*
X007932Y004302D01*
X008048Y004418D01*
X008110Y004568D01*
X008110Y004732D01*
X008048Y004882D01*
X007932Y004998D01*
X007782Y005060D01*
X007018Y005060D01*
X006868Y004998D01*
X006752Y004882D01*
X006690Y004732D01*
X006690Y004568D01*
X006752Y004418D01*
X006868Y004302D01*
X006785Y004386D02*
X005711Y004386D01*
X005752Y004484D02*
X006725Y004484D01*
X006690Y004583D02*
X005755Y004583D01*
X005755Y004681D02*
X006690Y004681D01*
X006710Y004780D02*
X005715Y004780D01*
X005663Y004878D02*
X006751Y004878D01*
X006847Y004977D02*
X005565Y004977D01*
X004985Y004977D02*
X004598Y004977D01*
X004630Y005055D02*
X004630Y005245D01*
X004557Y005422D01*
X004422Y005557D01*
X004245Y005630D01*
X004055Y005630D01*
X003878Y005557D01*
X003743Y005422D01*
X003707Y005334D01*
X003445Y005595D01*
X003445Y005845D01*
X003070Y006220D01*
X003070Y006220D01*
X002970Y006320D01*
X002823Y006320D01*
X002798Y006382D01*
X002682Y006498D01*
X002532Y006560D01*
X001768Y006560D01*
X001618Y006498D01*
X001502Y006382D01*
X001440Y006232D01*
X001440Y006068D01*
X001502Y005918D01*
X001618Y005802D01*
X001768Y005740D01*
X002532Y005740D01*
X002682Y005802D01*
X002798Y005918D01*
X002823Y005980D01*
X002830Y005980D01*
X003105Y005705D01*
X003105Y005455D01*
X003580Y004980D01*
X003701Y004980D01*
X003743Y004878D01*
X003878Y004743D01*
X004055Y004670D01*
X004245Y004670D01*
X004422Y004743D01*
X004557Y004878D01*
X004630Y005055D01*
X004630Y005075D02*
X009670Y005075D01*
X009670Y005174D02*
X004630Y005174D01*
X004619Y005272D02*
X009681Y005272D01*
X009722Y005371D02*
X004578Y005371D01*
X004510Y005469D02*
X009790Y005469D01*
X009904Y005568D02*
X004396Y005568D01*
X004422Y005743D02*
X004557Y005878D01*
X004630Y006055D01*
X004630Y006245D01*
X004557Y006422D01*
X004422Y006557D01*
X004245Y006630D01*
X004055Y006630D01*
X003878Y006557D01*
X003743Y006422D01*
X003670Y006245D01*
X003670Y006055D01*
X003743Y005878D01*
X003878Y005743D01*
X004055Y005670D01*
X004245Y005670D01*
X004422Y005743D01*
X004443Y005765D02*
X006733Y005765D01*
X006715Y005789D02*
X006757Y005732D01*
X006807Y005682D01*
X006864Y005640D01*
X006927Y005608D01*
X006995Y005586D01*
X007065Y005575D01*
X007350Y005575D01*
X007350Y005975D01*
X007450Y005975D01*
X007450Y006075D01*
X007350Y006075D01*
X007350Y006475D01*
X007065Y006475D01*
X006995Y006464D01*
X006927Y006442D01*
X006864Y006410D01*
X006807Y006368D01*
X006757Y006318D01*
X006715Y006261D01*
X006683Y006198D01*
X006661Y006130D01*
X006652Y006075D01*
X007350Y006075D01*
X007350Y005975D01*
X006652Y005975D01*
X006661Y005920D01*
X006683Y005852D01*
X006715Y005789D01*
X006679Y005863D02*
X004542Y005863D01*
X004591Y005962D02*
X006654Y005962D01*
X006670Y006159D02*
X004630Y006159D01*
X004625Y006257D02*
X006713Y006257D01*
X006794Y006356D02*
X004584Y006356D01*
X004525Y006454D02*
X006964Y006454D01*
X006931Y006651D02*
X000350Y006651D01*
X000350Y006553D02*
X001750Y006553D01*
X001768Y006740D02*
X001618Y006802D01*
X001502Y006918D01*
X001440Y007068D01*
X001440Y007232D01*
X001502Y007382D01*
X001618Y007498D01*
X001768Y007560D01*
X002532Y007560D01*
X002682Y007498D01*
X002798Y007382D01*
X002860Y007232D01*
X002860Y007068D01*
X002798Y006918D01*
X002682Y006802D01*
X002532Y006740D01*
X001768Y006740D01*
X001745Y006750D02*
X000350Y006750D01*
X000350Y006848D02*
X001572Y006848D01*
X001491Y006947D02*
X000350Y006947D01*
X000350Y007045D02*
X001450Y007045D01*
X001440Y007144D02*
X000350Y007144D01*
X000350Y007242D02*
X001444Y007242D01*
X001485Y007341D02*
X000350Y007341D01*
X000350Y007439D02*
X001559Y007439D01*
X001714Y007538D02*
X000350Y007538D01*
X000350Y007636D02*
X003105Y007636D01*
X003105Y007538D02*
X002586Y007538D01*
X002741Y007439D02*
X003121Y007439D01*
X003219Y007341D02*
X002815Y007341D01*
X002856Y007242D02*
X003318Y007242D01*
X003416Y007144D02*
X002860Y007144D01*
X002850Y007045D02*
X003515Y007045D01*
X003715Y006947D02*
X002809Y006947D01*
X002728Y006848D02*
X003773Y006848D01*
X003872Y006750D02*
X002555Y006750D01*
X002550Y006553D02*
X003874Y006553D01*
X003775Y006454D02*
X002726Y006454D01*
X002809Y006356D02*
X003716Y006356D01*
X003675Y006257D02*
X003033Y006257D01*
X003132Y006159D02*
X003670Y006159D01*
X003670Y006060D02*
X003230Y006060D01*
X003329Y005962D02*
X003709Y005962D01*
X003758Y005863D02*
X003427Y005863D01*
X003445Y005765D02*
X003857Y005765D01*
X003904Y005568D02*
X003473Y005568D01*
X003445Y005666D02*
X006829Y005666D01*
X007350Y005666D02*
X007450Y005666D01*
X007450Y005575D02*
X007735Y005575D01*
X007805Y005586D01*
X007873Y005608D01*
X007936Y005640D01*
X007993Y005682D01*
X008043Y005732D01*
X008085Y005789D01*
X008117Y005852D01*
X008139Y005920D01*
X008148Y005975D01*
X007450Y005975D01*
X007450Y005575D01*
X007450Y005765D02*
X007350Y005765D01*
X007350Y005863D02*
X007450Y005863D01*
X007450Y005962D02*
X007350Y005962D01*
X007350Y006060D02*
X004630Y006060D01*
X004426Y006553D02*
X009874Y006553D01*
X009775Y006454D02*
X007836Y006454D01*
X007805Y006464D02*
X007735Y006475D01*
X007450Y006475D01*
X007450Y006075D01*
X008148Y006075D01*
X008139Y006130D01*
X008117Y006198D01*
X008085Y006261D01*
X008043Y006318D01*
X007993Y006368D01*
X007936Y006410D01*
X007873Y006442D01*
X007805Y006464D01*
X008006Y006356D02*
X009716Y006356D01*
X009675Y006257D02*
X008087Y006257D01*
X008130Y006159D02*
X009670Y006159D01*
X009670Y006060D02*
X007450Y006060D01*
X007450Y006159D02*
X007350Y006159D01*
X007350Y006257D02*
X007450Y006257D01*
X007450Y006356D02*
X007350Y006356D01*
X007350Y006454D02*
X007450Y006454D01*
X008146Y005962D02*
X009709Y005962D01*
X009758Y005863D02*
X008121Y005863D01*
X008067Y005765D02*
X009857Y005765D01*
X009702Y004977D02*
X007953Y004977D01*
X008049Y004878D02*
X009743Y004878D01*
X009842Y004780D02*
X008090Y004780D01*
X008110Y004681D02*
X010028Y004681D01*
X009940Y004583D02*
X008110Y004583D01*
X008075Y004484D02*
X009805Y004484D01*
X009728Y004386D02*
X008015Y004386D01*
X007895Y004287D02*
X009687Y004287D01*
X009696Y003992D02*
X007995Y003992D01*
X008080Y003893D02*
X009737Y003893D01*
X009827Y003795D02*
X008126Y003795D01*
X008148Y003600D02*
X007450Y003600D01*
X007450Y003200D01*
X007735Y003200D01*
X007805Y003211D01*
X007873Y003233D01*
X007936Y003265D01*
X007993Y003307D01*
X008043Y003357D01*
X008085Y003414D01*
X008117Y003477D01*
X008139Y003545D01*
X008148Y003600D01*
X008147Y003598D02*
X009976Y003598D01*
X009820Y003499D02*
X008124Y003499D01*
X008075Y003401D02*
X009734Y003401D01*
X009693Y003302D02*
X007987Y003302D01*
X007758Y003204D02*
X009670Y003204D01*
X009670Y003105D02*
X004630Y003105D01*
X004630Y003055D02*
X004630Y003245D01*
X004557Y003422D01*
X004422Y003557D01*
X004245Y003630D01*
X004055Y003630D01*
X003878Y003557D01*
X003743Y003422D01*
X003707Y003334D01*
X003445Y003595D01*
X003445Y003845D01*
X003070Y004220D01*
X002970Y004320D01*
X002823Y004320D01*
X002798Y004382D01*
X002682Y004498D01*
X002532Y004560D01*
X001768Y004560D01*
X001618Y004498D01*
X001502Y004382D01*
X001440Y004232D01*
X001440Y004068D01*
X001502Y003918D01*
X001618Y003802D01*
X001768Y003740D01*
X002532Y003740D01*
X002682Y003802D01*
X002798Y003918D01*
X002823Y003980D01*
X002830Y003980D01*
X003105Y003705D01*
X003105Y003455D01*
X003205Y003355D01*
X003580Y002980D01*
X003701Y002980D01*
X003743Y002878D01*
X003878Y002743D01*
X004055Y002670D01*
X004245Y002670D01*
X004422Y002743D01*
X004557Y002878D01*
X004630Y003055D01*
X004610Y003007D02*
X009690Y003007D01*
X009731Y002908D02*
X004569Y002908D01*
X004488Y002810D02*
X009812Y002810D01*
X009956Y002711D02*
X004344Y002711D01*
X004288Y002613D02*
X006858Y002613D01*
X006868Y002623D02*
X006752Y002507D01*
X006690Y002357D01*
X006690Y002193D01*
X006752Y002043D01*
X006868Y001927D01*
X007018Y001865D01*
X007782Y001865D01*
X007932Y001927D01*
X008048Y002043D01*
X008110Y002193D01*
X008110Y002357D01*
X008048Y002507D01*
X007932Y002623D01*
X007782Y002685D01*
X007018Y002685D01*
X006868Y002623D01*
X006759Y002514D02*
X004465Y002514D01*
X004422Y002557D02*
X004557Y002422D01*
X004630Y002245D01*
X004630Y002055D01*
X004557Y001878D01*
X004422Y001743D01*
X004245Y001670D01*
X004055Y001670D01*
X003878Y001743D01*
X003743Y001878D01*
X003670Y002055D01*
X003670Y002245D01*
X003743Y002422D01*
X003878Y002557D01*
X004055Y002630D01*
X004245Y002630D01*
X004422Y002557D01*
X004560Y002416D02*
X006714Y002416D01*
X006690Y002317D02*
X004600Y002317D01*
X004630Y002219D02*
X006690Y002219D01*
X006720Y002120D02*
X004630Y002120D01*
X004616Y002022D02*
X006774Y002022D01*
X006878Y001923D02*
X004576Y001923D01*
X004503Y001825D02*
X009797Y001825D01*
X009724Y001923D02*
X007922Y001923D01*
X008026Y002022D02*
X009684Y002022D01*
X009670Y002120D02*
X008080Y002120D01*
X008110Y002219D02*
X009670Y002219D01*
X009700Y002317D02*
X008110Y002317D01*
X008086Y002416D02*
X009740Y002416D01*
X009835Y002514D02*
X008041Y002514D01*
X007942Y002613D02*
X010012Y002613D01*
X010288Y002613D02*
X010730Y002613D01*
X010730Y002711D02*
X010344Y002711D01*
X010488Y002810D02*
X010730Y002810D01*
X010730Y002908D02*
X010569Y002908D01*
X010610Y003007D02*
X010730Y003007D01*
X010730Y003105D02*
X010630Y003105D01*
X010630Y003204D02*
X010730Y003204D01*
X010730Y003302D02*
X010607Y003302D01*
X010566Y003401D02*
X010730Y003401D01*
X010759Y003499D02*
X010480Y003499D01*
X011070Y003302D02*
X011312Y003302D01*
X011213Y003204D02*
X011070Y003204D01*
X011070Y003105D02*
X011115Y003105D01*
X011141Y003401D02*
X011521Y003401D01*
X011621Y003499D02*
X011239Y003499D01*
X011320Y003598D02*
X013950Y003598D01*
X013950Y003696D02*
X011320Y003696D01*
X011320Y003795D02*
X011637Y003795D01*
X011618Y003802D02*
X011768Y003740D01*
X012532Y003740D01*
X012682Y003802D01*
X012798Y003918D01*
X012860Y004068D01*
X012860Y004232D01*
X012798Y004382D01*
X012682Y004498D01*
X012532Y004560D01*
X011768Y004560D01*
X011618Y004498D01*
X011502Y004382D01*
X011440Y004232D01*
X011440Y004068D01*
X011502Y003918D01*
X011618Y003802D01*
X011527Y003893D02*
X011320Y003893D01*
X011320Y003992D02*
X011472Y003992D01*
X011440Y004090D02*
X011320Y004090D01*
X011320Y004189D02*
X011440Y004189D01*
X011463Y004287D02*
X011320Y004287D01*
X011320Y004386D02*
X011506Y004386D01*
X011604Y004484D02*
X011320Y004484D01*
X011320Y004583D02*
X013950Y004583D01*
X013950Y004681D02*
X011320Y004681D01*
X011320Y004780D02*
X011673Y004780D01*
X011542Y004878D02*
X011368Y004878D01*
X011467Y004977D02*
X011478Y004977D01*
X011183Y005174D02*
X011070Y005174D01*
X011070Y005272D02*
X011282Y005272D01*
X011111Y005371D02*
X011498Y005371D01*
X011589Y005469D02*
X011209Y005469D01*
X011308Y005568D02*
X013950Y005568D01*
X013950Y005666D02*
X011320Y005666D01*
X011320Y005765D02*
X011709Y005765D01*
X011557Y005863D02*
X011320Y005863D01*
X011320Y005962D02*
X011484Y005962D01*
X011443Y006060D02*
X011320Y006060D01*
X011320Y006159D02*
X011440Y006159D01*
X011451Y006257D02*
X011320Y006257D01*
X011320Y006356D02*
X011491Y006356D01*
X011574Y006454D02*
X011320Y006454D01*
X010980Y006159D02*
X010899Y006159D01*
X010926Y005666D02*
X007971Y005666D01*
X006796Y006750D02*
X004428Y006750D01*
X004527Y006848D02*
X006730Y006848D01*
X006690Y006947D02*
X004585Y006947D01*
X004626Y007045D02*
X004890Y007045D01*
X004791Y007144D02*
X004630Y007144D01*
X004630Y007242D02*
X004693Y007242D01*
X004594Y007341D02*
X004591Y007341D01*
X003685Y008917D02*
X003624Y008917D01*
X003647Y009015D02*
X003570Y009015D01*
X004100Y009311D02*
X004200Y009311D01*
X004200Y009409D02*
X004100Y009409D01*
X004100Y009508D02*
X004200Y009508D01*
X004200Y009606D02*
X004100Y009606D01*
X004329Y009705D02*
X006825Y009705D01*
X006742Y009606D02*
X004400Y009606D01*
X004528Y009508D02*
X006701Y009508D01*
X006690Y009409D02*
X004602Y009409D01*
X004645Y009311D02*
X006693Y009311D01*
X007002Y009803D02*
X004482Y009803D01*
X002980Y008621D02*
X000350Y008621D01*
X000350Y008523D02*
X001678Y008523D01*
X001544Y008424D02*
X000350Y008424D01*
X000350Y008326D02*
X001479Y008326D01*
X001440Y008227D02*
X000350Y008227D01*
X000350Y008129D02*
X001440Y008129D01*
X001456Y008030D02*
X000350Y008030D01*
X000350Y007932D02*
X001497Y007932D01*
X001587Y007833D02*
X000350Y007833D01*
X000350Y007735D02*
X003075Y007735D01*
X002977Y007833D02*
X002713Y007833D01*
X002803Y007932D02*
X002878Y007932D01*
X002821Y008326D02*
X002980Y008326D01*
X002980Y008424D02*
X002756Y008424D01*
X002622Y008523D02*
X002980Y008523D01*
X001574Y006454D02*
X000350Y006454D01*
X000350Y006356D02*
X001491Y006356D01*
X001451Y006257D02*
X000350Y006257D01*
X000350Y006159D02*
X001440Y006159D01*
X001443Y006060D02*
X000350Y006060D01*
X000350Y005962D02*
X001484Y005962D01*
X001557Y005863D02*
X000350Y005863D01*
X000350Y005765D02*
X001709Y005765D01*
X001768Y005560D02*
X001618Y005498D01*
X001502Y005382D01*
X001440Y005232D01*
X001440Y005068D01*
X001502Y004918D01*
X001618Y004802D01*
X001768Y004740D01*
X002532Y004740D01*
X002682Y004802D01*
X002798Y004918D01*
X002860Y005068D01*
X002860Y005232D01*
X002798Y005382D01*
X002682Y005498D01*
X002532Y005560D01*
X001768Y005560D01*
X001589Y005469D02*
X000350Y005469D01*
X000350Y005371D02*
X001498Y005371D01*
X001457Y005272D02*
X000350Y005272D01*
X000350Y005174D02*
X001440Y005174D01*
X001440Y005075D02*
X000350Y005075D01*
X000350Y004977D02*
X001478Y004977D01*
X001542Y004878D02*
X000350Y004878D01*
X000350Y004780D02*
X001673Y004780D01*
X001604Y004484D02*
X000350Y004484D01*
X000350Y004386D02*
X001506Y004386D01*
X001463Y004287D02*
X000350Y004287D01*
X000350Y004189D02*
X001440Y004189D01*
X001440Y004090D02*
X000350Y004090D01*
X000350Y003992D02*
X001472Y003992D01*
X001527Y003893D02*
X000350Y003893D01*
X000350Y003795D02*
X001637Y003795D01*
X001768Y003560D02*
X001618Y003498D01*
X001502Y003382D01*
X001440Y003232D01*
X001440Y003068D01*
X001502Y002918D01*
X001618Y002802D01*
X001768Y002740D01*
X002532Y002740D01*
X002682Y002802D01*
X002798Y002918D01*
X002860Y003068D01*
X002860Y003232D01*
X002798Y003382D01*
X002682Y003498D01*
X002532Y003560D01*
X001768Y003560D01*
X001621Y003499D02*
X000350Y003499D01*
X000350Y003401D02*
X001521Y003401D01*
X001469Y003302D02*
X000350Y003302D01*
X000350Y003204D02*
X001440Y003204D01*
X001440Y003105D02*
X000350Y003105D01*
X000350Y003007D02*
X001466Y003007D01*
X001512Y002908D02*
X000350Y002908D01*
X000350Y002810D02*
X001611Y002810D01*
X001569Y002250D02*
X001231Y002250D01*
X000919Y002121D01*
X000679Y001881D01*
X000550Y001569D01*
X000550Y001231D01*
X000679Y000919D01*
X000919Y000679D01*
X001231Y000550D01*
X001569Y000550D01*
X001881Y000679D01*
X002121Y000919D01*
X002250Y001231D01*
X002250Y001569D01*
X002121Y001881D01*
X001881Y002121D01*
X001569Y002250D01*
X001645Y002219D02*
X003670Y002219D01*
X003670Y002120D02*
X001882Y002120D01*
X001981Y002022D02*
X003684Y002022D01*
X003724Y001923D02*
X002079Y001923D01*
X002144Y001825D02*
X003797Y001825D01*
X003919Y001726D02*
X002185Y001726D01*
X002226Y001628D02*
X004048Y001628D01*
X004252Y001628D02*
X006820Y001628D01*
X006807Y001618D02*
X006757Y001568D01*
X006715Y001511D01*
X006683Y001448D01*
X006661Y001380D01*
X006652Y001325D01*
X007350Y001325D01*
X007350Y001725D01*
X007065Y001725D01*
X006995Y001714D01*
X006927Y001692D01*
X006864Y001660D01*
X006807Y001618D01*
X006728Y001529D02*
X004450Y001529D01*
X004548Y001431D02*
X006677Y001431D01*
X006653Y001332D02*
X004594Y001332D01*
X004630Y001234D02*
X007350Y001234D01*
X007350Y001225D02*
X006652Y001225D01*
X006661Y001170D01*
X006683Y001102D01*
X006715Y001039D01*
X006757Y000982D01*
X006807Y000932D01*
X006864Y000890D01*
X006927Y000858D01*
X006995Y000836D01*
X007065Y000825D01*
X007350Y000825D01*
X007350Y001225D01*
X007450Y001225D01*
X007450Y001325D01*
X007350Y001325D01*
X007350Y001225D01*
X007350Y001135D02*
X007450Y001135D01*
X007450Y001225D02*
X007450Y000825D01*
X007735Y000825D01*
X007805Y000836D01*
X007873Y000858D01*
X007936Y000890D01*
X007993Y000932D01*
X008043Y000982D01*
X008085Y001039D01*
X008117Y001102D01*
X008139Y001170D01*
X008148Y001225D01*
X007450Y001225D01*
X007450Y001234D02*
X009670Y001234D01*
X009670Y001135D02*
X008128Y001135D01*
X008083Y001037D02*
X009677Y001037D01*
X009718Y000938D02*
X007999Y000938D01*
X007816Y000840D02*
X009782Y000840D01*
X009706Y001332D02*
X008147Y001332D01*
X008148Y001325D02*
X008139Y001380D01*
X008117Y001448D01*
X008085Y001511D01*
X008043Y001568D01*
X007993Y001618D01*
X007936Y001660D01*
X007873Y001692D01*
X007805Y001714D01*
X007735Y001725D01*
X007450Y001725D01*
X007450Y001325D01*
X008148Y001325D01*
X008123Y001431D02*
X009752Y001431D01*
X009850Y001529D02*
X008072Y001529D01*
X007980Y001628D02*
X010048Y001628D01*
X009919Y001726D02*
X004381Y001726D01*
X003850Y001529D02*
X002250Y001529D01*
X002250Y001431D02*
X003752Y001431D01*
X003706Y001332D02*
X002250Y001332D01*
X002250Y001234D02*
X003670Y001234D01*
X003670Y001135D02*
X002210Y001135D01*
X002169Y001037D02*
X003677Y001037D01*
X003718Y000938D02*
X002129Y000938D01*
X002042Y000840D02*
X003782Y000840D01*
X003883Y000741D02*
X001943Y000741D01*
X001792Y000643D02*
X004417Y000643D01*
X004516Y000544D02*
X000350Y000544D01*
X000350Y000446D02*
X013950Y000446D01*
X013950Y000544D02*
X011034Y000544D01*
X011133Y000643D02*
X012508Y000643D01*
X012419Y000679D02*
X012731Y000550D01*
X013069Y000550D01*
X013381Y000679D01*
X013621Y000919D01*
X013750Y001231D01*
X013750Y001569D01*
X013621Y001881D01*
X013381Y002121D01*
X013069Y002250D01*
X012731Y002250D01*
X012419Y002121D01*
X012179Y001881D01*
X012050Y001569D01*
X012050Y001231D01*
X012179Y000919D01*
X012419Y000679D01*
X012357Y000741D02*
X011231Y000741D01*
X011320Y000840D02*
X012258Y000840D01*
X012171Y000938D02*
X011320Y000938D01*
X011320Y001037D02*
X012131Y001037D01*
X012090Y001135D02*
X011320Y001135D01*
X011320Y001234D02*
X012050Y001234D01*
X012050Y001332D02*
X011320Y001332D01*
X011320Y001431D02*
X012050Y001431D01*
X012050Y001529D02*
X011320Y001529D01*
X011320Y001628D02*
X012074Y001628D01*
X012115Y001726D02*
X011320Y001726D01*
X011320Y001825D02*
X012156Y001825D01*
X012221Y001923D02*
X011320Y001923D01*
X011320Y002022D02*
X012319Y002022D01*
X012418Y002120D02*
X011320Y002120D01*
X011320Y002219D02*
X012655Y002219D01*
X013145Y002219D02*
X013950Y002219D01*
X013950Y002317D02*
X011320Y002317D01*
X011320Y002416D02*
X013950Y002416D01*
X013950Y002514D02*
X011320Y002514D01*
X011320Y002613D02*
X013950Y002613D01*
X013950Y002711D02*
X011320Y002711D01*
X011320Y002810D02*
X011611Y002810D01*
X011512Y002908D02*
X011398Y002908D01*
X010730Y002514D02*
X010465Y002514D01*
X010560Y002416D02*
X010675Y002416D01*
X010959Y002219D02*
X010980Y002219D01*
X010980Y002120D02*
X010860Y002120D01*
X010820Y002080D02*
X010820Y002080D01*
X010762Y002022D02*
X010980Y002022D01*
X010980Y001923D02*
X010576Y001923D01*
X010503Y001825D02*
X010980Y001825D01*
X010980Y001726D02*
X010381Y001726D01*
X010252Y001628D02*
X010980Y001628D01*
X010980Y001529D02*
X010450Y001529D01*
X010548Y001431D02*
X010980Y001431D01*
X010980Y001332D02*
X010594Y001332D01*
X010630Y001234D02*
X010980Y001234D01*
X010980Y001135D02*
X010630Y001135D01*
X010623Y001037D02*
X010980Y001037D01*
X010948Y000938D02*
X010582Y000938D01*
X010518Y000840D02*
X010849Y000840D01*
X012689Y002810D02*
X013950Y002810D01*
X013950Y002908D02*
X012788Y002908D01*
X012834Y003007D02*
X013950Y003007D01*
X013950Y003105D02*
X012860Y003105D01*
X012860Y003204D02*
X013950Y003204D01*
X013950Y003302D02*
X012831Y003302D01*
X012779Y003401D02*
X013950Y003401D01*
X013950Y003499D02*
X012679Y003499D01*
X012663Y003795D02*
X013950Y003795D01*
X013950Y003893D02*
X012773Y003893D01*
X012828Y003992D02*
X013950Y003992D01*
X013950Y004090D02*
X012860Y004090D01*
X012860Y004189D02*
X013950Y004189D01*
X013950Y004287D02*
X012837Y004287D01*
X012794Y004386D02*
X013950Y004386D01*
X013950Y004484D02*
X012696Y004484D01*
X012627Y004780D02*
X013950Y004780D01*
X013950Y004878D02*
X012758Y004878D01*
X012822Y004977D02*
X013950Y004977D01*
X013950Y005075D02*
X012860Y005075D01*
X012860Y005174D02*
X013950Y005174D01*
X013950Y005272D02*
X012843Y005272D01*
X012802Y005371D02*
X013950Y005371D01*
X013950Y005469D02*
X012711Y005469D01*
X012591Y005765D02*
X013950Y005765D01*
X013950Y005863D02*
X012743Y005863D01*
X012816Y005962D02*
X013950Y005962D01*
X013950Y006060D02*
X012857Y006060D01*
X012860Y006159D02*
X013950Y006159D01*
X013950Y006257D02*
X012849Y006257D01*
X012809Y006356D02*
X013950Y006356D01*
X013950Y006454D02*
X012726Y006454D01*
X011085Y005075D02*
X011070Y005075D01*
X010980Y004189D02*
X010929Y004189D01*
X013382Y002120D02*
X013950Y002120D01*
X013950Y002022D02*
X013481Y002022D01*
X013579Y001923D02*
X013950Y001923D01*
X013950Y001825D02*
X013644Y001825D01*
X013685Y001726D02*
X013950Y001726D01*
X013950Y001628D02*
X013726Y001628D01*
X013750Y001529D02*
X013950Y001529D01*
X013950Y001431D02*
X013750Y001431D01*
X013750Y001332D02*
X013950Y001332D01*
X013950Y001234D02*
X013750Y001234D01*
X013710Y001135D02*
X013950Y001135D01*
X013950Y001037D02*
X013669Y001037D01*
X013629Y000938D02*
X013950Y000938D01*
X013950Y000840D02*
X013542Y000840D01*
X013443Y000741D02*
X013950Y000741D01*
X013950Y000643D02*
X013292Y000643D01*
X007450Y000840D02*
X007350Y000840D01*
X007350Y000938D02*
X007450Y000938D01*
X007450Y001037D02*
X007350Y001037D01*
X007350Y001332D02*
X007450Y001332D01*
X007450Y001431D02*
X007350Y001431D01*
X007350Y001529D02*
X007450Y001529D01*
X007450Y001628D02*
X007350Y001628D01*
X006984Y000840D02*
X004701Y000840D01*
X004602Y000938D02*
X006801Y000938D01*
X006717Y001037D02*
X004623Y001037D01*
X004630Y001135D02*
X006672Y001135D01*
X006995Y003211D02*
X007065Y003200D01*
X007350Y003200D01*
X007350Y003600D01*
X006652Y003600D01*
X006661Y003545D01*
X006683Y003477D01*
X006715Y003414D01*
X006757Y003357D01*
X006807Y003307D01*
X006864Y003265D01*
X006927Y003233D01*
X006995Y003211D01*
X007042Y003204D02*
X005570Y003204D01*
X005547Y003181D02*
X005682Y003316D01*
X005755Y003492D01*
X005755Y003683D01*
X005682Y003859D01*
X005547Y003994D01*
X005370Y004067D01*
X005180Y004067D01*
X005003Y003994D01*
X004868Y003859D01*
X004795Y003683D01*
X004795Y003492D01*
X004868Y003316D01*
X005003Y003181D01*
X005180Y003108D01*
X005370Y003108D01*
X005547Y003181D01*
X005668Y003302D02*
X006813Y003302D01*
X006725Y003401D02*
X005717Y003401D01*
X005755Y003499D02*
X006676Y003499D01*
X006653Y003598D02*
X005755Y003598D01*
X005750Y003696D02*
X007350Y003696D01*
X007350Y003598D02*
X007450Y003598D01*
X007450Y003499D02*
X007350Y003499D01*
X007350Y003401D02*
X007450Y003401D01*
X007450Y003302D02*
X007350Y003302D01*
X007350Y003204D02*
X007450Y003204D01*
X006805Y003992D02*
X005550Y003992D01*
X005648Y003893D02*
X006720Y003893D01*
X006674Y003795D02*
X005709Y003795D01*
X005000Y003992D02*
X004604Y003992D01*
X004630Y004055D02*
X004557Y003878D01*
X004422Y003743D01*
X004245Y003670D01*
X004055Y003670D01*
X003878Y003743D01*
X003743Y003878D01*
X003670Y004055D01*
X003670Y004245D01*
X003743Y004422D01*
X003878Y004557D01*
X004055Y004630D01*
X004245Y004630D01*
X004422Y004557D01*
X004557Y004422D01*
X004630Y004245D01*
X004630Y004055D01*
X004630Y004090D02*
X007002Y004090D01*
X004995Y004189D02*
X004630Y004189D01*
X004613Y004287D02*
X004897Y004287D01*
X004839Y004386D02*
X004572Y004386D01*
X004495Y004484D02*
X004798Y004484D01*
X004795Y004583D02*
X004360Y004583D01*
X004272Y004681D02*
X004795Y004681D01*
X004835Y004780D02*
X004458Y004780D01*
X004557Y004878D02*
X004887Y004878D01*
X004028Y004681D02*
X000350Y004681D01*
X000350Y004583D02*
X003940Y004583D01*
X003805Y004484D02*
X002696Y004484D01*
X002794Y004386D02*
X003728Y004386D01*
X003687Y004287D02*
X003003Y004287D01*
X003102Y004189D02*
X003670Y004189D01*
X003670Y004090D02*
X003200Y004090D01*
X003299Y003992D02*
X003696Y003992D01*
X003737Y003893D02*
X003397Y003893D01*
X003445Y003795D02*
X003827Y003795D01*
X003992Y003696D02*
X003445Y003696D01*
X003445Y003598D02*
X003976Y003598D01*
X003820Y003499D02*
X003541Y003499D01*
X003640Y003401D02*
X003734Y003401D01*
X003455Y003105D02*
X002860Y003105D01*
X002860Y003204D02*
X003356Y003204D01*
X003258Y003302D02*
X002831Y003302D01*
X002779Y003401D02*
X003159Y003401D01*
X003105Y003499D02*
X002679Y003499D01*
X002663Y003795D02*
X003015Y003795D01*
X003105Y003696D02*
X000350Y003696D01*
X000350Y003598D02*
X003105Y003598D01*
X002917Y003893D02*
X002773Y003893D01*
X002834Y003007D02*
X003553Y003007D01*
X003731Y002908D02*
X002788Y002908D01*
X002689Y002810D02*
X003812Y002810D01*
X003956Y002711D02*
X000350Y002711D01*
X000350Y002613D02*
X004012Y002613D01*
X003835Y002514D02*
X000350Y002514D01*
X000350Y002416D02*
X003740Y002416D01*
X003700Y002317D02*
X000350Y002317D01*
X000350Y002219D02*
X001155Y002219D01*
X000918Y002120D02*
X000350Y002120D01*
X000350Y002022D02*
X000819Y002022D01*
X000721Y001923D02*
X000350Y001923D01*
X000350Y001825D02*
X000656Y001825D01*
X000615Y001726D02*
X000350Y001726D01*
X000350Y001628D02*
X000574Y001628D01*
X000550Y001529D02*
X000350Y001529D01*
X000350Y001431D02*
X000550Y001431D01*
X000550Y001332D02*
X000350Y001332D01*
X000350Y001234D02*
X000550Y001234D01*
X000590Y001135D02*
X000350Y001135D01*
X000350Y001037D02*
X000631Y001037D01*
X000671Y000938D02*
X000350Y000938D01*
X000350Y000840D02*
X000758Y000840D01*
X000857Y000741D02*
X000350Y000741D01*
X000350Y000643D02*
X001008Y000643D01*
X004324Y003598D02*
X004795Y003598D01*
X004800Y003696D02*
X004308Y003696D01*
X004473Y003795D02*
X004841Y003795D01*
X004902Y003893D02*
X004563Y003893D01*
X004480Y003499D02*
X004795Y003499D01*
X004833Y003401D02*
X004566Y003401D01*
X004607Y003302D02*
X004882Y003302D01*
X004980Y003204D02*
X004630Y003204D01*
X003842Y004780D02*
X002627Y004780D01*
X002758Y004878D02*
X003743Y004878D01*
X003702Y004977D02*
X002822Y004977D01*
X002860Y005075D02*
X003485Y005075D01*
X003386Y005174D02*
X002860Y005174D01*
X002843Y005272D02*
X003288Y005272D01*
X003189Y005371D02*
X002802Y005371D01*
X002711Y005469D02*
X003105Y005469D01*
X003105Y005568D02*
X000350Y005568D01*
X000350Y005666D02*
X003105Y005666D01*
X003045Y005765D02*
X002591Y005765D01*
X002743Y005863D02*
X002947Y005863D01*
X002848Y005962D02*
X002816Y005962D01*
X003571Y005469D02*
X003790Y005469D01*
X003722Y005371D02*
X003670Y005371D01*
X007956Y008030D02*
X009680Y008030D01*
X009670Y008129D02*
X008059Y008129D01*
X008117Y008227D02*
X008139Y008295D01*
X008148Y008350D01*
X007450Y010394D02*
X007350Y010394D01*
X007350Y010493D02*
X007450Y010493D01*
X007450Y010591D02*
X007350Y010591D01*
X007350Y010887D02*
X007450Y010887D01*
X007450Y010985D02*
X007350Y010985D01*
X007350Y011084D02*
X007450Y011084D01*
X007450Y011182D02*
X007350Y011182D01*
X007815Y011379D02*
X009725Y011379D01*
X009799Y011478D02*
X007982Y011478D01*
X009678Y012266D02*
X004622Y012266D01*
X004581Y012364D02*
X009719Y012364D01*
X009784Y012463D02*
X004516Y012463D01*
X004412Y012561D02*
X009888Y012561D01*
X010412Y012561D02*
X010821Y012561D01*
X010722Y012463D02*
X010516Y012463D01*
X010581Y012364D02*
X010624Y012364D01*
X011195Y012660D02*
X013950Y012660D01*
X013950Y012758D02*
X012575Y012758D01*
X012736Y012857D02*
X013950Y012857D01*
X013950Y012955D02*
X012813Y012955D01*
X012854Y013054D02*
X013950Y013054D01*
X013950Y013152D02*
X012860Y013152D01*
X012852Y013251D02*
X013950Y013251D01*
X013950Y013349D02*
X012811Y013349D01*
X012732Y013448D02*
X013950Y013448D01*
X013950Y013546D02*
X012565Y013546D01*
X011725Y012758D02*
X011248Y012758D01*
X011347Y012857D02*
X011564Y012857D01*
X011487Y012955D02*
X011445Y012955D01*
X011598Y011478D02*
X010501Y011478D01*
X010575Y011379D02*
X011501Y011379D01*
X011040Y011281D02*
X010615Y011281D01*
X010630Y011182D02*
X010942Y011182D01*
X010843Y011084D02*
X010630Y011084D01*
X010601Y010985D02*
X010745Y010985D01*
X010730Y010887D02*
X010560Y010887D01*
X010467Y010788D02*
X010730Y010788D01*
X010730Y010690D02*
X010293Y010690D01*
X010340Y010591D02*
X010730Y010591D01*
X011070Y009606D02*
X013950Y009606D01*
X013950Y009508D02*
X012658Y009508D01*
X012771Y009409D02*
X013950Y009409D01*
X013950Y009311D02*
X012827Y009311D01*
X012860Y009212D02*
X013950Y009212D01*
X013950Y009114D02*
X012860Y009114D01*
X012838Y009015D02*
X013950Y009015D01*
X013950Y008917D02*
X012796Y008917D01*
X012698Y008818D02*
X013950Y008818D01*
X013950Y008720D02*
X011320Y008720D01*
X011320Y008818D02*
X011602Y008818D01*
X011504Y008917D02*
X011407Y008917D01*
X011123Y009114D02*
X011070Y009114D01*
X011070Y009212D02*
X011222Y009212D01*
X011320Y009311D02*
X011070Y009311D01*
X011070Y009409D02*
X011529Y009409D01*
X011642Y009508D02*
X011070Y009508D01*
D14*
X011400Y009150D02*
X011150Y008900D01*
X011150Y007650D01*
X010900Y007400D01*
X010900Y006400D01*
X010650Y006150D01*
X010150Y006150D01*
X010900Y005400D02*
X010900Y004400D01*
X010650Y004150D01*
X010150Y004150D01*
X010900Y003400D02*
X010900Y002400D01*
X010650Y002150D01*
X010150Y002150D01*
X011150Y002900D02*
X011150Y000900D01*
X010900Y000650D01*
X004650Y000650D01*
X004150Y001150D01*
X004150Y003150D02*
X003650Y003150D01*
X003275Y003525D01*
X003275Y003775D01*
X002900Y004150D01*
X002150Y004150D01*
X003275Y005525D02*
X003275Y005775D01*
X002900Y006150D01*
X002150Y006150D01*
X003275Y005525D02*
X003650Y005150D01*
X004150Y005150D01*
X004150Y007150D02*
X003650Y007150D01*
X003275Y007525D01*
X003275Y007775D01*
X002900Y008150D01*
X002150Y008150D01*
X003150Y008275D02*
X003150Y009900D01*
X002900Y010150D01*
X002150Y010150D01*
X002150Y011150D02*
X003150Y011150D01*
X003400Y010900D01*
X003400Y008900D01*
X003650Y008650D01*
X004525Y008650D01*
X004775Y008400D01*
X004775Y008150D01*
X005275Y007650D01*
X005025Y007150D02*
X005650Y007150D01*
X005900Y007400D01*
X005900Y008025D01*
X005275Y008650D01*
X004525Y007650D02*
X005025Y007150D01*
X004525Y007650D02*
X003775Y007650D01*
X003150Y008275D01*
X010150Y008150D02*
X010650Y008150D01*
X010900Y008400D01*
X010900Y010900D01*
X011150Y011150D01*
X012150Y011150D01*
X011025Y012525D02*
X010650Y012150D01*
X010150Y012150D01*
X011025Y012525D02*
X011025Y012775D01*
X011400Y013150D01*
X012150Y013150D01*
X012150Y009150D02*
X011400Y009150D01*
X011400Y007150D02*
X011150Y006900D01*
X011150Y005650D01*
X010900Y005400D01*
X011150Y004900D02*
X011150Y003650D01*
X010900Y003400D01*
X011400Y003150D02*
X011150Y002900D01*
X011400Y003150D02*
X012150Y003150D01*
X011150Y004900D02*
X011400Y005150D01*
X012150Y005150D01*
X012150Y007150D02*
X011400Y007150D01*
M02*
