%
M48
M72
T01C0.0400
T02C0.1300
%
T01
X2150Y3150
X2150Y4150
X2150Y5150
X2150Y6150
X2150Y7150
X2150Y8150
X2150Y9150
X2150Y10150
X2150Y11150
X2150Y12150
X2150Y13150
X4150Y12150
X4150Y11150
X4150Y10150
X4150Y9150
X4150Y8150
X4150Y7150
X4150Y6150
X4150Y5150
X4150Y4150
X4150Y3150
X4150Y2150
X4150Y1150
X5275Y3588
X5275Y4588
X7400Y4650
X7400Y3650
X7400Y2275
X7400Y1275
X10150Y1150
X10150Y2150
X10150Y3150
X10150Y4150
X10150Y5150
X10150Y6150
X10150Y7150
X10150Y8150
X10150Y9150
X10150Y10150
X10150Y11150
X10150Y12150
X9650Y13150
X8650Y13150
X7650Y13150
X6650Y13150
X5650Y13150
X4650Y13150
X6650Y14900
X7650Y14900
X7400Y11775
X7400Y10775
X7400Y9400
X7400Y8400
X7400Y7025
X7400Y6025
X5275Y7713
X5275Y8713
X12150Y9150
X12150Y10150
X12150Y11150
X12150Y12150
X12150Y13150
X12150Y8150
X12150Y7150
X12150Y6150
X12150Y5150
X12150Y4150
X12150Y3150
T02
X1400Y1400
X12900Y1400
X12900Y14900
X1400Y14900
M30
